<?xml version="1.0" encoding="UTF-8" standalone="no"?>
<!DOCTYPE svg PUBLIC "-//W3C//DTD SVG 1.1//EN"
 "http://www.w3.org/Graphics/SVG/1.1/DTD/svg11.dtd">
<!-- Generated by graphviz version 2.38.0 (20140413.2041)
 -->
<!-- Title: %3 Pages: 1 -->
<svg width="718pt" height="370pt"
 viewBox="0.00 0.00 718.00 370.00" xmlns="http://www.w3.org/2000/svg" xmlns:xlink="http://www.w3.org/1999/xlink">
<g id="graph0" class="graph" transform="scale(1 1) rotate(0) translate(4 366)">
<title>%3</title>
<!-- Installation -->
<g id="node1" class="node"><title>Installation</title>
<g id="a_node1"><a xlink:href="../INSTALL.html" xlink:title="Installation">
<path fill="white" stroke="black" stroke-width="2" d="M65,-307C65,-307 12,-307 12,-307 6,-307 0,-301 0,-295 0,-295 0,-283 0,-283 0,-277 6,-271 12,-271 12,-271 65,-271 65,-271 71,-271 77,-277 77,-283 77,-283 77,-295 77,-295 77,-301 71,-307 65,-307"/>
<text text-anchor="middle" x="38.5" y="-285.3" font-family="Times New Roman,serif" font-size="14.00">Installation</text>
</a>
</g>
</g>
<!-- Overview -->
<g id="node2" class="node"><title>Overview</title>
<g id="a_node2"><a xlink:href="../labs/Overview/Overview.html" xlink:title="Overview">
<path fill="white" stroke="black" stroke-width="2" d="M61.5,-253C61.5,-253 15.5,-253 15.5,-253 9.5,-253 3.5,-247 3.5,-241 3.5,-241 3.5,-229 3.5,-229 3.5,-223 9.5,-217 15.5,-217 15.5,-217 61.5,-217 61.5,-217 67.5,-217 73.5,-223 73.5,-229 73.5,-229 73.5,-241 73.5,-241 73.5,-247 67.5,-253 61.5,-253"/>
<text text-anchor="middle" x="38.5" y="-231.3" font-family="Times New Roman,serif" font-size="14.00">Overview</text>
</a>
</g>
</g>
<!-- Installation&#45;&gt;Overview -->
<g id="edge1" class="edge"><title>Installation&#45;&gt;Overview</title>
<path fill="none" stroke="red" d="M38.5,-270.79C38.5,-268.308 38.5,-265.826 38.5,-263.344"/>
<polygon fill="red" stroke="red" points="42.0001,-263.141 38.5,-253.141 35.0001,-263.141 42.0001,-263.141"/>
</g>
<!-- Interpreter -->
<g id="node3" class="node"><title>Interpreter</title>
<g id="a_node3"><a xlink:href="../labs/Interpreter/Interpreter.html" xlink:title="Interpreter">
<path fill="white" stroke="black" stroke-width="2" d="M63.5,-199C63.5,-199 13.5,-199 13.5,-199 7.5,-199 1.5,-193 1.5,-187 1.5,-187 1.5,-175 1.5,-175 1.5,-169 7.5,-163 13.5,-163 13.5,-163 63.5,-163 63.5,-163 69.5,-163 75.5,-169 75.5,-175 75.5,-175 75.5,-187 75.5,-187 75.5,-193 69.5,-199 63.5,-199"/>
<text text-anchor="middle" x="38.5" y="-177.3" font-family="Times New Roman,serif" font-size="14.00">Interpreter</text>
</a>
</g>
</g>
<!-- Overview&#45;&gt;Interpreter -->
<g id="edge2" class="edge"><title>Overview&#45;&gt;Interpreter</title>
<path fill="none" stroke="red" d="M38.5,-216.79C38.5,-214.308 38.5,-211.826 38.5,-209.344"/>
<polygon fill="red" stroke="red" points="42.0001,-209.141 38.5,-199.141 35.0001,-209.141 42.0001,-209.141"/>
</g>
<!-- LanguageBasics -->
<g id="node4" class="node"><title>LanguageBasics</title>
<g id="a_node4"><a xlink:href="../labs/Language/Basics.html" xlink:title="Language\nBasics">
<path fill="white" stroke="black" stroke-width="2" d="M61.5,-145C61.5,-145 15.5,-145 15.5,-145 9.5,-145 3.5,-139 3.5,-133 3.5,-133 3.5,-119 3.5,-119 3.5,-113 9.5,-107 15.5,-107 15.5,-107 61.5,-107 61.5,-107 67.5,-107 73.5,-113 73.5,-119 73.5,-119 73.5,-133 73.5,-133 73.5,-139 67.5,-145 61.5,-145"/>
<text text-anchor="middle" x="38.5" y="-129.8" font-family="Times New Roman,serif" font-size="14.00">Language</text>
<text text-anchor="middle" x="38.5" y="-114.8" font-family="Times New Roman,serif" font-size="14.00">Basics</text>
</a>
</g>
</g>
<!-- Interpreter&#45;&gt;LanguageBasics -->
<g id="edge3" class="edge"><title>Interpreter&#45;&gt;LanguageBasics</title>
<path fill="none" stroke="red" d="M38.5,-162.889C38.5,-160.421 38.5,-157.952 38.5,-155.484"/>
<polygon fill="red" stroke="red" points="42.0001,-155.336 38.5,-145.336 35.0001,-155.336 42.0001,-155.336"/>
</g>
<!-- CRC -->
<g id="node5" class="node"><title>CRC</title>
<g id="a_node5"><a xlink:href="../labs/CRC/CRC.html" xlink:title="CRC">
<path fill="white" stroke="black" stroke-width="2" d="M179.5,-252C179.5,-252 149.5,-252 149.5,-252 143.5,-252 137.5,-246 137.5,-240 137.5,-240 137.5,-228 137.5,-228 137.5,-222 143.5,-216 149.5,-216 149.5,-216 179.5,-216 179.5,-216 185.5,-216 191.5,-222 191.5,-228 191.5,-228 191.5,-240 191.5,-240 191.5,-246 185.5,-252 179.5,-252"/>
<text text-anchor="middle" x="164.5" y="-230.3" font-family="Times New Roman,serif" font-size="14.00">CRC</text>
</a>
</g>
</g>
<!-- LanguageBasics&#45;&gt;CRC -->
<g id="edge4" class="edge"><title>LanguageBasics&#45;&gt;CRC</title>
<path fill="none" stroke="red" d="M67.4241,-145.186C70.799,-147.978 74.08,-150.946 77,-154 96.6803,-174.58 91.8293,-187.956 113,-207 117.546,-211.089 122.822,-214.772 128.215,-218.007"/>
<polygon fill="red" stroke="red" points="126.848,-221.251 137.294,-223.023 130.233,-215.123 126.848,-221.251"/>
</g>
<!-- StyleGuide -->
<g id="node10" class="node"><title>StyleGuide</title>
<g id="a_node10"><a xlink:href="../cryptol-style.html" xlink:title="Style Guide">
<path fill="white" stroke="black" stroke-width="2" d="M193.5,-198C193.5,-198 135.5,-198 135.5,-198 129.5,-198 123.5,-192 123.5,-186 123.5,-186 123.5,-174 123.5,-174 123.5,-168 129.5,-162 135.5,-162 135.5,-162 193.5,-162 193.5,-162 199.5,-162 205.5,-168 205.5,-174 205.5,-174 205.5,-186 205.5,-186 205.5,-192 199.5,-198 193.5,-198"/>
<text text-anchor="middle" x="164.5" y="-176.3" font-family="Times New Roman,serif" font-size="14.00">Style Guide</text>
</a>
</g>
</g>
<!-- LanguageBasics&#45;&gt;StyleGuide -->
<g id="edge9" class="edge"><title>LanguageBasics&#45;&gt;StyleGuide</title>
<path fill="none" stroke="black" d="M73.7118,-140.899C86.1762,-146.327 100.53,-152.578 114.052,-158.466"/>
<polygon fill="black" stroke="black" points="112.682,-161.687 123.247,-162.471 115.477,-155.269 112.682,-161.687"/>
</g>
<!-- CryptolDemos -->
<g id="node11" class="node"><title>CryptolDemos</title>
<g id="a_node11"><a xlink:href="../labs/Demos/Cryptol/Demos.html" xlink:title="Cryptol Demos">
<path fill="white" stroke="black" stroke-width="2" d="M204,-144C204,-144 125,-144 125,-144 119,-144 113,-138 113,-132 113,-132 113,-120 113,-120 113,-114 119,-108 125,-108 125,-108 204,-108 204,-108 210,-108 216,-114 216,-120 216,-120 216,-132 216,-132 216,-138 210,-144 204,-144"/>
<text text-anchor="middle" x="164.5" y="-122.3" font-family="Times New Roman,serif" font-size="14.00">Cryptol Demos</text>
</a>
</g>
</g>
<!-- LanguageBasics&#45;&gt;CryptolDemos -->
<g id="edge10" class="edge"><title>LanguageBasics&#45;&gt;CryptolDemos</title>
<path fill="none" stroke="black" d="M73.7118,-126C82.6501,-126 92.5601,-126 102.438,-126"/>
<polygon fill="black" stroke="black" points="102.679,-129.5 112.679,-126 102.679,-122.5 102.679,-129.5"/>
</g>
<!-- SAWDemos -->
<g id="node12" class="node"><title>SAWDemos</title>
<g id="a_node12"><a xlink:href="../labs/Demos/SAW/Demos.html" xlink:title="SAW Demos">
<path fill="white" stroke="black" stroke-width="2" d="M198.5,-90C198.5,-90 130.5,-90 130.5,-90 124.5,-90 118.5,-84 118.5,-78 118.5,-78 118.5,-66 118.5,-66 118.5,-60 124.5,-54 130.5,-54 130.5,-54 198.5,-54 198.5,-54 204.5,-54 210.5,-60 210.5,-66 210.5,-66 210.5,-78 210.5,-78 210.5,-84 204.5,-90 198.5,-90"/>
<text text-anchor="middle" x="164.5" y="-68.3" font-family="Times New Roman,serif" font-size="14.00">SAW Demos</text>
</a>
</g>
</g>
<!-- LanguageBasics&#45;&gt;SAWDemos -->
<g id="edge11" class="edge"><title>LanguageBasics&#45;&gt;SAWDemos</title>
<path fill="none" stroke="black" d="M73.7118,-111.101C85.7102,-105.876 99.4594,-99.8887 112.532,-94.1956"/>
<polygon fill="black" stroke="black" points="114.126,-97.319 121.897,-90.1173 111.331,-90.9011 114.126,-97.319"/>
</g>
<!-- TypeHackery -->
<g id="node13" class="node"><title>TypeHackery</title>
<g id="a_node13"><a xlink:href="../labs/Language/IntroTypeHackery.html" xlink:title="Type Hackery">
<path fill="white" stroke="black" stroke-width="2" d="M200.5,-36C200.5,-36 128.5,-36 128.5,-36 122.5,-36 116.5,-30 116.5,-24 116.5,-24 116.5,-12 116.5,-12 116.5,-6 122.5,-0 128.5,-0 128.5,-0 200.5,-0 200.5,-0 206.5,-0 212.5,-6 212.5,-12 212.5,-12 212.5,-24 212.5,-24 212.5,-30 206.5,-36 200.5,-36"/>
<text text-anchor="middle" x="164.5" y="-14.3" font-family="Times New Roman,serif" font-size="14.00">Type Hackery</text>
</a>
</g>
</g>
<!-- LanguageBasics&#45;&gt;TypeHackery -->
<g id="edge12" class="edge"><title>LanguageBasics&#45;&gt;TypeHackery</title>
<path fill="none" stroke="black" d="M53.6916,-106.917C67.4587,-89.3123 89.6426,-63.2194 113,-45 114.529,-43.8076 116.117,-42.6403 117.748,-41.501"/>
<polygon fill="black" stroke="black" points="119.674,-44.4235 126.17,-36.0533 115.872,-38.546 119.674,-44.4235"/>
</g>
<!-- Salsa20 -->
<g id="node6" class="node"><title>Salsa20</title>
<g id="a_node6"><a xlink:href="../labs/Salsa20/Salsa20.html" xlink:title="Salsa20">
<path fill="white" stroke="black" stroke-width="2" d="M299,-252C299,-252 264,-252 264,-252 258,-252 252,-246 252,-240 252,-240 252,-228 252,-228 252,-222 258,-216 264,-216 264,-216 299,-216 299,-216 305,-216 311,-222 311,-228 311,-228 311,-240 311,-240 311,-246 305,-252 299,-252"/>
<text text-anchor="middle" x="281.5" y="-230.3" font-family="Times New Roman,serif" font-size="14.00">Salsa20</text>
</a>
</g>
</g>
<!-- CRC&#45;&gt;Salsa20 -->
<g id="edge5" class="edge"><title>CRC&#45;&gt;Salsa20</title>
<path fill="none" stroke="red" d="M191.595,-234C206.273,-234 224.889,-234 241.289,-234"/>
<polygon fill="red" stroke="red" points="241.682,-237.5 251.682,-234 241.682,-230.5 241.682,-237.5"/>
</g>
<!-- CryptographicProperties -->
<g id="node7" class="node"><title>CryptographicProperties</title>
<g id="a_node7"><a xlink:href="../labs/CryptoProofs/CryptoProofs.html" xlink:title="Cryptographic\nProperties">
<path fill="white" stroke="black" stroke-width="2" d="M433,-253C433,-253 359,-253 359,-253 353,-253 347,-247 347,-241 347,-241 347,-227 347,-227 347,-221 353,-215 359,-215 359,-215 433,-215 433,-215 439,-215 445,-221 445,-227 445,-227 445,-241 445,-241 445,-247 439,-253 433,-253"/>
<text text-anchor="middle" x="396" y="-237.8" font-family="Times New Roman,serif" font-size="14.00">Cryptographic</text>
<text text-anchor="middle" x="396" y="-222.8" font-family="Times New Roman,serif" font-size="14.00">Properties</text>
</a>
</g>
</g>
<!-- Salsa20&#45;&gt;CryptographicProperties -->
<g id="edge6" class="edge"><title>Salsa20&#45;&gt;CryptographicProperties</title>
<path fill="none" stroke="red" d="M311.18,-234C318.947,-234 327.646,-234 336.42,-234"/>
<polygon fill="red" stroke="red" points="336.705,-237.5 346.705,-234 336.705,-230.5 336.705,-237.5"/>
</g>
<!-- KeyWrapping -->
<g id="node8" class="node"><title>KeyWrapping</title>
<g id="a_node8"><a xlink:href="../labs/KeyWrapping/KeyWrapping.html" xlink:title="Key Wrapping">
<path fill="white" stroke="black" stroke-width="2" d="M567,-335C567,-335 493,-335 493,-335 487,-335 481,-329 481,-323 481,-323 481,-311 481,-311 481,-305 487,-299 493,-299 493,-299 567,-299 567,-299 573,-299 579,-305 579,-311 579,-311 579,-323 579,-323 579,-329 573,-335 567,-335"/>
<text text-anchor="middle" x="530" y="-313.3" font-family="Times New Roman,serif" font-size="14.00">Key Wrapping</text>
</a>
</g>
</g>
<!-- CryptographicProperties&#45;&gt;KeyWrapping -->
<g id="edge7" class="edge"><title>CryptographicProperties&#45;&gt;KeyWrapping</title>
<path fill="none" stroke="red" d="M424.657,-253.203C440.876,-264.27 461.876,-278.27 481,-290 482.954,-291.198 484.962,-292.409 486.998,-293.619"/>
<polygon fill="red" stroke="red" points="485.615,-296.864 496.016,-298.881 489.143,-290.818 485.615,-296.864"/>
</g>
<!-- Salsa20Properties -->
<g id="node14" class="node"><title>Salsa20Properties</title>
<g id="a_node14"><a xlink:href="../labs/Salsa20/Salsa20Props.html" xlink:title="Salsa20\nProperties">
<path fill="white" stroke="black" stroke-width="2" d="M555,-281C555,-281 505,-281 505,-281 499,-281 493,-275 493,-269 493,-269 493,-255 493,-255 493,-249 499,-243 505,-243 505,-243 555,-243 555,-243 561,-243 567,-249 567,-255 567,-255 567,-269 567,-269 567,-275 561,-281 555,-281"/>
<text text-anchor="middle" x="530" y="-265.8" font-family="Times New Roman,serif" font-size="14.00">Salsa20</text>
<text text-anchor="middle" x="530" y="-250.8" font-family="Times New Roman,serif" font-size="14.00">Properties</text>
</a>
</g>
</g>
<!-- CryptographicProperties&#45;&gt;Salsa20Properties -->
<g id="edge13" class="edge"><title>CryptographicProperties&#45;&gt;Salsa20Properties</title>
<path fill="none" stroke="black" d="M445.028,-244.188C457.353,-246.802 470.582,-249.608 482.811,-252.202"/>
<polygon fill="black" stroke="black" points="482.298,-255.671 492.806,-254.323 483.75,-248.824 482.298,-255.671"/>
</g>
<!-- TranspositionCiphers -->
<g id="node15" class="node"><title>TranspositionCiphers</title>
<g id="a_node15"><a xlink:href="../labs/Transposition/Contents.html" xlink:title="Transposition\nCiphers">
<path fill="white" stroke="black" stroke-width="2" d="M565,-225C565,-225 495,-225 495,-225 489,-225 483,-219 483,-213 483,-213 483,-199 483,-199 483,-193 489,-187 495,-187 495,-187 565,-187 565,-187 571,-187 577,-193 577,-199 577,-199 577,-213 577,-213 577,-219 571,-225 565,-225"/>
<text text-anchor="middle" x="530" y="-209.8" font-family="Times New Roman,serif" font-size="14.00">Transposition</text>
<text text-anchor="middle" x="530" y="-194.8" font-family="Times New Roman,serif" font-size="14.00">Ciphers</text>
</a>
</g>
</g>
<!-- CryptographicProperties&#45;&gt;TranspositionCiphers -->
<g id="edge14" class="edge"><title>CryptographicProperties&#45;&gt;TranspositionCiphers</title>
<path fill="none" stroke="black" d="M445.028,-223.812C454.123,-221.883 463.71,-219.849 473.025,-217.873"/>
<polygon fill="black" stroke="black" points="473.933,-221.259 482.989,-215.76 472.481,-214.411 473.933,-221.259"/>
</g>
<!-- ProjectEuler -->
<g id="node16" class="node"><title>ProjectEuler</title>
<g id="a_node16"><a xlink:href="../labs/ProjectEuler/ProjectEuler.html" xlink:title="Project Euler">
<path fill="white" stroke="black" stroke-width="2" d="M562.5,-169C562.5,-169 497.5,-169 497.5,-169 491.5,-169 485.5,-163 485.5,-157 485.5,-157 485.5,-145 485.5,-145 485.5,-139 491.5,-133 497.5,-133 497.5,-133 562.5,-133 562.5,-133 568.5,-133 574.5,-139 574.5,-145 574.5,-145 574.5,-157 574.5,-157 574.5,-163 568.5,-169 562.5,-169"/>
<text text-anchor="middle" x="530" y="-147.3" font-family="Times New Roman,serif" font-size="14.00">Project Euler</text>
</a>
</g>
</g>
<!-- CryptographicProperties&#45;&gt;ProjectEuler -->
<g id="edge15" class="edge"><title>CryptographicProperties&#45;&gt;ProjectEuler</title>
<path fill="none" stroke="black" d="M424.657,-214.797C440.876,-203.73 461.876,-189.73 481,-178 482.954,-176.802 484.962,-175.591 486.998,-174.381"/>
<polygon fill="black" stroke="black" points="489.143,-177.182 496.016,-169.119 485.615,-171.136 489.143,-177.182"/>
</g>
<!-- Capstone -->
<g id="node9" class="node"><title>Capstone</title>
<g id="a_node9"><a xlink:href="../labs/LoremIpsum/LoremIpsum.html" xlink:title="Capstone">
<path fill="white" stroke="black" stroke-width="2" d="M685.5,-362C685.5,-362 639.5,-362 639.5,-362 633.5,-362 627.5,-356 627.5,-350 627.5,-350 627.5,-338 627.5,-338 627.5,-332 633.5,-326 639.5,-326 639.5,-326 685.5,-326 685.5,-326 691.5,-326 697.5,-332 697.5,-338 697.5,-338 697.5,-350 697.5,-350 697.5,-356 691.5,-362 685.5,-362"/>
<text text-anchor="middle" x="662.5" y="-340.3" font-family="Times New Roman,serif" font-size="14.00">Capstone</text>
</a>
</g>
</g>
<!-- KeyWrapping&#45;&gt;Capstone -->
<g id="edge8" class="edge"><title>KeyWrapping&#45;&gt;Capstone</title>
<path fill="none" stroke="red" d="M579.223,-326.977C591.702,-329.559 605.075,-332.326 617.335,-334.862"/>
<polygon fill="red" stroke="red" points="616.825,-338.331 627.327,-336.93 618.244,-331.476 616.825,-338.331"/>
</g>
<!-- ParameterizedModules -->
<g id="node17" class="node"><title>ParameterizedModules</title>
<g id="a_node17"><a xlink:href="../labs/SimonSpeck/SimonSpeck.html" xlink:title="Parameterized\nModules">
<path fill="white" stroke="black" stroke-width="2" d="M698,-308C698,-308 627,-308 627,-308 621,-308 615,-302 615,-296 615,-296 615,-282 615,-282 615,-276 621,-270 627,-270 627,-270 698,-270 698,-270 704,-270 710,-276 710,-282 710,-282 710,-296 710,-296 710,-302 704,-308 698,-308"/>
<text text-anchor="middle" x="662.5" y="-292.8" font-family="Times New Roman,serif" font-size="14.00">Parameterized</text>
<text text-anchor="middle" x="662.5" y="-277.8" font-family="Times New Roman,serif" font-size="14.00">Modules</text>
</a>
</g>
</g>
<!-- KeyWrapping&#45;&gt;ParameterizedModules -->
<g id="edge16" class="edge"><title>KeyWrapping&#45;&gt;ParameterizedModules</title>
<path fill="none" stroke="black" d="M579.223,-306.653C587.572,-304.862 596.322,-302.985 604.871,-301.15"/>
<polygon fill="black" stroke="black" points="605.735,-304.545 614.778,-299.025 604.266,-297.7 605.735,-304.545"/>
</g>
</g>
</svg>
