<?xml version="1.0" encoding="UTF-8" standalone="no"?>
<!DOCTYPE svg PUBLIC "-//W3C//DTD SVG 1.1//EN"
 "http://www.w3.org/Graphics/SVG/1.1/DTD/svg11.dtd">
<!-- Generated by graphviz version 2.38.0 (20140413.2041)
 -->
<!-- Title: %3 Pages: 1 -->
<svg width="718pt" height="316pt"
 viewBox="0.00 0.00 718.00 316.00" xmlns="http://www.w3.org/2000/svg" xmlns:xlink="http://www.w3.org/1999/xlink">
<g id="graph0" class="graph" transform="scale(1 1) rotate(0) translate(4 312)">
<title>%3</title>
<!-- Installation -->
<g id="node1" class="node"><title>Installation</title>
<g id="a_node1"><a xlink:href="../INSTALL.html" xlink:title="Installation">
<path fill="white" stroke="black" stroke-width="2" d="M65,-280C65,-280 12,-280 12,-280 6,-280 0,-274 0,-268 0,-268 0,-256 0,-256 0,-250 6,-244 12,-244 12,-244 65,-244 65,-244 71,-244 77,-250 77,-256 77,-256 77,-268 77,-268 77,-274 71,-280 65,-280"/>
<text text-anchor="middle" x="38.5" y="-258.3" font-family="Times New Roman,serif" font-size="14.00">Installation</text>
</a>
</g>
</g>
<!-- Overview -->
<g id="node2" class="node"><title>Overview</title>
<g id="a_node2"><a xlink:href="../labs/Overview/Overview.html" xlink:title="Overview">
<path fill="white" stroke="black" stroke-width="2" d="M61.5,-226C61.5,-226 15.5,-226 15.5,-226 9.5,-226 3.5,-220 3.5,-214 3.5,-214 3.5,-202 3.5,-202 3.5,-196 9.5,-190 15.5,-190 15.5,-190 61.5,-190 61.5,-190 67.5,-190 73.5,-196 73.5,-202 73.5,-202 73.5,-214 73.5,-214 73.5,-220 67.5,-226 61.5,-226"/>
<text text-anchor="middle" x="38.5" y="-204.3" font-family="Times New Roman,serif" font-size="14.00">Overview</text>
</a>
</g>
</g>
<!-- Installation&#45;&gt;Overview -->
<g id="edge1" class="edge"><title>Installation&#45;&gt;Overview</title>
<path fill="none" stroke="red" d="M38.5,-243.79C38.5,-241.308 38.5,-238.826 38.5,-236.344"/>
<polygon fill="red" stroke="red" points="42.0001,-236.141 38.5,-226.141 35.0001,-236.141 42.0001,-236.141"/>
</g>
<!-- Interpreter -->
<g id="node3" class="node"><title>Interpreter</title>
<g id="a_node3"><a xlink:href="../labs/Interpreter/Interpreter.html" xlink:title="Interpreter">
<path fill="white" stroke="black" stroke-width="2" d="M63.5,-172C63.5,-172 13.5,-172 13.5,-172 7.5,-172 1.5,-166 1.5,-160 1.5,-160 1.5,-148 1.5,-148 1.5,-142 7.5,-136 13.5,-136 13.5,-136 63.5,-136 63.5,-136 69.5,-136 75.5,-142 75.5,-148 75.5,-148 75.5,-160 75.5,-160 75.5,-166 69.5,-172 63.5,-172"/>
<text text-anchor="middle" x="38.5" y="-150.3" font-family="Times New Roman,serif" font-size="14.00">Interpreter</text>
</a>
</g>
</g>
<!-- Overview&#45;&gt;Interpreter -->
<g id="edge2" class="edge"><title>Overview&#45;&gt;Interpreter</title>
<path fill="none" stroke="red" d="M38.5,-189.79C38.5,-187.308 38.5,-184.826 38.5,-182.344"/>
<polygon fill="red" stroke="red" points="42.0001,-182.141 38.5,-172.141 35.0001,-182.141 42.0001,-182.141"/>
</g>
<!-- LanguageBasics -->
<g id="node4" class="node"><title>LanguageBasics</title>
<g id="a_node4"><a xlink:href="../labs/Language/Basics.html" xlink:title="Language\nBasics">
<path fill="white" stroke="black" stroke-width="2" d="M61.5,-118C61.5,-118 15.5,-118 15.5,-118 9.5,-118 3.5,-112 3.5,-106 3.5,-106 3.5,-92 3.5,-92 3.5,-86 9.5,-80 15.5,-80 15.5,-80 61.5,-80 61.5,-80 67.5,-80 73.5,-86 73.5,-92 73.5,-92 73.5,-106 73.5,-106 73.5,-112 67.5,-118 61.5,-118"/>
<text text-anchor="middle" x="38.5" y="-102.8" font-family="Times New Roman,serif" font-size="14.00">Language</text>
<text text-anchor="middle" x="38.5" y="-87.8" font-family="Times New Roman,serif" font-size="14.00">Basics</text>
</a>
</g>
</g>
<!-- Interpreter&#45;&gt;LanguageBasics -->
<g id="edge3" class="edge"><title>Interpreter&#45;&gt;LanguageBasics</title>
<path fill="none" stroke="red" d="M38.5,-135.889C38.5,-133.421 38.5,-130.952 38.5,-128.484"/>
<polygon fill="red" stroke="red" points="42.0001,-128.336 38.5,-118.336 35.0001,-128.336 42.0001,-128.336"/>
</g>
<!-- CRC -->
<g id="node5" class="node"><title>CRC</title>
<g id="a_node5"><a xlink:href="../labs/CRC/CRC.html" xlink:title="CRC">
<path fill="white" stroke="black" stroke-width="2" d="M179.5,-198C179.5,-198 149.5,-198 149.5,-198 143.5,-198 137.5,-192 137.5,-186 137.5,-186 137.5,-174 137.5,-174 137.5,-168 143.5,-162 149.5,-162 149.5,-162 179.5,-162 179.5,-162 185.5,-162 191.5,-168 191.5,-174 191.5,-174 191.5,-186 191.5,-186 191.5,-192 185.5,-198 179.5,-198"/>
<text text-anchor="middle" x="164.5" y="-176.3" font-family="Times New Roman,serif" font-size="14.00">CRC</text>
</a>
</g>
</g>
<!-- LanguageBasics&#45;&gt;CRC -->
<g id="edge4" class="edge"><title>LanguageBasics&#45;&gt;CRC</title>
<path fill="none" stroke="red" d="M65.0603,-118.056C84.2521,-132.316 108.043,-149.877 113,-153 117.957,-156.124 123.309,-159.241 128.61,-162.188"/>
<polygon fill="red" stroke="red" points="126.947,-165.267 137.406,-166.959 130.284,-159.114 126.947,-165.267"/>
</g>
<!-- StyleGuide -->
<g id="node10" class="node"><title>StyleGuide</title>
<g id="a_node10"><a xlink:href="../cryptol-style.html" xlink:title="Style Guide">
<path fill="white" stroke="black" stroke-width="2" d="M193.5,-144C193.5,-144 135.5,-144 135.5,-144 129.5,-144 123.5,-138 123.5,-132 123.5,-132 123.5,-120 123.5,-120 123.5,-114 129.5,-108 135.5,-108 135.5,-108 193.5,-108 193.5,-108 199.5,-108 205.5,-114 205.5,-120 205.5,-120 205.5,-132 205.5,-132 205.5,-138 199.5,-144 193.5,-144"/>
<text text-anchor="middle" x="164.5" y="-122.3" font-family="Times New Roman,serif" font-size="14.00">Style Guide</text>
</a>
</g>
</g>
<!-- LanguageBasics&#45;&gt;StyleGuide -->
<g id="edge9" class="edge"><title>LanguageBasics&#45;&gt;StyleGuide</title>
<path fill="none" stroke="black" d="M73.7118,-106.449C85.9365,-109.111 99.9785,-112.169 113.271,-115.063"/>
<polygon fill="black" stroke="black" points="112.732,-118.528 123.247,-117.235 114.221,-111.688 112.732,-118.528"/>
</g>
<!-- CryptolDemos -->
<g id="node11" class="node"><title>CryptolDemos</title>
<g id="a_node11"><a xlink:href="../labs/Demos/Cryptol/Demos.html" xlink:title="Cryptol Demos">
<path fill="white" stroke="black" stroke-width="2" d="M204,-90C204,-90 125,-90 125,-90 119,-90 113,-84 113,-78 113,-78 113,-66 113,-66 113,-60 119,-54 125,-54 125,-54 204,-54 204,-54 210,-54 216,-60 216,-66 216,-66 216,-78 216,-78 216,-84 210,-90 204,-90"/>
<text text-anchor="middle" x="164.5" y="-68.3" font-family="Times New Roman,serif" font-size="14.00">Cryptol Demos</text>
</a>
</g>
</g>
<!-- LanguageBasics&#45;&gt;CryptolDemos -->
<g id="edge10" class="edge"><title>LanguageBasics&#45;&gt;CryptolDemos</title>
<path fill="none" stroke="black" d="M73.7118,-91.5507C82.7442,-89.5839 92.7688,-87.4012 102.75,-85.2278"/>
<polygon fill="black" stroke="black" points="103.652,-88.6134 112.679,-83.0659 102.163,-81.7737 103.652,-88.6134"/>
</g>
<!-- SAWDemos -->
<g id="node12" class="node"><title>SAWDemos</title>
<g id="a_node12"><a xlink:href="../labs/Demos/SAW/Demos.html" xlink:title="SAW Demos">
<path fill="white" stroke="black" stroke-width="2" d="M198.5,-36C198.5,-36 130.5,-36 130.5,-36 124.5,-36 118.5,-30 118.5,-24 118.5,-24 118.5,-12 118.5,-12 118.5,-6 124.5,-0 130.5,-0 130.5,-0 198.5,-0 198.5,-0 204.5,-0 210.5,-6 210.5,-12 210.5,-12 210.5,-24 210.5,-24 210.5,-30 204.5,-36 198.5,-36"/>
<text text-anchor="middle" x="164.5" y="-14.3" font-family="Times New Roman,serif" font-size="14.00">SAW Demos</text>
</a>
</g>
</g>
<!-- LanguageBasics&#45;&gt;SAWDemos -->
<g id="edge11" class="edge"><title>LanguageBasics&#45;&gt;SAWDemos</title>
<path fill="none" stroke="black" d="M63.7207,-79.8506C77.7651,-69.0947 95.987,-55.7211 113,-45 114.948,-43.7726 116.956,-42.5464 118.999,-41.3311"/>
<polygon fill="black" stroke="black" points="121.164,-44.1235 128.087,-36.1036 117.673,-38.0557 121.164,-44.1235"/>
</g>
<!-- Salsa20 -->
<g id="node6" class="node"><title>Salsa20</title>
<g id="a_node6"><a xlink:href="../labs/Salsa20/Salsa20.html" xlink:title="Salsa20">
<path fill="white" stroke="black" stroke-width="2" d="M299,-198C299,-198 264,-198 264,-198 258,-198 252,-192 252,-186 252,-186 252,-174 252,-174 252,-168 258,-162 264,-162 264,-162 299,-162 299,-162 305,-162 311,-168 311,-174 311,-174 311,-186 311,-186 311,-192 305,-198 299,-198"/>
<text text-anchor="middle" x="281.5" y="-176.3" font-family="Times New Roman,serif" font-size="14.00">Salsa20</text>
</a>
</g>
</g>
<!-- CRC&#45;&gt;Salsa20 -->
<g id="edge5" class="edge"><title>CRC&#45;&gt;Salsa20</title>
<path fill="none" stroke="red" d="M191.595,-180C206.273,-180 224.889,-180 241.289,-180"/>
<polygon fill="red" stroke="red" points="241.682,-183.5 251.682,-180 241.682,-176.5 241.682,-183.5"/>
</g>
<!-- CryptographicProperties -->
<g id="node7" class="node"><title>CryptographicProperties</title>
<g id="a_node7"><a xlink:href="../labs/CryptoProofs/CryptoProofs.html" xlink:title="Cryptographic\nProperties">
<path fill="white" stroke="black" stroke-width="2" d="M433,-199C433,-199 359,-199 359,-199 353,-199 347,-193 347,-187 347,-187 347,-173 347,-173 347,-167 353,-161 359,-161 359,-161 433,-161 433,-161 439,-161 445,-167 445,-173 445,-173 445,-187 445,-187 445,-193 439,-199 433,-199"/>
<text text-anchor="middle" x="396" y="-183.8" font-family="Times New Roman,serif" font-size="14.00">Cryptographic</text>
<text text-anchor="middle" x="396" y="-168.8" font-family="Times New Roman,serif" font-size="14.00">Properties</text>
</a>
</g>
</g>
<!-- Salsa20&#45;&gt;CryptographicProperties -->
<g id="edge6" class="edge"><title>Salsa20&#45;&gt;CryptographicProperties</title>
<path fill="none" stroke="red" d="M311.18,-180C318.947,-180 327.646,-180 336.42,-180"/>
<polygon fill="red" stroke="red" points="336.705,-183.5 346.705,-180 336.705,-176.5 336.705,-183.5"/>
</g>
<!-- KeyWrapping -->
<g id="node8" class="node"><title>KeyWrapping</title>
<g id="a_node8"><a xlink:href="../labs/KeyWrapping/KeyWrapping.html" xlink:title="Key Wrapping">
<path fill="white" stroke="black" stroke-width="2" d="M567,-281C567,-281 493,-281 493,-281 487,-281 481,-275 481,-269 481,-269 481,-257 481,-257 481,-251 487,-245 493,-245 493,-245 567,-245 567,-245 573,-245 579,-251 579,-257 579,-257 579,-269 579,-269 579,-275 573,-281 567,-281"/>
<text text-anchor="middle" x="530" y="-259.3" font-family="Times New Roman,serif" font-size="14.00">Key Wrapping</text>
</a>
</g>
</g>
<!-- CryptographicProperties&#45;&gt;KeyWrapping -->
<g id="edge7" class="edge"><title>CryptographicProperties&#45;&gt;KeyWrapping</title>
<path fill="none" stroke="red" d="M424.657,-199.203C440.876,-210.27 461.876,-224.27 481,-236 482.954,-237.198 484.962,-238.409 486.998,-239.619"/>
<polygon fill="red" stroke="red" points="485.615,-242.864 496.016,-244.881 489.143,-236.818 485.615,-242.864"/>
</g>
<!-- Salsa20Properties -->
<g id="node13" class="node"><title>Salsa20Properties</title>
<g id="a_node13"><a xlink:href="../labs/Salsa20/Salsa20Props.html" xlink:title="Salsa20\nProperties">
<path fill="white" stroke="black" stroke-width="2" d="M555,-227C555,-227 505,-227 505,-227 499,-227 493,-221 493,-215 493,-215 493,-201 493,-201 493,-195 499,-189 505,-189 505,-189 555,-189 555,-189 561,-189 567,-195 567,-201 567,-201 567,-215 567,-215 567,-221 561,-227 555,-227"/>
<text text-anchor="middle" x="530" y="-211.8" font-family="Times New Roman,serif" font-size="14.00">Salsa20</text>
<text text-anchor="middle" x="530" y="-196.8" font-family="Times New Roman,serif" font-size="14.00">Properties</text>
</a>
</g>
</g>
<!-- CryptographicProperties&#45;&gt;Salsa20Properties -->
<g id="edge12" class="edge"><title>CryptographicProperties&#45;&gt;Salsa20Properties</title>
<path fill="none" stroke="black" d="M445.028,-190.188C457.353,-192.802 470.582,-195.608 482.811,-198.202"/>
<polygon fill="black" stroke="black" points="482.298,-201.671 492.806,-200.323 483.75,-194.824 482.298,-201.671"/>
</g>
<!-- TranspositionCiphers -->
<g id="node14" class="node"><title>TranspositionCiphers</title>
<g id="a_node14"><a xlink:href="../labs/Transposition/Contents.html" xlink:title="Transposition\nCiphers">
<path fill="white" stroke="black" stroke-width="2" d="M565,-171C565,-171 495,-171 495,-171 489,-171 483,-165 483,-159 483,-159 483,-145 483,-145 483,-139 489,-133 495,-133 495,-133 565,-133 565,-133 571,-133 577,-139 577,-145 577,-145 577,-159 577,-159 577,-165 571,-171 565,-171"/>
<text text-anchor="middle" x="530" y="-155.8" font-family="Times New Roman,serif" font-size="14.00">Transposition</text>
<text text-anchor="middle" x="530" y="-140.8" font-family="Times New Roman,serif" font-size="14.00">Ciphers</text>
</a>
</g>
</g>
<!-- CryptographicProperties&#45;&gt;TranspositionCiphers -->
<g id="edge13" class="edge"><title>CryptographicProperties&#45;&gt;TranspositionCiphers</title>
<path fill="none" stroke="black" d="M445.028,-169.812C454.123,-167.883 463.71,-165.849 473.025,-163.873"/>
<polygon fill="black" stroke="black" points="473.933,-167.259 482.989,-161.76 472.481,-160.411 473.933,-167.259"/>
</g>
<!-- ProjectEuler -->
<g id="node15" class="node"><title>ProjectEuler</title>
<g id="a_node15"><a xlink:href="../labs/ProjectEuler/ProjectEuler.html" xlink:title="Project Euler">
<path fill="white" stroke="black" stroke-width="2" d="M562.5,-115C562.5,-115 497.5,-115 497.5,-115 491.5,-115 485.5,-109 485.5,-103 485.5,-103 485.5,-91 485.5,-91 485.5,-85 491.5,-79 497.5,-79 497.5,-79 562.5,-79 562.5,-79 568.5,-79 574.5,-85 574.5,-91 574.5,-91 574.5,-103 574.5,-103 574.5,-109 568.5,-115 562.5,-115"/>
<text text-anchor="middle" x="530" y="-93.3" font-family="Times New Roman,serif" font-size="14.00">Project Euler</text>
</a>
</g>
</g>
<!-- CryptographicProperties&#45;&gt;ProjectEuler -->
<g id="edge14" class="edge"><title>CryptographicProperties&#45;&gt;ProjectEuler</title>
<path fill="none" stroke="black" d="M424.657,-160.797C440.876,-149.73 461.876,-135.73 481,-124 482.954,-122.802 484.962,-121.591 486.998,-120.381"/>
<polygon fill="black" stroke="black" points="489.143,-123.182 496.016,-115.119 485.615,-117.136 489.143,-123.182"/>
</g>
<!-- Capstone -->
<g id="node9" class="node"><title>Capstone</title>
<g id="a_node9"><a xlink:href="../labs/LoremIpsum/LoremIpsum.html" xlink:title="Capstone">
<path fill="white" stroke="black" stroke-width="2" d="M685.5,-308C685.5,-308 639.5,-308 639.5,-308 633.5,-308 627.5,-302 627.5,-296 627.5,-296 627.5,-284 627.5,-284 627.5,-278 633.5,-272 639.5,-272 639.5,-272 685.5,-272 685.5,-272 691.5,-272 697.5,-278 697.5,-284 697.5,-284 697.5,-296 697.5,-296 697.5,-302 691.5,-308 685.5,-308"/>
<text text-anchor="middle" x="662.5" y="-286.3" font-family="Times New Roman,serif" font-size="14.00">Capstone</text>
</a>
</g>
</g>
<!-- KeyWrapping&#45;&gt;Capstone -->
<g id="edge8" class="edge"><title>KeyWrapping&#45;&gt;Capstone</title>
<path fill="none" stroke="red" d="M579.223,-272.977C591.702,-275.559 605.075,-278.326 617.335,-280.862"/>
<polygon fill="red" stroke="red" points="616.825,-284.331 627.327,-282.93 618.244,-277.476 616.825,-284.331"/>
</g>
<!-- ParameterizedModules -->
<g id="node16" class="node"><title>ParameterizedModules</title>
<g id="a_node16"><a xlink:href="../labs/SimonSpeck/SimonSpeck.html" xlink:title="Parameterized\nModules">
<path fill="white" stroke="black" stroke-width="2" d="M698,-254C698,-254 627,-254 627,-254 621,-254 615,-248 615,-242 615,-242 615,-228 615,-228 615,-222 621,-216 627,-216 627,-216 698,-216 698,-216 704,-216 710,-222 710,-228 710,-228 710,-242 710,-242 710,-248 704,-254 698,-254"/>
<text text-anchor="middle" x="662.5" y="-238.8" font-family="Times New Roman,serif" font-size="14.00">Parameterized</text>
<text text-anchor="middle" x="662.5" y="-223.8" font-family="Times New Roman,serif" font-size="14.00">Modules</text>
</a>
</g>
</g>
<!-- KeyWrapping&#45;&gt;ParameterizedModules -->
<g id="edge15" class="edge"><title>KeyWrapping&#45;&gt;ParameterizedModules</title>
<path fill="none" stroke="black" d="M579.223,-252.653C587.572,-250.862 596.322,-248.985 604.871,-247.15"/>
<polygon fill="black" stroke="black" points="605.735,-250.545 614.778,-245.025 604.266,-243.7 605.735,-250.545"/>
</g>
</g>
</svg>
