<?xml version="1.0" encoding="UTF-8" standalone="no"?>
<!DOCTYPE svg PUBLIC "-//W3C//DTD SVG 1.1//EN"
 "http://www.w3.org/Graphics/SVG/1.1/DTD/svg11.dtd">
<!-- Generated by graphviz version 2.40.1 (20161225.0304)
 -->
<!-- Title: %3 Pages: 1 -->
<svg width="713pt" height="316pt"
 viewBox="0.00 0.00 713.00 316.00" xmlns="http://www.w3.org/2000/svg" xmlns:xlink="http://www.w3.org/1999/xlink">
<g id="graph0" class="graph" transform="scale(1 1) rotate(0) translate(4 312)">
<title>%3</title>
<polygon fill="#ffffff" stroke="transparent" points="-4,4 -4,-312 709,-312 709,4 -4,4"/>
<!-- Installation -->
<g id="node1" class="node">
<title>Installation</title>
<g id="a_node1"><a xlink:href="https://github.com/weaversa/cryptol-course/tree/L4y3rC4k3/INSTALL.md" xlink:title="Installation">
<path fill="#ff0000" stroke="#000000" stroke-width="2" d="M65,-280C65,-280 12,-280 12,-280 6,-280 0,-274 0,-268 0,-268 0,-256 0,-256 0,-250 6,-244 12,-244 12,-244 65,-244 65,-244 71,-244 77,-250 77,-256 77,-256 77,-268 77,-268 77,-274 71,-280 65,-280"/>
<text text-anchor="middle" x="38.5" y="-258.3" font-family="Times,serif" font-size="14.00" fill="#000000">Installation</text>
</a>
</g>
</g>
<!-- Overview -->
<g id="node2" class="node">
<title>Overview</title>
<g id="a_node2"><a xlink:href="https://github.com/weaversa/cryptol-course/tree/L4y3rC4k3/labs/Overview/Overview.md" xlink:title="Overview">
<path fill="#ff0000" stroke="#000000" stroke-width="2" d="M61.5,-226C61.5,-226 15.5,-226 15.5,-226 9.5,-226 3.5,-220 3.5,-214 3.5,-214 3.5,-202 3.5,-202 3.5,-196 9.5,-190 15.5,-190 15.5,-190 61.5,-190 61.5,-190 67.5,-190 73.5,-196 73.5,-202 73.5,-202 73.5,-214 73.5,-214 73.5,-220 67.5,-226 61.5,-226"/>
<text text-anchor="middle" x="38.5" y="-204.3" font-family="Times,serif" font-size="14.00" fill="#000000">Overview</text>
</a>
</g>
</g>
<!-- Installation&#45;&gt;Overview -->
<g id="edge1" class="edge">
<title>Installation&#45;&gt;Overview</title>
<path fill="none" stroke="#ff0000" d="M38.5,-243.7902C38.5,-241.3082 38.5,-238.8262 38.5,-236.3443"/>
<polygon fill="#ff0000" stroke="#ff0000" points="42.0001,-236.1406 38.5,-226.1406 35.0001,-236.1407 42.0001,-236.1406"/>
</g>
<!-- Interpreter -->
<g id="node3" class="node">
<title>Interpreter</title>
<g id="a_node3"><a xlink:href="https://github.com/weaversa/cryptol-course/tree/L4y3rC4k3/labs/Interpreter/Interpreter.md" xlink:title="Interpreter">
<path fill="#ff0000" stroke="#000000" stroke-width="2" d="M63.5,-172C63.5,-172 13.5,-172 13.5,-172 7.5,-172 1.5,-166 1.5,-160 1.5,-160 1.5,-148 1.5,-148 1.5,-142 7.5,-136 13.5,-136 13.5,-136 63.5,-136 63.5,-136 69.5,-136 75.5,-142 75.5,-148 75.5,-148 75.5,-160 75.5,-160 75.5,-166 69.5,-172 63.5,-172"/>
<text text-anchor="middle" x="38.5" y="-150.3" font-family="Times,serif" font-size="14.00" fill="#000000">Interpreter</text>
</a>
</g>
</g>
<!-- Overview&#45;&gt;Interpreter -->
<g id="edge2" class="edge">
<title>Overview&#45;&gt;Interpreter</title>
<path fill="none" stroke="#ff0000" d="M38.5,-189.7902C38.5,-187.3082 38.5,-184.8262 38.5,-182.3443"/>
<polygon fill="#ff0000" stroke="#ff0000" points="42.0001,-182.1406 38.5,-172.1406 35.0001,-182.1407 42.0001,-182.1406"/>
</g>
<!-- LanguageBasics -->
<g id="node4" class="node">
<title>LanguageBasics</title>
<g id="a_node4"><a xlink:href="https://github.com/weaversa/cryptol-course/tree/L4y3rC4k3/labs/Language/Basics.md" xlink:title="Language\nBasics">
<path fill="#ff0000" stroke="#000000" stroke-width="2" d="M61.5,-118C61.5,-118 15.5,-118 15.5,-118 9.5,-118 3.5,-112 3.5,-106 3.5,-106 3.5,-92 3.5,-92 3.5,-86 9.5,-80 15.5,-80 15.5,-80 61.5,-80 61.5,-80 67.5,-80 73.5,-86 73.5,-92 73.5,-92 73.5,-106 73.5,-106 73.5,-112 67.5,-118 61.5,-118"/>
<text text-anchor="middle" x="38.5" y="-102.8" font-family="Times,serif" font-size="14.00" fill="#000000">Language</text>
<text text-anchor="middle" x="38.5" y="-87.8" font-family="Times,serif" font-size="14.00" fill="#000000">Basics</text>
</a>
</g>
</g>
<!-- Interpreter&#45;&gt;LanguageBasics -->
<g id="edge3" class="edge">
<title>Interpreter&#45;&gt;LanguageBasics</title>
<path fill="none" stroke="#ff0000" d="M38.5,-135.8893C38.5,-133.4209 38.5,-130.9524 38.5,-128.484"/>
<polygon fill="#ff0000" stroke="#ff0000" points="42.0001,-128.3359 38.5,-118.3359 35.0001,-128.336 42.0001,-128.3359"/>
</g>
<!-- CRC -->
<g id="node5" class="node">
<title>CRC</title>
<g id="a_node5"><a xlink:href="https://github.com/weaversa/cryptol-course/tree/L4y3rC4k3/labs/CRC/CRC.md" xlink:title="CRC">
<path fill="#ff0000" stroke="#000000" stroke-width="2" d="M178.5,-198C178.5,-198 148.5,-198 148.5,-198 142.5,-198 136.5,-192 136.5,-186 136.5,-186 136.5,-174 136.5,-174 136.5,-168 142.5,-162 148.5,-162 148.5,-162 178.5,-162 178.5,-162 184.5,-162 190.5,-168 190.5,-174 190.5,-174 190.5,-186 190.5,-186 190.5,-192 184.5,-198 178.5,-198"/>
<text text-anchor="middle" x="163.5" y="-176.3" font-family="Times,serif" font-size="14.00" fill="#000000">CRC</text>
</a>
</g>
</g>
<!-- LanguageBasics&#45;&gt;CRC -->
<g id="edge4" class="edge">
<title>LanguageBasics&#45;&gt;CRC</title>
<path fill="none" stroke="#ff0000" d="M64.7592,-118.0967C85.6906,-133.3089 111.7135,-152.1951 113,-153 117.6354,-155.9003 122.61,-158.8007 127.5641,-161.5671"/>
<polygon fill="#ff0000" stroke="#ff0000" points="125.9262,-164.6605 136.3816,-166.3734 129.2764,-158.5142 125.9262,-164.6605"/>
</g>
<!-- CryptolDemos -->
<g id="node10" class="node">
<title>CryptolDemos</title>
<g id="a_node10"><a xlink:href="https://github.com/weaversa/cryptol-course/tree/L4y3rC4k3/labs/Demos/Cryptol/Demos.md" xlink:title="Cryptol Demos">
<path fill="#ffffff" stroke="#000000" stroke-width="2" d="M202,-144C202,-144 125,-144 125,-144 119,-144 113,-138 113,-132 113,-132 113,-120 113,-120 113,-114 119,-108 125,-108 125,-108 202,-108 202,-108 208,-108 214,-114 214,-120 214,-120 214,-132 214,-132 214,-138 208,-144 202,-144"/>
<text text-anchor="middle" x="163.5" y="-122.3" font-family="Times,serif" font-size="14.00" fill="#000000">Cryptol Demos</text>
</a>
</g>
</g>
<!-- LanguageBasics&#45;&gt;CryptolDemos -->
<g id="edge10" class="edge">
<title>LanguageBasics&#45;&gt;CryptolDemos</title>
<path fill="none" stroke="#000000" d="M73.6521,-106.5929C82.7507,-108.5581 92.8124,-110.7315 102.8122,-112.8914"/>
<polygon fill="#000000" stroke="#000000" points="102.2399,-116.3485 112.7535,-115.0387 103.7179,-109.5063 102.2399,-116.3485"/>
</g>
<!-- SAWDemos -->
<g id="node11" class="node">
<title>SAWDemos</title>
<g id="a_node11"><a xlink:href="https://github.com/weaversa/cryptol-course/tree/L4y3rC4k3/labs/Demos/SAW/Demos.md" xlink:title="SAW Demos">
<path fill="#ffffff" stroke="#000000" stroke-width="2" d="M196.5,-90C196.5,-90 130.5,-90 130.5,-90 124.5,-90 118.5,-84 118.5,-78 118.5,-78 118.5,-66 118.5,-66 118.5,-60 124.5,-54 130.5,-54 130.5,-54 196.5,-54 196.5,-54 202.5,-54 208.5,-60 208.5,-66 208.5,-66 208.5,-78 208.5,-78 208.5,-84 202.5,-90 196.5,-90"/>
<text text-anchor="middle" x="163.5" y="-68.3" font-family="Times,serif" font-size="14.00" fill="#000000">SAW Demos</text>
</a>
</g>
</g>
<!-- LanguageBasics&#45;&gt;SAWDemos -->
<g id="edge11" class="edge">
<title>LanguageBasics&#45;&gt;SAWDemos</title>
<path fill="none" stroke="#000000" d="M73.6521,-91.4071C84.4837,-89.0675 96.6804,-86.433 108.5126,-83.8773"/>
<polygon fill="#000000" stroke="#000000" points="109.2924,-87.2897 118.328,-81.7572 107.8144,-80.4474 109.2924,-87.2897"/>
</g>
<!-- StyleGuide -->
<g id="node15" class="node">
<title>StyleGuide</title>
<g id="a_node15"><a xlink:href="https://github.com/weaversa/cryptol-course/tree/L4y3rC4k3/cryptol-style.md" xlink:title="Style Guide">
<path fill="#ffffff" stroke="#000000" stroke-width="2" d="M192,-36C192,-36 135,-36 135,-36 129,-36 123,-30 123,-24 123,-24 123,-12 123,-12 123,-6 129,0 135,0 135,0 192,0 192,0 198,0 204,-6 204,-12 204,-12 204,-24 204,-24 204,-30 198,-36 192,-36"/>
<text text-anchor="middle" x="163.5" y="-14.3" font-family="Times,serif" font-size="14.00" fill="#000000">Style Guide</text>
</a>
</g>
</g>
<!-- LanguageBasics&#45;&gt;StyleGuide -->
<g id="edge9" class="edge">
<title>LanguageBasics&#45;&gt;StyleGuide</title>
<path fill="none" stroke="#000000" d="M63.0854,-79.8808C77.3321,-69.1347 95.8016,-55.7608 113,-45 114.9516,-43.7789 116.9634,-42.5578 119.0084,-41.3467"/>
<polygon fill="#000000" stroke="#000000" points="121.17,-44.1418 128.1045,-36.1316 117.6883,-38.0691 121.17,-44.1418"/>
</g>
<!-- Salsa20 -->
<g id="node6" class="node">
<title>Salsa20</title>
<g id="a_node6"><a xlink:href="https://github.com/weaversa/cryptol-course/tree/L4y3rC4k3/labs/Salsa20/Salsa20.md" xlink:title="Salsa20">
<path fill="#ff0000" stroke="#000000" stroke-width="2" d="M297,-198C297,-198 262,-198 262,-198 256,-198 250,-192 250,-186 250,-186 250,-174 250,-174 250,-168 256,-162 262,-162 262,-162 297,-162 297,-162 303,-162 309,-168 309,-174 309,-174 309,-186 309,-186 309,-192 303,-198 297,-198"/>
<text text-anchor="middle" x="279.5" y="-176.3" font-family="Times,serif" font-size="14.00" fill="#000000">Salsa20</text>
</a>
</g>
</g>
<!-- CRC&#45;&gt;Salsa20 -->
<g id="edge5" class="edge">
<title>CRC&#45;&gt;Salsa20</title>
<path fill="none" stroke="#ff0000" d="M190.6968,-180C205.199,-180 223.3205,-180 239.4052,-180"/>
<polygon fill="#ff0000" stroke="#ff0000" points="239.6224,-183.5001 249.6224,-180 239.6224,-176.5001 239.6224,-183.5001"/>
</g>
<!-- CryptographicProperties -->
<g id="node7" class="node">
<title>CryptographicProperties</title>
<g id="a_node7"><a xlink:href="https://github.com/weaversa/cryptol-course/tree/L4y3rC4k3/labs/CryptoProofs/CryptoProofs.md" xlink:title="Cryptographic\nProperties">
<path fill="#ff0000" stroke="#000000" stroke-width="2" d="M428,-199C428,-199 357,-199 357,-199 351,-199 345,-193 345,-187 345,-187 345,-173 345,-173 345,-167 351,-161 357,-161 357,-161 428,-161 428,-161 434,-161 440,-167 440,-173 440,-173 440,-187 440,-187 440,-193 434,-199 428,-199"/>
<text text-anchor="middle" x="392.5" y="-183.8" font-family="Times,serif" font-size="14.00" fill="#000000">Cryptographic</text>
<text text-anchor="middle" x="392.5" y="-168.8" font-family="Times,serif" font-size="14.00" fill="#000000">Properties</text>
</a>
</g>
</g>
<!-- Salsa20&#45;&gt;CryptographicProperties -->
<g id="edge6" class="edge">
<title>Salsa20&#45;&gt;CryptographicProperties</title>
<path fill="none" stroke="#ff0000" d="M309.1894,-180C316.9913,-180 325.6811,-180 334.4214,-180"/>
<polygon fill="#ff0000" stroke="#ff0000" points="334.6546,-183.5001 344.6546,-180 334.6546,-176.5001 334.6546,-183.5001"/>
</g>
<!-- KeyWrapping -->
<g id="node8" class="node">
<title>KeyWrapping</title>
<g id="a_node8"><a xlink:href="https://github.com/weaversa/cryptol-course/tree/L4y3rC4k3/labs/KeyWrapping/KeyWrapping.md" xlink:title="Key Wrapping">
<path fill="#ff0000" stroke="#000000" stroke-width="2" d="M562,-281C562,-281 488,-281 488,-281 482,-281 476,-275 476,-269 476,-269 476,-257 476,-257 476,-251 482,-245 488,-245 488,-245 562,-245 562,-245 568,-245 574,-251 574,-257 574,-257 574,-269 574,-269 574,-275 568,-281 562,-281"/>
<text text-anchor="middle" x="525" y="-259.3" font-family="Times,serif" font-size="14.00" fill="#000000">Key Wrapping</text>
</a>
</g>
</g>
<!-- CryptographicProperties&#45;&gt;KeyWrapping -->
<g id="edge7" class="edge">
<title>CryptographicProperties&#45;&gt;KeyWrapping</title>
<path fill="none" stroke="#ff0000" d="M419.5635,-199.0222C435.7188,-210.1566 456.771,-224.2847 476,-236 478.1411,-237.3045 480.3485,-238.6203 482.5873,-239.9321"/>
<polygon fill="#ff0000" stroke="#ff0000" points="480.8879,-242.9923 491.3025,-244.9383 484.3746,-236.9224 480.8879,-242.9923"/>
</g>
<!-- TranspositionCiphers -->
<g id="node12" class="node">
<title>TranspositionCiphers</title>
<g id="a_node12"><a xlink:href="https://github.com/weaversa/cryptol-course/tree/L4y3rC4k3/labs/Transposition/Contents.md" xlink:title="Transposition\nCiphers">
<path fill="#ffffff" stroke="#000000" stroke-width="2" d="M558.5,-227C558.5,-227 491.5,-227 491.5,-227 485.5,-227 479.5,-221 479.5,-215 479.5,-215 479.5,-201 479.5,-201 479.5,-195 485.5,-189 491.5,-189 491.5,-189 558.5,-189 558.5,-189 564.5,-189 570.5,-195 570.5,-201 570.5,-201 570.5,-215 570.5,-215 570.5,-221 564.5,-227 558.5,-227"/>
<text text-anchor="middle" x="525" y="-211.8" font-family="Times,serif" font-size="14.00" fill="#000000">Transposition</text>
<text text-anchor="middle" x="525" y="-196.8" font-family="Times,serif" font-size="14.00" fill="#000000">Ciphers</text>
</a>
</g>
</g>
<!-- CryptographicProperties&#45;&gt;TranspositionCiphers -->
<g id="edge13" class="edge">
<title>CryptographicProperties&#45;&gt;TranspositionCiphers</title>
<path fill="none" stroke="#000000" d="M440.3355,-190.1086C449.7983,-192.1083 459.8056,-194.2231 469.4975,-196.2712"/>
<polygon fill="#000000" stroke="#000000" points="468.9398,-199.7305 479.4474,-198.3738 470.3871,-192.8818 468.9398,-199.7305"/>
</g>
<!-- Salsa20Properties -->
<g id="node14" class="node">
<title>Salsa20Properties</title>
<g id="a_node14"><a xlink:href="https://github.com/weaversa/cryptol-course/tree/L4y3rC4k3/labs/Salsa20/Salsa20Props.md" xlink:title="Salsa20\nProperties">
<path fill="#ffffff" stroke="#000000" stroke-width="2" d="M548.5,-171C548.5,-171 501.5,-171 501.5,-171 495.5,-171 489.5,-165 489.5,-159 489.5,-159 489.5,-145 489.5,-145 489.5,-139 495.5,-133 501.5,-133 501.5,-133 548.5,-133 548.5,-133 554.5,-133 560.5,-139 560.5,-145 560.5,-145 560.5,-159 560.5,-159 560.5,-165 554.5,-171 548.5,-171"/>
<text text-anchor="middle" x="525" y="-155.8" font-family="Times,serif" font-size="14.00" fill="#000000">Salsa20</text>
<text text-anchor="middle" x="525" y="-140.8" font-family="Times,serif" font-size="14.00" fill="#000000">Properties</text>
</a>
</g>
</g>
<!-- CryptographicProperties&#45;&gt;Salsa20Properties -->
<g id="edge12" class="edge">
<title>CryptographicProperties&#45;&gt;Salsa20Properties</title>
<path fill="none" stroke="#000000" d="M440.3355,-169.8914C453.0865,-167.1968 466.8262,-164.2933 479.4508,-161.6255"/>
<polygon fill="#000000" stroke="#000000" points="480.2361,-165.0369 489.2963,-159.5449 478.7887,-158.1882 480.2361,-165.0369"/>
</g>
<!-- ProjectEuler -->
<g id="node16" class="node">
<title>ProjectEuler</title>
<g id="a_node16"><a xlink:href="https://github.com/weaversa/cryptol-course/tree/L4y3rC4k3/labs/ProjectEuler/ProjectEuler.md" xlink:title="Project Euler">
<path fill="#ffffff" stroke="#000000" stroke-width="2" d="M557,-115C557,-115 493,-115 493,-115 487,-115 481,-109 481,-103 481,-103 481,-91 481,-91 481,-85 487,-79 493,-79 493,-79 557,-79 557,-79 563,-79 569,-85 569,-91 569,-91 569,-103 569,-103 569,-109 563,-115 557,-115"/>
<text text-anchor="middle" x="525" y="-93.3" font-family="Times,serif" font-size="14.00" fill="#000000">Project Euler</text>
</a>
</g>
</g>
<!-- CryptographicProperties&#45;&gt;ProjectEuler -->
<g id="edge14" class="edge">
<title>CryptographicProperties&#45;&gt;ProjectEuler</title>
<path fill="none" stroke="#000000" d="M419.5635,-160.9778C435.7188,-149.8434 456.771,-135.7153 476,-124 478.1411,-122.6955 480.3485,-121.3797 482.5873,-120.0679"/>
<polygon fill="#000000" stroke="#000000" points="484.3746,-123.0776 491.3025,-115.0617 480.8879,-117.0077 484.3746,-123.0776"/>
</g>
<!-- Capstone -->
<g id="node9" class="node">
<title>Capstone</title>
<g id="a_node9"><a xlink:href="https://github.com/weaversa/cryptol-course/tree/L4y3rC4k3/labs/LoremIpsum/LoremIpsum.md" xlink:title="Capstone">
<path fill="#ff0000" stroke="#000000" stroke-width="2" d="M679,-308C679,-308 636,-308 636,-308 630,-308 624,-302 624,-296 624,-296 624,-284 624,-284 624,-278 630,-272 636,-272 636,-272 679,-272 679,-272 685,-272 691,-278 691,-284 691,-284 691,-296 691,-296 691,-302 685,-308 679,-308"/>
<text text-anchor="middle" x="657.5" y="-286.3" font-family="Times,serif" font-size="14.00" fill="#000000">Capstone</text>
</a>
</g>
</g>
<!-- KeyWrapping&#45;&gt;Capstone -->
<g id="edge8" class="edge">
<title>KeyWrapping&#45;&gt;Capstone</title>
<path fill="none" stroke="#ff0000" d="M574.3381,-273.0538C587.3429,-275.7038 601.2795,-278.5437 613.9547,-281.1266"/>
<polygon fill="#ff0000" stroke="#ff0000" points="613.3101,-284.5671 623.8076,-283.1344 614.7079,-277.7081 613.3101,-284.5671"/>
</g>
<!-- ParameterizedModules -->
<g id="node13" class="node">
<title>ParameterizedModules</title>
<g id="a_node13"><a xlink:href="https://github.com/weaversa/cryptol-course/tree/L4y3rC4k3/labs/SimonSpeck/SimonSpeck.md" xlink:title="Parameterized\nModules">
<path fill="#ffffff" stroke="#000000" stroke-width="2" d="M693,-254C693,-254 622,-254 622,-254 616,-254 610,-248 610,-242 610,-242 610,-228 610,-228 610,-222 616,-216 622,-216 622,-216 693,-216 693,-216 699,-216 705,-222 705,-228 705,-228 705,-242 705,-242 705,-248 699,-254 693,-254"/>
<text text-anchor="middle" x="657.5" y="-238.8" font-family="Times,serif" font-size="14.00" fill="#000000">Parameterized</text>
<text text-anchor="middle" x="657.5" y="-223.8" font-family="Times,serif" font-size="14.00" fill="#000000">Modules</text>
</a>
</g>
</g>
<!-- KeyWrapping&#45;&gt;ParameterizedModules -->
<g id="edge15" class="edge">
<title>KeyWrapping&#45;&gt;ParameterizedModules</title>
<path fill="none" stroke="#000000" d="M574.3381,-252.5738C582.6937,-250.8081 591.434,-248.9611 599.9773,-247.1558"/>
<polygon fill="#000000" stroke="#000000" points="600.8206,-250.5549 609.8809,-245.0629 599.3733,-243.7062 600.8206,-250.5549"/>
</g>
</g>
</svg>
