<?xml version="1.0" encoding="UTF-8" standalone="no"?>
<!DOCTYPE svg PUBLIC "-//W3C//DTD SVG 1.1//EN"
 "http://www.w3.org/Graphics/SVG/1.1/DTD/svg11.dtd">
<!-- Generated by graphviz version 2.40.1 (20161225.0304)
 -->
<!-- Title: %3 Pages: 1 -->
<svg width="792pt" height="314pt"
 viewBox="0.00 0.00 792.00 314.00" xmlns="http://www.w3.org/2000/svg" xmlns:xlink="http://www.w3.org/1999/xlink">
<g id="graph0" class="graph" transform="scale(1 1) rotate(0) translate(4 310)">
<title>%3</title>
<polygon fill="#ffffff" stroke="transparent" points="-4,4 -4,-310 788,-310 788,4 -4,4"/>
<!-- Installation -->
<g id="node1" class="node">
<title>Installation</title>
<g id="a_node1"><a xlink:href="https://github.com/weaversa/cryptol-course/tree/L4y3rC4k3/INSTALL.md" xlink:title="Installation">
<path fill="#ff0000" stroke="#000000" stroke-width="2" d="M65,-280C65,-280 12,-280 12,-280 6,-280 0,-274 0,-268 0,-268 0,-256 0,-256 0,-250 6,-244 12,-244 12,-244 65,-244 65,-244 71,-244 77,-250 77,-256 77,-256 77,-268 77,-268 77,-274 71,-280 65,-280"/>
<text text-anchor="middle" x="38.5" y="-258.3" font-family="Times,serif" font-size="14.00" fill="#000000">Installation</text>
</a>
</g>
</g>
<!-- Overview -->
<g id="node2" class="node">
<title>Overview</title>
<g id="a_node2"><a xlink:href="https://github.com/weaversa/cryptol-course/tree/L4y3rC4k3/labs/Overview/Overview.md" xlink:title="Overview">
<path fill="#ff0000" stroke="#000000" stroke-width="2" d="M61.5,-226C61.5,-226 15.5,-226 15.5,-226 9.5,-226 3.5,-220 3.5,-214 3.5,-214 3.5,-202 3.5,-202 3.5,-196 9.5,-190 15.5,-190 15.5,-190 61.5,-190 61.5,-190 67.5,-190 73.5,-196 73.5,-202 73.5,-202 73.5,-214 73.5,-214 73.5,-220 67.5,-226 61.5,-226"/>
<text text-anchor="middle" x="38.5" y="-204.3" font-family="Times,serif" font-size="14.00" fill="#000000">Overview</text>
</a>
</g>
</g>
<!-- Installation&#45;&gt;Overview -->
<g id="edge1" class="edge">
<title>Installation&#45;&gt;Overview</title>
<path fill="none" stroke="#ff0000" d="M38.5,-243.7902C38.5,-241.3082 38.5,-238.8262 38.5,-236.3443"/>
<polygon fill="#ff0000" stroke="#ff0000" points="42.0001,-236.1406 38.5,-226.1406 35.0001,-236.1407 42.0001,-236.1406"/>
</g>
<!-- Interpreter -->
<g id="node3" class="node">
<title>Interpreter</title>
<g id="a_node3"><a xlink:href="https://github.com/weaversa/cryptol-course/tree/L4y3rC4k3/labs/Interpreter/Interpreter.md" xlink:title="Interpreter">
<path fill="#ff0000" stroke="#000000" stroke-width="2" d="M63.5,-172C63.5,-172 13.5,-172 13.5,-172 7.5,-172 1.5,-166 1.5,-160 1.5,-160 1.5,-148 1.5,-148 1.5,-142 7.5,-136 13.5,-136 13.5,-136 63.5,-136 63.5,-136 69.5,-136 75.5,-142 75.5,-148 75.5,-148 75.5,-160 75.5,-160 75.5,-166 69.5,-172 63.5,-172"/>
<text text-anchor="middle" x="38.5" y="-150.3" font-family="Times,serif" font-size="14.00" fill="#000000">Interpreter</text>
</a>
</g>
</g>
<!-- Overview&#45;&gt;Interpreter -->
<g id="edge2" class="edge">
<title>Overview&#45;&gt;Interpreter</title>
<path fill="none" stroke="#ff0000" d="M38.5,-189.7902C38.5,-187.3082 38.5,-184.8262 38.5,-182.3443"/>
<polygon fill="#ff0000" stroke="#ff0000" points="42.0001,-182.1406 38.5,-172.1406 35.0001,-182.1407 42.0001,-182.1406"/>
</g>
<!-- LanguageBasics -->
<g id="node4" class="node">
<title>LanguageBasics</title>
<g id="a_node4"><a xlink:href="https://github.com/weaversa/cryptol-course/tree/L4y3rC4k3/labs/Language/Basics.md" xlink:title="Language\nBasics">
<path fill="#ff0000" stroke="#000000" stroke-width="2" d="M61.5,-118C61.5,-118 15.5,-118 15.5,-118 9.5,-118 3.5,-112 3.5,-106 3.5,-106 3.5,-92 3.5,-92 3.5,-86 9.5,-80 15.5,-80 15.5,-80 61.5,-80 61.5,-80 67.5,-80 73.5,-86 73.5,-92 73.5,-92 73.5,-106 73.5,-106 73.5,-112 67.5,-118 61.5,-118"/>
<text text-anchor="middle" x="38.5" y="-102.8" font-family="Times,serif" font-size="14.00" fill="#000000">Language</text>
<text text-anchor="middle" x="38.5" y="-87.8" font-family="Times,serif" font-size="14.00" fill="#000000">Basics</text>
</a>
</g>
</g>
<!-- Interpreter&#45;&gt;LanguageBasics -->
<g id="edge3" class="edge">
<title>Interpreter&#45;&gt;LanguageBasics</title>
<path fill="none" stroke="#ff0000" d="M38.5,-135.8893C38.5,-133.4209 38.5,-130.9524 38.5,-128.484"/>
<polygon fill="#ff0000" stroke="#ff0000" points="42.0001,-128.3359 38.5,-118.3359 35.0001,-128.336 42.0001,-128.3359"/>
</g>
<!-- CRC -->
<g id="node5" class="node">
<title>CRC</title>
<g id="a_node5"><a xlink:href="https://github.com/weaversa/cryptol-course/tree/L4y3rC4k3/labs/CRC/CRC.md" xlink:title="CRC">
<path fill="#ff0000" stroke="#000000" stroke-width="2" d="M176.5,-198C176.5,-198 146.5,-198 146.5,-198 140.5,-198 134.5,-192 134.5,-186 134.5,-186 134.5,-174 134.5,-174 134.5,-168 140.5,-162 146.5,-162 146.5,-162 176.5,-162 176.5,-162 182.5,-162 188.5,-168 188.5,-174 188.5,-174 188.5,-186 188.5,-186 188.5,-192 182.5,-198 176.5,-198"/>
<text text-anchor="middle" x="161.5" y="-176.3" font-family="Times,serif" font-size="14.00" fill="#000000">CRC</text>
</a>
</g>
</g>
<!-- LanguageBasics&#45;&gt;CRC -->
<g id="edge4" class="edge">
<title>LanguageBasics&#45;&gt;CRC</title>
<path fill="none" stroke="#ff0000" d="M64.7627,-118.0913C85.6962,-133.3 111.7204,-152.1842 113,-153 117.0528,-155.5839 121.3673,-158.1859 125.6878,-160.7007"/>
<polygon fill="#ff0000" stroke="#ff0000" points="124.0602,-163.8016 134.4824,-165.7068 127.5231,-157.7181 124.0602,-163.8016"/>
</g>
<!-- StyleGuide -->
<g id="node10" class="node">
<title>StyleGuide</title>
<g id="a_node10"><a xlink:href="https://github.com/weaversa/cryptol-course/tree/L4y3rC4k3/cryptol-style.md" xlink:title="StyleGuide">
<path fill="#ffffff" stroke="#000000" stroke-width="2" d="M188,-144C188,-144 135,-144 135,-144 129,-144 123,-138 123,-132 123,-132 123,-120 123,-120 123,-114 129,-108 135,-108 135,-108 188,-108 188,-108 194,-108 200,-114 200,-120 200,-120 200,-132 200,-132 200,-138 194,-144 188,-144"/>
<text text-anchor="middle" x="161.5" y="-122.3" font-family="Times,serif" font-size="14.00" fill="#000000">StyleGuide</text>
</a>
</g>
</g>
<!-- LanguageBasics&#45;&gt;StyleGuide -->
<g id="edge9" class="edge">
<title>LanguageBasics&#45;&gt;StyleGuide</title>
<path fill="none" stroke="#000000" d="M73.7469,-106.7371C85.9658,-109.4193 99.8869,-112.4752 112.9847,-115.3503"/>
<polygon fill="#000000" stroke="#000000" points="112.2804,-118.779 122.7983,-117.5045 113.7813,-111.9417 112.2804,-118.779"/>
</g>
<!-- CryptolDemos -->
<g id="node11" class="node">
<title>CryptolDemos</title>
<g id="a_node11"><a xlink:href="https://github.com/weaversa/cryptol-course/tree/L4y3rC4k3/labs/Demos/Cryptol/Demos.md" xlink:title="CryptolDemos">
<path fill="#ffffff" stroke="#000000" stroke-width="2" d="M198,-90C198,-90 125,-90 125,-90 119,-90 113,-84 113,-78 113,-78 113,-66 113,-66 113,-60 119,-54 125,-54 125,-54 198,-54 198,-54 204,-54 210,-60 210,-66 210,-66 210,-78 210,-78 210,-84 204,-90 198,-90"/>
<text text-anchor="middle" x="161.5" y="-68.3" font-family="Times,serif" font-size="14.00" fill="#000000">CryptolDemos</text>
</a>
</g>
</g>
<!-- LanguageBasics&#45;&gt;CryptolDemos -->
<g id="edge10" class="edge">
<title>LanguageBasics&#45;&gt;CryptolDemos</title>
<path fill="none" stroke="#000000" d="M73.7469,-91.2629C82.9044,-89.2527 93.018,-87.0326 103.0246,-84.8361"/>
<polygon fill="#000000" stroke="#000000" points="103.9391,-88.2187 112.9561,-82.656 102.4382,-81.3815 103.9391,-88.2187"/>
</g>
<!-- SAWDemos -->
<g id="node12" class="node">
<title>SAWDemos</title>
<g id="a_node12"><a xlink:href="https://github.com/weaversa/cryptol-course/tree/L4y3rC4k3/labs/Demos/SAW/Demos.md" xlink:title="SAWDemos">
<path fill="#ffffff" stroke="#000000" stroke-width="2" d="M192.5,-36C192.5,-36 130.5,-36 130.5,-36 124.5,-36 118.5,-30 118.5,-24 118.5,-24 118.5,-12 118.5,-12 118.5,-6 124.5,0 130.5,0 130.5,0 192.5,0 192.5,0 198.5,0 204.5,-6 204.5,-12 204.5,-12 204.5,-24 204.5,-24 204.5,-30 198.5,-36 192.5,-36"/>
<text text-anchor="middle" x="161.5" y="-14.3" font-family="Times,serif" font-size="14.00" fill="#000000">SAWDemos</text>
</a>
</g>
</g>
<!-- LanguageBasics&#45;&gt;SAWDemos -->
<g id="edge11" class="edge">
<title>LanguageBasics&#45;&gt;SAWDemos</title>
<path fill="none" stroke="#000000" d="M63.1555,-79.9918C77.4249,-69.2816 95.8936,-55.9065 113,-45 114.9147,-43.7793 116.8878,-42.5545 118.8923,-41.3368"/>
<polygon fill="#000000" stroke="#000000" points="120.9675,-44.1762 127.7986,-36.0776 117.4081,-38.1486 120.9675,-44.1762"/>
</g>
<!-- Salsa20 -->
<g id="node6" class="node">
<title>Salsa20</title>
<g id="a_node6"><a xlink:href="https://github.com/weaversa/cryptol-course/tree/L4y3rC4k3/labs/Salsa20/Salsa20.md" xlink:title="Salsa20">
<path fill="#ff0000" stroke="#000000" stroke-width="2" d="M293,-198C293,-198 258,-198 258,-198 252,-198 246,-192 246,-186 246,-186 246,-174 246,-174 246,-168 252,-162 258,-162 258,-162 293,-162 293,-162 299,-162 305,-168 305,-174 305,-174 305,-186 305,-186 305,-192 299,-198 293,-198"/>
<text text-anchor="middle" x="275.5" y="-176.3" font-family="Times,serif" font-size="14.00" fill="#000000">Salsa20</text>
</a>
</g>
</g>
<!-- CRC&#45;&gt;Salsa20 -->
<g id="edge5" class="edge">
<title>CRC&#45;&gt;Salsa20</title>
<path fill="none" stroke="#ff0000" d="M188.5164,-180C202.5326,-180 219.9303,-180 235.4746,-180"/>
<polygon fill="#ff0000" stroke="#ff0000" points="235.8756,-183.5001 245.8756,-180 235.8756,-176.5001 235.8756,-183.5001"/>
</g>
<!-- CryptographicProperties -->
<g id="node7" class="node">
<title>CryptographicProperties</title>
<g id="a_node7"><a xlink:href="https://github.com/weaversa/cryptol-course/tree/L4y3rC4k3/labs/CryptoProofs/CryptoProofs.md" xlink:title="Cryptographic\nProperties">
<path fill="#ff0000" stroke="#000000" stroke-width="2" d="M424,-199C424,-199 353,-199 353,-199 347,-199 341,-193 341,-187 341,-187 341,-173 341,-173 341,-167 347,-161 353,-161 353,-161 424,-161 424,-161 430,-161 436,-167 436,-173 436,-173 436,-187 436,-187 436,-193 430,-199 424,-199"/>
<text text-anchor="middle" x="388.5" y="-183.8" font-family="Times,serif" font-size="14.00" fill="#000000">Cryptographic</text>
<text text-anchor="middle" x="388.5" y="-168.8" font-family="Times,serif" font-size="14.00" fill="#000000">Properties</text>
</a>
</g>
</g>
<!-- Salsa20&#45;&gt;CryptographicProperties -->
<g id="edge6" class="edge">
<title>Salsa20&#45;&gt;CryptographicProperties</title>
<path fill="none" stroke="#ff0000" d="M305.1894,-180C312.9913,-180 321.6811,-180 330.4214,-180"/>
<polygon fill="#ff0000" stroke="#ff0000" points="330.6546,-183.5001 340.6546,-180 330.6546,-176.5001 330.6546,-183.5001"/>
</g>
<!-- KeyWrapping -->
<g id="node8" class="node">
<title>KeyWrapping</title>
<g id="a_node8"><a xlink:href="https://github.com/weaversa/cryptol-course/tree/L4y3rC4k3/labs/KeyWrapping/KeyWrapping.md" xlink:title="Key Wrapping">
<path fill="#ff0000" stroke="#000000" stroke-width="2" d="M575.5,-279C575.5,-279 501.5,-279 501.5,-279 495.5,-279 489.5,-273 489.5,-267 489.5,-267 489.5,-255 489.5,-255 489.5,-249 495.5,-243 501.5,-243 501.5,-243 575.5,-243 575.5,-243 581.5,-243 587.5,-249 587.5,-255 587.5,-255 587.5,-267 587.5,-267 587.5,-273 581.5,-279 575.5,-279"/>
<text text-anchor="middle" x="538.5" y="-257.3" font-family="Times,serif" font-size="14.00" fill="#000000">Key Wrapping</text>
</a>
</g>
</g>
<!-- CryptographicProperties&#45;&gt;KeyWrapping -->
<g id="edge7" class="edge">
<title>CryptographicProperties&#45;&gt;KeyWrapping</title>
<path fill="none" stroke="#ff0000" d="M415.1751,-199.0926C431.1969,-210.0872 452.245,-223.7186 472,-234 475.0776,-235.6017 478.2724,-237.1744 481.5225,-238.7055"/>
<polygon fill="#ff0000" stroke="#ff0000" points="480.224,-241.9596 490.7771,-242.8995 483.1135,-235.5838 480.224,-241.9596"/>
</g>
<!-- Salsa20Properties -->
<g id="node13" class="node">
<title>Salsa20Properties</title>
<g id="a_node13"><a xlink:href="https://github.com/weaversa/cryptol-course/tree/L4y3rC4k3/labs/Salsa20/Salsa20Props.md" xlink:title="Salsa20Properties">
<path fill="#ffffff" stroke="#000000" stroke-width="2" d="M583,-225C583,-225 494,-225 494,-225 488,-225 482,-219 482,-213 482,-213 482,-201 482,-201 482,-195 488,-189 494,-189 494,-189 583,-189 583,-189 589,-189 595,-195 595,-201 595,-201 595,-213 595,-213 595,-219 589,-225 583,-225"/>
<text text-anchor="middle" x="538.5" y="-203.3" font-family="Times,serif" font-size="14.00" fill="#000000">Salsa20Properties</text>
</a>
</g>
</g>
<!-- CryptographicProperties&#45;&gt;Salsa20Properties -->
<g id="edge12" class="edge">
<title>CryptographicProperties&#45;&gt;Salsa20Properties</title>
<path fill="none" stroke="#000000" d="M436.3734,-188.6172C447.6936,-190.6549 459.9668,-192.864 471.9486,-195.0208"/>
<polygon fill="#000000" stroke="#000000" points="471.4556,-198.4882 481.9175,-196.8152 472.6958,-191.5989 471.4556,-198.4882"/>
</g>
<!-- TranspositionCiphers -->
<g id="node14" class="node">
<title>TranspositionCiphers</title>
<g id="a_node14"><a xlink:href="https://github.com/weaversa/cryptol-course/tree/L4y3rC4k3/labs/Transposition/Contents.md" xlink:title="TranspositionCiphers">
<path fill="#ffffff" stroke="#000000" stroke-width="2" d="M593,-171C593,-171 484,-171 484,-171 478,-171 472,-165 472,-159 472,-159 472,-147 472,-147 472,-141 478,-135 484,-135 484,-135 593,-135 593,-135 599,-135 605,-141 605,-147 605,-147 605,-159 605,-159 605,-165 599,-171 593,-171"/>
<text text-anchor="middle" x="538.5" y="-149.3" font-family="Times,serif" font-size="14.00" fill="#000000">TranspositionCiphers</text>
</a>
</g>
</g>
<!-- CryptographicProperties&#45;&gt;TranspositionCiphers -->
<g id="edge13" class="edge">
<title>CryptographicProperties&#45;&gt;TranspositionCiphers</title>
<path fill="none" stroke="#000000" d="M436.3734,-171.3828C444.5963,-169.9027 453.322,-168.332 462.0737,-166.7567"/>
<polygon fill="#000000" stroke="#000000" points="462.7183,-170.197 471.9401,-164.9808 461.4782,-163.3077 462.7183,-170.197"/>
</g>
<!-- ProjectEuler -->
<g id="node15" class="node">
<title>ProjectEuler</title>
<g id="a_node15"><a xlink:href="https://github.com/weaversa/cryptol-course/tree/L4y3rC4k3/labs/ProjectEuler/ProjectEuler.md" xlink:title="ProjectEuler">
<path fill="#ffffff" stroke="#000000" stroke-width="2" d="M568.5,-117C568.5,-117 508.5,-117 508.5,-117 502.5,-117 496.5,-111 496.5,-105 496.5,-105 496.5,-93 496.5,-93 496.5,-87 502.5,-81 508.5,-81 508.5,-81 568.5,-81 568.5,-81 574.5,-81 580.5,-87 580.5,-93 580.5,-93 580.5,-105 580.5,-105 580.5,-111 574.5,-117 568.5,-117"/>
<text text-anchor="middle" x="538.5" y="-95.3" font-family="Times,serif" font-size="14.00" fill="#000000">ProjectEuler</text>
</a>
</g>
</g>
<!-- CryptographicProperties&#45;&gt;ProjectEuler -->
<g id="edge14" class="edge">
<title>CryptographicProperties&#45;&gt;ProjectEuler</title>
<path fill="none" stroke="#000000" d="M415.1751,-160.9074C431.1969,-149.9128 452.245,-136.2814 472,-126 476.8357,-123.4833 481.9609,-121.0382 487.1352,-118.7137"/>
<polygon fill="#000000" stroke="#000000" points="488.6707,-121.8628 496.4503,-114.6707 485.8836,-115.4416 488.6707,-121.8628"/>
</g>
<!-- Capstone -->
<g id="node9" class="node">
<title>Capstone</title>
<g id="a_node9"><a xlink:href="https://github.com/weaversa/cryptol-course/tree/L4y3rC4k3/labs/LoremIpsum/LoremIpsum.md" xlink:title="Capstone">
<path fill="#ff0000" stroke="#000000" stroke-width="2" d="M734,-306C734,-306 691,-306 691,-306 685,-306 679,-300 679,-294 679,-294 679,-282 679,-282 679,-276 685,-270 691,-270 691,-270 734,-270 734,-270 740,-270 746,-276 746,-282 746,-282 746,-294 746,-294 746,-300 740,-306 734,-306"/>
<text text-anchor="middle" x="712.5" y="-284.3" font-family="Times,serif" font-size="14.00" fill="#000000">Capstone</text>
</a>
</g>
</g>
<!-- KeyWrapping&#45;&gt;Capstone -->
<g id="edge8" class="edge">
<title>KeyWrapping&#45;&gt;Capstone</title>
<path fill="none" stroke="#ff0000" d="M587.896,-268.6649C613.3909,-272.621 644.2208,-277.405 668.8355,-281.2245"/>
<polygon fill="#ff0000" stroke="#ff0000" points="668.5519,-284.7223 678.9704,-282.7971 669.6253,-277.8051 668.5519,-284.7223"/>
</g>
<!-- ParameterizedModules -->
<g id="node16" class="node">
<title>ParameterizedModules</title>
<g id="a_node16"><a xlink:href="https://github.com/weaversa/cryptol-course/tree/L4y3rC4k3/labs/SimonSpeck/SimonSpeck.md" xlink:title="ParameterizedModules">
<path fill="#ffffff" stroke="#000000" stroke-width="2" d="M772,-252C772,-252 653,-252 653,-252 647,-252 641,-246 641,-240 641,-240 641,-228 641,-228 641,-222 647,-216 653,-216 653,-216 772,-216 772,-216 778,-216 784,-222 784,-228 784,-228 784,-240 784,-240 784,-246 778,-252 772,-252"/>
<text text-anchor="middle" x="712.5" y="-230.3" font-family="Times,serif" font-size="14.00" fill="#000000">ParameterizedModules</text>
</a>
</g>
</g>
<!-- KeyWrapping&#45;&gt;ParameterizedModules -->
<g id="edge15" class="edge">
<title>KeyWrapping&#45;&gt;ParameterizedModules</title>
<path fill="none" stroke="#000000" d="M587.896,-253.3351C601.284,-251.2577 616.1431,-248.9519 630.8008,-246.6775"/>
<polygon fill="#000000" stroke="#000000" points="631.5507,-250.1031 640.8958,-245.111 630.4773,-243.1858 631.5507,-250.1031"/>
</g>
</g>
</svg>
