<?xml version="1.0" encoding="UTF-8" standalone="no"?>
<!DOCTYPE svg PUBLIC "-//W3C//DTD SVG 1.1//EN"
 "http://www.w3.org/Graphics/SVG/1.1/DTD/svg11.dtd">
<!-- Generated by graphviz version 2.44.1 (20200629.0846)
 -->
<!-- Pages: 1 -->
<svg width="389pt" height="44pt"
 viewBox="0.00 0.00 389.00 44.00" xmlns="http://www.w3.org/2000/svg" xmlns:xlink="http://www.w3.org/1999/xlink">
<g id="graph0" class="graph" transform="scale(1 1) rotate(0) translate(4 40)">
<polygon fill="white" stroke="transparent" points="-4,4 -4,-40 385,-40 385,4 -4,4"/>
<!-- Caesar -->
<g id="node1" class="node">
<title>Caesar</title>
<g id="a_node1"><a xlink:href="https://github.com/weaversa/cryptol-course/tree/L4y3rC4k3/labs/Demos/Cryptol/Caesar.md" xlink:title="Caesar">
<path fill="white" stroke="black" stroke-width="2" d="M42,-36C42,-36 12,-36 12,-36 6,-36 0,-30 0,-24 0,-24 0,-12 0,-12 0,-6 6,0 12,0 12,0 42,0 42,0 48,0 54,-6 54,-12 54,-12 54,-24 54,-24 54,-30 48,-36 42,-36"/>
<text text-anchor="middle" x="27" y="-14.3" font-family="Times,serif" font-size="14.00">Caesar</text>
</a>
</g>
</g>
<!-- OneTimePad -->
<g id="node2" class="node">
<title>OneTimePad</title>
<g id="a_node2"><a xlink:href="https://github.com/weaversa/cryptol-course/tree/L4y3rC4k3/labs/Demos/Cryptol/OneTimePad.md" xlink:title="One&#45;Time Pad">
<path fill="white" stroke="black" stroke-width="2" d="M175,-36C175,-36 102,-36 102,-36 96,-36 90,-30 90,-24 90,-24 90,-12 90,-12 90,-6 96,0 102,0 102,0 175,0 175,0 181,0 187,-6 187,-12 187,-12 187,-24 187,-24 187,-30 181,-36 175,-36"/>
<text text-anchor="middle" x="138.5" y="-14.3" font-family="Times,serif" font-size="14.00">One&#45;Time Pad</text>
</a>
</g>
</g>
<!-- Caesar&#45;&gt;OneTimePad -->
<g id="edge1" class="edge">
<title>Caesar&#45;&gt;OneTimePad</title>
<path fill="none" stroke="red" d="M54.23,-18C61.95,-18 70.72,-18 79.61,-18"/>
<polygon fill="red" stroke="red" points="79.64,-21.5 89.64,-18 79.64,-14.5 79.64,-21.5"/>
</g>
<!-- nQueens -->
<g id="node3" class="node">
<title>nQueens</title>
<g id="a_node3"><a xlink:href="https://github.com/weaversa/cryptol-course/tree/L4y3rC4k3/labs/Demos/Cryptol/NQueens.md" xlink:title="nQueens">
<path fill="white" stroke="black" stroke-width="2" d="M275,-36C275,-36 235,-36 235,-36 229,-36 223,-30 223,-24 223,-24 223,-12 223,-12 223,-6 229,0 235,0 235,0 275,0 275,0 281,0 287,-6 287,-12 287,-12 287,-24 287,-24 287,-30 281,-36 275,-36"/>
<text text-anchor="middle" x="255" y="-14.3" font-family="Times,serif" font-size="14.00">nQueens</text>
</a>
</g>
</g>
<!-- OneTimePad&#45;&gt;nQueens -->
<g id="edge2" class="edge">
<title>OneTimePad&#45;&gt;nQueens</title>
<path fill="none" stroke="red" d="M187.06,-18C195.53,-18 204.29,-18 212.57,-18"/>
<polygon fill="red" stroke="red" points="212.74,-21.5 222.74,-18 212.74,-14.5 212.74,-21.5"/>
</g>
<!-- Sudoku -->
<g id="node4" class="node">
<title>Sudoku</title>
<g id="a_node4"><a xlink:href="https://github.com/weaversa/cryptol-course/tree/L4y3rC4k3/labs/Demos/Cryptol/Sudoku.md" xlink:title="Sudoku">
<path fill="white" stroke="black" stroke-width="2" d="M369,-36C369,-36 335,-36 335,-36 329,-36 323,-30 323,-24 323,-24 323,-12 323,-12 323,-6 329,0 335,0 335,0 369,0 369,0 375,0 381,-6 381,-12 381,-12 381,-24 381,-24 381,-30 375,-36 369,-36"/>
<text text-anchor="middle" x="352" y="-14.3" font-family="Times,serif" font-size="14.00">Sudoku</text>
</a>
</g>
</g>
<!-- nQueens&#45;&gt;Sudoku -->
<g id="edge3" class="edge">
<title>nQueens&#45;&gt;Sudoku</title>
<path fill="none" stroke="red" d="M287.11,-18C295.26,-18 304.15,-18 312.64,-18"/>
<polygon fill="red" stroke="red" points="312.71,-21.5 322.71,-18 312.71,-14.5 312.71,-21.5"/>
</g>
</g>
</svg>
