<?xml version="1.0" encoding="UTF-8" standalone="no"?>
<!DOCTYPE svg PUBLIC "-//W3C//DTD SVG 1.1//EN"
 "http://www.w3.org/Graphics/SVG/1.1/DTD/svg11.dtd">
<!-- Generated by graphviz version 2.40.1 (20161225.0304)
 -->
<!-- Title: %3 Pages: 1 -->
<svg width="389pt" height="44pt"
 viewBox="0.00 0.00 389.00 44.00" xmlns="http://www.w3.org/2000/svg" xmlns:xlink="http://www.w3.org/1999/xlink">
<g id="graph0" class="graph" transform="scale(1 1) rotate(0) translate(4 40)">
<title>%3</title>
<!-- Caesar -->
<g id="node1" class="node">
<title>Caesar</title>
<g id="a_node1"><a xlink:href="../labs/Demos/Cryptol/Caesar.md" xlink:title="Caesar">
<path fill="#ffffff" stroke="#000000" stroke-width="2" d="M42,-36C42,-36 12,-36 12,-36 6,-36 0,-30 0,-24 0,-24 0,-12 0,-12 0,-6 6,0 12,0 12,0 42,0 42,0 48,0 54,-6 54,-12 54,-12 54,-24 54,-24 54,-30 48,-36 42,-36"/>
<text text-anchor="middle" x="27" y="-14.3" font-family="Times,serif" font-size="14.00" fill="#000000">Caesar</text>
</a>
</g>
</g>
<!-- OneTimePad -->
<g id="node2" class="node">
<title>OneTimePad</title>
<g id="a_node2"><a xlink:href="../labs/Demos/Cryptol/OneTimePad.md" xlink:title="One&#45;Time Pad">
<path fill="#ffffff" stroke="#000000" stroke-width="2" d="M175,-36C175,-36 102,-36 102,-36 96,-36 90,-30 90,-24 90,-24 90,-12 90,-12 90,-6 96,0 102,0 102,0 175,0 175,0 181,0 187,-6 187,-12 187,-12 187,-24 187,-24 187,-30 181,-36 175,-36"/>
<text text-anchor="middle" x="138.5" y="-14.3" font-family="Times,serif" font-size="14.00" fill="#000000">One&#45;Time Pad</text>
</a>
</g>
</g>
<!-- Caesar&#45;&gt;OneTimePad -->
<g id="edge1" class="edge">
<title>Caesar&#45;&gt;OneTimePad</title>
<path fill="none" stroke="#ff0000" d="M54.276,-18C62.0518,-18 70.8379,-18 79.7268,-18"/>
<polygon fill="#ff0000" stroke="#ff0000" points="79.758,-21.5001 89.7579,-18 79.7579,-14.5001 79.758,-21.5001"/>
</g>
<!-- nQueens -->
<g id="node3" class="node">
<title>nQueens</title>
<g id="a_node3"><a xlink:href="../labs/Demos/Cryptol/NQueens.md" xlink:title="nQueens">
<path fill="#ffffff" stroke="#000000" stroke-width="2" d="M275,-36C275,-36 235,-36 235,-36 229,-36 223,-30 223,-24 223,-24 223,-12 223,-12 223,-6 229,0 235,0 235,0 275,0 275,0 281,0 287,-6 287,-12 287,-12 287,-24 287,-24 287,-30 281,-36 275,-36"/>
<text text-anchor="middle" x="255" y="-14.3" font-family="Times,serif" font-size="14.00" fill="#000000">nQueens</text>
</a>
</g>
</g>
<!-- OneTimePad&#45;&gt;nQueens -->
<g id="edge2" class="edge">
<title>OneTimePad&#45;&gt;nQueens</title>
<path fill="none" stroke="#ff0000" d="M187.2315,-18C195.6489,-18 204.339,-18 212.5726,-18"/>
<polygon fill="#ff0000" stroke="#ff0000" points="212.703,-21.5001 222.703,-18 212.7029,-14.5001 212.703,-21.5001"/>
</g>
<!-- Sudoku -->
<g id="node4" class="node">
<title>Sudoku</title>
<g id="a_node4"><a xlink:href="../labs/Demos/Cryptol/Sudoku.md" xlink:title="Sudoku">
<path fill="#ffffff" stroke="#000000" stroke-width="2" d="M369,-36C369,-36 335,-36 335,-36 329,-36 323,-30 323,-24 323,-24 323,-12 323,-12 323,-6 329,0 335,0 335,0 369,0 369,0 375,0 381,-6 381,-12 381,-12 381,-24 381,-24 381,-30 375,-36 369,-36"/>
<text text-anchor="middle" x="352" y="-14.3" font-family="Times,serif" font-size="14.00" fill="#000000">Sudoku</text>
</a>
</g>
</g>
<!-- nQueens&#45;&gt;Sudoku -->
<g id="edge3" class="edge">
<title>nQueens&#45;&gt;Sudoku</title>
<path fill="none" stroke="#ff0000" d="M287.0303,-18C295.269,-18 304.2272,-18 312.7848,-18"/>
<polygon fill="#ff0000" stroke="#ff0000" points="312.9492,-21.5001 322.9492,-18 312.9491,-14.5001 312.9492,-21.5001"/>
</g>
</g>
</svg>
