<?xml version="1.0" encoding="UTF-8" standalone="no"?>
<!DOCTYPE svg PUBLIC "-//W3C//DTD SVG 1.1//EN"
 "http://www.w3.org/Graphics/SVG/1.1/DTD/svg11.dtd">
<!-- Generated by graphviz version 2.40.1 (0)
 -->
<!-- Title: %3 Pages: 1 -->
<svg width="898pt" height="399pt"
 viewBox="0.00 0.00 898.00 399.00" xmlns="http://www.w3.org/2000/svg" xmlns:xlink="http://www.w3.org/1999/xlink">
<g id="graph0" class="graph" transform="scale(1 1) rotate(0) translate(4 395)">
<title>%3</title>
<!-- Installation -->
<g id="node1" class="node">
<title>Installation</title>
<g id="a_node1"><a xlink:href="../INSTALL.html" xlink:title="Installation">
<path fill="#ffffff" stroke="#000000" stroke-width="2" d="M86,-307C86,-307 12,-307 12,-307 6,-307 0,-301 0,-295 0,-295 0,-283 0,-283 0,-277 6,-271 12,-271 12,-271 86,-271 86,-271 92,-271 98,-277 98,-283 98,-283 98,-295 98,-295 98,-301 92,-307 86,-307"/>
<text text-anchor="middle" x="49" y="-285.3" font-family="Times,serif" font-size="14.00" fill="#000000">Installation</text>
</a>
</g>
</g>
<!-- Overview -->
<g id="node2" class="node">
<title>Overview</title>
<g id="a_node2"><a xlink:href="../labs/Overview/Overview.html" xlink:title="Overview">
<path fill="#ffffff" stroke="#000000" stroke-width="2" d="M79.5,-253C79.5,-253 18.5,-253 18.5,-253 12.5,-253 6.5,-247 6.5,-241 6.5,-241 6.5,-229 6.5,-229 6.5,-223 12.5,-217 18.5,-217 18.5,-217 79.5,-217 79.5,-217 85.5,-217 91.5,-223 91.5,-229 91.5,-229 91.5,-241 91.5,-241 91.5,-247 85.5,-253 79.5,-253"/>
<text text-anchor="middle" x="49" y="-231.3" font-family="Times,serif" font-size="14.00" fill="#000000">Overview</text>
</a>
</g>
</g>
<!-- Installation&#45;&gt;Overview -->
<g id="edge1" class="edge">
<title>Installation&#45;&gt;Overview</title>
<path fill="none" stroke="#ff0000" d="M49,-270.7902C49,-268.3082 49,-265.8262 49,-263.3443"/>
<polygon fill="#ff0000" stroke="#ff0000" points="52.5001,-263.1406 49,-253.1406 45.5001,-263.1407 52.5001,-263.1406"/>
</g>
<!-- Interpreter -->
<g id="node3" class="node">
<title>Interpreter</title>
<g id="a_node3"><a xlink:href="../labs/Interpreter/Interpreter.html" xlink:title="Interpreter">
<path fill="#ffffff" stroke="#000000" stroke-width="2" d="M86,-199C86,-199 12,-199 12,-199 6,-199 0,-193 0,-187 0,-187 0,-175 0,-175 0,-169 6,-163 12,-163 12,-163 86,-163 86,-163 92,-163 98,-169 98,-175 98,-175 98,-187 98,-187 98,-193 92,-199 86,-199"/>
<text text-anchor="middle" x="49" y="-177.3" font-family="Times,serif" font-size="14.00" fill="#000000">Interpreter</text>
</a>
</g>
</g>
<!-- Overview&#45;&gt;Interpreter -->
<g id="edge2" class="edge">
<title>Overview&#45;&gt;Interpreter</title>
<path fill="none" stroke="#ff0000" d="M49,-216.7902C49,-214.3082 49,-211.8262 49,-209.3443"/>
<polygon fill="#ff0000" stroke="#ff0000" points="52.5001,-209.1406 49,-199.1406 45.5001,-209.1407 52.5001,-209.1406"/>
</g>
<!-- LanguageBasics -->
<g id="node4" class="node">
<title>LanguageBasics</title>
<g id="a_node4"><a xlink:href="../labs/Language/Basics.html" xlink:title="Language\nBasics">
<path fill="#ffffff" stroke="#000000" stroke-width="2" d="M80.5,-145C80.5,-145 17.5,-145 17.5,-145 11.5,-145 5.5,-139 5.5,-133 5.5,-133 5.5,-119 5.5,-119 5.5,-113 11.5,-107 17.5,-107 17.5,-107 80.5,-107 80.5,-107 86.5,-107 92.5,-113 92.5,-119 92.5,-119 92.5,-133 92.5,-133 92.5,-139 86.5,-145 80.5,-145"/>
<text text-anchor="middle" x="49" y="-129.8" font-family="Times,serif" font-size="14.00" fill="#000000">Language</text>
<text text-anchor="middle" x="49" y="-114.8" font-family="Times,serif" font-size="14.00" fill="#000000">Basics</text>
</a>
</g>
</g>
<!-- Interpreter&#45;&gt;LanguageBasics -->
<g id="edge3" class="edge">
<title>Interpreter&#45;&gt;LanguageBasics</title>
<path fill="none" stroke="#ff0000" d="M49,-162.8893C49,-160.4209 49,-157.9524 49,-155.484"/>
<polygon fill="#ff0000" stroke="#ff0000" points="52.5001,-155.3359 49,-145.3359 45.5001,-155.336 52.5001,-155.3359"/>
</g>
<!-- CRC -->
<g id="node5" class="node">
<title>CRC</title>
<g id="a_node5"><a xlink:href="../labs/CRC/CRC.html" xlink:title="CRC">
<path fill="#ffffff" stroke="#000000" stroke-width="2" d="M211,-252C211,-252 181,-252 181,-252 175,-252 169,-246 169,-240 169,-240 169,-228 169,-228 169,-222 175,-216 181,-216 181,-216 211,-216 211,-216 217,-216 223,-222 223,-228 223,-228 223,-240 223,-240 223,-246 217,-252 211,-252"/>
<text text-anchor="middle" x="196" y="-230.3" font-family="Times,serif" font-size="14.00" fill="#000000">CRC</text>
</a>
</g>
</g>
<!-- LanguageBasics&#45;&gt;CRC -->
<g id="edge4" class="edge">
<title>LanguageBasics&#45;&gt;CRC</title>
<path fill="none" stroke="#ff0000" d="M86.6417,-145.0901C90.6681,-147.8251 94.5481,-150.8058 98,-154 118.9004,-173.34 112.0823,-188.8209 134,-207 141.4325,-213.1647 150.4891,-218.1552 159.3589,-222.0897"/>
<polygon fill="#ff0000" stroke="#ff0000" points="158.2434,-225.4146 168.8247,-225.9501 160.8869,-218.9329 158.2434,-225.4146"/>
</g>
<!-- StyleGuide -->
<g id="node10" class="node">
<title>StyleGuide</title>
<g id="a_node10"><a xlink:href="../cryptol-style.html" xlink:title="Style Guide">
<path fill="#ffffff" stroke="#000000" stroke-width="2" d="M234,-198C234,-198 158,-198 158,-198 152,-198 146,-192 146,-186 146,-186 146,-174 146,-174 146,-168 152,-162 158,-162 158,-162 234,-162 234,-162 240,-162 246,-168 246,-174 246,-174 246,-186 246,-186 246,-192 240,-198 234,-198"/>
<text text-anchor="middle" x="196" y="-176.3" font-family="Times,serif" font-size="14.00" fill="#000000">Style Guide</text>
</a>
</g>
</g>
<!-- LanguageBasics&#45;&gt;StyleGuide -->
<g id="edge9" class="edge">
<title>LanguageBasics&#45;&gt;StyleGuide</title>
<path fill="none" stroke="#000000" d="M92.7068,-142.0556C106.6612,-147.1817 122.3402,-152.9413 137.1859,-158.3948"/>
<polygon fill="#000000" stroke="#000000" points="136.2012,-161.7617 146.7948,-161.9246 138.615,-155.191 136.2012,-161.7617"/>
</g>
<!-- CryptolDemos -->
<g id="node11" class="node">
<title>CryptolDemos</title>
<g id="a_node11"><a xlink:href="../labs/Demos/Cryptol/Demos.html" xlink:title="Cryptol Demos">
<path fill="#ffffff" stroke="#000000" stroke-width="2" d="M246,-144C246,-144 146,-144 146,-144 140,-144 134,-138 134,-132 134,-132 134,-120 134,-120 134,-114 140,-108 146,-108 146,-108 246,-108 246,-108 252,-108 258,-114 258,-120 258,-120 258,-132 258,-132 258,-138 252,-144 246,-144"/>
<text text-anchor="middle" x="196" y="-122.3" font-family="Times,serif" font-size="14.00" fill="#000000">Cryptol Demos</text>
</a>
</g>
</g>
<!-- LanguageBasics&#45;&gt;CryptolDemos -->
<g id="edge10" class="edge">
<title>LanguageBasics&#45;&gt;CryptolDemos</title>
<path fill="none" stroke="#000000" d="M92.7068,-126C102.5195,-126 113.185,-126 123.8139,-126"/>
<polygon fill="#000000" stroke="#000000" points="123.9642,-129.5001 133.9642,-126 123.9642,-122.5001 123.9642,-129.5001"/>
</g>
<!-- SAWDemos -->
<g id="node12" class="node">
<title>SAWDemos</title>
<g id="a_node12"><a xlink:href="../labs/Demos/SAW/Demos.html" xlink:title="SAW Demos">
<path fill="#ffffff" stroke="#000000" stroke-width="2" d="M236,-90C236,-90 156,-90 156,-90 150,-90 144,-84 144,-78 144,-78 144,-66 144,-66 144,-60 150,-54 156,-54 156,-54 236,-54 236,-54 242,-54 248,-60 248,-66 248,-66 248,-78 248,-78 248,-84 242,-90 236,-90"/>
<text text-anchor="middle" x="196" y="-68.3" font-family="Times,serif" font-size="14.00" fill="#000000">SAW Demos</text>
</a>
</g>
</g>
<!-- LanguageBasics&#45;&gt;SAWDemos -->
<g id="edge11" class="edge">
<title>LanguageBasics&#45;&gt;SAWDemos</title>
<path fill="none" stroke="#000000" d="M92.7068,-109.9444C106.6612,-104.8183 122.3402,-99.0587 137.1859,-93.6052"/>
<polygon fill="#000000" stroke="#000000" points="138.615,-96.809 146.7948,-90.0754 136.2012,-90.2383 138.615,-96.809"/>
</g>
<!-- TypeHackery -->
<g id="node13" class="node">
<title>TypeHackery</title>
<g id="a_node13"><a xlink:href="../labs/Language/IntroTypeHackery.html" xlink:title="Type Hackery">
<path fill="#ffffff" stroke="#000000" stroke-width="2" d="M243,-36C243,-36 149,-36 149,-36 143,-36 137,-30 137,-24 137,-24 137,-12 137,-12 137,-6 143,0 149,0 149,0 243,0 243,0 249,0 255,-6 255,-12 255,-12 255,-24 255,-24 255,-30 249,-36 243,-36"/>
<text text-anchor="middle" x="196" y="-14.3" font-family="Times,serif" font-size="14.00" fill="#000000">Type Hackery</text>
</a>
</g>
</g>
<!-- LanguageBasics&#45;&gt;TypeHackery -->
<g id="edge12" class="edge">
<title>LanguageBasics&#45;&gt;TypeHackery</title>
<path fill="none" stroke="#000000" d="M65.341,-106.969C81.4076,-89.1545 107.3363,-62.6993 134,-45 136.1397,-43.5797 138.3664,-42.205 140.6497,-40.8784"/>
<polygon fill="#000000" stroke="#000000" points="142.5362,-43.8374 149.672,-36.006 139.21,-37.6782 142.5362,-43.8374"/>
</g>
<!-- Salsa20 -->
<g id="node6" class="node">
<title>Salsa20</title>
<g id="a_node6"><a xlink:href="../labs/Salsa20/Salsa20.html" xlink:title="Salsa20">
<path fill="#ffffff" stroke="#000000" stroke-width="2" d="M355,-252C355,-252 306,-252 306,-252 300,-252 294,-246 294,-240 294,-240 294,-228 294,-228 294,-222 300,-216 306,-216 306,-216 355,-216 355,-216 361,-216 367,-222 367,-228 367,-228 367,-240 367,-240 367,-246 361,-252 355,-252"/>
<text text-anchor="middle" x="330.5" y="-230.3" font-family="Times,serif" font-size="14.00" fill="#000000">Salsa20</text>
</a>
</g>
</g>
<!-- CRC&#45;&gt;Salsa20 -->
<g id="edge5" class="edge">
<title>CRC&#45;&gt;Salsa20</title>
<path fill="none" stroke="#ff0000" d="M223.2181,-234C240.5401,-234 263.4334,-234 283.622,-234"/>
<polygon fill="#ff0000" stroke="#ff0000" points="283.8889,-237.5001 293.8889,-234 283.8888,-230.5001 283.8889,-237.5001"/>
</g>
<!-- CryptographicProperties -->
<g id="node7" class="node">
<title>CryptographicProperties</title>
<g id="a_node7"><a xlink:href="../labs/CryptoProofs/CryptoProofs.html" xlink:title="Cryptographic\nProperties">
<path fill="#ffffff" stroke="#000000" stroke-width="2" d="M512,-253C512,-253 415,-253 415,-253 409,-253 403,-247 403,-241 403,-241 403,-227 403,-227 403,-221 409,-215 415,-215 415,-215 512,-215 512,-215 518,-215 524,-221 524,-227 524,-227 524,-241 524,-241 524,-247 518,-253 512,-253"/>
<text text-anchor="middle" x="463.5" y="-237.8" font-family="Times,serif" font-size="14.00" fill="#000000">Cryptographic</text>
<text text-anchor="middle" x="463.5" y="-222.8" font-family="Times,serif" font-size="14.00" fill="#000000">Properties</text>
</a>
</g>
</g>
<!-- Salsa20&#45;&gt;CryptographicProperties -->
<g id="edge6" class="edge">
<title>Salsa20&#45;&gt;CryptographicProperties</title>
<path fill="none" stroke="#ff0000" d="M367.1949,-234C375.2394,-234 384.0176,-234 392.8938,-234"/>
<polygon fill="#ff0000" stroke="#ff0000" points="392.923,-237.5001 402.923,-234 392.9229,-230.5001 392.923,-237.5001"/>
</g>
<!-- ModuleSystem -->
<g id="node8" class="node">
<title>ModuleSystem</title>
<g id="a_node8"><a xlink:href="../labs/ModuleSystem.html" xlink:title="Module\nSystem">
<path fill="#ffffff" stroke="#000000" stroke-width="2" d="M671.5,-365C671.5,-365 625.5,-365 625.5,-365 619.5,-365 613.5,-359 613.5,-353 613.5,-353 613.5,-339 613.5,-339 613.5,-333 619.5,-327 625.5,-327 625.5,-327 671.5,-327 671.5,-327 677.5,-327 683.5,-333 683.5,-339 683.5,-339 683.5,-353 683.5,-353 683.5,-359 677.5,-365 671.5,-365"/>
<text text-anchor="middle" x="648.5" y="-349.8" font-family="Times,serif" font-size="14.00" fill="#000000">Module</text>
<text text-anchor="middle" x="648.5" y="-334.8" font-family="Times,serif" font-size="14.00" fill="#000000">System</text>
</a>
</g>
</g>
<!-- CryptographicProperties&#45;&gt;ModuleSystem -->
<g id="edge7" class="edge">
<title>CryptographicProperties&#45;&gt;ModuleSystem</title>
<path fill="none" stroke="#ff0000" d="M480.9581,-253.2415C499.0601,-272.1446 529.0072,-300.6094 560,-318 573.36,-325.4965 589.0013,-331.2865 603.3874,-335.6037"/>
<polygon fill="#ff0000" stroke="#ff0000" points="602.5273,-338.9978 613.103,-338.3601 604.4379,-332.2636 602.5273,-338.9978"/>
</g>
<!-- Salsa20Properties -->
<g id="node14" class="node">
<title>Salsa20Properties</title>
<g id="a_node14"><a xlink:href="../labs/Salsa20/Salsa20Props.html" xlink:title="Salsa20\nProperties">
<path fill="#ffffff" stroke="#000000" stroke-width="2" d="M682.5,-309C682.5,-309 614.5,-309 614.5,-309 608.5,-309 602.5,-303 602.5,-297 602.5,-297 602.5,-283 602.5,-283 602.5,-277 608.5,-271 614.5,-271 614.5,-271 682.5,-271 682.5,-271 688.5,-271 694.5,-277 694.5,-283 694.5,-283 694.5,-297 694.5,-297 694.5,-303 688.5,-309 682.5,-309"/>
<text text-anchor="middle" x="648.5" y="-293.8" font-family="Times,serif" font-size="14.00" fill="#000000">Salsa20</text>
<text text-anchor="middle" x="648.5" y="-278.8" font-family="Times,serif" font-size="14.00" fill="#000000">Properties</text>
</a>
</g>
</g>
<!-- CryptographicProperties&#45;&gt;Salsa20Properties -->
<g id="edge13" class="edge">
<title>CryptographicProperties&#45;&gt;Salsa20Properties</title>
<path fill="none" stroke="#000000" d="M524.0759,-252.3365C546.1906,-259.0307 571.0801,-266.5648 592.7544,-273.1256"/>
<polygon fill="#000000" stroke="#000000" points="591.8799,-276.5177 602.465,-276.0651 593.908,-269.8179 591.8799,-276.5177"/>
</g>
<!-- TranspositionCiphers -->
<g id="node15" class="node">
<title>TranspositionCiphers</title>
<g id="a_node15"><a xlink:href="../labs/Transposition/Contents.html" xlink:title="Transposition\nCiphers">
<path fill="#ffffff" stroke="#000000" stroke-width="2" d="M694,-253C694,-253 603,-253 603,-253 597,-253 591,-247 591,-241 591,-241 591,-227 591,-227 591,-221 597,-215 603,-215 603,-215 694,-215 694,-215 700,-215 706,-221 706,-227 706,-227 706,-241 706,-241 706,-247 700,-253 694,-253"/>
<text text-anchor="middle" x="648.5" y="-237.8" font-family="Times,serif" font-size="14.00" fill="#000000">Transposition</text>
<text text-anchor="middle" x="648.5" y="-222.8" font-family="Times,serif" font-size="14.00" fill="#000000">Ciphers</text>
</a>
</g>
</g>
<!-- CryptographicProperties&#45;&gt;TranspositionCiphers -->
<g id="edge14" class="edge">
<title>CryptographicProperties&#45;&gt;TranspositionCiphers</title>
<path fill="none" stroke="#000000" d="M524.0759,-234C542.2142,-234 562.2191,-234 580.7857,-234"/>
<polygon fill="#000000" stroke="#000000" points="580.9315,-237.5001 590.9315,-234 580.9315,-230.5001 580.9315,-237.5001"/>
</g>
<!-- ProjectEuler -->
<g id="node16" class="node">
<title>ProjectEuler</title>
<g id="a_node16"><a xlink:href="../labs/ProjectEuler/ProjectEuler.html" xlink:title="Project Euler">
<path fill="#ffffff" stroke="#000000" stroke-width="2" d="M692.5,-197C692.5,-197 604.5,-197 604.5,-197 598.5,-197 592.5,-191 592.5,-185 592.5,-185 592.5,-173 592.5,-173 592.5,-167 598.5,-161 604.5,-161 604.5,-161 692.5,-161 692.5,-161 698.5,-161 704.5,-167 704.5,-173 704.5,-173 704.5,-185 704.5,-185 704.5,-191 698.5,-197 692.5,-197"/>
<text text-anchor="middle" x="648.5" y="-175.3" font-family="Times,serif" font-size="14.00" fill="#000000">Project Euler</text>
</a>
</g>
</g>
<!-- CryptographicProperties&#45;&gt;ProjectEuler -->
<g id="edge15" class="edge">
<title>CryptographicProperties&#45;&gt;ProjectEuler</title>
<path fill="none" stroke="#000000" d="M524.0759,-215.9909C542.8308,-210.4152 563.5815,-204.246 582.6742,-198.5698"/>
<polygon fill="#000000" stroke="#000000" points="583.9,-201.8569 592.4879,-195.6522 581.9051,-195.1471 583.9,-201.8569"/>
</g>
<!-- ContinuousReasoning -->
<g id="node17" class="node">
<title>ContinuousReasoning</title>
<g id="a_node17"><a xlink:href="../labs/SAW/SAW.html" xlink:title="SAW\nContinuous Reasoning">
<path fill="#ffffff" stroke="#000000" stroke-width="2" d="M725,-143C725,-143 572,-143 572,-143 566,-143 560,-137 560,-131 560,-131 560,-117 560,-117 560,-111 566,-105 572,-105 572,-105 725,-105 725,-105 731,-105 737,-111 737,-117 737,-117 737,-131 737,-131 737,-137 731,-143 725,-143"/>
<text text-anchor="middle" x="648.5" y="-127.8" font-family="Times,serif" font-size="14.00" fill="#000000">SAW</text>
<text text-anchor="middle" x="648.5" y="-112.8" font-family="Times,serif" font-size="14.00" fill="#000000">Continuous Reasoning</text>
</a>
</g>
</g>
<!-- CryptographicProperties&#45;&gt;ContinuousReasoning -->
<g id="edge16" class="edge">
<title>CryptographicProperties&#45;&gt;ContinuousReasoning</title>
<path fill="none" stroke="#000000" d="M481.3905,-214.8926C499.5956,-196.4572 529.4136,-168.9238 560,-152 563.0537,-150.3104 566.224,-148.7062 569.4695,-147.1852"/>
<polygon fill="#000000" stroke="#000000" points="571.0181,-150.3281 578.78,-143.1168 568.2152,-143.9138 571.0181,-150.3281"/>
</g>
<!-- Capstone -->
<g id="node9" class="node">
<title>Capstone</title>
<g id="a_node9"><a xlink:href="../labs/LoremIpsum/LoremIpsum.html" xlink:title="Capstone">
<path fill="#ffffff" stroke="#000000" stroke-width="2" d="M861.5,-391C861.5,-391 801.5,-391 801.5,-391 795.5,-391 789.5,-385 789.5,-379 789.5,-379 789.5,-367 789.5,-367 789.5,-361 795.5,-355 801.5,-355 801.5,-355 861.5,-355 861.5,-355 867.5,-355 873.5,-361 873.5,-367 873.5,-367 873.5,-379 873.5,-379 873.5,-385 867.5,-391 861.5,-391"/>
<text text-anchor="middle" x="831.5" y="-369.3" font-family="Times,serif" font-size="14.00" fill="#000000">Capstone</text>
</a>
</g>
</g>
<!-- ModuleSystem&#45;&gt;Capstone -->
<g id="edge8" class="edge">
<title>ModuleSystem&#45;&gt;Capstone</title>
<path fill="none" stroke="#ff0000" d="M683.7842,-351.2059C710.8453,-355.1985 748.6171,-360.7714 779.1909,-365.2823"/>
<polygon fill="#ff0000" stroke="#ff0000" points="778.8538,-368.7703 789.2576,-366.7675 779.8756,-361.8453 778.8538,-368.7703"/>
</g>
<!-- KeyWrapping -->
<g id="node18" class="node">
<title>KeyWrapping</title>
<g id="a_node18"><a xlink:href="../labs/KeyWrapping/KeyWrapping.html" xlink:title="Key Wrapping">
<path fill="#ffffff" stroke="#000000" stroke-width="2" d="M878,-337C878,-337 785,-337 785,-337 779,-337 773,-331 773,-325 773,-325 773,-313 773,-313 773,-307 779,-301 785,-301 785,-301 878,-301 878,-301 884,-301 890,-307 890,-313 890,-313 890,-325 890,-325 890,-331 884,-337 878,-337"/>
<text text-anchor="middle" x="831.5" y="-315.3" font-family="Times,serif" font-size="14.00" fill="#000000">Key Wrapping</text>
</a>
</g>
</g>
<!-- ModuleSystem&#45;&gt;KeyWrapping -->
<g id="edge17" class="edge">
<title>ModuleSystem&#45;&gt;KeyWrapping</title>
<path fill="none" stroke="#000000" d="M683.7842,-340.7941C706.1638,-337.4922 735.8687,-333.1095 762.7697,-329.1405"/>
<polygon fill="#000000" stroke="#000000" points="763.5393,-332.565 772.9213,-327.6428 762.5175,-325.6399 763.5393,-332.565"/>
</g>
</g>
</svg>
