<?xml version="1.0" encoding="UTF-8" standalone="no"?>
<!DOCTYPE svg PUBLIC "-//W3C//DTD SVG 1.1//EN"
 "http://www.w3.org/Graphics/SVG/1.1/DTD/svg11.dtd">
<!-- Generated by graphviz version 2.40.1 (0)
 -->
<!-- Title: %3 Pages: 1 -->
<svg width="789pt" height="318pt"
 viewBox="0.00 0.00 789.00 318.00" xmlns="http://www.w3.org/2000/svg" xmlns:xlink="http://www.w3.org/1999/xlink">
<g id="graph0" class="graph" transform="scale(1 1) rotate(0) translate(4 314)">
<title>%3</title>
<!-- Installation -->
<g id="node1" class="node">
<title>Installation</title>
<g id="a_node1"><a xlink:href="../INSTALL.html" xlink:title="Installation">
<path fill="#ffffff" stroke="#000000" stroke-width="2" d="M86,-307C86,-307 12,-307 12,-307 6,-307 0,-301 0,-295 0,-295 0,-283 0,-283 0,-277 6,-271 12,-271 12,-271 86,-271 86,-271 92,-271 98,-277 98,-283 98,-283 98,-295 98,-295 98,-301 92,-307 86,-307"/>
<text text-anchor="middle" x="49" y="-285.3" font-family="Times,serif" font-size="14.00" fill="#000000">Installation</text>
</a>
</g>
</g>
<!-- Overview -->
<g id="node2" class="node">
<title>Overview</title>
<g id="a_node2"><a xlink:href="../labs/Overview/Overview.html" xlink:title="Overview">
<path fill="#ffffff" stroke="#000000" stroke-width="2" d="M79.5,-253C79.5,-253 18.5,-253 18.5,-253 12.5,-253 6.5,-247 6.5,-241 6.5,-241 6.5,-229 6.5,-229 6.5,-223 12.5,-217 18.5,-217 18.5,-217 79.5,-217 79.5,-217 85.5,-217 91.5,-223 91.5,-229 91.5,-229 91.5,-241 91.5,-241 91.5,-247 85.5,-253 79.5,-253"/>
<text text-anchor="middle" x="49" y="-231.3" font-family="Times,serif" font-size="14.00" fill="#000000">Overview</text>
</a>
</g>
</g>
<!-- Installation&#45;&gt;Overview -->
<g id="edge1" class="edge">
<title>Installation&#45;&gt;Overview</title>
<path fill="none" stroke="#ff0000" d="M49,-270.7902C49,-268.3082 49,-265.8262 49,-263.3443"/>
<polygon fill="#ff0000" stroke="#ff0000" points="52.5001,-263.1406 49,-253.1406 45.5001,-263.1407 52.5001,-263.1406"/>
</g>
<!-- Interpreter -->
<g id="node3" class="node">
<title>Interpreter</title>
<g id="a_node3"><a xlink:href="../labs/Interpreter/Interpreter.html" xlink:title="Interpreter">
<path fill="#ffffff" stroke="#000000" stroke-width="2" d="M86,-199C86,-199 12,-199 12,-199 6,-199 0,-193 0,-187 0,-187 0,-175 0,-175 0,-169 6,-163 12,-163 12,-163 86,-163 86,-163 92,-163 98,-169 98,-175 98,-175 98,-187 98,-187 98,-193 92,-199 86,-199"/>
<text text-anchor="middle" x="49" y="-177.3" font-family="Times,serif" font-size="14.00" fill="#000000">Interpreter</text>
</a>
</g>
</g>
<!-- Overview&#45;&gt;Interpreter -->
<g id="edge2" class="edge">
<title>Overview&#45;&gt;Interpreter</title>
<path fill="none" stroke="#ff0000" d="M49,-216.7902C49,-214.3082 49,-211.8262 49,-209.3443"/>
<polygon fill="#ff0000" stroke="#ff0000" points="52.5001,-209.1406 49,-199.1406 45.5001,-209.1407 52.5001,-209.1406"/>
</g>
<!-- LanguageBasics -->
<g id="node4" class="node">
<title>LanguageBasics</title>
<g id="a_node4"><a xlink:href="../labs/Language/Basics.html" xlink:title="Language\nBasics">
<path fill="#ffffff" stroke="#000000" stroke-width="2" d="M80.5,-145C80.5,-145 17.5,-145 17.5,-145 11.5,-145 5.5,-139 5.5,-133 5.5,-133 5.5,-119 5.5,-119 5.5,-113 11.5,-107 17.5,-107 17.5,-107 80.5,-107 80.5,-107 86.5,-107 92.5,-113 92.5,-119 92.5,-119 92.5,-133 92.5,-133 92.5,-139 86.5,-145 80.5,-145"/>
<text text-anchor="middle" x="49" y="-129.8" font-family="Times,serif" font-size="14.00" fill="#000000">Language</text>
<text text-anchor="middle" x="49" y="-114.8" font-family="Times,serif" font-size="14.00" fill="#000000">Basics</text>
</a>
</g>
</g>
<!-- Interpreter&#45;&gt;LanguageBasics -->
<g id="edge3" class="edge">
<title>Interpreter&#45;&gt;LanguageBasics</title>
<path fill="none" stroke="#ff0000" d="M49,-162.8893C49,-160.4209 49,-157.9524 49,-155.484"/>
<polygon fill="#ff0000" stroke="#ff0000" points="52.5001,-155.3359 49,-145.3359 45.5001,-155.336 52.5001,-155.3359"/>
</g>
<!-- CRC -->
<g id="node5" class="node">
<title>CRC</title>
<g id="a_node5"><a xlink:href="../labs/CRC/CRC.html" xlink:title="CRC">
<path fill="#ffffff" stroke="#000000" stroke-width="2" d="M211,-252C211,-252 181,-252 181,-252 175,-252 169,-246 169,-240 169,-240 169,-228 169,-228 169,-222 175,-216 181,-216 181,-216 211,-216 211,-216 217,-216 223,-222 223,-228 223,-228 223,-240 223,-240 223,-246 217,-252 211,-252"/>
<text text-anchor="middle" x="196" y="-230.3" font-family="Times,serif" font-size="14.00" fill="#000000">CRC</text>
</a>
</g>
</g>
<!-- LanguageBasics&#45;&gt;CRC -->
<g id="edge4" class="edge">
<title>LanguageBasics&#45;&gt;CRC</title>
<path fill="none" stroke="#ff0000" d="M86.6417,-145.0901C90.6681,-147.8251 94.5481,-150.8058 98,-154 118.9004,-173.34 112.0823,-188.8209 134,-207 141.4325,-213.1647 150.4891,-218.1552 159.3589,-222.0897"/>
<polygon fill="#ff0000" stroke="#ff0000" points="158.2434,-225.4146 168.8247,-225.9501 160.8869,-218.9329 158.2434,-225.4146"/>
</g>
<!-- StyleGuide -->
<g id="node11" class="node">
<title>StyleGuide</title>
<g id="a_node11"><a xlink:href="../cryptol-style.html" xlink:title="Style Guide">
<path fill="#ffffff" stroke="#000000" stroke-width="2" d="M234,-198C234,-198 158,-198 158,-198 152,-198 146,-192 146,-186 146,-186 146,-174 146,-174 146,-168 152,-162 158,-162 158,-162 234,-162 234,-162 240,-162 246,-168 246,-174 246,-174 246,-186 246,-186 246,-192 240,-198 234,-198"/>
<text text-anchor="middle" x="196" y="-176.3" font-family="Times,serif" font-size="14.00" fill="#000000">Style Guide</text>
</a>
</g>
</g>
<!-- LanguageBasics&#45;&gt;StyleGuide -->
<g id="edge10" class="edge">
<title>LanguageBasics&#45;&gt;StyleGuide</title>
<path fill="none" stroke="#000000" d="M92.7068,-142.0556C106.6612,-147.1817 122.3402,-152.9413 137.1859,-158.3948"/>
<polygon fill="#000000" stroke="#000000" points="136.2012,-161.7617 146.7948,-161.9246 138.615,-155.191 136.2012,-161.7617"/>
</g>
<!-- CryptolDemos -->
<g id="node12" class="node">
<title>CryptolDemos</title>
<g id="a_node12"><a xlink:href="../labs/Demos/Cryptol/Demos.html" xlink:title="Cryptol Demos">
<path fill="#ffffff" stroke="#000000" stroke-width="2" d="M246,-144C246,-144 146,-144 146,-144 140,-144 134,-138 134,-132 134,-132 134,-120 134,-120 134,-114 140,-108 146,-108 146,-108 246,-108 246,-108 252,-108 258,-114 258,-120 258,-120 258,-132 258,-132 258,-138 252,-144 246,-144"/>
<text text-anchor="middle" x="196" y="-122.3" font-family="Times,serif" font-size="14.00" fill="#000000">Cryptol Demos</text>
</a>
</g>
</g>
<!-- LanguageBasics&#45;&gt;CryptolDemos -->
<g id="edge11" class="edge">
<title>LanguageBasics&#45;&gt;CryptolDemos</title>
<path fill="none" stroke="#000000" d="M92.7068,-126C102.5195,-126 113.185,-126 123.8139,-126"/>
<polygon fill="#000000" stroke="#000000" points="123.9642,-129.5001 133.9642,-126 123.9642,-122.5001 123.9642,-129.5001"/>
</g>
<!-- SAWDemos -->
<g id="node13" class="node">
<title>SAWDemos</title>
<g id="a_node13"><a xlink:href="../labs/Demos/SAW/Demos.html" xlink:title="SAW Demos">
<path fill="#ffffff" stroke="#000000" stroke-width="2" d="M236,-90C236,-90 156,-90 156,-90 150,-90 144,-84 144,-78 144,-78 144,-66 144,-66 144,-60 150,-54 156,-54 156,-54 236,-54 236,-54 242,-54 248,-60 248,-66 248,-66 248,-78 248,-78 248,-84 242,-90 236,-90"/>
<text text-anchor="middle" x="196" y="-68.3" font-family="Times,serif" font-size="14.00" fill="#000000">SAW Demos</text>
</a>
</g>
</g>
<!-- LanguageBasics&#45;&gt;SAWDemos -->
<g id="edge12" class="edge">
<title>LanguageBasics&#45;&gt;SAWDemos</title>
<path fill="none" stroke="#000000" d="M92.7068,-109.9444C106.6612,-104.8183 122.3402,-99.0587 137.1859,-93.6052"/>
<polygon fill="#000000" stroke="#000000" points="138.615,-96.809 146.7948,-90.0754 136.2012,-90.2383 138.615,-96.809"/>
</g>
<!-- TypeHackery -->
<g id="node14" class="node">
<title>TypeHackery</title>
<g id="a_node14"><a xlink:href="../labs/Language/IntroTypeHackery.html" xlink:title="Type Hackery">
<path fill="#ffffff" stroke="#000000" stroke-width="2" d="M243,-36C243,-36 149,-36 149,-36 143,-36 137,-30 137,-24 137,-24 137,-12 137,-12 137,-6 143,0 149,0 149,0 243,0 243,0 249,0 255,-6 255,-12 255,-12 255,-24 255,-24 255,-30 249,-36 243,-36"/>
<text text-anchor="middle" x="196" y="-14.3" font-family="Times,serif" font-size="14.00" fill="#000000">Type Hackery</text>
</a>
</g>
</g>
<!-- LanguageBasics&#45;&gt;TypeHackery -->
<g id="edge13" class="edge">
<title>LanguageBasics&#45;&gt;TypeHackery</title>
<path fill="none" stroke="#000000" d="M65.341,-106.969C81.4076,-89.1545 107.3363,-62.6993 134,-45 136.1397,-43.5797 138.3664,-42.205 140.6497,-40.8784"/>
<polygon fill="#000000" stroke="#000000" points="142.5362,-43.8374 149.672,-36.006 139.21,-37.6782 142.5362,-43.8374"/>
</g>
<!-- Salsa20 -->
<g id="node6" class="node">
<title>Salsa20</title>
<g id="a_node6"><a xlink:href="../labs/Salsa20/Salsa20.html" xlink:title="Salsa20">
<path fill="#ffffff" stroke="#000000" stroke-width="2" d="M379,-252C379,-252 330,-252 330,-252 324,-252 318,-246 318,-240 318,-240 318,-228 318,-228 318,-222 324,-216 330,-216 330,-216 379,-216 379,-216 385,-216 391,-222 391,-228 391,-228 391,-240 391,-240 391,-246 385,-252 379,-252"/>
<text text-anchor="middle" x="354.5" y="-230.3" font-family="Times,serif" font-size="14.00" fill="#000000">Salsa20</text>
</a>
</g>
</g>
<!-- CRC&#45;&gt;Salsa20 -->
<g id="edge5" class="edge">
<title>CRC&#45;&gt;Salsa20</title>
<path fill="none" stroke="#ff0000" d="M223.2471,-234C246.3999,-234 280.1549,-234 307.6353,-234"/>
<polygon fill="#ff0000" stroke="#ff0000" points="307.825,-237.5001 317.825,-234 307.825,-230.5001 307.825,-237.5001"/>
</g>
<!-- CryptographicProperties -->
<g id="node7" class="node">
<title>CryptographicProperties</title>
<g id="a_node7"><a xlink:href="../labs/CryptoProofs/CryptoProofs.html" xlink:title="Cryptographic\nProperties">
<path fill="#ffffff" stroke="#000000" stroke-width="2" d="M403,-198C403,-198 306,-198 306,-198 300,-198 294,-192 294,-186 294,-186 294,-172 294,-172 294,-166 300,-160 306,-160 306,-160 403,-160 403,-160 409,-160 415,-166 415,-172 415,-172 415,-186 415,-186 415,-192 409,-198 403,-198"/>
<text text-anchor="middle" x="354.5" y="-182.8" font-family="Times,serif" font-size="14.00" fill="#000000">Cryptographic</text>
<text text-anchor="middle" x="354.5" y="-167.8" font-family="Times,serif" font-size="14.00" fill="#000000">Properties</text>
</a>
</g>
</g>
<!-- Salsa20&#45;&gt;CryptographicProperties -->
<g id="edge6" class="edge">
<title>Salsa20&#45;&gt;CryptographicProperties</title>
<path fill="none" stroke="#ff0000" d="M354.5,-215.8893C354.5,-213.4209 354.5,-210.9524 354.5,-208.484"/>
<polygon fill="#ff0000" stroke="#ff0000" points="358.0001,-208.3359 354.5,-198.3359 351.0001,-208.336 358.0001,-208.3359"/>
</g>
<!-- ModuleSystem -->
<g id="node8" class="node">
<title>ModuleSystem</title>
<g id="a_node8"><a xlink:href="../labs/ModuleSystem.html" xlink:title="Module\nSystem">
<path fill="#ffffff" stroke="#000000" stroke-width="2" d="M562.5,-310C562.5,-310 516.5,-310 516.5,-310 510.5,-310 504.5,-304 504.5,-298 504.5,-298 504.5,-284 504.5,-284 504.5,-278 510.5,-272 516.5,-272 516.5,-272 562.5,-272 562.5,-272 568.5,-272 574.5,-278 574.5,-284 574.5,-284 574.5,-298 574.5,-298 574.5,-304 568.5,-310 562.5,-310"/>
<text text-anchor="middle" x="539.5" y="-294.8" font-family="Times,serif" font-size="14.00" fill="#000000">Module</text>
<text text-anchor="middle" x="539.5" y="-279.8" font-family="Times,serif" font-size="14.00" fill="#000000">System</text>
</a>
</g>
</g>
<!-- CryptographicProperties&#45;&gt;ModuleSystem -->
<g id="edge7" class="edge">
<title>CryptographicProperties&#45;&gt;ModuleSystem</title>
<path fill="none" stroke="#ff0000" d="M402.658,-198.1077C407.0476,-200.7713 411.2469,-203.7317 415,-207 437.3135,-226.431 427.4981,-245.0245 451,-263 463.4803,-272.5456 479.2914,-278.8817 494.0859,-283.0683"/>
<polygon fill="#ff0000" stroke="#ff0000" points="493.5566,-286.5457 504.1123,-285.6364 495.2935,-279.7646 493.5566,-286.5457"/>
</g>
<!-- Salsa20Properties -->
<g id="node15" class="node">
<title>Salsa20Properties</title>
<g id="a_node15"><a xlink:href="../labs/Salsa20/Salsa20Props.html" xlink:title="Salsa20\nProperties">
<path fill="#ffffff" stroke="#000000" stroke-width="2" d="M573.5,-254C573.5,-254 505.5,-254 505.5,-254 499.5,-254 493.5,-248 493.5,-242 493.5,-242 493.5,-228 493.5,-228 493.5,-222 499.5,-216 505.5,-216 505.5,-216 573.5,-216 573.5,-216 579.5,-216 585.5,-222 585.5,-228 585.5,-228 585.5,-242 585.5,-242 585.5,-248 579.5,-254 573.5,-254"/>
<text text-anchor="middle" x="539.5" y="-238.8" font-family="Times,serif" font-size="14.00" fill="#000000">Salsa20</text>
<text text-anchor="middle" x="539.5" y="-223.8" font-family="Times,serif" font-size="14.00" fill="#000000">Properties</text>
</a>
</g>
</g>
<!-- CryptographicProperties&#45;&gt;Salsa20Properties -->
<g id="edge14" class="edge">
<title>CryptographicProperties&#45;&gt;Salsa20Properties</title>
<path fill="none" stroke="#000000" d="M415.0759,-197.3365C437.1906,-204.0307 462.0801,-211.5648 483.7544,-218.1256"/>
<polygon fill="#000000" stroke="#000000" points="482.8799,-221.5177 493.465,-221.0651 484.908,-214.8179 482.8799,-221.5177"/>
</g>
<!-- TranspositionCiphers -->
<g id="node16" class="node">
<title>TranspositionCiphers</title>
<g id="a_node16"><a xlink:href="../labs/Transposition/Contents.html" xlink:title="Transposition\nCiphers">
<path fill="#ffffff" stroke="#000000" stroke-width="2" d="M585,-198C585,-198 494,-198 494,-198 488,-198 482,-192 482,-186 482,-186 482,-172 482,-172 482,-166 488,-160 494,-160 494,-160 585,-160 585,-160 591,-160 597,-166 597,-172 597,-172 597,-186 597,-186 597,-192 591,-198 585,-198"/>
<text text-anchor="middle" x="539.5" y="-182.8" font-family="Times,serif" font-size="14.00" fill="#000000">Transposition</text>
<text text-anchor="middle" x="539.5" y="-167.8" font-family="Times,serif" font-size="14.00" fill="#000000">Ciphers</text>
</a>
</g>
</g>
<!-- CryptographicProperties&#45;&gt;TranspositionCiphers -->
<g id="edge15" class="edge">
<title>CryptographicProperties&#45;&gt;TranspositionCiphers</title>
<path fill="none" stroke="#000000" d="M415.0759,-179C433.2142,-179 453.2191,-179 471.7857,-179"/>
<polygon fill="#000000" stroke="#000000" points="471.9315,-182.5001 481.9315,-179 471.9315,-175.5001 471.9315,-182.5001"/>
</g>
<!-- ProjectEuler -->
<g id="node17" class="node">
<title>ProjectEuler</title>
<g id="a_node17"><a xlink:href="../labs/ProjectEuler/ProjectEuler.html" xlink:title="Project Euler">
<path fill="#ffffff" stroke="#000000" stroke-width="2" d="M583.5,-142C583.5,-142 495.5,-142 495.5,-142 489.5,-142 483.5,-136 483.5,-130 483.5,-130 483.5,-118 483.5,-118 483.5,-112 489.5,-106 495.5,-106 495.5,-106 583.5,-106 583.5,-106 589.5,-106 595.5,-112 595.5,-118 595.5,-118 595.5,-130 595.5,-130 595.5,-136 589.5,-142 583.5,-142"/>
<text text-anchor="middle" x="539.5" y="-120.3" font-family="Times,serif" font-size="14.00" fill="#000000">Project Euler</text>
</a>
</g>
</g>
<!-- CryptographicProperties&#45;&gt;ProjectEuler -->
<g id="edge16" class="edge">
<title>CryptographicProperties&#45;&gt;ProjectEuler</title>
<path fill="none" stroke="#000000" d="M415.0759,-160.9909C433.8308,-155.4152 454.5815,-149.246 473.6742,-143.5698"/>
<polygon fill="#000000" stroke="#000000" points="474.9,-146.8569 483.4879,-140.6522 472.9051,-140.1471 474.9,-146.8569"/>
</g>
<!-- ContinuousReasoning -->
<g id="node18" class="node">
<title>ContinuousReasoning</title>
<g id="a_node18"><a xlink:href="../labs/SAW/SAW.html" xlink:title="SAW\nContinuous Reasoning">
<path fill="#ffffff" stroke="#000000" stroke-width="2" d="M616,-88C616,-88 463,-88 463,-88 457,-88 451,-82 451,-76 451,-76 451,-62 451,-62 451,-56 457,-50 463,-50 463,-50 616,-50 616,-50 622,-50 628,-56 628,-62 628,-62 628,-76 628,-76 628,-82 622,-88 616,-88"/>
<text text-anchor="middle" x="539.5" y="-72.8" font-family="Times,serif" font-size="14.00" fill="#000000">SAW</text>
<text text-anchor="middle" x="539.5" y="-57.8" font-family="Times,serif" font-size="14.00" fill="#000000">Continuous Reasoning</text>
</a>
</g>
</g>
<!-- CryptographicProperties&#45;&gt;ContinuousReasoning -->
<g id="edge17" class="edge">
<title>CryptographicProperties&#45;&gt;ContinuousReasoning</title>
<path fill="none" stroke="#000000" d="M372.3905,-159.8926C390.5956,-141.4572 420.4136,-113.9238 451,-97 454.0537,-95.3104 457.224,-93.7062 460.4695,-92.1852"/>
<polygon fill="#000000" stroke="#000000" points="462.0181,-95.3281 469.78,-88.1168 459.2152,-88.9138 462.0181,-95.3281"/>
</g>
<!-- KeyWrapping -->
<g id="node9" class="node">
<title>KeyWrapping</title>
<g id="a_node9"><a xlink:href="../labs/KeyWrapping/KeyWrapping.html" xlink:title="Key Wrapping">
<path fill="#ffffff" stroke="#000000" stroke-width="2" d="M769,-309C769,-309 676,-309 676,-309 670,-309 664,-303 664,-297 664,-297 664,-285 664,-285 664,-279 670,-273 676,-273 676,-273 769,-273 769,-273 775,-273 781,-279 781,-285 781,-285 781,-297 781,-297 781,-303 775,-309 769,-309"/>
<text text-anchor="middle" x="722.5" y="-287.3" font-family="Times,serif" font-size="14.00" fill="#000000">Key Wrapping</text>
</a>
</g>
</g>
<!-- ModuleSystem&#45;&gt;KeyWrapping -->
<g id="edge8" class="edge">
<title>ModuleSystem&#45;&gt;KeyWrapping</title>
<path fill="none" stroke="#ff0000" d="M574.7842,-291C597.1638,-291 626.8687,-291 653.7697,-291"/>
<polygon fill="#ff0000" stroke="#ff0000" points="653.9214,-294.5001 663.9213,-291 653.9213,-287.5001 653.9214,-294.5001"/>
</g>
<!-- Capstone -->
<g id="node10" class="node">
<title>Capstone</title>
<g id="a_node10"><a xlink:href="../labs/LoremIpsum/LoremIpsum.html" xlink:title="Capstone">
<path fill="#ffffff" stroke="#000000" stroke-width="2" d="M752.5,-255C752.5,-255 692.5,-255 692.5,-255 686.5,-255 680.5,-249 680.5,-243 680.5,-243 680.5,-231 680.5,-231 680.5,-225 686.5,-219 692.5,-219 692.5,-219 752.5,-219 752.5,-219 758.5,-219 764.5,-225 764.5,-231 764.5,-231 764.5,-243 764.5,-243 764.5,-249 758.5,-255 752.5,-255"/>
<text text-anchor="middle" x="722.5" y="-233.3" font-family="Times,serif" font-size="14.00" fill="#000000">Capstone</text>
</a>
</g>
</g>
<!-- KeyWrapping&#45;&gt;Capstone -->
<g id="edge9" class="edge">
<title>KeyWrapping&#45;&gt;Capstone</title>
<path fill="none" stroke="#ff0000" d="M722.5,-272.7902C722.5,-270.3082 722.5,-267.8262 722.5,-265.3443"/>
<polygon fill="#ff0000" stroke="#ff0000" points="726.0001,-265.1406 722.5,-255.1406 719.0001,-265.1407 726.0001,-265.1406"/>
</g>
</g>
</svg>
