<?xml version="1.0" encoding="UTF-8" standalone="no"?>
<!DOCTYPE svg PUBLIC "-//W3C//DTD SVG 1.1//EN"
 "http://www.w3.org/Graphics/SVG/1.1/DTD/svg11.dtd">
<!-- Generated by graphviz version 2.40.1 (20161225.0304)
 -->
<!-- Title: %3 Pages: 1 -->
<svg width="713pt" height="370pt"
 viewBox="0.00 0.00 713.00 370.00" xmlns="http://www.w3.org/2000/svg" xmlns:xlink="http://www.w3.org/1999/xlink">
<g id="graph0" class="graph" transform="scale(1 1) rotate(0) translate(4 366)">
<title>%3</title>
<!-- Installation -->
<g id="node1" class="node">
<title>Installation</title>
<g id="a_node1"><a xlink:href="../INSTALL.md" xlink:title="Installation">
<path fill="#ffffff" stroke="#000000" stroke-width="2" d="M65,-307C65,-307 12,-307 12,-307 6,-307 0,-301 0,-295 0,-295 0,-283 0,-283 0,-277 6,-271 12,-271 12,-271 65,-271 65,-271 71,-271 77,-277 77,-283 77,-283 77,-295 77,-295 77,-301 71,-307 65,-307"/>
<text text-anchor="middle" x="38.5" y="-285.3" font-family="Times,serif" font-size="14.00" fill="#000000">Installation</text>
</a>
</g>
</g>
<!-- Overview -->
<g id="node2" class="node">
<title>Overview</title>
<g id="a_node2"><a xlink:href="../labs/Overview/Overview.md" xlink:title="Overview">
<path fill="#ffffff" stroke="#000000" stroke-width="2" d="M61.5,-253C61.5,-253 15.5,-253 15.5,-253 9.5,-253 3.5,-247 3.5,-241 3.5,-241 3.5,-229 3.5,-229 3.5,-223 9.5,-217 15.5,-217 15.5,-217 61.5,-217 61.5,-217 67.5,-217 73.5,-223 73.5,-229 73.5,-229 73.5,-241 73.5,-241 73.5,-247 67.5,-253 61.5,-253"/>
<text text-anchor="middle" x="38.5" y="-231.3" font-family="Times,serif" font-size="14.00" fill="#000000">Overview</text>
</a>
</g>
</g>
<!-- Installation&#45;&gt;Overview -->
<g id="edge1" class="edge">
<title>Installation&#45;&gt;Overview</title>
<path fill="none" stroke="#ff0000" d="M38.5,-270.7902C38.5,-268.3082 38.5,-265.8262 38.5,-263.3443"/>
<polygon fill="#ff0000" stroke="#ff0000" points="42.0001,-263.1406 38.5,-253.1406 35.0001,-263.1407 42.0001,-263.1406"/>
</g>
<!-- Interpreter -->
<g id="node3" class="node">
<title>Interpreter</title>
<g id="a_node3"><a xlink:href="../labs/Interpreter/Interpreter.md" xlink:title="Interpreter">
<path fill="#ffffff" stroke="#000000" stroke-width="2" d="M63.5,-199C63.5,-199 13.5,-199 13.5,-199 7.5,-199 1.5,-193 1.5,-187 1.5,-187 1.5,-175 1.5,-175 1.5,-169 7.5,-163 13.5,-163 13.5,-163 63.5,-163 63.5,-163 69.5,-163 75.5,-169 75.5,-175 75.5,-175 75.5,-187 75.5,-187 75.5,-193 69.5,-199 63.5,-199"/>
<text text-anchor="middle" x="38.5" y="-177.3" font-family="Times,serif" font-size="14.00" fill="#000000">Interpreter</text>
</a>
</g>
</g>
<!-- Overview&#45;&gt;Interpreter -->
<g id="edge2" class="edge">
<title>Overview&#45;&gt;Interpreter</title>
<path fill="none" stroke="#ff0000" d="M38.5,-216.7902C38.5,-214.3082 38.5,-211.8262 38.5,-209.3443"/>
<polygon fill="#ff0000" stroke="#ff0000" points="42.0001,-209.1406 38.5,-199.1406 35.0001,-209.1407 42.0001,-209.1406"/>
</g>
<!-- LanguageBasics -->
<g id="node4" class="node">
<title>LanguageBasics</title>
<g id="a_node4"><a xlink:href="../labs/Language/Basics.md" xlink:title="Language\nBasics">
<path fill="#ffffff" stroke="#000000" stroke-width="2" d="M61.5,-145C61.5,-145 15.5,-145 15.5,-145 9.5,-145 3.5,-139 3.5,-133 3.5,-133 3.5,-119 3.5,-119 3.5,-113 9.5,-107 15.5,-107 15.5,-107 61.5,-107 61.5,-107 67.5,-107 73.5,-113 73.5,-119 73.5,-119 73.5,-133 73.5,-133 73.5,-139 67.5,-145 61.5,-145"/>
<text text-anchor="middle" x="38.5" y="-129.8" font-family="Times,serif" font-size="14.00" fill="#000000">Language</text>
<text text-anchor="middle" x="38.5" y="-114.8" font-family="Times,serif" font-size="14.00" fill="#000000">Basics</text>
</a>
</g>
</g>
<!-- Interpreter&#45;&gt;LanguageBasics -->
<g id="edge3" class="edge">
<title>Interpreter&#45;&gt;LanguageBasics</title>
<path fill="none" stroke="#ff0000" d="M38.5,-162.8893C38.5,-160.4209 38.5,-157.9524 38.5,-155.484"/>
<polygon fill="#ff0000" stroke="#ff0000" points="42.0001,-155.3359 38.5,-145.3359 35.0001,-155.336 42.0001,-155.3359"/>
</g>
<!-- CRC -->
<g id="node5" class="node">
<title>CRC</title>
<g id="a_node5"><a xlink:href="../labs/CRC/CRC.md" xlink:title="CRC">
<path fill="#ffffff" stroke="#000000" stroke-width="2" d="M178.5,-252C178.5,-252 148.5,-252 148.5,-252 142.5,-252 136.5,-246 136.5,-240 136.5,-240 136.5,-228 136.5,-228 136.5,-222 142.5,-216 148.5,-216 148.5,-216 178.5,-216 178.5,-216 184.5,-216 190.5,-222 190.5,-228 190.5,-228 190.5,-240 190.5,-240 190.5,-246 184.5,-252 178.5,-252"/>
<text text-anchor="middle" x="163.5" y="-230.3" font-family="Times,serif" font-size="14.00" fill="#000000">CRC</text>
</a>
</g>
</g>
<!-- LanguageBasics&#45;&gt;CRC -->
<g id="edge4" class="edge">
<title>LanguageBasics&#45;&gt;CRC</title>
<path fill="none" stroke="#ff0000" d="M67.1844,-145.122C70.6467,-147.9242 74.0103,-150.9126 77,-154 96.8092,-174.4563 91.8293,-187.9562 113,-207 117.25,-210.8231 122.1386,-214.2909 127.1644,-217.3702"/>
<polygon fill="#ff0000" stroke="#ff0000" points="125.8198,-220.6297 136.2508,-222.486 129.2541,-214.5301 125.8198,-220.6297"/>
</g>
<!-- StyleGuide -->
<g id="node10" class="node">
<title>StyleGuide</title>
<g id="a_node10"><a xlink:href="../cryptol-style.md" xlink:title="Style Guide">
<path fill="#ffffff" stroke="#000000" stroke-width="2" d="M192,-198C192,-198 135,-198 135,-198 129,-198 123,-192 123,-186 123,-186 123,-174 123,-174 123,-168 129,-162 135,-162 135,-162 192,-162 192,-162 198,-162 204,-168 204,-174 204,-174 204,-186 204,-186 204,-192 198,-198 192,-198"/>
<text text-anchor="middle" x="163.5" y="-176.3" font-family="Times,serif" font-size="14.00" fill="#000000">Style Guide</text>
</a>
</g>
</g>
<!-- LanguageBasics&#45;&gt;StyleGuide -->
<g id="edge9" class="edge">
<title>LanguageBasics&#45;&gt;StyleGuide</title>
<path fill="none" stroke="#000000" d="M73.6521,-141.1857C85.9708,-146.5074 100.0551,-152.5918 113.3609,-158.3399"/>
<polygon fill="#000000" stroke="#000000" points="112.3075,-161.6974 122.8756,-162.4503 115.0836,-155.2714 112.3075,-161.6974"/>
</g>
<!-- CryptolDemos -->
<g id="node11" class="node">
<title>CryptolDemos</title>
<g id="a_node11"><a xlink:href="../labs/Demos/Cryptol/Demos.md" xlink:title="Cryptol Demos">
<path fill="#ffffff" stroke="#000000" stroke-width="2" d="M202,-144C202,-144 125,-144 125,-144 119,-144 113,-138 113,-132 113,-132 113,-120 113,-120 113,-114 119,-108 125,-108 125,-108 202,-108 202,-108 208,-108 214,-114 214,-120 214,-120 214,-132 214,-132 214,-138 208,-144 202,-144"/>
<text text-anchor="middle" x="163.5" y="-122.3" font-family="Times,serif" font-size="14.00" fill="#000000">Cryptol Demos</text>
</a>
</g>
</g>
<!-- LanguageBasics&#45;&gt;CryptolDemos -->
<g id="edge10" class="edge">
<title>LanguageBasics&#45;&gt;CryptolDemos</title>
<path fill="none" stroke="#000000" d="M73.6521,-126C82.6559,-126 92.6029,-126 102.4997,-126"/>
<polygon fill="#000000" stroke="#000000" points="102.7535,-129.5001 112.7535,-126 102.7534,-122.5001 102.7535,-129.5001"/>
</g>
<!-- SAWDemos -->
<g id="node12" class="node">
<title>SAWDemos</title>
<g id="a_node12"><a xlink:href="../labs/Demos/SAW/Demos.md" xlink:title="SAW Demos">
<path fill="#ffffff" stroke="#000000" stroke-width="2" d="M196.5,-90C196.5,-90 130.5,-90 130.5,-90 124.5,-90 118.5,-84 118.5,-78 118.5,-78 118.5,-66 118.5,-66 118.5,-60 124.5,-54 130.5,-54 130.5,-54 196.5,-54 196.5,-54 202.5,-54 208.5,-60 208.5,-66 208.5,-66 208.5,-78 208.5,-78 208.5,-84 202.5,-90 196.5,-90"/>
<text text-anchor="middle" x="163.5" y="-68.3" font-family="Times,serif" font-size="14.00" fill="#000000">SAW Demos</text>
</a>
</g>
</g>
<!-- LanguageBasics&#45;&gt;SAWDemos -->
<g id="edge11" class="edge">
<title>LanguageBasics&#45;&gt;SAWDemos</title>
<path fill="none" stroke="#000000" d="M73.6521,-110.8143C85.6222,-105.6432 99.2593,-99.752 112.2294,-94.1489"/>
<polygon fill="#000000" stroke="#000000" points="113.7303,-97.3132 121.5223,-90.1344 110.9542,-90.8872 113.7303,-97.3132"/>
</g>
<!-- TypeHackery -->
<g id="node13" class="node">
<title>TypeHackery</title>
<g id="a_node13"><a xlink:href="../labs/Language/IntroTypeHackery.md" xlink:title="Type Hackery">
<path fill="#ffffff" stroke="#000000" stroke-width="2" d="M198.5,-36C198.5,-36 128.5,-36 128.5,-36 122.5,-36 116.5,-30 116.5,-24 116.5,-24 116.5,-12 116.5,-12 116.5,-6 122.5,0 128.5,0 128.5,0 198.5,0 198.5,0 204.5,0 210.5,-6 210.5,-12 210.5,-12 210.5,-24 210.5,-24 210.5,-30 204.5,-36 198.5,-36"/>
<text text-anchor="middle" x="163.5" y="-14.3" font-family="Times,serif" font-size="14.00" fill="#000000">Type Hackery</text>
</a>
</g>
</g>
<!-- LanguageBasics&#45;&gt;TypeHackery -->
<g id="edge12" class="edge">
<title>LanguageBasics&#45;&gt;TypeHackery</title>
<path fill="none" stroke="#000000" d="M52.936,-106.9325C66.9268,-89.3382 89.4371,-63.2526 113,-45 114.5326,-43.8128 116.1247,-42.6498 117.7584,-41.5142"/>
<polygon fill="#000000" stroke="#000000" points="119.6811,-44.439 126.1902,-36.0794 115.8887,-38.5553 119.6811,-44.439"/>
</g>
<!-- Salsa20 -->
<g id="node6" class="node">
<title>Salsa20</title>
<g id="a_node6"><a xlink:href="../labs/Salsa20/Salsa20.md" xlink:title="Salsa20">
<path fill="#ffffff" stroke="#000000" stroke-width="2" d="M297,-252C297,-252 262,-252 262,-252 256,-252 250,-246 250,-240 250,-240 250,-228 250,-228 250,-222 256,-216 262,-216 262,-216 297,-216 297,-216 303,-216 309,-222 309,-228 309,-228 309,-240 309,-240 309,-246 303,-252 297,-252"/>
<text text-anchor="middle" x="279.5" y="-230.3" font-family="Times,serif" font-size="14.00" fill="#000000">Salsa20</text>
</a>
</g>
</g>
<!-- CRC&#45;&gt;Salsa20 -->
<g id="edge5" class="edge">
<title>CRC&#45;&gt;Salsa20</title>
<path fill="none" stroke="#ff0000" d="M190.6968,-234C205.199,-234 223.3205,-234 239.4052,-234"/>
<polygon fill="#ff0000" stroke="#ff0000" points="239.6224,-237.5001 249.6224,-234 239.6224,-230.5001 239.6224,-237.5001"/>
</g>
<!-- CryptographicProperties -->
<g id="node7" class="node">
<title>CryptographicProperties</title>
<g id="a_node7"><a xlink:href="../labs/CryptoProofs/CryptoProofs.md" xlink:title="Cryptographic\nProperties">
<path fill="#ffffff" stroke="#000000" stroke-width="2" d="M428,-253C428,-253 357,-253 357,-253 351,-253 345,-247 345,-241 345,-241 345,-227 345,-227 345,-221 351,-215 357,-215 357,-215 428,-215 428,-215 434,-215 440,-221 440,-227 440,-227 440,-241 440,-241 440,-247 434,-253 428,-253"/>
<text text-anchor="middle" x="392.5" y="-237.8" font-family="Times,serif" font-size="14.00" fill="#000000">Cryptographic</text>
<text text-anchor="middle" x="392.5" y="-222.8" font-family="Times,serif" font-size="14.00" fill="#000000">Properties</text>
</a>
</g>
</g>
<!-- Salsa20&#45;&gt;CryptographicProperties -->
<g id="edge6" class="edge">
<title>Salsa20&#45;&gt;CryptographicProperties</title>
<path fill="none" stroke="#ff0000" d="M309.1894,-234C316.9913,-234 325.6811,-234 334.4214,-234"/>
<polygon fill="#ff0000" stroke="#ff0000" points="334.6546,-237.5001 344.6546,-234 334.6546,-230.5001 334.6546,-237.5001"/>
</g>
<!-- KeyWrapping -->
<g id="node8" class="node">
<title>KeyWrapping</title>
<g id="a_node8"><a xlink:href="../labs/KeyWrapping/KeyWrapping.md" xlink:title="Key Wrapping">
<path fill="#ffffff" stroke="#000000" stroke-width="2" d="M562,-335C562,-335 488,-335 488,-335 482,-335 476,-329 476,-323 476,-323 476,-311 476,-311 476,-305 482,-299 488,-299 488,-299 562,-299 562,-299 568,-299 574,-305 574,-311 574,-311 574,-323 574,-323 574,-329 568,-335 562,-335"/>
<text text-anchor="middle" x="525" y="-313.3" font-family="Times,serif" font-size="14.00" fill="#000000">Key Wrapping</text>
</a>
</g>
</g>
<!-- CryptographicProperties&#45;&gt;KeyWrapping -->
<g id="edge7" class="edge">
<title>CryptographicProperties&#45;&gt;KeyWrapping</title>
<path fill="none" stroke="#ff0000" d="M419.5635,-253.0222C435.7188,-264.1566 456.771,-278.2847 476,-290 478.1411,-291.3045 480.3485,-292.6203 482.5873,-293.9321"/>
<polygon fill="#ff0000" stroke="#ff0000" points="480.8879,-296.9923 491.3025,-298.9383 484.3746,-290.9224 480.8879,-296.9923"/>
</g>
<!-- Salsa20Properties -->
<g id="node14" class="node">
<title>Salsa20Properties</title>
<g id="a_node14"><a xlink:href="../labs/Salsa20/Salsa20Props.md" xlink:title="Salsa20\nProperties">
<path fill="#ffffff" stroke="#000000" stroke-width="2" d="M548.5,-281C548.5,-281 501.5,-281 501.5,-281 495.5,-281 489.5,-275 489.5,-269 489.5,-269 489.5,-255 489.5,-255 489.5,-249 495.5,-243 501.5,-243 501.5,-243 548.5,-243 548.5,-243 554.5,-243 560.5,-249 560.5,-255 560.5,-255 560.5,-269 560.5,-269 560.5,-275 554.5,-281 548.5,-281"/>
<text text-anchor="middle" x="525" y="-265.8" font-family="Times,serif" font-size="14.00" fill="#000000">Salsa20</text>
<text text-anchor="middle" x="525" y="-250.8" font-family="Times,serif" font-size="14.00" fill="#000000">Properties</text>
</a>
</g>
</g>
<!-- CryptographicProperties&#45;&gt;Salsa20Properties -->
<g id="edge13" class="edge">
<title>CryptographicProperties&#45;&gt;Salsa20Properties</title>
<path fill="none" stroke="#000000" d="M440.3355,-244.1086C453.0865,-246.8032 466.8262,-249.7067 479.4508,-252.3745"/>
<polygon fill="#000000" stroke="#000000" points="478.7887,-255.8118 489.2963,-254.4551 480.2361,-248.9631 478.7887,-255.8118"/>
</g>
<!-- TranspositionCiphers -->
<g id="node15" class="node">
<title>TranspositionCiphers</title>
<g id="a_node15"><a xlink:href="../labs/Transposition/Contents.md" xlink:title="Transposition\nCiphers">
<path fill="#ffffff" stroke="#000000" stroke-width="2" d="M558.5,-225C558.5,-225 491.5,-225 491.5,-225 485.5,-225 479.5,-219 479.5,-213 479.5,-213 479.5,-199 479.5,-199 479.5,-193 485.5,-187 491.5,-187 491.5,-187 558.5,-187 558.5,-187 564.5,-187 570.5,-193 570.5,-199 570.5,-199 570.5,-213 570.5,-213 570.5,-219 564.5,-225 558.5,-225"/>
<text text-anchor="middle" x="525" y="-209.8" font-family="Times,serif" font-size="14.00" fill="#000000">Transposition</text>
<text text-anchor="middle" x="525" y="-194.8" font-family="Times,serif" font-size="14.00" fill="#000000">Ciphers</text>
</a>
</g>
</g>
<!-- CryptographicProperties&#45;&gt;TranspositionCiphers -->
<g id="edge14" class="edge">
<title>CryptographicProperties&#45;&gt;TranspositionCiphers</title>
<path fill="none" stroke="#000000" d="M440.3355,-223.8914C449.7983,-221.8917 459.8056,-219.7769 469.4975,-217.7288"/>
<polygon fill="#000000" stroke="#000000" points="470.3871,-221.1182 479.4474,-215.6262 468.9398,-214.2695 470.3871,-221.1182"/>
</g>
<!-- ProjectEuler -->
<g id="node16" class="node">
<title>ProjectEuler</title>
<g id="a_node16"><a xlink:href="../labs/ProjectEuler/ProjectEuler.md" xlink:title="Project Euler">
<path fill="#ffffff" stroke="#000000" stroke-width="2" d="M557,-169C557,-169 493,-169 493,-169 487,-169 481,-163 481,-157 481,-157 481,-145 481,-145 481,-139 487,-133 493,-133 493,-133 557,-133 557,-133 563,-133 569,-139 569,-145 569,-145 569,-157 569,-157 569,-163 563,-169 557,-169"/>
<text text-anchor="middle" x="525" y="-147.3" font-family="Times,serif" font-size="14.00" fill="#000000">Project Euler</text>
</a>
</g>
</g>
<!-- CryptographicProperties&#45;&gt;ProjectEuler -->
<g id="edge15" class="edge">
<title>CryptographicProperties&#45;&gt;ProjectEuler</title>
<path fill="none" stroke="#000000" d="M419.5635,-214.9778C435.7188,-203.8434 456.771,-189.7153 476,-178 478.1411,-176.6955 480.3485,-175.3797 482.5873,-174.0679"/>
<polygon fill="#000000" stroke="#000000" points="484.3746,-177.0776 491.3025,-169.0617 480.8879,-171.0077 484.3746,-177.0776"/>
</g>
<!-- Capstone -->
<g id="node9" class="node">
<title>Capstone</title>
<g id="a_node9"><a xlink:href="../labs/LoremIpsum/LoremIpsum.md" xlink:title="Capstone">
<path fill="#ffffff" stroke="#000000" stroke-width="2" d="M679,-362C679,-362 636,-362 636,-362 630,-362 624,-356 624,-350 624,-350 624,-338 624,-338 624,-332 630,-326 636,-326 636,-326 679,-326 679,-326 685,-326 691,-332 691,-338 691,-338 691,-350 691,-350 691,-356 685,-362 679,-362"/>
<text text-anchor="middle" x="657.5" y="-340.3" font-family="Times,serif" font-size="14.00" fill="#000000">Capstone</text>
</a>
</g>
</g>
<!-- KeyWrapping&#45;&gt;Capstone -->
<g id="edge8" class="edge">
<title>KeyWrapping&#45;&gt;Capstone</title>
<path fill="none" stroke="#ff0000" d="M574.3381,-327.0538C587.3429,-329.7038 601.2795,-332.5437 613.9547,-335.1266"/>
<polygon fill="#ff0000" stroke="#ff0000" points="613.3101,-338.5671 623.8076,-337.1344 614.7079,-331.7081 613.3101,-338.5671"/>
</g>
<!-- ParameterizedModules -->
<g id="node17" class="node">
<title>ParameterizedModules</title>
<g id="a_node17"><a xlink:href="../labs/SimonSpeck/SimonSpeck.md" xlink:title="Parameterized\nModules">
<path fill="#ffffff" stroke="#000000" stroke-width="2" d="M693,-308C693,-308 622,-308 622,-308 616,-308 610,-302 610,-296 610,-296 610,-282 610,-282 610,-276 616,-270 622,-270 622,-270 693,-270 693,-270 699,-270 705,-276 705,-282 705,-282 705,-296 705,-296 705,-302 699,-308 693,-308"/>
<text text-anchor="middle" x="657.5" y="-292.8" font-family="Times,serif" font-size="14.00" fill="#000000">Parameterized</text>
<text text-anchor="middle" x="657.5" y="-277.8" font-family="Times,serif" font-size="14.00" fill="#000000">Modules</text>
</a>
</g>
</g>
<!-- KeyWrapping&#45;&gt;ParameterizedModules -->
<g id="edge16" class="edge">
<title>KeyWrapping&#45;&gt;ParameterizedModules</title>
<path fill="none" stroke="#000000" d="M574.3381,-306.5738C582.6937,-304.8081 591.434,-302.9611 599.9773,-301.1558"/>
<polygon fill="#000000" stroke="#000000" points="600.8206,-304.5549 609.8809,-299.0629 599.3733,-297.7062 600.8206,-304.5549"/>
</g>
</g>
</svg>
