<?xml version="1.0" encoding="UTF-8" standalone="no"?>
<!DOCTYPE svg PUBLIC "-//W3C//DTD SVG 1.1//EN"
 "http://www.w3.org/Graphics/SVG/1.1/DTD/svg11.dtd">
<!-- Generated by graphviz version 2.47.1 (20210417.1919)
 -->
<!-- Pages: 1 -->
<svg width="755pt" height="398pt"
 viewBox="0.00 0.00 755.00 398.00" xmlns="http://www.w3.org/2000/svg" xmlns:xlink="http://www.w3.org/1999/xlink">
<g id="graph0" class="graph" transform="scale(1 1) rotate(0) translate(4 394)">
<!-- Installation -->
<g id="node1" class="node">
<title>Installation</title>
<g id="a_node1"><a xlink:href="../INSTALL.html" xlink:title="Installation">
<path fill="white" stroke="black" stroke-width="2" d="M65,-307C65,-307 12,-307 12,-307 6,-307 0,-301 0,-295 0,-295 0,-283 0,-283 0,-277 6,-271 12,-271 12,-271 65,-271 65,-271 71,-271 77,-277 77,-283 77,-283 77,-295 77,-295 77,-301 71,-307 65,-307"/>
<text text-anchor="middle" x="38.5" y="-285.3" font-family="Times,serif" font-size="14.00">Installation</text>
</a>
</g>
</g>
<!-- Overview -->
<g id="node2" class="node">
<title>Overview</title>
<g id="a_node2"><a xlink:href="../labs/Overview/Overview.html" xlink:title="Overview">
<path fill="white" stroke="black" stroke-width="2" d="M61.5,-253C61.5,-253 15.5,-253 15.5,-253 9.5,-253 3.5,-247 3.5,-241 3.5,-241 3.5,-229 3.5,-229 3.5,-223 9.5,-217 15.5,-217 15.5,-217 61.5,-217 61.5,-217 67.5,-217 73.5,-223 73.5,-229 73.5,-229 73.5,-241 73.5,-241 73.5,-247 67.5,-253 61.5,-253"/>
<text text-anchor="middle" x="38.5" y="-231.3" font-family="Times,serif" font-size="14.00">Overview</text>
</a>
</g>
</g>
<!-- Installation&#45;&gt;Overview -->
<g id="edge1" class="edge">
<title>Installation&#45;&gt;Overview</title>
<path fill="none" stroke="red" d="M38.5,-270.79C38.5,-268.31 38.5,-265.83 38.5,-263.34"/>
<polygon fill="red" stroke="red" points="42,-263.14 38.5,-253.14 35,-263.14 42,-263.14"/>
</g>
<!-- Interpreter -->
<g id="node3" class="node">
<title>Interpreter</title>
<g id="a_node3"><a xlink:href="../labs/Interpreter/Interpreter.html" xlink:title="Interpreter">
<path fill="white" stroke="black" stroke-width="2" d="M63.5,-199C63.5,-199 13.5,-199 13.5,-199 7.5,-199 1.5,-193 1.5,-187 1.5,-187 1.5,-175 1.5,-175 1.5,-169 7.5,-163 13.5,-163 13.5,-163 63.5,-163 63.5,-163 69.5,-163 75.5,-169 75.5,-175 75.5,-175 75.5,-187 75.5,-187 75.5,-193 69.5,-199 63.5,-199"/>
<text text-anchor="middle" x="38.5" y="-177.3" font-family="Times,serif" font-size="14.00">Interpreter</text>
</a>
</g>
</g>
<!-- Overview&#45;&gt;Interpreter -->
<g id="edge2" class="edge">
<title>Overview&#45;&gt;Interpreter</title>
<path fill="none" stroke="red" d="M38.5,-216.79C38.5,-214.31 38.5,-211.83 38.5,-209.34"/>
<polygon fill="red" stroke="red" points="42,-209.14 38.5,-199.14 35,-209.14 42,-209.14"/>
</g>
<!-- LanguageBasics -->
<g id="node4" class="node">
<title>LanguageBasics</title>
<g id="a_node4"><a xlink:href="../labs/Language/Basics.html" xlink:title="Language\nBasics">
<path fill="white" stroke="black" stroke-width="2" d="M61.5,-145C61.5,-145 15.5,-145 15.5,-145 9.5,-145 3.5,-139 3.5,-133 3.5,-133 3.5,-119 3.5,-119 3.5,-113 9.5,-107 15.5,-107 15.5,-107 61.5,-107 61.5,-107 67.5,-107 73.5,-113 73.5,-119 73.5,-119 73.5,-133 73.5,-133 73.5,-139 67.5,-145 61.5,-145"/>
<text text-anchor="middle" x="38.5" y="-129.8" font-family="Times,serif" font-size="14.00">Language</text>
<text text-anchor="middle" x="38.5" y="-114.8" font-family="Times,serif" font-size="14.00">Basics</text>
</a>
</g>
</g>
<!-- Interpreter&#45;&gt;LanguageBasics -->
<g id="edge3" class="edge">
<title>Interpreter&#45;&gt;LanguageBasics</title>
<path fill="none" stroke="red" d="M38.5,-162.89C38.5,-160.42 38.5,-157.95 38.5,-155.48"/>
<polygon fill="red" stroke="red" points="42,-155.34 38.5,-145.34 35,-155.34 42,-155.34"/>
</g>
<!-- CRC -->
<g id="node5" class="node">
<title>CRC</title>
<g id="a_node5"><a xlink:href="../labs/CRC/CRC.html" xlink:title="CRC">
<path fill="white" stroke="black" stroke-width="2" d="M178.5,-252C178.5,-252 148.5,-252 148.5,-252 142.5,-252 136.5,-246 136.5,-240 136.5,-240 136.5,-228 136.5,-228 136.5,-222 142.5,-216 148.5,-216 148.5,-216 178.5,-216 178.5,-216 184.5,-216 190.5,-222 190.5,-228 190.5,-228 190.5,-240 190.5,-240 190.5,-246 184.5,-252 178.5,-252"/>
<text text-anchor="middle" x="163.5" y="-230.3" font-family="Times,serif" font-size="14.00">CRC</text>
</a>
</g>
</g>
<!-- LanguageBasics&#45;&gt;CRC -->
<g id="edge4" class="edge">
<title>LanguageBasics&#45;&gt;CRC</title>
<path fill="none" stroke="red" d="M67.42,-145.19C70.8,-147.98 74.08,-150.95 77,-154 96.68,-174.58 91.91,-187.87 113,-207 117.37,-210.96 122.42,-214.55 127.59,-217.73"/>
<polygon fill="red" stroke="red" points="125.88,-220.78 136.31,-222.67 129.34,-214.7 125.88,-220.78"/>
</g>
<!-- StyleGuide -->
<g id="node10" class="node">
<title>StyleGuide</title>
<g id="a_node10"><a xlink:href="../cryptol-style.html" xlink:title="Style Guide">
<path fill="white" stroke="black" stroke-width="2" d="M192,-198C192,-198 135,-198 135,-198 129,-198 123,-192 123,-186 123,-186 123,-174 123,-174 123,-168 129,-162 135,-162 135,-162 192,-162 192,-162 198,-162 204,-168 204,-174 204,-174 204,-186 204,-186 204,-192 198,-198 192,-198"/>
<text text-anchor="middle" x="163.5" y="-176.3" font-family="Times,serif" font-size="14.00">Style Guide</text>
</a>
</g>
</g>
<!-- LanguageBasics&#45;&gt;StyleGuide -->
<g id="edge9" class="edge">
<title>LanguageBasics&#45;&gt;StyleGuide</title>
<path fill="none" stroke="black" d="M73.76,-141.04C86,-146.42 100.05,-152.58 113.3,-158.4"/>
<polygon fill="black" stroke="black" points="112.21,-161.74 122.77,-162.56 115.02,-155.33 112.21,-161.74"/>
</g>
<!-- CryptolDemos -->
<g id="node11" class="node">
<title>CryptolDemos</title>
<g id="a_node11"><a xlink:href="../labs/Demos/Cryptol/Demos.html" xlink:title="Cryptol Demos">
<path fill="white" stroke="black" stroke-width="2" d="M202,-144C202,-144 125,-144 125,-144 119,-144 113,-138 113,-132 113,-132 113,-120 113,-120 113,-114 119,-108 125,-108 125,-108 202,-108 202,-108 208,-108 214,-114 214,-120 214,-120 214,-132 214,-132 214,-138 208,-144 202,-144"/>
<text text-anchor="middle" x="163.5" y="-122.3" font-family="Times,serif" font-size="14.00">Cryptol Demos</text>
</a>
</g>
</g>
<!-- LanguageBasics&#45;&gt;CryptolDemos -->
<g id="edge10" class="edge">
<title>LanguageBasics&#45;&gt;CryptolDemos</title>
<path fill="none" stroke="black" d="M73.76,-126C82.73,-126 92.67,-126 102.55,-126"/>
<polygon fill="black" stroke="black" points="102.79,-129.5 112.79,-126 102.79,-122.5 102.79,-129.5"/>
</g>
<!-- SAWDemos -->
<g id="node12" class="node">
<title>SAWDemos</title>
<g id="a_node12"><a xlink:href="../labs/Demos/SAW/Demos.html" xlink:title="SAW Demos">
<path fill="white" stroke="black" stroke-width="2" d="M196,-90C196,-90 131,-90 131,-90 125,-90 119,-84 119,-78 119,-78 119,-66 119,-66 119,-60 125,-54 131,-54 131,-54 196,-54 196,-54 202,-54 208,-60 208,-66 208,-66 208,-78 208,-78 208,-84 202,-90 196,-90"/>
<text text-anchor="middle" x="163.5" y="-68.3" font-family="Times,serif" font-size="14.00">SAW Demos</text>
</a>
</g>
</g>
<!-- LanguageBasics&#45;&gt;SAWDemos -->
<g id="edge11" class="edge">
<title>LanguageBasics&#45;&gt;SAWDemos</title>
<path fill="none" stroke="black" d="M73.76,-110.96C85.66,-105.73 99.26,-99.76 112.18,-94.09"/>
<polygon fill="black" stroke="black" points="113.69,-97.25 121.44,-90.03 110.87,-90.84 113.69,-97.25"/>
</g>
<!-- TypeHackery -->
<g id="node13" class="node">
<title>TypeHackery</title>
<g id="a_node13"><a xlink:href="../labs/Language/IntroTypeHackery.html" xlink:title="Type Hackery">
<path fill="white" stroke="black" stroke-width="2" d="M198,-36C198,-36 129,-36 129,-36 123,-36 117,-30 117,-24 117,-24 117,-12 117,-12 117,-6 123,0 129,0 129,0 198,0 198,0 204,0 210,-6 210,-12 210,-12 210,-24 210,-24 210,-30 204,-36 198,-36"/>
<text text-anchor="middle" x="163.5" y="-14.3" font-family="Times,serif" font-size="14.00">Type Hackery</text>
</a>
</g>
</g>
<!-- LanguageBasics&#45;&gt;TypeHackery -->
<g id="edge12" class="edge">
<title>LanguageBasics&#45;&gt;TypeHackery</title>
<path fill="none" stroke="black" d="M53.73,-106.96C67.52,-89.39 89.72,-63.32 113,-45 114.38,-43.92 115.8,-42.86 117.26,-41.82"/>
<polygon fill="black" stroke="black" points="119.49,-44.54 125.92,-36.11 115.64,-38.69 119.49,-44.54"/>
</g>
<!-- Salsa20 -->
<g id="node6" class="node">
<title>Salsa20</title>
<g id="a_node6"><a xlink:href="../labs/Salsa20/Salsa20.html" xlink:title="Salsa20">
<path fill="white" stroke="black" stroke-width="2" d="M297,-252C297,-252 262,-252 262,-252 256,-252 250,-246 250,-240 250,-240 250,-228 250,-228 250,-222 256,-216 262,-216 262,-216 297,-216 297,-216 303,-216 309,-222 309,-228 309,-228 309,-240 309,-240 309,-246 303,-252 297,-252"/>
<text text-anchor="middle" x="279.5" y="-230.3" font-family="Times,serif" font-size="14.00">Salsa20</text>
</a>
</g>
</g>
<!-- CRC&#45;&gt;Salsa20 -->
<g id="edge5" class="edge">
<title>CRC&#45;&gt;Salsa20</title>
<path fill="none" stroke="red" d="M190.65,-234C205.11,-234 223.34,-234 239.45,-234"/>
<polygon fill="red" stroke="red" points="239.67,-237.5 249.67,-234 239.67,-230.5 239.67,-237.5"/>
</g>
<!-- CryptographicProperties -->
<g id="node7" class="node">
<title>CryptographicProperties</title>
<g id="a_node7"><a xlink:href="../labs/CryptoProofs/CryptoProofs.html" xlink:title="Cryptographic\nProperties">
<path fill="white" stroke="black" stroke-width="2" d="M428,-253C428,-253 357,-253 357,-253 351,-253 345,-247 345,-241 345,-241 345,-227 345,-227 345,-221 351,-215 357,-215 357,-215 428,-215 428,-215 434,-215 440,-221 440,-227 440,-227 440,-241 440,-241 440,-247 434,-253 428,-253"/>
<text text-anchor="middle" x="392.5" y="-237.8" font-family="Times,serif" font-size="14.00">Cryptographic</text>
<text text-anchor="middle" x="392.5" y="-222.8" font-family="Times,serif" font-size="14.00">Properties</text>
</a>
</g>
</g>
<!-- Salsa20&#45;&gt;CryptographicProperties -->
<g id="edge6" class="edge">
<title>Salsa20&#45;&gt;CryptographicProperties</title>
<path fill="none" stroke="red" d="M309.09,-234C317.02,-234 325.92,-234 334.86,-234"/>
<polygon fill="red" stroke="red" points="334.93,-237.5 344.93,-234 334.93,-230.5 334.93,-237.5"/>
</g>
<!-- KeyWrapping -->
<g id="node8" class="node">
<title>KeyWrapping</title>
<g id="a_node8"><a xlink:href="../labs/KeyWrapping/KeyWrapping.html" xlink:title="Key Wrapping">
<path fill="white" stroke="black" stroke-width="2" d="M582,-363C582,-363 510,-363 510,-363 504,-363 498,-357 498,-351 498,-351 498,-339 498,-339 498,-333 504,-327 510,-327 510,-327 582,-327 582,-327 588,-327 594,-333 594,-339 594,-339 594,-351 594,-351 594,-357 588,-363 582,-363"/>
<text text-anchor="middle" x="546" y="-341.3" font-family="Times,serif" font-size="14.00">Key Wrapping</text>
</a>
</g>
</g>
<!-- CryptographicProperties&#45;&gt;KeyWrapping -->
<g id="edge7" class="edge">
<title>CryptographicProperties&#45;&gt;KeyWrapping</title>
<path fill="none" stroke="red" d="M408.38,-253.33C423.62,-272.02 448.88,-300.09 476,-318 479.95,-320.61 484.19,-323.03 488.56,-325.25"/>
<polygon fill="red" stroke="red" points="487.11,-328.44 497.65,-329.56 490.11,-322.11 487.11,-328.44"/>
</g>
<!-- Salsa20Properties -->
<g id="node14" class="node">
<title>Salsa20Properties</title>
<g id="a_node14"><a xlink:href="../labs/Salsa20/Salsa20Props.html" xlink:title="Salsa20\nProperties">
<path fill="white" stroke="black" stroke-width="2" d="M569.5,-309C569.5,-309 522.5,-309 522.5,-309 516.5,-309 510.5,-303 510.5,-297 510.5,-297 510.5,-283 510.5,-283 510.5,-277 516.5,-271 522.5,-271 522.5,-271 569.5,-271 569.5,-271 575.5,-271 581.5,-277 581.5,-283 581.5,-283 581.5,-297 581.5,-297 581.5,-303 575.5,-309 569.5,-309"/>
<text text-anchor="middle" x="546" y="-293.8" font-family="Times,serif" font-size="14.00">Salsa20</text>
<text text-anchor="middle" x="546" y="-278.8" font-family="Times,serif" font-size="14.00">Properties</text>
</a>
</g>
</g>
<!-- CryptographicProperties&#45;&gt;Salsa20Properties -->
<g id="edge13" class="edge">
<title>CryptographicProperties&#45;&gt;Salsa20Properties</title>
<path fill="none" stroke="black" d="M440.19,-251.26C459.44,-258.37 481.64,-266.58 500.64,-273.6"/>
<polygon fill="black" stroke="black" points="499.66,-276.97 510.25,-277.16 502.09,-270.41 499.66,-276.97"/>
</g>
<!-- TranspositionCiphers -->
<g id="node15" class="node">
<title>TranspositionCiphers</title>
<g id="a_node15"><a xlink:href="../labs/Transposition/Contents.html" xlink:title="Transposition\nCiphers">
<path fill="white" stroke="black" stroke-width="2" d="M579.5,-253C579.5,-253 512.5,-253 512.5,-253 506.5,-253 500.5,-247 500.5,-241 500.5,-241 500.5,-227 500.5,-227 500.5,-221 506.5,-215 512.5,-215 512.5,-215 579.5,-215 579.5,-215 585.5,-215 591.5,-221 591.5,-227 591.5,-227 591.5,-241 591.5,-241 591.5,-247 585.5,-253 579.5,-253"/>
<text text-anchor="middle" x="546" y="-237.8" font-family="Times,serif" font-size="14.00">Transposition</text>
<text text-anchor="middle" x="546" y="-222.8" font-family="Times,serif" font-size="14.00">Ciphers</text>
</a>
</g>
</g>
<!-- CryptographicProperties&#45;&gt;TranspositionCiphers -->
<g id="edge14" class="edge">
<title>CryptographicProperties&#45;&gt;TranspositionCiphers</title>
<path fill="none" stroke="black" d="M440.19,-234C456.03,-234 473.87,-234 490.28,-234"/>
<polygon fill="black" stroke="black" points="490.28,-237.5 500.28,-234 490.28,-230.5 490.28,-237.5"/>
</g>
<!-- ProjectEuler -->
<g id="node16" class="node">
<title>ProjectEuler</title>
<g id="a_node16"><a xlink:href="../labs/ProjectEuler/ProjectEuler.html" xlink:title="Project Euler">
<path fill="white" stroke="black" stroke-width="2" d="M578,-197C578,-197 514,-197 514,-197 508,-197 502,-191 502,-185 502,-185 502,-173 502,-173 502,-167 508,-161 514,-161 514,-161 578,-161 578,-161 584,-161 590,-167 590,-173 590,-173 590,-185 590,-185 590,-191 584,-197 578,-197"/>
<text text-anchor="middle" x="546" y="-175.3" font-family="Times,serif" font-size="14.00">Project Euler</text>
</a>
</g>
</g>
<!-- CryptographicProperties&#45;&gt;ProjectEuler -->
<g id="edge15" class="edge">
<title>CryptographicProperties&#45;&gt;ProjectEuler</title>
<path fill="none" stroke="black" d="M440.19,-217.05C456.62,-211.09 475.19,-204.34 492.09,-198.21"/>
<polygon fill="black" stroke="black" points="493.61,-201.38 501.82,-194.68 491.22,-194.8 493.61,-201.38"/>
</g>
<!-- ContinuousReasoning -->
<g id="node17" class="node">
<title>ContinuousReasoning</title>
<g id="a_node17"><a xlink:href="../labs/SAW/SAW.html" xlink:title="SAW\nContinuous Reasoning">
<path fill="white" stroke="black" stroke-width="2" d="M604,-143C604,-143 488,-143 488,-143 482,-143 476,-137 476,-131 476,-131 476,-117 476,-117 476,-111 482,-105 488,-105 488,-105 604,-105 604,-105 610,-105 616,-111 616,-117 616,-117 616,-131 616,-131 616,-137 610,-143 604,-143"/>
<text text-anchor="middle" x="546" y="-127.8" font-family="Times,serif" font-size="14.00">SAW</text>
<text text-anchor="middle" x="546" y="-112.8" font-family="Times,serif" font-size="14.00">Continuous Reasoning</text>
</a>
</g>
</g>
<!-- CryptographicProperties&#45;&gt;ContinuousReasoning -->
<g id="edge16" class="edge">
<title>CryptographicProperties&#45;&gt;ContinuousReasoning</title>
<path fill="none" stroke="black" d="M408.81,-214.88C424.19,-196.7 449.38,-169.59 476,-152 478.12,-150.6 480.33,-149.24 482.59,-147.94"/>
<polygon fill="black" stroke="black" points="484.36,-150.96 491.54,-143.17 481.07,-144.79 484.36,-150.96"/>
</g>
<!-- Capstone -->
<g id="node9" class="node">
<title>Capstone</title>
<g id="a_node9"><a xlink:href="../labs/LoremIpsum/LoremIpsum.html" xlink:title="Capstone">
<path fill="white" stroke="black" stroke-width="2" d="M721,-390C721,-390 678,-390 678,-390 672,-390 666,-384 666,-378 666,-378 666,-366 666,-366 666,-360 672,-354 678,-354 678,-354 721,-354 721,-354 727,-354 733,-360 733,-366 733,-366 733,-378 733,-378 733,-384 727,-390 721,-390"/>
<text text-anchor="middle" x="699.5" y="-368.3" font-family="Times,serif" font-size="14.00">Capstone</text>
</a>
</g>
</g>
<!-- KeyWrapping&#45;&gt;Capstone -->
<g id="edge8" class="edge">
<title>KeyWrapping&#45;&gt;Capstone</title>
<path fill="none" stroke="red" d="M594.11,-353.39C613.84,-356.91 636.61,-360.97 655.84,-364.4"/>
<polygon fill="red" stroke="red" points="655.37,-367.87 665.83,-366.18 656.6,-360.98 655.37,-367.87"/>
</g>
<!-- ParameterizedModules -->
<g id="node18" class="node">
<title>ParameterizedModules</title>
<g id="a_node18"><a xlink:href="../labs/SimonSpeck/SimonSpeck.html" xlink:title="Parameterized\nModules">
<path fill="white" stroke="black" stroke-width="2" d="M735,-336C735,-336 664,-336 664,-336 658,-336 652,-330 652,-324 652,-324 652,-310 652,-310 652,-304 658,-298 664,-298 664,-298 735,-298 735,-298 741,-298 747,-304 747,-310 747,-310 747,-324 747,-324 747,-330 741,-336 735,-336"/>
<text text-anchor="middle" x="699.5" y="-320.8" font-family="Times,serif" font-size="14.00">Parameterized</text>
<text text-anchor="middle" x="699.5" y="-305.8" font-family="Times,serif" font-size="14.00">Modules</text>
</a>
</g>
</g>
<!-- KeyWrapping&#45;&gt;ParameterizedModules -->
<g id="edge17" class="edge">
<title>KeyWrapping&#45;&gt;ParameterizedModules</title>
<path fill="none" stroke="black" d="M594.11,-336.29C609.21,-333.5 626.1,-330.38 641.82,-327.48"/>
<polygon fill="black" stroke="black" points="642.75,-330.86 651.94,-325.6 641.47,-323.98 642.75,-330.86"/>
</g>
</g>
</svg>
