<?xml version="1.0" encoding="UTF-8" standalone="no"?>
<!DOCTYPE svg PUBLIC "-//W3C//DTD SVG 1.1//EN"
 "http://www.w3.org/Graphics/SVG/1.1/DTD/svg11.dtd">
<!-- Generated by graphviz version 2.38.0 (20140413.2041)
 -->
<!-- Title: %3 Pages: 1 -->
<svg width="394pt" height="44pt"
 viewBox="0.00 0.00 394.00 44.00" xmlns="http://www.w3.org/2000/svg" xmlns:xlink="http://www.w3.org/1999/xlink">
<g id="graph0" class="graph" transform="scale(1 1) rotate(0) translate(4 40)">
<title>%3</title>
<!-- Caesar -->
<g id="node1" class="node"><title>Caesar</title>
<g id="a_node1"><a xlink:href="../labs/Demos/Cryptol/Caesar.md" xlink:title="Caesar">
<path fill="white" stroke="black" stroke-width="2" d="M43,-36C43,-36 12,-36 12,-36 6,-36 0,-30 0,-24 0,-24 0,-12 0,-12 0,-6 6,-0 12,-0 12,-0 43,-0 43,-0 49,-0 55,-6 55,-12 55,-12 55,-24 55,-24 55,-30 49,-36 43,-36"/>
<text text-anchor="middle" x="27.5" y="-14.3" font-family="Times New Roman,serif" font-size="14.00">Caesar</text>
</a>
</g>
</g>
<!-- OneTimePad -->
<g id="node2" class="node"><title>OneTimePad</title>
<g id="a_node2"><a xlink:href="../labs/Demos/Cryptol/OneTimePad.md" xlink:title="One&#45;Time Pad">
<path fill="white" stroke="black" stroke-width="2" d="M177,-36C177,-36 103,-36 103,-36 97,-36 91,-30 91,-24 91,-24 91,-12 91,-12 91,-6 97,-0 103,-0 103,-0 177,-0 177,-0 183,-0 189,-6 189,-12 189,-12 189,-24 189,-24 189,-30 183,-36 177,-36"/>
<text text-anchor="middle" x="140" y="-14.3" font-family="Times New Roman,serif" font-size="14.00">One&#45;Time Pad</text>
</a>
</g>
</g>
<!-- Caesar&#45;&gt;OneTimePad -->
<g id="edge1" class="edge"><title>Caesar&#45;&gt;OneTimePad</title>
<path fill="none" stroke="red" d="M55.249,-18C63.0454,-18 71.8846,-18 80.8261,-18"/>
<polygon fill="red" stroke="red" points="80.9148,-21.5001 90.9148,-18 80.9148,-14.5001 80.9148,-21.5001"/>
</g>
<!-- nQueens -->
<g id="node3" class="node"><title>nQueens</title>
<g id="a_node3"><a xlink:href="../labs/Demos/Cryptol/NQueens.md" xlink:title="nQueens">
<path fill="white" stroke="black" stroke-width="2" d="M278,-36C278,-36 237,-36 237,-36 231,-36 225,-30 225,-24 225,-24 225,-12 225,-12 225,-6 231,-0 237,-0 237,-0 278,-0 278,-0 284,-0 290,-6 290,-12 290,-12 290,-24 290,-24 290,-30 284,-36 278,-36"/>
<text text-anchor="middle" x="257.5" y="-14.3" font-family="Times New Roman,serif" font-size="14.00">nQueens</text>
</a>
</g>
</g>
<!-- OneTimePad&#45;&gt;nQueens -->
<g id="edge2" class="edge"><title>OneTimePad&#45;&gt;nQueens</title>
<path fill="none" stroke="red" d="M189.313,-18C197.745,-18 206.453,-18 214.692,-18"/>
<polygon fill="red" stroke="red" points="214.82,-21.5001 224.82,-18 214.82,-14.5001 214.82,-21.5001"/>
</g>
<!-- Sudoku -->
<g id="node4" class="node"><title>Sudoku</title>
<g id="a_node4"><a xlink:href="../labs/Demos/Cryptol/Sudoku.md" xlink:title="Sudoku">
<path fill="white" stroke="black" stroke-width="2" d="M374,-36C374,-36 338,-36 338,-36 332,-36 326,-30 326,-24 326,-24 326,-12 326,-12 326,-6 332,-0 338,-0 338,-0 374,-0 374,-0 380,-0 386,-6 386,-12 386,-12 386,-24 386,-24 386,-30 380,-36 374,-36"/>
<text text-anchor="middle" x="356" y="-14.3" font-family="Times New Roman,serif" font-size="14.00">Sudoku</text>
</a>
</g>
</g>
<!-- nQueens&#45;&gt;Sudoku -->
<g id="edge3" class="edge"><title>nQueens&#45;&gt;Sudoku</title>
<path fill="none" stroke="red" d="M290.098,-18C298.304,-18 307.243,-18 315.79,-18"/>
<polygon fill="red" stroke="red" points="315.945,-21.5001 325.945,-18 315.945,-14.5001 315.945,-21.5001"/>
</g>
</g>
</svg>
