<?xml version="1.0" encoding="UTF-8" standalone="no"?>
<!DOCTYPE svg PUBLIC "-//W3C//DTD SVG 1.1//EN"
 "http://www.w3.org/Graphics/SVG/1.1/DTD/svg11.dtd">
<!-- Generated by graphviz version 2.44.0 (20200408.0750)
 -->
<!-- Title: G Pages: 1 -->
<svg width="641pt" height="317pt"
 viewBox="0.00 0.00 641.00 317.00" xmlns="http://www.w3.org/2000/svg" xmlns:xlink="http://www.w3.org/1999/xlink">
<g id="graph0" class="graph" transform="scale(1 1) rotate(0) translate(4 313)">
<title>G</title>
<polygon fill="white" stroke="transparent" points="-4,4 -4,-313 637,-313 637,4 -4,4"/>
<!-- Installation -->
<g id="node1" class="node">
<title>Installation</title>
<g id="a_node1"><a xlink:href="https://github.com/weaversa/cryptol-course/blob/master/INSTALL.md" xlink:title="Installation">
<path fill="none" stroke="black" stroke-width="2" d="M65,-309C65,-309 12,-309 12,-309 6,-309 0,-303 0,-297 0,-297 0,-285 0,-285 0,-279 6,-273 12,-273 12,-273 65,-273 65,-273 71,-273 77,-279 77,-285 77,-285 77,-297 77,-297 77,-303 71,-309 65,-309"/>
<text text-anchor="middle" x="38.5" y="-287.3" font-family="Times,serif" font-size="14.00">Installation</text>
</a>
</g>
</g>
<!-- Overview -->
<g id="node2" class="node">
<title>Overview</title>
<g id="a_node2"><a xlink:href="https://github.com/weaversa/cryptol-course/blob/master/labs/Overview/Overview.md" xlink:title="Overview">
<path fill="none" stroke="black" stroke-width="2" d="M61.5,-255C61.5,-255 15.5,-255 15.5,-255 9.5,-255 3.5,-249 3.5,-243 3.5,-243 3.5,-231 3.5,-231 3.5,-225 9.5,-219 15.5,-219 15.5,-219 61.5,-219 61.5,-219 67.5,-219 73.5,-225 73.5,-231 73.5,-231 73.5,-243 73.5,-243 73.5,-249 67.5,-255 61.5,-255"/>
<text text-anchor="middle" x="38.5" y="-233.3" font-family="Times,serif" font-size="14.00">Overview</text>
</a>
</g>
</g>
<!-- Installation&#45;&gt;Overview -->
<g id="edge1" class="edge">
<title>Installation&#45;&gt;Overview</title>
<path fill="none" stroke="red" d="M38.5,-272.79C38.5,-270.31 38.5,-267.83 38.5,-265.34"/>
<polygon fill="red" stroke="red" points="42,-265.14 38.5,-255.14 35,-265.14 42,-265.14"/>
</g>
<!-- Interpreter -->
<g id="node3" class="node">
<title>Interpreter</title>
<g id="a_node3"><a xlink:href="https://github.com/weaversa/cryptol-course/blob/master/labs/Interpreter/Interpreter.md" xlink:title="Interpreter">
<path fill="none" stroke="black" stroke-width="2" d="M63.5,-201C63.5,-201 13.5,-201 13.5,-201 7.5,-201 1.5,-195 1.5,-189 1.5,-189 1.5,-177 1.5,-177 1.5,-171 7.5,-165 13.5,-165 13.5,-165 63.5,-165 63.5,-165 69.5,-165 75.5,-171 75.5,-177 75.5,-177 75.5,-189 75.5,-189 75.5,-195 69.5,-201 63.5,-201"/>
<text text-anchor="middle" x="38.5" y="-179.3" font-family="Times,serif" font-size="14.00">Interpreter</text>
</a>
</g>
</g>
<!-- Overview&#45;&gt;Interpreter -->
<g id="edge2" class="edge">
<title>Overview&#45;&gt;Interpreter</title>
<path fill="none" stroke="red" d="M38.5,-218.79C38.5,-216.31 38.5,-213.83 38.5,-211.34"/>
<polygon fill="red" stroke="red" points="42,-211.14 38.5,-201.14 35,-211.14 42,-211.14"/>
</g>
<!-- LanguageBasics -->
<g id="node4" class="node">
<title>LanguageBasics</title>
<g id="a_node4"><a xlink:href="https://github.com/weaversa/cryptol-course/blob/master/labs/Language/Basics.md" xlink:title="Language\nBasics">
<path fill="none" stroke="black" stroke-width="2" d="M61.5,-147C61.5,-147 15.5,-147 15.5,-147 9.5,-147 3.5,-141 3.5,-135 3.5,-135 3.5,-121 3.5,-121 3.5,-115 9.5,-109 15.5,-109 15.5,-109 61.5,-109 61.5,-109 67.5,-109 73.5,-115 73.5,-121 73.5,-121 73.5,-135 73.5,-135 73.5,-141 67.5,-147 61.5,-147"/>
<text text-anchor="middle" x="38.5" y="-131.8" font-family="Times,serif" font-size="14.00">Language</text>
<text text-anchor="middle" x="38.5" y="-116.8" font-family="Times,serif" font-size="14.00">Basics</text>
</a>
</g>
</g>
<!-- Interpreter&#45;&gt;LanguageBasics -->
<g id="edge3" class="edge">
<title>Interpreter&#45;&gt;LanguageBasics</title>
<path fill="none" stroke="red" d="M38.5,-164.89C38.5,-162.42 38.5,-159.95 38.5,-157.48"/>
<polygon fill="red" stroke="red" points="42,-157.34 38.5,-147.34 35,-157.34 42,-157.34"/>
</g>
<!-- CryptolDemos -->
<g id="node5" class="node">
<title>CryptolDemos</title>
<g id="a_node5"><a xlink:href="https://github.com/weaversa/cryptol-course/blob/master/labs/Demos/Cryptol/Demos.md" xlink:title="Cryptol\nDemos">
<path fill="none" stroke="black" stroke-width="2" d="M159,-203C159,-203 125,-203 125,-203 119,-203 113,-197 113,-191 113,-191 113,-177 113,-177 113,-171 119,-165 125,-165 125,-165 159,-165 159,-165 165,-165 171,-171 171,-177 171,-177 171,-191 171,-191 171,-197 165,-203 159,-203"/>
<text text-anchor="middle" x="142" y="-187.8" font-family="Times,serif" font-size="14.00">Cryptol</text>
<text text-anchor="middle" x="142" y="-172.8" font-family="Times,serif" font-size="14.00">Demos</text>
</a>
</g>
</g>
<!-- LanguageBasics&#45;&gt;CryptolDemos -->
<g id="edge11" class="edge">
<title>LanguageBasics&#45;&gt;CryptolDemos</title>
<path fill="none" stroke="black" d="M73.58,-146.8C83.37,-152.2 94.09,-158.12 104.04,-163.61"/>
<polygon fill="black" stroke="black" points="102.47,-166.74 112.92,-168.51 105.85,-160.61 102.47,-166.74"/>
</g>
<!-- SAWDemos -->
<g id="node6" class="node">
<title>SAWDemos</title>
<g id="a_node6"><a xlink:href="https://github.com/weaversa/cryptol-course/blob/master/labs/Demos/SAW/Demos.md" xlink:title="SAW\nDemos">
<path fill="none" stroke="black" stroke-width="2" d="M158,-147C158,-147 126,-147 126,-147 120,-147 114,-141 114,-135 114,-135 114,-121 114,-121 114,-115 120,-109 126,-109 126,-109 158,-109 158,-109 164,-109 170,-115 170,-121 170,-121 170,-135 170,-135 170,-141 164,-147 158,-147"/>
<text text-anchor="middle" x="142" y="-131.8" font-family="Times,serif" font-size="14.00">SAW</text>
<text text-anchor="middle" x="142" y="-116.8" font-family="Times,serif" font-size="14.00">Demos</text>
</a>
</g>
</g>
<!-- LanguageBasics&#45;&gt;SAWDemos -->
<g id="edge12" class="edge">
<title>LanguageBasics&#45;&gt;SAWDemos</title>
<path fill="none" stroke="black" d="M73.58,-128C83.22,-128 93.77,-128 103.6,-128"/>
<polygon fill="black" stroke="black" points="103.9,-131.5 113.9,-128 103.9,-124.5 103.9,-131.5"/>
</g>
<!-- CRC -->
<g id="node7" class="node">
<title>CRC</title>
<g id="a_node7"><a xlink:href="https://github.com/weaversa/cryptol-course/blob/master/labs/CRC/CRC.md" xlink:title="CRC">
<path fill="none" stroke="black" stroke-width="2" d="M157,-91C157,-91 127,-91 127,-91 121,-91 115,-85 115,-79 115,-79 115,-67 115,-67 115,-61 121,-55 127,-55 127,-55 157,-55 157,-55 163,-55 169,-61 169,-67 169,-67 169,-79 169,-79 169,-85 163,-91 157,-91"/>
<text text-anchor="middle" x="142" y="-69.3" font-family="Times,serif" font-size="14.00">CRC</text>
</a>
</g>
</g>
<!-- LanguageBasics&#45;&gt;CRC -->
<g id="edge4" class="edge">
<title>LanguageBasics&#45;&gt;CRC</title>
<path fill="none" stroke="red" d="M73.58,-109.53C84,-103.88 95.48,-97.66 105.97,-91.98"/>
<polygon fill="red" stroke="red" points="107.75,-95 114.87,-87.16 104.41,-88.84 107.75,-95"/>
</g>
<!-- Salsa20 -->
<g id="node8" class="node">
<title>Salsa20</title>
<g id="a_node8"><a xlink:href="https://github.com/weaversa/cryptol-course/blob/master/labs/Salsa20/Salsa20.md" xlink:title="Salsa20">
<path fill="none" stroke="black" stroke-width="2" d="M254,-91C254,-91 219,-91 219,-91 213,-91 207,-85 207,-79 207,-79 207,-67 207,-67 207,-61 213,-55 219,-55 219,-55 254,-55 254,-55 260,-55 266,-61 266,-67 266,-67 266,-79 266,-79 266,-85 260,-91 254,-91"/>
<text text-anchor="middle" x="236.5" y="-69.3" font-family="Times,serif" font-size="14.00">Salsa20</text>
</a>
</g>
</g>
<!-- CRC&#45;&gt;Salsa20 -->
<g id="edge5" class="edge">
<title>CRC&#45;&gt;Salsa20</title>
<path fill="none" stroke="red" d="M169.26,-73C177.8,-73 187.46,-73 196.71,-73"/>
<polygon fill="red" stroke="red" points="196.91,-76.5 206.91,-73 196.91,-69.5 196.91,-76.5"/>
</g>
<!-- CryptographicProperties -->
<g id="node10" class="node">
<title>CryptographicProperties</title>
<g id="a_node10"><a xlink:href="https://github.com/weaversa/cryptol-course/blob/master/labs/CryptoProofs/CryptoProofs.md" xlink:title="Cryptographic\nProperties">
<path fill="none" stroke="black" stroke-width="2" d="M385,-92C385,-92 314,-92 314,-92 308,-92 302,-86 302,-80 302,-80 302,-66 302,-66 302,-60 308,-54 314,-54 314,-54 385,-54 385,-54 391,-54 397,-60 397,-66 397,-66 397,-80 397,-80 397,-86 391,-92 385,-92"/>
<text text-anchor="middle" x="349.5" y="-76.8" font-family="Times,serif" font-size="14.00">Cryptographic</text>
<text text-anchor="middle" x="349.5" y="-61.8" font-family="Times,serif" font-size="14.00">Properties</text>
</a>
</g>
</g>
<!-- Salsa20&#45;&gt;CryptographicProperties -->
<g id="edge6" class="edge">
<title>Salsa20&#45;&gt;CryptographicProperties</title>
<path fill="none" stroke="red" d="M266.09,-73C274.02,-73 282.92,-73 291.86,-73"/>
<polygon fill="red" stroke="red" points="291.93,-76.5 301.93,-73 291.93,-69.5 291.93,-76.5"/>
</g>
<!-- Salsa20Properties -->
<g id="node9" class="node">
<title>Salsa20Properties</title>
<g id="a_node9"><a xlink:href="https://github.com/weaversa/cryptol-course/blob/master/labs/Salsa20/Salsa20Props.md" xlink:title="Salsa20\nProperties">
<path fill="none" stroke="black" stroke-width="2" d="M505,-148C505,-148 458,-148 458,-148 452,-148 446,-142 446,-136 446,-136 446,-122 446,-122 446,-116 452,-110 458,-110 458,-110 505,-110 505,-110 511,-110 517,-116 517,-122 517,-122 517,-136 517,-136 517,-142 511,-148 505,-148"/>
<text text-anchor="middle" x="481.5" y="-132.8" font-family="Times,serif" font-size="14.00">Salsa20</text>
<text text-anchor="middle" x="481.5" y="-117.8" font-family="Times,serif" font-size="14.00">Properties</text>
</a>
</g>
</g>
<!-- ProjectEuler -->
<g id="node13" class="node">
<title>ProjectEuler</title>
<g id="a_node13"><a xlink:href="https://github.com/weaversa/cryptol-course/blob/master/labs/ProjectEuler/ProjectEuler.md" xlink:title="Project\nEuler">
<path fill="none" stroke="black" stroke-width="2" d="M497,-92C497,-92 466,-92 466,-92 460,-92 454,-86 454,-80 454,-80 454,-66 454,-66 454,-60 460,-54 466,-54 466,-54 497,-54 497,-54 503,-54 509,-60 509,-66 509,-66 509,-80 509,-80 509,-86 503,-92 497,-92"/>
<text text-anchor="middle" x="481.5" y="-76.8" font-family="Times,serif" font-size="14.00">Project</text>
<text text-anchor="middle" x="481.5" y="-61.8" font-family="Times,serif" font-size="14.00">Euler</text>
</a>
</g>
</g>
<!-- Salsa20Properties&#45;&gt;ProjectEuler -->
<!-- CryptographicProperties&#45;&gt;Salsa20Properties -->
<g id="edge9" class="edge">
<title>CryptographicProperties&#45;&gt;Salsa20Properties</title>
<path fill="none" stroke="black" d="M394.88,-92.12C408.25,-97.88 422.93,-104.2 436.29,-109.96"/>
<polygon fill="black" stroke="black" points="435.19,-113.29 445.76,-114.03 437.96,-106.86 435.19,-113.29"/>
</g>
<!-- KeyWrapping -->
<g id="node11" class="node">
<title>KeyWrapping</title>
<g id="a_node11"><a xlink:href="https://github.com/weaversa/cryptol-course/blob/master/labs/KeyWrapping/KeyWrapping.md" xlink:title="Key Wrapping">
<path fill="none" stroke="black" stroke-width="2" d="M518,-36C518,-36 445,-36 445,-36 439,-36 433,-30 433,-24 433,-24 433,-12 433,-12 433,-6 439,0 445,0 445,0 518,0 518,0 524,0 530,-6 530,-12 530,-12 530,-24 530,-24 530,-30 524,-36 518,-36"/>
<text text-anchor="middle" x="481.5" y="-14.3" font-family="Times,serif" font-size="14.00">Key Wrapping</text>
</a>
</g>
</g>
<!-- CryptographicProperties&#45;&gt;KeyWrapping -->
<g id="edge7" class="edge">
<title>CryptographicProperties&#45;&gt;KeyWrapping</title>
<path fill="none" stroke="red" d="M395.6,-53.92C406.15,-49.45 417.48,-44.66 428.31,-40.08"/>
<polygon fill="red" stroke="red" points="429.82,-43.24 437.66,-36.12 427.09,-36.8 429.82,-43.24"/>
</g>
<!-- CryptographicProperties&#45;&gt;ProjectEuler -->
<g id="edge10" class="edge">
<title>CryptographicProperties&#45;&gt;ProjectEuler</title>
<path fill="none" stroke="black" d="M397.07,-73C412.43,-73 429.28,-73 443.8,-73"/>
<polygon fill="black" stroke="black" points="443.9,-76.5 453.9,-73 443.9,-69.5 443.9,-76.5"/>
</g>
<!-- Capstone -->
<g id="node12" class="node">
<title>Capstone</title>
<g id="a_node12"><a xlink:href="https://github.com/weaversa/cryptol-course/blob/master/labs/LoremIpsum/LoremIpsum.md" xlink:title="Capstone">
<path fill="none" stroke="black" stroke-width="2" d="M621,-36C621,-36 578,-36 578,-36 572,-36 566,-30 566,-24 566,-24 566,-12 566,-12 566,-6 572,0 578,0 578,0 621,0 621,0 627,0 633,-6 633,-12 633,-12 633,-24 633,-24 633,-30 627,-36 621,-36"/>
<text text-anchor="middle" x="599.5" y="-14.3" font-family="Times,serif" font-size="14.00">Capstone</text>
</a>
</g>
</g>
<!-- KeyWrapping&#45;&gt;Capstone -->
<g id="edge8" class="edge">
<title>KeyWrapping&#45;&gt;Capstone</title>
<path fill="none" stroke="red" d="M530.02,-18C538.46,-18 547.22,-18 555.53,-18"/>
<polygon fill="red" stroke="red" points="555.76,-21.5 565.76,-18 555.76,-14.5 555.76,-21.5"/>
</g>
</g>
</svg>
