<?xml version="1.0" encoding="UTF-8" standalone="no"?>
<!DOCTYPE svg PUBLIC "-//W3C//DTD SVG 1.1//EN"
 "http://www.w3.org/Graphics/SVG/1.1/DTD/svg11.dtd">
<!-- Generated by graphviz version 2.44.0 (20200408.0750)
 -->
<!-- Title: G Pages: 1 -->
<svg width="783pt" height="328pt"
 viewBox="0.00 0.00 783.00 328.00" xmlns="http://www.w3.org/2000/svg" xmlns:xlink="http://www.w3.org/1999/xlink">
<g id="graph0" class="graph" transform="scale(1 1) rotate(0) translate(4 324)">
<title>G</title>
<polygon fill="white" stroke="transparent" points="-4,4 -4,-324 779,-324 779,4 -4,4"/>
<!-- Installation -->
<g id="node1" class="node">
<title>Installation</title>
<g id="a_node1"><a xlink:href="https://github.com/weaversa/cryptol-course/blob/master/INSTALL.md" xlink:title="Installation">
<path fill="none" stroke="black" stroke-width="2" d="M65,-320C65,-320 12,-320 12,-320 6,-320 0,-314 0,-308 0,-308 0,-296 0,-296 0,-290 6,-284 12,-284 12,-284 65,-284 65,-284 71,-284 77,-290 77,-296 77,-296 77,-308 77,-308 77,-314 71,-320 65,-320"/>
<text text-anchor="middle" x="38.5" y="-298.3" font-family="Times,serif" font-size="14.00">Installation</text>
</a>
</g>
</g>
<!-- Overview -->
<g id="node2" class="node">
<title>Overview</title>
<g id="a_node2"><a xlink:href="https://github.com/weaversa/cryptol-course/blob/master/labs/Overview/Overview.md" xlink:title="Overview">
<path fill="none" stroke="black" stroke-width="2" d="M61.5,-266C61.5,-266 15.5,-266 15.5,-266 9.5,-266 3.5,-260 3.5,-254 3.5,-254 3.5,-242 3.5,-242 3.5,-236 9.5,-230 15.5,-230 15.5,-230 61.5,-230 61.5,-230 67.5,-230 73.5,-236 73.5,-242 73.5,-242 73.5,-254 73.5,-254 73.5,-260 67.5,-266 61.5,-266"/>
<text text-anchor="middle" x="38.5" y="-244.3" font-family="Times,serif" font-size="14.00">Overview</text>
</a>
</g>
</g>
<!-- Installation&#45;&gt;Overview -->
<g id="edge1" class="edge">
<title>Installation&#45;&gt;Overview</title>
<path fill="none" stroke="red" d="M38.5,-283.79C38.5,-281.31 38.5,-278.83 38.5,-276.34"/>
<polygon fill="red" stroke="red" points="42,-276.14 38.5,-266.14 35,-276.14 42,-276.14"/>
</g>
<!-- Interpreter -->
<g id="node3" class="node">
<title>Interpreter</title>
<g id="a_node3"><a xlink:href="https://github.com/weaversa/cryptol-course/blob/master/labs/Interpreter/Interpreter.md" xlink:title="Interpreter">
<path fill="none" stroke="black" stroke-width="2" d="M63.5,-212C63.5,-212 13.5,-212 13.5,-212 7.5,-212 1.5,-206 1.5,-200 1.5,-200 1.5,-188 1.5,-188 1.5,-182 7.5,-176 13.5,-176 13.5,-176 63.5,-176 63.5,-176 69.5,-176 75.5,-182 75.5,-188 75.5,-188 75.5,-200 75.5,-200 75.5,-206 69.5,-212 63.5,-212"/>
<text text-anchor="middle" x="38.5" y="-190.3" font-family="Times,serif" font-size="14.00">Interpreter</text>
</a>
</g>
</g>
<!-- Overview&#45;&gt;Interpreter -->
<g id="edge2" class="edge">
<title>Overview&#45;&gt;Interpreter</title>
<path fill="none" stroke="red" d="M38.5,-229.79C38.5,-227.31 38.5,-224.83 38.5,-222.34"/>
<polygon fill="red" stroke="red" points="42,-222.14 38.5,-212.14 35,-222.14 42,-222.14"/>
</g>
<!-- LanguageBasics -->
<g id="node4" class="node">
<title>LanguageBasics</title>
<g id="a_node4"><a xlink:href="https://github.com/weaversa/cryptol-course/blob/master/labs/Language/Basics.md" xlink:title="Language\nBasics">
<path fill="none" stroke="black" stroke-width="2" d="M61.5,-158C61.5,-158 15.5,-158 15.5,-158 9.5,-158 3.5,-152 3.5,-146 3.5,-146 3.5,-132 3.5,-132 3.5,-126 9.5,-120 15.5,-120 15.5,-120 61.5,-120 61.5,-120 67.5,-120 73.5,-126 73.5,-132 73.5,-132 73.5,-146 73.5,-146 73.5,-152 67.5,-158 61.5,-158"/>
<text text-anchor="middle" x="38.5" y="-142.8" font-family="Times,serif" font-size="14.00">Language</text>
<text text-anchor="middle" x="38.5" y="-127.8" font-family="Times,serif" font-size="14.00">Basics</text>
</a>
</g>
</g>
<!-- Interpreter&#45;&gt;LanguageBasics -->
<g id="edge3" class="edge">
<title>Interpreter&#45;&gt;LanguageBasics</title>
<path fill="none" stroke="red" d="M38.5,-175.89C38.5,-173.42 38.5,-170.95 38.5,-168.48"/>
<polygon fill="red" stroke="red" points="42,-168.34 38.5,-158.34 35,-168.34 42,-168.34"/>
</g>
<!-- Demos -->
<g id="node5" class="node">
<title>Demos</title>
<g id="a_node5"><a xlink:href="https://github.com/weaversa/cryptol-course/blob/master/labs/Demos/Demos.md" xlink:title="Demos">
<path fill="none" stroke="black" stroke-width="2" d="M175.5,-276C175.5,-276 143.5,-276 143.5,-276 137.5,-276 131.5,-270 131.5,-264 131.5,-264 131.5,-252 131.5,-252 131.5,-246 137.5,-240 143.5,-240 143.5,-240 175.5,-240 175.5,-240 181.5,-240 187.5,-246 187.5,-252 187.5,-252 187.5,-264 187.5,-264 187.5,-270 181.5,-276 175.5,-276"/>
<text text-anchor="middle" x="159.5" y="-254.3" font-family="Times,serif" font-size="14.00">Demos</text>
</a>
</g>
</g>
<!-- LanguageBasics&#45;&gt;Demos -->
<g id="edge14" class="edge">
<title>LanguageBasics&#45;&gt;Demos</title>
<path fill="none" stroke="black" d="M68.06,-158.28C71.25,-161.02 74.32,-163.95 77,-167 98.54,-191.52 90.19,-207.66 113,-231 115.96,-234.03 119.33,-236.85 122.87,-239.42"/>
<polygon fill="black" stroke="black" points="121.04,-242.41 131.31,-245 124.9,-236.57 121.04,-242.41"/>
</g>
<!-- CRC -->
<g id="node6" class="node">
<title>CRC</title>
<g id="a_node6"><a xlink:href="https://github.com/weaversa/cryptol-course/blob/master/labs/CRC/CRC.md" xlink:title="CRC">
<path fill="none" stroke="black" stroke-width="2" d="M174.5,-222C174.5,-222 144.5,-222 144.5,-222 138.5,-222 132.5,-216 132.5,-210 132.5,-210 132.5,-198 132.5,-198 132.5,-192 138.5,-186 144.5,-186 144.5,-186 174.5,-186 174.5,-186 180.5,-186 186.5,-192 186.5,-198 186.5,-198 186.5,-210 186.5,-210 186.5,-216 180.5,-222 174.5,-222"/>
<text text-anchor="middle" x="159.5" y="-200.3" font-family="Times,serif" font-size="14.00">CRC</text>
</a>
</g>
</g>
<!-- LanguageBasics&#45;&gt;CRC -->
<g id="edge4" class="edge">
<title>LanguageBasics&#45;&gt;CRC</title>
<path fill="none" stroke="red" d="M73.6,-157.63C89.22,-166.16 107.71,-176.26 123.44,-184.85"/>
<polygon fill="red" stroke="red" points="121.88,-187.99 132.34,-189.71 125.24,-181.84 121.88,-187.99"/>
</g>
<!-- Salsa20 -->
<g id="node7" class="node">
<title>Salsa20</title>
<g id="a_node7"><a xlink:href="https://github.com/weaversa/cryptol-course/blob/master/labs/Salsa20/Salsa20.md" xlink:title="Salsa20">
<path fill="none" stroke="black" stroke-width="2" d="M289,-206C289,-206 254,-206 254,-206 248,-206 242,-200 242,-194 242,-194 242,-182 242,-182 242,-176 248,-170 254,-170 254,-170 289,-170 289,-170 295,-170 301,-176 301,-182 301,-182 301,-194 301,-194 301,-200 295,-206 289,-206"/>
<text text-anchor="middle" x="271.5" y="-184.3" font-family="Times,serif" font-size="14.00">Salsa20</text>
</a>
</g>
</g>
<!-- LanguageBasics&#45;&gt;Salsa20 -->
<g id="edge12" class="edge">
<title>LanguageBasics&#45;&gt;Salsa20</title>
<path fill="none" stroke="black" d="M73.58,-146.23C115.85,-155.2 187.71,-170.44 231.94,-179.82"/>
<polygon fill="black" stroke="black" points="231.24,-183.25 241.75,-181.9 232.69,-176.4 231.24,-183.25"/>
</g>
<!-- KeyWrapping -->
<g id="node10" class="node">
<title>KeyWrapping</title>
<g id="a_node10"><a xlink:href="https://github.com/weaversa/cryptol-course/blob/master/labs/KeyWrapping/KeyWrapping.md" xlink:title="Key Wrapping">
<path fill="none" stroke="black" stroke-width="2" d="M660,-134C660,-134 587,-134 587,-134 581,-134 575,-128 575,-122 575,-122 575,-110 575,-110 575,-104 581,-98 587,-98 587,-98 660,-98 660,-98 666,-98 672,-104 672,-110 672,-110 672,-122 672,-122 672,-128 666,-134 660,-134"/>
<text text-anchor="middle" x="623.5" y="-112.3" font-family="Times,serif" font-size="14.00">Key Wrapping</text>
</a>
</g>
</g>
<!-- LanguageBasics&#45;&gt;KeyWrapping -->
<g id="edge13" class="edge">
<title>LanguageBasics&#45;&gt;KeyWrapping</title>
<path fill="none" stroke="black" d="M73.87,-134.4C118.93,-128.78 200.48,-120 270.5,-120 270.5,-120 270.5,-120 373.5,-120 439.03,-120 514.24,-118.6 564.7,-117.45"/>
<polygon fill="black" stroke="black" points="564.85,-120.95 574.77,-117.22 564.69,-113.95 564.85,-120.95"/>
</g>
<!-- BitTwiddling -->
<g id="node13" class="node">
<title>BitTwiddling</title>
<g id="a_node13"><a xlink:href="https://github.com/weaversa/cryptol-course/blob/master/labs/saw/bittwiddling/bittwiddling.md" xlink:title="Bit Twiddling">
<path fill="none" stroke="black" stroke-width="2" d="M194,-92C194,-92 125,-92 125,-92 119,-92 113,-86 113,-80 113,-80 113,-68 113,-68 113,-62 119,-56 125,-56 125,-56 194,-56 194,-56 200,-56 206,-62 206,-68 206,-68 206,-80 206,-80 206,-86 200,-92 194,-92"/>
<text text-anchor="middle" x="159.5" y="-70.3" font-family="Times,serif" font-size="14.00">Bit Twiddling</text>
</a>
</g>
</g>
<!-- LanguageBasics&#45;&gt;BitTwiddling -->
<g id="edge16" class="edge">
<title>LanguageBasics&#45;&gt;BitTwiddling</title>
<path fill="none" stroke="black" d="M73.6,-120.37C86.9,-113.11 102.28,-104.71 116.26,-97.07"/>
<polygon fill="black" stroke="black" points="118.12,-100.05 125.22,-92.18 114.76,-93.9 118.12,-100.05"/>
</g>
<!-- ArithmeticVerifications -->
<g id="node14" class="node">
<title>ArithmeticVerifications</title>
<g id="a_node14"><a xlink:href="https://github.com/weaversa/cryptol-course/blob/master/labs/saw/ArithmeticVerifications/ArithmeticVerifications.md" xlink:title="Arithmetic\nVerifications">
<path fill="none" stroke="black" stroke-width="2" d="M190,-38C190,-38 129,-38 129,-38 123,-38 117,-32 117,-26 117,-26 117,-12 117,-12 117,-6 123,0 129,0 129,0 190,0 190,0 196,0 202,-6 202,-12 202,-12 202,-26 202,-26 202,-32 196,-38 190,-38"/>
<text text-anchor="middle" x="159.5" y="-22.8" font-family="Times,serif" font-size="14.00">Arithmetic</text>
<text text-anchor="middle" x="159.5" y="-7.8" font-family="Times,serif" font-size="14.00">Verifications</text>
</a>
</g>
</g>
<!-- LanguageBasics&#45;&gt;ArithmeticVerifications -->
<g id="edge17" class="edge">
<title>LanguageBasics&#45;&gt;ArithmeticVerifications</title>
<path fill="none" stroke="black" d="M51.92,-119.77C65.35,-99.96 88.19,-68.94 113,-47 113.98,-46.14 114.98,-45.28 116.01,-44.44"/>
<polygon fill="black" stroke="black" points="118.38,-47.04 124.28,-38.24 114.18,-41.44 118.38,-47.04"/>
</g>
<!-- CRC&#45;&gt;Salsa20 -->
<g id="edge5" class="edge">
<title>CRC&#45;&gt;Salsa20</title>
<path fill="none" stroke="red" d="M186.57,-200.21C200.09,-198.24 216.88,-195.8 231.88,-193.62"/>
<polygon fill="red" stroke="red" points="232.52,-197.06 241.92,-192.16 231.52,-190.13 232.52,-197.06"/>
</g>
<!-- Capstone -->
<g id="node11" class="node">
<title>Capstone</title>
<g id="a_node11"><a xlink:href="https://github.com/weaversa/cryptol-course/blob/master/labs/LoremIpsum/LoremIpsum.md" xlink:title="Capstone">
<path fill="none" stroke="black" stroke-width="2" d="M763,-236C763,-236 720,-236 720,-236 714,-236 708,-230 708,-224 708,-224 708,-212 708,-212 708,-206 714,-200 720,-200 720,-200 763,-200 763,-200 769,-200 775,-206 775,-212 775,-212 775,-224 775,-224 775,-230 769,-236 763,-236"/>
<text text-anchor="middle" x="741.5" y="-214.3" font-family="Times,serif" font-size="14.00">Capstone</text>
</a>
</g>
</g>
<!-- CRC&#45;&gt;Capstone -->
<g id="edge11" class="edge">
<title>CRC&#45;&gt;Capstone</title>
<path fill="none" stroke="black" d="M186.64,-214.77C226.01,-230.01 303.21,-256 371.5,-256 371.5,-256 371.5,-256 492.5,-256 565.29,-256 648.73,-239.81 697.89,-228.56"/>
<polygon fill="black" stroke="black" points="698.9,-231.92 707.85,-226.25 697.32,-225.1 698.9,-231.92"/>
</g>
<!-- Salsa20Properties -->
<g id="node8" class="node">
<title>Salsa20Properties</title>
<g id="a_node8"><a xlink:href="https://github.com/weaversa/cryptol-course/blob/master/labs/Salsa20/Salsa20Props.md" xlink:title="Salsa20\nProperties">
<path fill="none" stroke="black" stroke-width="2" d="M396,-190C396,-190 349,-190 349,-190 343,-190 337,-184 337,-178 337,-178 337,-164 337,-164 337,-158 343,-152 349,-152 349,-152 396,-152 396,-152 402,-152 408,-158 408,-164 408,-164 408,-178 408,-178 408,-184 402,-190 396,-190"/>
<text text-anchor="middle" x="372.5" y="-174.8" font-family="Times,serif" font-size="14.00">Salsa20</text>
<text text-anchor="middle" x="372.5" y="-159.8" font-family="Times,serif" font-size="14.00">Properties</text>
</a>
</g>
</g>
<!-- Salsa20&#45;&gt;Salsa20Properties -->
<g id="edge6" class="edge">
<title>Salsa20&#45;&gt;Salsa20Properties</title>
<path fill="none" stroke="red" d="M301.13,-183.08C309.18,-181.7 318.12,-180.17 326.87,-178.66"/>
<polygon fill="red" stroke="red" points="327.7,-182.07 336.97,-176.93 326.52,-175.17 327.7,-182.07"/>
</g>
<!-- Salsa20&#45;&gt;Capstone -->
<g id="edge15" class="edge">
<title>Salsa20&#45;&gt;Capstone</title>
<path fill="none" stroke="black" d="M301.29,-193.68C312.41,-195.67 325.25,-197.73 337,-199 467.91,-213.19 623.85,-216.79 697.68,-217.69"/>
<polygon fill="black" stroke="black" points="697.93,-221.2 707.97,-217.81 698.01,-214.2 697.93,-221.2"/>
</g>
<!-- CryptographicProperties -->
<g id="node9" class="node">
<title>CryptographicProperties</title>
<g id="a_node9"><a xlink:href="https://github.com/weaversa/cryptol-course/blob/master/labs/CryptoProofs/CryptoProofs.md" xlink:title="Cryptographic\nProperties">
<path fill="none" stroke="black" stroke-width="2" d="M527,-190C527,-190 456,-190 456,-190 450,-190 444,-184 444,-178 444,-178 444,-164 444,-164 444,-158 450,-152 456,-152 456,-152 527,-152 527,-152 533,-152 539,-158 539,-164 539,-164 539,-178 539,-178 539,-184 533,-190 527,-190"/>
<text text-anchor="middle" x="491.5" y="-174.8" font-family="Times,serif" font-size="14.00">Cryptographic</text>
<text text-anchor="middle" x="491.5" y="-159.8" font-family="Times,serif" font-size="14.00">Properties</text>
</a>
</g>
</g>
<!-- Salsa20Properties&#45;&gt;CryptographicProperties -->
<g id="edge7" class="edge">
<title>Salsa20Properties&#45;&gt;CryptographicProperties</title>
<path fill="none" stroke="red" d="M408.29,-171C416.32,-171 425.08,-171 433.78,-171"/>
<polygon fill="red" stroke="red" points="433.93,-174.5 443.93,-171 433.93,-167.5 433.93,-174.5"/>
</g>
<!-- CryptographicProperties&#45;&gt;KeyWrapping -->
<g id="edge8" class="edge">
<title>CryptographicProperties&#45;&gt;KeyWrapping</title>
<path fill="none" stroke="red" d="M537.6,-151.92C548.15,-147.45 559.48,-142.66 570.31,-138.08"/>
<polygon fill="red" stroke="red" points="571.82,-141.24 579.66,-134.12 569.09,-134.8 571.82,-141.24"/>
</g>
<!-- ProjectEuler -->
<g id="node12" class="node">
<title>ProjectEuler</title>
<g id="a_node12"><a xlink:href="https://github.com/weaversa/cryptol-course/blob/master/labs/ProjectEuler/ProjectEuler.md" xlink:title="Project\nEuler">
<path fill="none" stroke="black" stroke-width="2" d="M639,-190C639,-190 608,-190 608,-190 602,-190 596,-184 596,-178 596,-178 596,-164 596,-164 596,-158 602,-152 608,-152 608,-152 639,-152 639,-152 645,-152 651,-158 651,-164 651,-164 651,-178 651,-178 651,-184 645,-190 639,-190"/>
<text text-anchor="middle" x="623.5" y="-174.8" font-family="Times,serif" font-size="14.00">Project</text>
<text text-anchor="middle" x="623.5" y="-159.8" font-family="Times,serif" font-size="14.00">Euler</text>
</a>
</g>
</g>
<!-- CryptographicProperties&#45;&gt;ProjectEuler -->
<g id="edge10" class="edge">
<title>CryptographicProperties&#45;&gt;ProjectEuler</title>
<path fill="none" stroke="black" d="M539.07,-171C554.43,-171 571.28,-171 585.8,-171"/>
<polygon fill="black" stroke="black" points="585.9,-174.5 595.9,-171 585.9,-167.5 585.9,-174.5"/>
</g>
<!-- KeyWrapping&#45;&gt;Capstone -->
<g id="edge9" class="edge">
<title>KeyWrapping&#45;&gt;Capstone</title>
<path fill="none" stroke="red" d="M659.57,-134.25C663.9,-136.98 668.15,-139.92 672,-143 689.91,-157.3 707.28,-176.4 720.05,-191.75"/>
<polygon fill="red" stroke="red" points="717.62,-194.3 726.65,-199.84 723.04,-189.88 717.62,-194.3"/>
</g>
</g>
</svg>
