<?xml version="1.0" encoding="UTF-8" standalone="no"?>
<!DOCTYPE svg PUBLIC "-//W3C//DTD SVG 1.1//EN"
 "http://www.w3.org/Graphics/SVG/1.1/DTD/svg11.dtd">
<!-- Generated by graphviz version 2.42.3 (20191010.1750)
 -->
<!-- Title: G Pages: 1 -->
<svg width="792pt" height="325pt"
 viewBox="0.00 0.00 792.00 325.00" xmlns="http://www.w3.org/2000/svg" xmlns:xlink="http://www.w3.org/1999/xlink">
<g id="graph0" class="graph" transform="scale(1 1) rotate(0) translate(4 321)">
<title>G</title>
<polygon fill="white" stroke="transparent" points="-4,4 -4,-321 788,-321 788,4 -4,4"/>
<!-- Installation -->
<g id="node1" class="node">
<title>Installation</title>
<g id="a_node1"><a xlink:href="https://github.com/weaversa/cryptol-course/blob/master/INSTALL.md" xlink:title="Installation">
<path fill="none" stroke="black" stroke-width="2" d="M66.98,-317C66.98,-317 12.01,-317 12.01,-317 6.01,-317 0.01,-311 0.01,-305 0.01,-305 0.01,-293 0.01,-293 0.01,-287 6.01,-281 12.01,-281 12.01,-281 66.98,-281 66.98,-281 72.98,-281 78.98,-287 78.98,-293 78.98,-293 78.98,-305 78.98,-305 78.98,-311 72.98,-317 66.98,-317"/>
<text text-anchor="middle" x="39.49" y="-294.8" font-family="Times,serif" font-size="14.00">Installation</text>
</a>
</g>
</g>
<!-- Overview -->
<g id="node2" class="node">
<title>Overview</title>
<g id="a_node2"><a xlink:href="https://github.com/weaversa/cryptol-course/blob/master/labs/Overview/Overview.md" xlink:title="Overview">
<path fill="none" stroke="black" stroke-width="2" d="M63.19,-263C63.19,-263 15.79,-263 15.79,-263 9.79,-263 3.79,-257 3.79,-251 3.79,-251 3.79,-239 3.79,-239 3.79,-233 9.79,-227 15.79,-227 15.79,-227 63.19,-227 63.19,-227 69.19,-227 75.19,-233 75.19,-239 75.19,-239 75.19,-251 75.19,-251 75.19,-257 69.19,-263 63.19,-263"/>
<text text-anchor="middle" x="39.49" y="-240.8" font-family="Times,serif" font-size="14.00">Overview</text>
</a>
</g>
</g>
<!-- Installation&#45;&gt;Overview -->
<g id="edge1" class="edge">
<title>Installation&#45;&gt;Overview</title>
<path fill="none" stroke="red" d="M39.49,-280.79C39.49,-278.31 39.49,-275.83 39.49,-273.34"/>
<polygon fill="red" stroke="red" points="42.99,-273.14 39.49,-263.14 35.99,-273.14 42.99,-273.14"/>
</g>
<!-- Interpreter -->
<g id="node3" class="node">
<title>Interpreter</title>
<g id="a_node3"><a xlink:href="https://github.com/weaversa/cryptol-course/blob/master/labs/Interpreter/Interpreter.md" xlink:title="Interpreter">
<path fill="none" stroke="black" stroke-width="2" d="M65.06,-209C65.06,-209 13.92,-209 13.92,-209 7.92,-209 1.92,-203 1.92,-197 1.92,-197 1.92,-185 1.92,-185 1.92,-179 7.92,-173 13.92,-173 13.92,-173 65.06,-173 65.06,-173 71.06,-173 77.06,-179 77.06,-185 77.06,-185 77.06,-197 77.06,-197 77.06,-203 71.06,-209 65.06,-209"/>
<text text-anchor="middle" x="39.49" y="-186.8" font-family="Times,serif" font-size="14.00">Interpreter</text>
</a>
</g>
</g>
<!-- Overview&#45;&gt;Interpreter -->
<g id="edge2" class="edge">
<title>Overview&#45;&gt;Interpreter</title>
<path fill="none" stroke="red" d="M39.49,-226.79C39.49,-224.31 39.49,-221.83 39.49,-219.34"/>
<polygon fill="red" stroke="red" points="42.99,-219.14 39.49,-209.14 35.99,-219.14 42.99,-219.14"/>
</g>
<!-- LanguageBasics -->
<g id="node4" class="node">
<title>LanguageBasics</title>
<g id="a_node4"><a xlink:href="https://github.com/weaversa/cryptol-course/blob/master/labs/LanguageBasics/LanguageBasics.md" xlink:title="Language\nBasics">
<path fill="none" stroke="black" stroke-width="2" d="M63.19,-155C63.19,-155 15.8,-155 15.8,-155 9.8,-155 3.8,-149 3.8,-143 3.8,-143 3.8,-131 3.8,-131 3.8,-125 9.8,-119 15.8,-119 15.8,-119 63.19,-119 63.19,-119 69.19,-119 75.19,-125 75.19,-131 75.19,-131 75.19,-143 75.19,-143 75.19,-149 69.19,-155 63.19,-155"/>
<text text-anchor="middle" x="39.49" y="-139.8" font-family="Times,serif" font-size="14.00">Language</text>
<text text-anchor="middle" x="39.49" y="-125.8" font-family="Times,serif" font-size="14.00">Basics</text>
</a>
</g>
</g>
<!-- Interpreter&#45;&gt;LanguageBasics -->
<g id="edge3" class="edge">
<title>Interpreter&#45;&gt;LanguageBasics</title>
<path fill="none" stroke="red" d="M39.49,-172.79C39.49,-170.31 39.49,-167.83 39.49,-165.34"/>
<polygon fill="red" stroke="red" points="42.99,-165.14 39.49,-155.14 35.99,-165.14 42.99,-165.14"/>
</g>
<!-- Demos -->
<g id="node5" class="node">
<title>Demos</title>
<g id="a_node5"><a xlink:href="https://github.com/weaversa/cryptol-course/blob/master/labs/Demos/Demos.md" xlink:title="Demos">
<path fill="none" stroke="black" stroke-width="2" d="M177.51,-274C177.51,-274 146.19,-274 146.19,-274 140.19,-274 134.19,-268 134.19,-262 134.19,-262 134.19,-250 134.19,-250 134.19,-244 140.19,-238 146.19,-238 146.19,-238 177.51,-238 177.51,-238 183.51,-238 189.51,-244 189.51,-250 189.51,-250 189.51,-262 189.51,-262 189.51,-268 183.51,-274 177.51,-274"/>
<text text-anchor="middle" x="161.85" y="-251.8" font-family="Times,serif" font-size="14.00">Demos</text>
</a>
</g>
</g>
<!-- LanguageBasics&#45;&gt;Demos -->
<g id="edge14" class="edge">
<title>LanguageBasics&#45;&gt;Demos</title>
<path fill="none" stroke="black" d="M69.46,-155.1C72.87,-157.86 76.15,-160.84 78.99,-164 101.07,-188.55 91.94,-205.34 114.99,-229 118.12,-232.21 121.71,-235.18 125.48,-237.88"/>
<polygon fill="black" stroke="black" points="123.6,-240.83 133.89,-243.34 127.41,-234.96 123.6,-240.83"/>
</g>
<!-- CRC -->
<g id="node6" class="node">
<title>CRC</title>
<g id="a_node6"><a xlink:href="https://github.com/weaversa/cryptol-course/blob/master/labs/CRC/CRC.md" xlink:title="CRC">
<path fill="none" stroke="black" stroke-width="2" d="M176.85,-220C176.85,-220 146.85,-220 146.85,-220 140.85,-220 134.85,-214 134.85,-208 134.85,-208 134.85,-196 134.85,-196 134.85,-190 140.85,-184 146.85,-184 146.85,-184 176.85,-184 176.85,-184 182.85,-184 188.85,-190 188.85,-196 188.85,-196 188.85,-208 188.85,-208 188.85,-214 182.85,-220 176.85,-220"/>
<text text-anchor="middle" x="161.85" y="-197.8" font-family="Times,serif" font-size="14.00">CRC</text>
</a>
</g>
</g>
<!-- LanguageBasics&#45;&gt;CRC -->
<g id="edge4" class="edge">
<title>LanguageBasics&#45;&gt;CRC</title>
<path fill="none" stroke="red" d="M74.02,-155.11C90.07,-163.77 109.28,-174.15 125.55,-182.94"/>
<polygon fill="red" stroke="red" points="124.29,-186.23 134.75,-187.9 127.61,-180.07 124.29,-186.23"/>
</g>
<!-- Salsa20 -->
<g id="node7" class="node">
<title>Salsa20</title>
<g id="a_node7"><a xlink:href="https://github.com/weaversa/cryptol-course/blob/master/labs/Salsa20/Salsa20.md" xlink:title="Salsa20">
<path fill="none" stroke="black" stroke-width="2" d="M292.04,-203C292.04,-203 256.93,-203 256.93,-203 250.93,-203 244.93,-197 244.93,-191 244.93,-191 244.93,-179 244.93,-179 244.93,-173 250.93,-167 256.93,-167 256.93,-167 292.04,-167 292.04,-167 298.04,-167 304.04,-173 304.04,-179 304.04,-179 304.04,-191 304.04,-191 304.04,-197 298.04,-203 292.04,-203"/>
<text text-anchor="middle" x="274.49" y="-180.8" font-family="Times,serif" font-size="14.00">Salsa20</text>
</a>
</g>
</g>
<!-- LanguageBasics&#45;&gt;Salsa20 -->
<g id="edge12" class="edge">
<title>LanguageBasics&#45;&gt;Salsa20</title>
<path fill="none" stroke="black" d="M75.12,-144.13C117.93,-152.95 190.56,-167.92 235.05,-177.08"/>
<polygon fill="black" stroke="black" points="234.41,-180.52 244.91,-179.11 235.82,-173.67 234.41,-180.52"/>
</g>
<!-- KeyWrapping -->
<g id="node10" class="node">
<title>KeyWrapping</title>
<g id="a_node10"><a xlink:href="https://github.com/weaversa/cryptol-course/blob/master/labs/KeyWrapping/KeyWrapping.md" xlink:title="Key Wrapping">
<path fill="none" stroke="black" stroke-width="2" d="M667.9,-132C667.9,-132 593.9,-132 593.9,-132 587.9,-132 581.9,-126 581.9,-120 581.9,-120 581.9,-108 581.9,-108 581.9,-102 587.9,-96 593.9,-96 593.9,-96 667.9,-96 667.9,-96 673.9,-96 679.9,-102 679.9,-108 679.9,-108 679.9,-120 679.9,-120 679.9,-126 673.9,-132 667.9,-132"/>
<text text-anchor="middle" x="630.9" y="-109.8" font-family="Times,serif" font-size="14.00">Key Wrapping</text>
</a>
</g>
</g>
<!-- LanguageBasics&#45;&gt;KeyWrapping -->
<g id="edge13" class="edge">
<title>LanguageBasics&#45;&gt;KeyWrapping</title>
<path fill="none" stroke="black" d="M75.16,-132.4C120.61,-126.78 202.87,-118 273.49,-118 273.49,-118 273.49,-118 377.65,-118 444.03,-118 520.22,-116.6 571.35,-115.45"/>
<polygon fill="black" stroke="black" points="571.63,-118.95 581.54,-115.22 571.47,-111.95 571.63,-118.95"/>
</g>
<!-- BitTwiddling -->
<g id="node13" class="node">
<title>BitTwiddling</title>
<g id="a_node13"><a xlink:href="https://github.com/weaversa/cryptol-course/blob/master/labs/saw/bittwiddling/bittwiddling.md" xlink:title="Bit Twiddling">
<path fill="none" stroke="black" stroke-width="2" d="M196.57,-90C196.57,-90 127.12,-90 127.12,-90 121.12,-90 115.12,-84 115.12,-78 115.12,-78 115.12,-66 115.12,-66 115.12,-60 121.12,-54 127.12,-54 127.12,-54 196.57,-54 196.57,-54 202.57,-54 208.57,-60 208.57,-66 208.57,-66 208.57,-78 208.57,-78 208.57,-84 202.57,-90 196.57,-90"/>
<text text-anchor="middle" x="161.85" y="-67.8" font-family="Times,serif" font-size="14.00">Bit Twiddling</text>
</a>
</g>
</g>
<!-- LanguageBasics&#45;&gt;BitTwiddling -->
<g id="edge16" class="edge">
<title>LanguageBasics&#45;&gt;BitTwiddling</title>
<path fill="none" stroke="black" d="M74.02,-118.89C87.84,-111.43 104.02,-102.69 118.64,-94.8"/>
<polygon fill="black" stroke="black" points="120.37,-97.84 127.5,-90.01 117.04,-91.68 120.37,-97.84"/>
</g>
<!-- ArithmeticVerifications -->
<g id="node14" class="node">
<title>ArithmeticVerifications</title>
<g id="a_node14"><a xlink:href="https://github.com/weaversa/cryptol-course/blob/master/labs/saw/ArithmeticVerifications/ArithmeticVerifications.md" xlink:title="Arithmetic\nVerifications">
<path fill="none" stroke="black" stroke-width="2" d="M193.11,-36C193.11,-36 130.58,-36 130.58,-36 124.58,-36 118.58,-30 118.58,-24 118.58,-24 118.58,-12 118.58,-12 118.58,-6 124.58,0 130.58,0 130.58,0 193.11,0 193.11,0 199.11,0 205.11,-6 205.11,-12 205.11,-12 205.11,-24 205.11,-24 205.11,-30 199.11,-36 193.11,-36"/>
<text text-anchor="middle" x="161.85" y="-20.8" font-family="Times,serif" font-size="14.00">Arithmetic</text>
<text text-anchor="middle" x="161.85" y="-6.8" font-family="Times,serif" font-size="14.00">Verifications</text>
</a>
</g>
</g>
<!-- LanguageBasics&#45;&gt;ArithmeticVerifications -->
<g id="edge17" class="edge">
<title>LanguageBasics&#45;&gt;ArithmeticVerifications</title>
<path fill="none" stroke="black" d="M52.3,-118.78C65.78,-98.95 89.29,-67.13 114.99,-45 116.12,-44.02 117.3,-43.06 118.51,-42.11"/>
<polygon fill="black" stroke="black" points="120.75,-44.81 126.83,-36.14 116.66,-39.13 120.75,-44.81"/>
</g>
<!-- CRC&#45;&gt;Salsa20 -->
<g id="edge5" class="edge">
<title>CRC&#45;&gt;Salsa20</title>
<path fill="none" stroke="red" d="M189.07,-197.97C202.67,-195.88 219.56,-193.29 234.64,-190.97"/>
<polygon fill="red" stroke="red" points="235.38,-194.4 244.74,-189.42 234.32,-187.48 235.38,-194.4"/>
</g>
<!-- Capstone -->
<g id="node11" class="node">
<title>Capstone</title>
<g id="a_node11"><a xlink:href="https://github.com/weaversa/cryptol-course/blob/master/labs/LoremIpsum/LoremIpsum.md" xlink:title="Capstone">
<path fill="none" stroke="black" stroke-width="2" d="M772.06,-232C772.06,-232 727.85,-232 727.85,-232 721.85,-232 715.85,-226 715.85,-220 715.85,-220 715.85,-208 715.85,-208 715.85,-202 721.85,-196 727.85,-196 727.85,-196 772.06,-196 772.06,-196 778.06,-196 784.06,-202 784.06,-208 784.06,-208 784.06,-220 784.06,-220 784.06,-226 778.06,-232 772.06,-232"/>
<text text-anchor="middle" x="749.95" y="-209.8" font-family="Times,serif" font-size="14.00">Capstone</text>
</a>
</g>
</g>
<!-- CRC&#45;&gt;Capstone -->
<g id="edge11" class="edge">
<title>CRC&#45;&gt;Capstone</title>
<path fill="none" stroke="black" d="M188.92,-212.24C228.59,-226.87 306.77,-252 375.65,-252 375.65,-252 375.65,-252 498.46,-252 571.92,-252 656.13,-235.83 705.81,-224.59"/>
<polygon fill="black" stroke="black" points="706.61,-227.99 715.57,-222.34 705.04,-221.17 706.61,-227.99"/>
</g>
<!-- Salsa20Properties -->
<g id="node8" class="node">
<title>Salsa20Properties</title>
<g id="a_node8"><a xlink:href="https://github.com/weaversa/cryptol-course/blob/master/labs/Salsa20/Salsa20Props.md" xlink:title="Salsa20\nProperties">
<path fill="none" stroke="black" stroke-width="2" d="M400.91,-186C400.91,-186 352.38,-186 352.38,-186 346.38,-186 340.38,-180 340.38,-174 340.38,-174 340.38,-162 340.38,-162 340.38,-156 346.38,-150 352.38,-150 352.38,-150 400.91,-150 400.91,-150 406.91,-150 412.91,-156 412.91,-162 412.91,-162 412.91,-174 412.91,-174 412.91,-180 406.91,-186 400.91,-186"/>
<text text-anchor="middle" x="376.65" y="-170.8" font-family="Times,serif" font-size="14.00">Salsa20</text>
<text text-anchor="middle" x="376.65" y="-156.8" font-family="Times,serif" font-size="14.00">Properties</text>
</a>
</g>
</g>
<!-- Salsa20&#45;&gt;Salsa20Properties -->
<g id="edge6" class="edge">
<title>Salsa20&#45;&gt;Salsa20Properties</title>
<path fill="none" stroke="red" d="M304.19,-180.13C312.34,-178.75 321.41,-177.2 330.29,-175.7"/>
<polygon fill="red" stroke="red" points="330.9,-179.15 340.17,-174.02 329.72,-172.24 330.9,-179.15"/>
</g>
<!-- Salsa20&#45;&gt;Capstone -->
<g id="edge15" class="edge">
<title>Salsa20&#45;&gt;Capstone</title>
<path fill="none" stroke="black" d="M304.1,-190.09C315.34,-191.91 328.37,-193.81 340.26,-195 472.8,-208.27 630.47,-212.3 705.33,-213.5"/>
<polygon fill="black" stroke="black" points="705.7,-217 715.76,-213.66 705.81,-210 705.7,-217"/>
</g>
<!-- CryptographicProperties -->
<g id="node9" class="node">
<title>CryptographicProperties</title>
<g id="a_node9"><a xlink:href="https://github.com/weaversa/cryptol-course/blob/master/labs/CryptoProofs/CryptoProofs.md" xlink:title="Cryptographic\nProperties">
<path fill="none" stroke="black" stroke-width="2" d="M533.83,-186C533.83,-186 461.09,-186 461.09,-186 455.09,-186 449.09,-180 449.09,-174 449.09,-174 449.09,-162 449.09,-162 449.09,-156 455.09,-150 461.09,-150 461.09,-150 533.83,-150 533.83,-150 539.83,-150 545.83,-156 545.83,-162 545.83,-162 545.83,-174 545.83,-174 545.83,-180 539.83,-186 533.83,-186"/>
<text text-anchor="middle" x="497.46" y="-170.8" font-family="Times,serif" font-size="14.00">Cryptographic</text>
<text text-anchor="middle" x="497.46" y="-156.8" font-family="Times,serif" font-size="14.00">Properties</text>
</a>
</g>
</g>
<!-- Salsa20Properties&#45;&gt;CryptographicProperties -->
<g id="edge7" class="edge">
<title>Salsa20Properties&#45;&gt;CryptographicProperties</title>
<path fill="none" stroke="red" d="M412.97,-168C421.04,-168 429.81,-168 438.55,-168"/>
<polygon fill="red" stroke="red" points="438.73,-171.5 448.73,-168 438.73,-164.5 438.73,-171.5"/>
</g>
<!-- CryptographicProperties&#45;&gt;KeyWrapping -->
<g id="edge8" class="edge">
<title>CryptographicProperties&#45;&gt;KeyWrapping</title>
<path fill="none" stroke="red" d="M542.59,-149.87C553.43,-145.42 565.15,-140.6 576.38,-135.99"/>
<polygon fill="red" stroke="red" points="577.74,-139.21 585.66,-132.18 575.08,-132.74 577.74,-139.21"/>
</g>
<!-- ProjectEuler -->
<g id="node12" class="node">
<title>ProjectEuler</title>
<g id="a_node12"><a xlink:href="https://github.com/weaversa/cryptol-course/blob/master/labs/ProjectEuler/ProjectEuler.md" xlink:title="Project\nEuler">
<path fill="none" stroke="black" stroke-width="2" d="M646.56,-186C646.56,-186 615.24,-186 615.24,-186 609.24,-186 603.24,-180 603.24,-174 603.24,-174 603.24,-162 603.24,-162 603.24,-156 609.24,-150 615.24,-150 615.24,-150 646.56,-150 646.56,-150 652.56,-150 658.56,-156 658.56,-162 658.56,-162 658.56,-174 658.56,-174 658.56,-180 652.56,-186 646.56,-186"/>
<text text-anchor="middle" x="630.9" y="-170.8" font-family="Times,serif" font-size="14.00">Project</text>
<text text-anchor="middle" x="630.9" y="-156.8" font-family="Times,serif" font-size="14.00">Euler</text>
</a>
</g>
</g>
<!-- CryptographicProperties&#45;&gt;ProjectEuler -->
<g id="edge10" class="edge">
<title>CryptographicProperties&#45;&gt;ProjectEuler</title>
<path fill="none" stroke="black" d="M545.91,-168C561.42,-168 578.39,-168 593,-168"/>
<polygon fill="black" stroke="black" points="593.16,-171.5 603.16,-168 593.16,-164.5 593.16,-171.5"/>
</g>
<!-- KeyWrapping&#45;&gt;Capstone -->
<g id="edge9" class="edge">
<title>KeyWrapping&#45;&gt;Capstone</title>
<path fill="none" stroke="red" d="M667.05,-132.13C671.51,-134.9 675.91,-137.88 679.9,-141 697.54,-154.77 714.83,-173.06 727.7,-187.89"/>
<polygon fill="red" stroke="red" points="725.23,-190.38 734.37,-195.72 730.55,-185.84 725.23,-190.38"/>
</g>
</g>
</svg>
