<?xml version="1.0" encoding="UTF-8" standalone="no"?>
<!DOCTYPE svg PUBLIC "-//W3C//DTD SVG 1.1//EN"
 "http://www.w3.org/Graphics/SVG/1.1/DTD/svg11.dtd">
<!-- Generated by graphviz version 2.44.1 (20200629.0846)
 -->
<!-- Title: G Pages: 1 -->
<svg width="641pt" height="263pt"
 viewBox="0.00 0.00 641.00 263.00" xmlns="http://www.w3.org/2000/svg" xmlns:xlink="http://www.w3.org/1999/xlink">
<g id="graph0" class="graph" transform="scale(1 1) rotate(0) translate(4 259)">
<title>G</title>
<polygon fill="white" stroke="transparent" points="-4,4 -4,-259 637,-259 637,4 -4,4"/>
<!-- Installation -->
<g id="node1" class="node">
<title>Installation</title>
<g id="a_node1"><a xlink:href="https://github.com/weaversa/cryptol-course/blob/master/INSTALL.md" xlink:title="Installation">
<path fill="none" stroke="black" stroke-width="2" d="M65,-255C65,-255 12,-255 12,-255 6,-255 0,-249 0,-243 0,-243 0,-231 0,-231 0,-225 6,-219 12,-219 12,-219 65,-219 65,-219 71,-219 77,-225 77,-231 77,-231 77,-243 77,-243 77,-249 71,-255 65,-255"/>
<text text-anchor="middle" x="38.5" y="-233.3" font-family="Times,serif" font-size="14.00">Installation</text>
</a>
</g>
</g>
<!-- Overview -->
<g id="node2" class="node">
<title>Overview</title>
<g id="a_node2"><a xlink:href="https://github.com/weaversa/cryptol-course/blob/master/labs/Overview/Overview.md" xlink:title="Overview">
<path fill="none" stroke="black" stroke-width="2" d="M61.5,-201C61.5,-201 15.5,-201 15.5,-201 9.5,-201 3.5,-195 3.5,-189 3.5,-189 3.5,-177 3.5,-177 3.5,-171 9.5,-165 15.5,-165 15.5,-165 61.5,-165 61.5,-165 67.5,-165 73.5,-171 73.5,-177 73.5,-177 73.5,-189 73.5,-189 73.5,-195 67.5,-201 61.5,-201"/>
<text text-anchor="middle" x="38.5" y="-179.3" font-family="Times,serif" font-size="14.00">Overview</text>
</a>
</g>
</g>
<!-- Installation&#45;&gt;Overview -->
<g id="edge1" class="edge">
<title>Installation&#45;&gt;Overview</title>
<path fill="none" stroke="red" d="M38.5,-218.79C38.5,-216.31 38.5,-213.83 38.5,-211.34"/>
<polygon fill="red" stroke="red" points="42,-211.14 38.5,-201.14 35,-211.14 42,-211.14"/>
</g>
<!-- Interpreter -->
<g id="node3" class="node">
<title>Interpreter</title>
<g id="a_node3"><a xlink:href="https://github.com/weaversa/cryptol-course/blob/master/labs/Interpreter/Interpreter.md" xlink:title="Interpreter">
<path fill="none" stroke="black" stroke-width="2" d="M63.5,-147C63.5,-147 13.5,-147 13.5,-147 7.5,-147 1.5,-141 1.5,-135 1.5,-135 1.5,-123 1.5,-123 1.5,-117 7.5,-111 13.5,-111 13.5,-111 63.5,-111 63.5,-111 69.5,-111 75.5,-117 75.5,-123 75.5,-123 75.5,-135 75.5,-135 75.5,-141 69.5,-147 63.5,-147"/>
<text text-anchor="middle" x="38.5" y="-125.3" font-family="Times,serif" font-size="14.00">Interpreter</text>
</a>
</g>
</g>
<!-- Overview&#45;&gt;Interpreter -->
<g id="edge2" class="edge">
<title>Overview&#45;&gt;Interpreter</title>
<path fill="none" stroke="red" d="M38.5,-164.79C38.5,-162.31 38.5,-159.83 38.5,-157.34"/>
<polygon fill="red" stroke="red" points="42,-157.14 38.5,-147.14 35,-157.14 42,-157.14"/>
</g>
<!-- LanguageBasics -->
<g id="node4" class="node">
<title>LanguageBasics</title>
<g id="a_node4"><a xlink:href="https://github.com/weaversa/cryptol-course/blob/master/labs/Language/Basics.md" xlink:title="Language\nBasics">
<path fill="none" stroke="black" stroke-width="2" d="M61.5,-93C61.5,-93 15.5,-93 15.5,-93 9.5,-93 3.5,-87 3.5,-81 3.5,-81 3.5,-67 3.5,-67 3.5,-61 9.5,-55 15.5,-55 15.5,-55 61.5,-55 61.5,-55 67.5,-55 73.5,-61 73.5,-67 73.5,-67 73.5,-81 73.5,-81 73.5,-87 67.5,-93 61.5,-93"/>
<text text-anchor="middle" x="38.5" y="-77.8" font-family="Times,serif" font-size="14.00">Language</text>
<text text-anchor="middle" x="38.5" y="-62.8" font-family="Times,serif" font-size="14.00">Basics</text>
</a>
</g>
</g>
<!-- Interpreter&#45;&gt;LanguageBasics -->
<g id="edge3" class="edge">
<title>Interpreter&#45;&gt;LanguageBasics</title>
<path fill="none" stroke="red" d="M38.5,-110.89C38.5,-108.42 38.5,-105.95 38.5,-103.48"/>
<polygon fill="red" stroke="red" points="42,-103.34 38.5,-93.34 35,-103.34 42,-103.34"/>
</g>
<!-- CryptolDemos -->
<g id="node5" class="node">
<title>CryptolDemos</title>
<g id="a_node5"><a xlink:href="https://github.com/weaversa/cryptol-course/blob/master/labs/Demos/Cryptol/Demos.md" xlink:title="Cryptol\nDemos">
<path fill="none" stroke="black" stroke-width="2" d="M159,-148C159,-148 125,-148 125,-148 119,-148 113,-142 113,-136 113,-136 113,-122 113,-122 113,-116 119,-110 125,-110 125,-110 159,-110 159,-110 165,-110 171,-116 171,-122 171,-122 171,-136 171,-136 171,-142 165,-148 159,-148"/>
<text text-anchor="middle" x="142" y="-132.8" font-family="Times,serif" font-size="14.00">Cryptol</text>
<text text-anchor="middle" x="142" y="-117.8" font-family="Times,serif" font-size="14.00">Demos</text>
</a>
</g>
</g>
<!-- LanguageBasics&#45;&gt;CryptolDemos -->
<g id="edge11" class="edge">
<title>LanguageBasics&#45;&gt;CryptolDemos</title>
<path fill="none" stroke="black" d="M73.58,-92.47C83.37,-97.77 94.09,-103.58 104.04,-108.97"/>
<polygon fill="black" stroke="black" points="102.46,-112.1 112.92,-113.78 105.79,-105.94 102.46,-112.1"/>
</g>
<!-- CRC -->
<g id="node6" class="node">
<title>CRC</title>
<g id="a_node6"><a xlink:href="https://github.com/weaversa/cryptol-course/blob/master/labs/CRC/CRC.md" xlink:title="CRC">
<path fill="none" stroke="black" stroke-width="2" d="M157,-92C157,-92 127,-92 127,-92 121,-92 115,-86 115,-80 115,-80 115,-68 115,-68 115,-62 121,-56 127,-56 127,-56 157,-56 157,-56 163,-56 169,-62 169,-68 169,-68 169,-80 169,-80 169,-86 163,-92 157,-92"/>
<text text-anchor="middle" x="142" y="-70.3" font-family="Times,serif" font-size="14.00">CRC</text>
</a>
</g>
</g>
<!-- LanguageBasics&#45;&gt;CRC -->
<g id="edge4" class="edge">
<title>LanguageBasics&#45;&gt;CRC</title>
<path fill="none" stroke="red" d="M73.58,-74C83.58,-74 94.56,-74 104.69,-74"/>
<polygon fill="red" stroke="red" points="104.87,-77.5 114.87,-74 104.87,-70.5 104.87,-77.5"/>
</g>
<!-- SAWDemos -->
<g id="node7" class="node">
<title>SAWDemos</title>
<g id="a_node7"><a xlink:href="https://github.com/weaversa/cryptol-course/blob/master/labs/Demos/SAW/Demos.md" xlink:title="SAW\nDemos">
<path fill="none" stroke="black" stroke-width="2" d="M158,-38C158,-38 126,-38 126,-38 120,-38 114,-32 114,-26 114,-26 114,-12 114,-12 114,-6 120,0 126,0 126,0 158,0 158,0 164,0 170,-6 170,-12 170,-12 170,-26 170,-26 170,-32 164,-38 158,-38"/>
<text text-anchor="middle" x="142" y="-22.8" font-family="Times,serif" font-size="14.00">SAW</text>
<text text-anchor="middle" x="142" y="-7.8" font-family="Times,serif" font-size="14.00">Demos</text>
</a>
</g>
</g>
<!-- LanguageBasics&#45;&gt;SAWDemos -->
<g id="edge12" class="edge">
<title>LanguageBasics&#45;&gt;SAWDemos</title>
<path fill="none" stroke="black" d="M73.58,-55.53C83.63,-50.09 94.67,-44.11 104.85,-38.59"/>
<polygon fill="black" stroke="black" points="106.78,-41.53 113.9,-33.68 103.44,-35.37 106.78,-41.53"/>
</g>
<!-- Salsa20 -->
<g id="node8" class="node">
<title>Salsa20</title>
<g id="a_node8"><a xlink:href="https://github.com/weaversa/cryptol-course/blob/master/labs/Salsa20/Salsa20.md" xlink:title="Salsa20">
<path fill="none" stroke="black" stroke-width="2" d="M254,-92C254,-92 219,-92 219,-92 213,-92 207,-86 207,-80 207,-80 207,-68 207,-68 207,-62 213,-56 219,-56 219,-56 254,-56 254,-56 260,-56 266,-62 266,-68 266,-68 266,-80 266,-80 266,-86 260,-92 254,-92"/>
<text text-anchor="middle" x="236.5" y="-70.3" font-family="Times,serif" font-size="14.00">Salsa20</text>
</a>
</g>
</g>
<!-- CRC&#45;&gt;Salsa20 -->
<g id="edge5" class="edge">
<title>CRC&#45;&gt;Salsa20</title>
<path fill="none" stroke="red" d="M169.26,-74C177.8,-74 187.46,-74 196.71,-74"/>
<polygon fill="red" stroke="red" points="196.91,-77.5 206.91,-74 196.91,-70.5 196.91,-77.5"/>
</g>
<!-- CryptographicProperties -->
<g id="node11" class="node">
<title>CryptographicProperties</title>
<g id="a_node11"><a xlink:href="https://github.com/weaversa/cryptol-course/blob/master/labs/CryptoProofs/CryptoProofs.md" xlink:title="Cryptographic\nProperties">
<path fill="none" stroke="black" stroke-width="2" d="M385,-93C385,-93 314,-93 314,-93 308,-93 302,-87 302,-81 302,-81 302,-67 302,-67 302,-61 308,-55 314,-55 314,-55 385,-55 385,-55 391,-55 397,-61 397,-67 397,-67 397,-81 397,-81 397,-87 391,-93 385,-93"/>
<text text-anchor="middle" x="349.5" y="-77.8" font-family="Times,serif" font-size="14.00">Cryptographic</text>
<text text-anchor="middle" x="349.5" y="-62.8" font-family="Times,serif" font-size="14.00">Properties</text>
</a>
</g>
</g>
<!-- Salsa20&#45;&gt;CryptographicProperties -->
<g id="edge6" class="edge">
<title>Salsa20&#45;&gt;CryptographicProperties</title>
<path fill="none" stroke="red" d="M266.09,-74C274.02,-74 282.92,-74 291.86,-74"/>
<polygon fill="red" stroke="red" points="291.93,-77.5 301.93,-74 291.93,-70.5 291.93,-77.5"/>
</g>
<!-- Salsa20Properties -->
<g id="node9" class="node">
<title>Salsa20Properties</title>
<g id="a_node9"><a xlink:href="https://github.com/weaversa/cryptol-course/blob/master/labs/Salsa20/Salsa20Props.md" xlink:title="Salsa20\nProperties">
<path fill="none" stroke="black" stroke-width="2" d="M505,-148C505,-148 458,-148 458,-148 452,-148 446,-142 446,-136 446,-136 446,-122 446,-122 446,-116 452,-110 458,-110 458,-110 505,-110 505,-110 511,-110 517,-116 517,-122 517,-122 517,-136 517,-136 517,-142 511,-148 505,-148"/>
<text text-anchor="middle" x="481.5" y="-132.8" font-family="Times,serif" font-size="14.00">Salsa20</text>
<text text-anchor="middle" x="481.5" y="-117.8" font-family="Times,serif" font-size="14.00">Properties</text>
</a>
</g>
</g>
<!-- KeyWrapping -->
<g id="node10" class="node">
<title>KeyWrapping</title>
<g id="a_node10"><a xlink:href="https://github.com/weaversa/cryptol-course/blob/master/labs/KeyWrapping/KeyWrapping.md" xlink:title="Key Wrapping">
<path fill="none" stroke="black" stroke-width="2" d="M518,-92C518,-92 445,-92 445,-92 439,-92 433,-86 433,-80 433,-80 433,-68 433,-68 433,-62 439,-56 445,-56 445,-56 518,-56 518,-56 524,-56 530,-62 530,-68 530,-68 530,-80 530,-80 530,-86 524,-92 518,-92"/>
<text text-anchor="middle" x="481.5" y="-70.3" font-family="Times,serif" font-size="14.00">Key Wrapping</text>
</a>
</g>
</g>
<!-- Capstone -->
<g id="node13" class="node">
<title>Capstone</title>
<g id="a_node13"><a xlink:href="https://github.com/weaversa/cryptol-course/blob/master/labs/LoremIpsum/LoremIpsum.md" xlink:title="Capstone">
<path fill="none" stroke="black" stroke-width="2" d="M621,-119C621,-119 578,-119 578,-119 572,-119 566,-113 566,-107 566,-107 566,-95 566,-95 566,-89 572,-83 578,-83 578,-83 621,-83 621,-83 627,-83 633,-89 633,-95 633,-95 633,-107 633,-107 633,-113 627,-119 621,-119"/>
<text text-anchor="middle" x="599.5" y="-97.3" font-family="Times,serif" font-size="14.00">Capstone</text>
</a>
</g>
</g>
<!-- KeyWrapping&#45;&gt;Capstone -->
<g id="edge8" class="edge">
<title>KeyWrapping&#45;&gt;Capstone</title>
<path fill="none" stroke="red" d="M530.02,-85.06C538.56,-87.05 547.41,-89.11 555.8,-91.06"/>
<polygon fill="red" stroke="red" points="555.23,-94.52 565.76,-93.38 556.82,-87.7 555.23,-94.52"/>
</g>
<!-- SimonSpeck -->
<g id="node14" class="node">
<title>SimonSpeck</title>
<g id="a_node14"><a xlink:href="https://github.com/weaversa/cryptol-course/blob/master/labs/SimonSpeck/SimonSpeck.md" xlink:title="Simon\nSpeck">
<path fill="none" stroke="black" stroke-width="2" d="M614.5,-65C614.5,-65 584.5,-65 584.5,-65 578.5,-65 572.5,-59 572.5,-53 572.5,-53 572.5,-39 572.5,-39 572.5,-33 578.5,-27 584.5,-27 584.5,-27 614.5,-27 614.5,-27 620.5,-27 626.5,-33 626.5,-39 626.5,-39 626.5,-53 626.5,-53 626.5,-59 620.5,-65 614.5,-65"/>
<text text-anchor="middle" x="599.5" y="-49.8" font-family="Times,serif" font-size="14.00">Simon</text>
<text text-anchor="middle" x="599.5" y="-34.8" font-family="Times,serif" font-size="14.00">Speck</text>
</a>
</g>
</g>
<!-- KeyWrapping&#45;&gt;SimonSpeck -->
<g id="edge13" class="edge">
<title>KeyWrapping&#45;&gt;SimonSpeck</title>
<path fill="none" stroke="black" d="M530.02,-62.53C540.9,-59.9 552.3,-57.15 562.6,-54.66"/>
<polygon fill="black" stroke="black" points="563.58,-58.03 572.48,-52.28 561.94,-51.22 563.58,-58.03"/>
</g>
<!-- CryptographicProperties&#45;&gt;Salsa20Properties -->
<g id="edge9" class="edge">
<title>CryptographicProperties&#45;&gt;Salsa20Properties</title>
<path fill="none" stroke="black" d="M395.6,-93.08C408.82,-98.67 423.25,-104.78 436.41,-110.35"/>
<polygon fill="black" stroke="black" points="435.15,-113.62 445.73,-114.29 437.88,-107.17 435.15,-113.62"/>
</g>
<!-- CryptographicProperties&#45;&gt;KeyWrapping -->
<g id="edge7" class="edge">
<title>CryptographicProperties&#45;&gt;KeyWrapping</title>
<path fill="none" stroke="red" d="M397.07,-74C405.44,-74 414.27,-74 422.91,-74"/>
<polygon fill="red" stroke="red" points="422.95,-77.5 432.95,-74 422.95,-70.5 422.95,-77.5"/>
</g>
<!-- ProjectEuler -->
<g id="node12" class="node">
<title>ProjectEuler</title>
<g id="a_node12"><a xlink:href="https://github.com/weaversa/cryptol-course/blob/master/labs/ProjectEuler/ProjectEuler.md" xlink:title="Project\nEuler">
<path fill="none" stroke="black" stroke-width="2" d="M497,-38C497,-38 466,-38 466,-38 460,-38 454,-32 454,-26 454,-26 454,-12 454,-12 454,-6 460,0 466,0 466,0 497,0 497,0 503,0 509,-6 509,-12 509,-12 509,-26 509,-26 509,-32 503,-38 497,-38"/>
<text text-anchor="middle" x="481.5" y="-22.8" font-family="Times,serif" font-size="14.00">Project</text>
<text text-anchor="middle" x="481.5" y="-7.8" font-family="Times,serif" font-size="14.00">Euler</text>
</a>
</g>
</g>
<!-- CryptographicProperties&#45;&gt;ProjectEuler -->
<g id="edge10" class="edge">
<title>CryptographicProperties&#45;&gt;ProjectEuler</title>
<path fill="none" stroke="black" d="M395.6,-54.92C411.48,-48.2 429.12,-40.74 444.18,-34.36"/>
<polygon fill="black" stroke="black" points="445.82,-37.47 453.67,-30.35 443.09,-31.03 445.82,-37.47"/>
</g>
</g>
</svg>
