<?xml version="1.0" encoding="UTF-8" standalone="no"?>
<!DOCTYPE svg PUBLIC "-//W3C//DTD SVG 1.1//EN"
 "http://www.w3.org/Graphics/SVG/1.1/DTD/svg11.dtd">
<!-- Generated by graphviz version 2.44.1 (20200629.0846)
 -->
<!-- Title: CryptolCourseFlow Pages: 1 -->
<svg width="712pt" height="289pt"
 viewBox="0.00 0.00 712.00 289.00" xmlns="http://www.w3.org/2000/svg" xmlns:xlink="http://www.w3.org/1999/xlink">
<g id="graph0" class="graph" transform="scale(1 1) rotate(0) translate(4 285)">
<title>CryptolCourseFlow</title>
<polygon fill="white" stroke="transparent" points="-4,4 -4,-285 708,-285 708,4 -4,4"/>
<!-- Installation -->
<g id="node1" class="node">
<title>Installation</title>
<g id="a_node1"><a xlink:href="https://github.com/weaversa/cryptol-course/blob/master/INSTALL.md" xlink:title="Installation">
<path fill="none" stroke="black" stroke-width="2" d="M65,-281C65,-281 12,-281 12,-281 6,-281 0,-275 0,-269 0,-269 0,-257 0,-257 0,-251 6,-245 12,-245 12,-245 65,-245 65,-245 71,-245 77,-251 77,-257 77,-257 77,-269 77,-269 77,-275 71,-281 65,-281"/>
<text text-anchor="middle" x="38.5" y="-259.3" font-family="Times,serif" font-size="14.00">Installation</text>
</a>
</g>
</g>
<!-- Overview -->
<g id="node2" class="node">
<title>Overview</title>
<g id="a_node2"><a xlink:href="https://github.com/weaversa/cryptol-course/blob/master/labs/Overview/Overview.md" xlink:title="Overview">
<path fill="none" stroke="black" stroke-width="2" d="M61.5,-227C61.5,-227 15.5,-227 15.5,-227 9.5,-227 3.5,-221 3.5,-215 3.5,-215 3.5,-203 3.5,-203 3.5,-197 9.5,-191 15.5,-191 15.5,-191 61.5,-191 61.5,-191 67.5,-191 73.5,-197 73.5,-203 73.5,-203 73.5,-215 73.5,-215 73.5,-221 67.5,-227 61.5,-227"/>
<text text-anchor="middle" x="38.5" y="-205.3" font-family="Times,serif" font-size="14.00">Overview</text>
</a>
</g>
</g>
<!-- Installation&#45;&gt;Overview -->
<g id="edge1" class="edge">
<title>Installation&#45;&gt;Overview</title>
<path fill="none" stroke="red" d="M38.5,-244.79C38.5,-242.31 38.5,-239.83 38.5,-237.34"/>
<polygon fill="red" stroke="red" points="42,-237.14 38.5,-227.14 35,-237.14 42,-237.14"/>
</g>
<!-- Interpreter -->
<g id="node3" class="node">
<title>Interpreter</title>
<g id="a_node3"><a xlink:href="https://github.com/weaversa/cryptol-course/blob/master/labs/Interpreter/Interpreter.md" xlink:title="Interpreter">
<path fill="none" stroke="black" stroke-width="2" d="M63.5,-173C63.5,-173 13.5,-173 13.5,-173 7.5,-173 1.5,-167 1.5,-161 1.5,-161 1.5,-149 1.5,-149 1.5,-143 7.5,-137 13.5,-137 13.5,-137 63.5,-137 63.5,-137 69.5,-137 75.5,-143 75.5,-149 75.5,-149 75.5,-161 75.5,-161 75.5,-167 69.5,-173 63.5,-173"/>
<text text-anchor="middle" x="38.5" y="-151.3" font-family="Times,serif" font-size="14.00">Interpreter</text>
</a>
</g>
</g>
<!-- Overview&#45;&gt;Interpreter -->
<g id="edge2" class="edge">
<title>Overview&#45;&gt;Interpreter</title>
<path fill="none" stroke="red" d="M38.5,-190.79C38.5,-188.31 38.5,-185.83 38.5,-183.34"/>
<polygon fill="red" stroke="red" points="42,-183.14 38.5,-173.14 35,-183.14 42,-183.14"/>
</g>
<!-- LanguageBasics -->
<g id="node4" class="node">
<title>LanguageBasics</title>
<g id="a_node4"><a xlink:href="https://github.com/weaversa/cryptol-course/blob/master/labs/Language/Basics.md" xlink:title="Language\nBasics">
<path fill="none" stroke="black" stroke-width="2" d="M61.5,-119C61.5,-119 15.5,-119 15.5,-119 9.5,-119 3.5,-113 3.5,-107 3.5,-107 3.5,-93 3.5,-93 3.5,-87 9.5,-81 15.5,-81 15.5,-81 61.5,-81 61.5,-81 67.5,-81 73.5,-87 73.5,-93 73.5,-93 73.5,-107 73.5,-107 73.5,-113 67.5,-119 61.5,-119"/>
<text text-anchor="middle" x="38.5" y="-103.8" font-family="Times,serif" font-size="14.00">Language</text>
<text text-anchor="middle" x="38.5" y="-88.8" font-family="Times,serif" font-size="14.00">Basics</text>
</a>
</g>
</g>
<!-- Interpreter&#45;&gt;LanguageBasics -->
<g id="edge3" class="edge">
<title>Interpreter&#45;&gt;LanguageBasics</title>
<path fill="none" stroke="red" d="M38.5,-136.89C38.5,-134.42 38.5,-131.95 38.5,-129.48"/>
<polygon fill="red" stroke="red" points="42,-129.34 38.5,-119.34 35,-129.34 42,-129.34"/>
</g>
<!-- CryptolDemos -->
<g id="node5" class="node">
<title>CryptolDemos</title>
<g id="a_node5"><a xlink:href="https://github.com/weaversa/cryptol-course/blob/master/labs/Demos/Cryptol/Demos.md" xlink:title="Cryptol Demos">
<path fill="none" stroke="black" stroke-width="2" d="M202,-172C202,-172 125,-172 125,-172 119,-172 113,-166 113,-160 113,-160 113,-148 113,-148 113,-142 119,-136 125,-136 125,-136 202,-136 202,-136 208,-136 214,-142 214,-148 214,-148 214,-160 214,-160 214,-166 208,-172 202,-172"/>
<text text-anchor="middle" x="163.5" y="-150.3" font-family="Times,serif" font-size="14.00">Cryptol Demos</text>
</a>
</g>
</g>
<!-- LanguageBasics&#45;&gt;CryptolDemos -->
<g id="edge12" class="edge">
<title>LanguageBasics&#45;&gt;CryptolDemos</title>
<path fill="none" stroke="black" d="M73.76,-115.04C85.66,-120.27 99.26,-126.24 112.18,-131.91"/>
<polygon fill="black" stroke="black" points="110.87,-135.16 121.44,-135.97 113.69,-128.75 110.87,-135.16"/>
</g>
<!-- CRC -->
<g id="node6" class="node">
<title>CRC</title>
<g id="a_node6"><a xlink:href="https://github.com/weaversa/cryptol-course/blob/master/labs/CRC/CRC.md" xlink:title="CRC">
<path fill="none" stroke="black" stroke-width="2" d="M178.5,-118C178.5,-118 148.5,-118 148.5,-118 142.5,-118 136.5,-112 136.5,-106 136.5,-106 136.5,-94 136.5,-94 136.5,-88 142.5,-82 148.5,-82 148.5,-82 178.5,-82 178.5,-82 184.5,-82 190.5,-88 190.5,-94 190.5,-94 190.5,-106 190.5,-106 190.5,-112 184.5,-118 178.5,-118"/>
<text text-anchor="middle" x="163.5" y="-96.3" font-family="Times,serif" font-size="14.00">CRC</text>
</a>
</g>
</g>
<!-- LanguageBasics&#45;&gt;CRC -->
<g id="edge4" class="edge">
<title>LanguageBasics&#45;&gt;CRC</title>
<path fill="none" stroke="red" d="M73.76,-100C89.97,-100 109.35,-100 125.85,-100"/>
<polygon fill="red" stroke="red" points="126.22,-103.5 136.22,-100 126.22,-96.5 126.22,-103.5"/>
</g>
<!-- SAWDemos -->
<g id="node7" class="node">
<title>SAWDemos</title>
<g id="a_node7"><a xlink:href="https://github.com/weaversa/cryptol-course/blob/master/labs/Demos/SAW/Demos.md" xlink:title="SAW Demos">
<path fill="none" stroke="black" stroke-width="2" d="M196,-64C196,-64 131,-64 131,-64 125,-64 119,-58 119,-52 119,-52 119,-40 119,-40 119,-34 125,-28 131,-28 131,-28 196,-28 196,-28 202,-28 208,-34 208,-40 208,-40 208,-52 208,-52 208,-58 202,-64 196,-64"/>
<text text-anchor="middle" x="163.5" y="-42.3" font-family="Times,serif" font-size="14.00">SAW Demos</text>
</a>
</g>
</g>
<!-- LanguageBasics&#45;&gt;SAWDemos -->
<g id="edge13" class="edge">
<title>LanguageBasics&#45;&gt;SAWDemos</title>
<path fill="none" stroke="black" d="M73.76,-84.96C85.66,-79.73 99.26,-73.76 112.18,-68.09"/>
<polygon fill="black" stroke="black" points="113.69,-71.25 121.44,-64.03 110.87,-64.84 113.69,-71.25"/>
</g>
<!-- Salsa20 -->
<g id="node8" class="node">
<title>Salsa20</title>
<g id="a_node8"><a xlink:href="https://github.com/weaversa/cryptol-course/blob/master/labs/Salsa20/Salsa20.md" xlink:title="Salsa20">
<path fill="none" stroke="black" stroke-width="2" d="M297,-118C297,-118 262,-118 262,-118 256,-118 250,-112 250,-106 250,-106 250,-94 250,-94 250,-88 256,-82 262,-82 262,-82 297,-82 297,-82 303,-82 309,-88 309,-94 309,-94 309,-106 309,-106 309,-112 303,-118 297,-118"/>
<text text-anchor="middle" x="279.5" y="-96.3" font-family="Times,serif" font-size="14.00">Salsa20</text>
</a>
</g>
</g>
<!-- CRC&#45;&gt;Salsa20 -->
<g id="edge5" class="edge">
<title>CRC&#45;&gt;Salsa20</title>
<path fill="none" stroke="red" d="M190.65,-100C205.11,-100 223.34,-100 239.45,-100"/>
<polygon fill="red" stroke="red" points="239.67,-103.5 249.67,-100 239.67,-96.5 239.67,-103.5"/>
</g>
<!-- CryptographicProperties -->
<g id="node11" class="node">
<title>CryptographicProperties</title>
<g id="a_node11"><a xlink:href="https://github.com/weaversa/cryptol-course/blob/master/labs/CryptoProofs/CryptoProofs.md" xlink:title="Cryptographic\nProperties">
<path fill="none" stroke="black" stroke-width="2" d="M428,-119C428,-119 357,-119 357,-119 351,-119 345,-113 345,-107 345,-107 345,-93 345,-93 345,-87 351,-81 357,-81 357,-81 428,-81 428,-81 434,-81 440,-87 440,-93 440,-93 440,-107 440,-107 440,-113 434,-119 428,-119"/>
<text text-anchor="middle" x="392.5" y="-103.8" font-family="Times,serif" font-size="14.00">Cryptographic</text>
<text text-anchor="middle" x="392.5" y="-88.8" font-family="Times,serif" font-size="14.00">Properties</text>
</a>
</g>
</g>
<!-- Salsa20&#45;&gt;CryptographicProperties -->
<g id="edge6" class="edge">
<title>Salsa20&#45;&gt;CryptographicProperties</title>
<path fill="none" stroke="red" d="M309.09,-100C317.02,-100 325.92,-100 334.86,-100"/>
<polygon fill="red" stroke="red" points="334.93,-103.5 344.93,-100 334.93,-96.5 334.93,-103.5"/>
</g>
<!-- Salsa20Properties -->
<g id="node9" class="node">
<title>Salsa20Properties</title>
<g id="a_node9"><a xlink:href="https://github.com/weaversa/cryptol-course/blob/master/labs/Salsa20/Salsa20Props.md" xlink:title="Salsa20\nProperties">
<path fill="none" stroke="black" stroke-width="2" d="M548,-202C548,-202 501,-202 501,-202 495,-202 489,-196 489,-190 489,-190 489,-176 489,-176 489,-170 495,-164 501,-164 501,-164 548,-164 548,-164 554,-164 560,-170 560,-176 560,-176 560,-190 560,-190 560,-196 554,-202 548,-202"/>
<text text-anchor="middle" x="524.5" y="-186.8" font-family="Times,serif" font-size="14.00">Salsa20</text>
<text text-anchor="middle" x="524.5" y="-171.8" font-family="Times,serif" font-size="14.00">Properties</text>
</a>
</g>
</g>
<!-- KeyWrapping -->
<g id="node10" class="node">
<title>KeyWrapping</title>
<g id="a_node10"><a xlink:href="https://github.com/weaversa/cryptol-course/blob/master/labs/KeyWrapping/KeyWrapping.md" xlink:title="Key Wrapping">
<path fill="none" stroke="black" stroke-width="2" d="M561,-146C561,-146 488,-146 488,-146 482,-146 476,-140 476,-134 476,-134 476,-122 476,-122 476,-116 482,-110 488,-110 488,-110 561,-110 561,-110 567,-110 573,-116 573,-122 573,-122 573,-134 573,-134 573,-140 567,-146 561,-146"/>
<text text-anchor="middle" x="524.5" y="-124.3" font-family="Times,serif" font-size="14.00">Key Wrapping</text>
</a>
</g>
</g>
<!-- Capstone -->
<g id="node14" class="node">
<title>Capstone</title>
<g id="a_node14"><a xlink:href="https://github.com/weaversa/cryptol-course/blob/master/labs/LoremIpsum/LoremIpsum.md" xlink:title="Capstone">
<path fill="none" stroke="black" stroke-width="2" d="M678,-173C678,-173 635,-173 635,-173 629,-173 623,-167 623,-161 623,-161 623,-149 623,-149 623,-143 629,-137 635,-137 635,-137 678,-137 678,-137 684,-137 690,-143 690,-149 690,-149 690,-161 690,-161 690,-167 684,-173 678,-173"/>
<text text-anchor="middle" x="656.5" y="-151.3" font-family="Times,serif" font-size="14.00">Capstone</text>
</a>
</g>
</g>
<!-- KeyWrapping&#45;&gt;Capstone -->
<g id="edge8" class="edge">
<title>KeyWrapping&#45;&gt;Capstone</title>
<path fill="none" stroke="red" d="M573.17,-137.9C586.21,-140.61 600.25,-143.52 612.98,-146.17"/>
<polygon fill="red" stroke="red" points="612.36,-149.61 622.86,-148.22 613.78,-142.76 612.36,-149.61"/>
</g>
<!-- SimonSpeck -->
<g id="node15" class="node">
<title>SimonSpeck</title>
<g id="a_node15"><a xlink:href="https://github.com/weaversa/cryptol-course/blob/master/labs/SimonSpeck/SimonSpeck.md" xlink:title="Parameterized\nModules">
<path fill="none" stroke="black" stroke-width="2" d="M692,-119C692,-119 621,-119 621,-119 615,-119 609,-113 609,-107 609,-107 609,-93 609,-93 609,-87 615,-81 621,-81 621,-81 692,-81 692,-81 698,-81 704,-87 704,-93 704,-93 704,-107 704,-107 704,-113 698,-119 692,-119"/>
<text text-anchor="middle" x="656.5" y="-103.8" font-family="Times,serif" font-size="14.00">Parameterized</text>
<text text-anchor="middle" x="656.5" y="-88.8" font-family="Times,serif" font-size="14.00">Modules</text>
</a>
</g>
</g>
<!-- KeyWrapping&#45;&gt;SimonSpeck -->
<g id="edge14" class="edge">
<title>KeyWrapping&#45;&gt;SimonSpeck</title>
<path fill="none" stroke="black" d="M573.17,-117.73C581.5,-115.94 590.25,-114.05 598.79,-112.21"/>
<polygon fill="black" stroke="black" points="599.67,-115.61 608.7,-110.08 598.19,-108.76 599.67,-115.61"/>
</g>
<!-- CryptographicProperties&#45;&gt;Salsa20Properties -->
<g id="edge9" class="edge">
<title>CryptographicProperties&#45;&gt;Salsa20Properties</title>
<path fill="none" stroke="black" d="M421.5,-119.23C437.35,-129.97 457.63,-143.47 476,-155 477.91,-156.2 479.87,-157.41 481.86,-158.63"/>
<polygon fill="black" stroke="black" points="480.28,-161.77 490.65,-163.96 483.91,-155.78 480.28,-161.77"/>
</g>
<!-- CryptographicProperties&#45;&gt;KeyWrapping -->
<g id="edge7" class="edge">
<title>CryptographicProperties&#45;&gt;KeyWrapping</title>
<path fill="none" stroke="red" d="M440.07,-110.03C448.44,-111.83 457.27,-113.73 465.91,-115.6"/>
<polygon fill="red" stroke="red" points="465.43,-119.07 475.95,-117.76 466.91,-112.23 465.43,-119.07"/>
</g>
<!-- TranspositionCiphers -->
<g id="node12" class="node">
<title>TranspositionCiphers</title>
<g id="a_node12"><a xlink:href="https://github.com/weaversa/cryptol-course/blob/master/labs/Transposition/Contents.md" xlink:title="Transposition\nCiphers">
<path fill="none" stroke="black" stroke-width="2" d="M558,-92C558,-92 491,-92 491,-92 485,-92 479,-86 479,-80 479,-80 479,-66 479,-66 479,-60 485,-54 491,-54 491,-54 558,-54 558,-54 564,-54 570,-60 570,-66 570,-66 570,-80 570,-80 570,-86 564,-92 558,-92"/>
<text text-anchor="middle" x="524.5" y="-76.8" font-family="Times,serif" font-size="14.00">Transposition</text>
<text text-anchor="middle" x="524.5" y="-61.8" font-family="Times,serif" font-size="14.00">Ciphers</text>
</a>
</g>
</g>
<!-- CryptographicProperties&#45;&gt;TranspositionCiphers -->
<g id="edge11" class="edge">
<title>CryptographicProperties&#45;&gt;TranspositionCiphers</title>
<path fill="none" stroke="black" d="M440.07,-90.33C449.47,-88.37 459.44,-86.3 469.09,-84.3"/>
<polygon fill="black" stroke="black" points="469.92,-87.7 479,-82.24 468.5,-80.85 469.92,-87.7"/>
</g>
<!-- ProjectEuler -->
<g id="node13" class="node">
<title>ProjectEuler</title>
<g id="a_node13"><a xlink:href="https://github.com/weaversa/cryptol-course/blob/master/labs/ProjectEuler/ProjectEuler.md" xlink:title="Project Euler">
<path fill="none" stroke="black" stroke-width="2" d="M556.5,-36C556.5,-36 492.5,-36 492.5,-36 486.5,-36 480.5,-30 480.5,-24 480.5,-24 480.5,-12 480.5,-12 480.5,-6 486.5,0 492.5,0 492.5,0 556.5,0 556.5,0 562.5,0 568.5,-6 568.5,-12 568.5,-12 568.5,-24 568.5,-24 568.5,-30 562.5,-36 556.5,-36"/>
<text text-anchor="middle" x="524.5" y="-14.3" font-family="Times,serif" font-size="14.00">Project Euler</text>
</a>
</g>
</g>
<!-- CryptographicProperties&#45;&gt;ProjectEuler -->
<g id="edge10" class="edge">
<title>CryptographicProperties&#45;&gt;ProjectEuler</title>
<path fill="none" stroke="black" d="M421.06,-80.92C436.94,-70.1 457.39,-56.47 476,-45 477.94,-43.81 479.92,-42.6 481.94,-41.39"/>
<polygon fill="black" stroke="black" points="484.03,-44.23 490.87,-36.14 480.48,-38.2 484.03,-44.23"/>
</g>
</g>
</svg>
