<?xml version="1.0" encoding="UTF-8" standalone="no"?>
<!DOCTYPE svg PUBLIC "-//W3C//DTD SVG 1.1//EN"
 "http://www.w3.org/Graphics/SVG/1.1/DTD/svg11.dtd">
<!-- Generated by graphviz version 2.44.0 (20200408.0750)
 -->
<!-- Title: G Pages: 1 -->
<svg width="639pt" height="289pt"
 viewBox="0.00 0.00 639.00 289.00" xmlns="http://www.w3.org/2000/svg" xmlns:xlink="http://www.w3.org/1999/xlink">
<g id="graph0" class="graph" transform="scale(1 1) rotate(0) translate(4 285)">
<title>G</title>
<polygon fill="white" stroke="transparent" points="-4,4 -4,-285 635,-285 635,4 -4,4"/>
<!-- Installation -->
<g id="node1" class="node">
<title>Installation</title>
<g id="a_node1"><a xlink:href="https://github.com/weaversa/cryptol-course/blob/master/INSTALL.md" xlink:title="Installation">
<path fill="none" stroke="black" stroke-width="2" d="M65,-281C65,-281 12,-281 12,-281 6,-281 0,-275 0,-269 0,-269 0,-257 0,-257 0,-251 6,-245 12,-245 12,-245 65,-245 65,-245 71,-245 77,-251 77,-257 77,-257 77,-269 77,-269 77,-275 71,-281 65,-281"/>
<text text-anchor="middle" x="38.5" y="-259.3" font-family="Times,serif" font-size="14.00">Installation</text>
</a>
</g>
</g>
<!-- Overview -->
<g id="node2" class="node">
<title>Overview</title>
<g id="a_node2"><a xlink:href="https://github.com/weaversa/cryptol-course/blob/master/labs/Overview/Overview.md" xlink:title="Overview">
<path fill="none" stroke="black" stroke-width="2" d="M61.5,-227C61.5,-227 15.5,-227 15.5,-227 9.5,-227 3.5,-221 3.5,-215 3.5,-215 3.5,-203 3.5,-203 3.5,-197 9.5,-191 15.5,-191 15.5,-191 61.5,-191 61.5,-191 67.5,-191 73.5,-197 73.5,-203 73.5,-203 73.5,-215 73.5,-215 73.5,-221 67.5,-227 61.5,-227"/>
<text text-anchor="middle" x="38.5" y="-205.3" font-family="Times,serif" font-size="14.00">Overview</text>
</a>
</g>
</g>
<!-- Installation&#45;&gt;Overview -->
<g id="edge1" class="edge">
<title>Installation&#45;&gt;Overview</title>
<path fill="none" stroke="red" d="M38.5,-244.79C38.5,-242.31 38.5,-239.83 38.5,-237.34"/>
<polygon fill="red" stroke="red" points="42,-237.14 38.5,-227.14 35,-237.14 42,-237.14"/>
</g>
<!-- Interpreter -->
<g id="node3" class="node">
<title>Interpreter</title>
<g id="a_node3"><a xlink:href="https://github.com/weaversa/cryptol-course/blob/master/labs/Interpreter/Interpreter.md" xlink:title="Interpreter">
<path fill="none" stroke="black" stroke-width="2" d="M63.5,-173C63.5,-173 13.5,-173 13.5,-173 7.5,-173 1.5,-167 1.5,-161 1.5,-161 1.5,-149 1.5,-149 1.5,-143 7.5,-137 13.5,-137 13.5,-137 63.5,-137 63.5,-137 69.5,-137 75.5,-143 75.5,-149 75.5,-149 75.5,-161 75.5,-161 75.5,-167 69.5,-173 63.5,-173"/>
<text text-anchor="middle" x="38.5" y="-151.3" font-family="Times,serif" font-size="14.00">Interpreter</text>
</a>
</g>
</g>
<!-- Overview&#45;&gt;Interpreter -->
<g id="edge2" class="edge">
<title>Overview&#45;&gt;Interpreter</title>
<path fill="none" stroke="red" d="M38.5,-190.79C38.5,-188.31 38.5,-185.83 38.5,-183.34"/>
<polygon fill="red" stroke="red" points="42,-183.14 38.5,-173.14 35,-183.14 42,-183.14"/>
</g>
<!-- LanguageBasics -->
<g id="node4" class="node">
<title>LanguageBasics</title>
<g id="a_node4"><a xlink:href="https://github.com/weaversa/cryptol-course/blob/master/labs/Language/Basics.md" xlink:title="Language\nBasics">
<path fill="none" stroke="black" stroke-width="2" d="M61.5,-119C61.5,-119 15.5,-119 15.5,-119 9.5,-119 3.5,-113 3.5,-107 3.5,-107 3.5,-93 3.5,-93 3.5,-87 9.5,-81 15.5,-81 15.5,-81 61.5,-81 61.5,-81 67.5,-81 73.5,-87 73.5,-93 73.5,-93 73.5,-107 73.5,-107 73.5,-113 67.5,-119 61.5,-119"/>
<text text-anchor="middle" x="38.5" y="-103.8" font-family="Times,serif" font-size="14.00">Language</text>
<text text-anchor="middle" x="38.5" y="-88.8" font-family="Times,serif" font-size="14.00">Basics</text>
</a>
</g>
</g>
<!-- Interpreter&#45;&gt;LanguageBasics -->
<g id="edge3" class="edge">
<title>Interpreter&#45;&gt;LanguageBasics</title>
<path fill="none" stroke="red" d="M38.5,-136.89C38.5,-134.42 38.5,-131.95 38.5,-129.48"/>
<polygon fill="red" stroke="red" points="42,-129.34 38.5,-119.34 35,-129.34 42,-129.34"/>
</g>
<!-- Demos -->
<g id="node5" class="node">
<title>Demos</title>
<g id="a_node5"><a xlink:href="https://github.com/weaversa/cryptol-course/blob/master/labs/Demos/Demos.md" xlink:title="Demos">
<path fill="none" stroke="black" stroke-width="2" d="M157,-145C157,-145 125,-145 125,-145 119,-145 113,-139 113,-133 113,-133 113,-121 113,-121 113,-115 119,-109 125,-109 125,-109 157,-109 157,-109 163,-109 169,-115 169,-121 169,-121 169,-133 169,-133 169,-139 163,-145 157,-145"/>
<text text-anchor="middle" x="141" y="-123.3" font-family="Times,serif" font-size="14.00">Demos</text>
</a>
</g>
</g>
<!-- LanguageBasics&#45;&gt;Demos -->
<g id="edge11" class="edge">
<title>LanguageBasics&#45;&gt;Demos</title>
<path fill="none" stroke="black" d="M73.52,-109.14C83.08,-111.71 93.5,-114.51 103.21,-117.12"/>
<polygon fill="black" stroke="black" points="102.43,-120.53 112.99,-119.74 104.24,-113.77 102.43,-120.53"/>
</g>
<!-- CRC -->
<g id="node6" class="node">
<title>CRC</title>
<g id="a_node6"><a xlink:href="https://github.com/weaversa/cryptol-course/blob/master/labs/CRC/CRC.md" xlink:title="CRC">
<path fill="none" stroke="black" stroke-width="2" d="M156,-91C156,-91 126,-91 126,-91 120,-91 114,-85 114,-79 114,-79 114,-67 114,-67 114,-61 120,-55 126,-55 126,-55 156,-55 156,-55 162,-55 168,-61 168,-67 168,-67 168,-79 168,-79 168,-85 162,-91 156,-91"/>
<text text-anchor="middle" x="141" y="-69.3" font-family="Times,serif" font-size="14.00">CRC</text>
</a>
</g>
</g>
<!-- LanguageBasics&#45;&gt;CRC -->
<g id="edge4" class="edge">
<title>LanguageBasics&#45;&gt;CRC</title>
<path fill="none" stroke="red" d="M73.52,-90.86C83.43,-88.2 94.28,-85.28 104.29,-82.59"/>
<polygon fill="red" stroke="red" points="105.21,-85.97 113.96,-80 103.39,-79.21 105.21,-85.97"/>
</g>
<!-- Salsa20 -->
<g id="node7" class="node">
<title>Salsa20</title>
<g id="a_node7"><a xlink:href="https://github.com/weaversa/cryptol-course/blob/master/labs/Salsa20/Salsa20.md" xlink:title="Salsa20">
<path fill="none" stroke="black" stroke-width="2" d="M252,-91C252,-91 217,-91 217,-91 211,-91 205,-85 205,-79 205,-79 205,-67 205,-67 205,-61 211,-55 217,-55 217,-55 252,-55 252,-55 258,-55 264,-61 264,-67 264,-67 264,-79 264,-79 264,-85 258,-91 252,-91"/>
<text text-anchor="middle" x="234.5" y="-69.3" font-family="Times,serif" font-size="14.00">Salsa20</text>
</a>
</g>
</g>
<!-- CRC&#45;&gt;Salsa20 -->
<g id="edge5" class="edge">
<title>CRC&#45;&gt;Salsa20</title>
<path fill="none" stroke="red" d="M168.47,-73C176.66,-73 185.86,-73 194.71,-73"/>
<polygon fill="red" stroke="red" points="194.85,-76.5 204.85,-73 194.85,-69.5 194.85,-76.5"/>
</g>
<!-- CryptographicProperties -->
<g id="node9" class="node">
<title>CryptographicProperties</title>
<g id="a_node9"><a xlink:href="https://github.com/weaversa/cryptol-course/blob/master/labs/CryptoProofs/CryptoProofs.md" xlink:title="Cryptographic\nProperties">
<path fill="none" stroke="black" stroke-width="2" d="M383,-92C383,-92 312,-92 312,-92 306,-92 300,-86 300,-80 300,-80 300,-66 300,-66 300,-60 306,-54 312,-54 312,-54 383,-54 383,-54 389,-54 395,-60 395,-66 395,-66 395,-80 395,-80 395,-86 389,-92 383,-92"/>
<text text-anchor="middle" x="347.5" y="-76.8" font-family="Times,serif" font-size="14.00">Cryptographic</text>
<text text-anchor="middle" x="347.5" y="-61.8" font-family="Times,serif" font-size="14.00">Properties</text>
</a>
</g>
</g>
<!-- Salsa20&#45;&gt;CryptographicProperties -->
<g id="edge6" class="edge">
<title>Salsa20&#45;&gt;CryptographicProperties</title>
<path fill="none" stroke="red" d="M264.09,-73C272.02,-73 280.92,-73 289.86,-73"/>
<polygon fill="red" stroke="red" points="289.93,-76.5 299.93,-73 289.93,-69.5 289.93,-76.5"/>
</g>
<!-- Salsa20Properties -->
<g id="node8" class="node">
<title>Salsa20Properties</title>
<g id="a_node8"><a xlink:href="https://github.com/weaversa/cryptol-course/blob/master/labs/Salsa20/Salsa20Props.md" xlink:title="Salsa20\nProperties">
<path fill="none" stroke="black" stroke-width="2" d="M503,-148C503,-148 456,-148 456,-148 450,-148 444,-142 444,-136 444,-136 444,-122 444,-122 444,-116 450,-110 456,-110 456,-110 503,-110 503,-110 509,-110 515,-116 515,-122 515,-122 515,-136 515,-136 515,-142 509,-148 503,-148"/>
<text text-anchor="middle" x="479.5" y="-132.8" font-family="Times,serif" font-size="14.00">Salsa20</text>
<text text-anchor="middle" x="479.5" y="-117.8" font-family="Times,serif" font-size="14.00">Properties</text>
</a>
</g>
</g>
<!-- ProjectEuler -->
<g id="node12" class="node">
<title>ProjectEuler</title>
<g id="a_node12"><a xlink:href="https://github.com/weaversa/cryptol-course/blob/master/labs/ProjectEuler/ProjectEuler.md" xlink:title="Project\nEuler">
<path fill="none" stroke="black" stroke-width="2" d="M495,-92C495,-92 464,-92 464,-92 458,-92 452,-86 452,-80 452,-80 452,-66 452,-66 452,-60 458,-54 464,-54 464,-54 495,-54 495,-54 501,-54 507,-60 507,-66 507,-66 507,-80 507,-80 507,-86 501,-92 495,-92"/>
<text text-anchor="middle" x="479.5" y="-76.8" font-family="Times,serif" font-size="14.00">Project</text>
<text text-anchor="middle" x="479.5" y="-61.8" font-family="Times,serif" font-size="14.00">Euler</text>
</a>
</g>
</g>
<!-- Salsa20Properties&#45;&gt;ProjectEuler -->
<!-- CryptographicProperties&#45;&gt;Salsa20Properties -->
<g id="edge9" class="edge">
<title>CryptographicProperties&#45;&gt;Salsa20Properties</title>
<path fill="none" stroke="black" d="M392.88,-92.12C406.25,-97.88 420.93,-104.2 434.29,-109.96"/>
<polygon fill="black" stroke="black" points="433.19,-113.29 443.76,-114.03 435.96,-106.86 433.19,-113.29"/>
</g>
<!-- KeyWrapping -->
<g id="node10" class="node">
<title>KeyWrapping</title>
<g id="a_node10"><a xlink:href="https://github.com/weaversa/cryptol-course/blob/master/labs/KeyWrapping/KeyWrapping.md" xlink:title="Key Wrapping">
<path fill="none" stroke="black" stroke-width="2" d="M516,-36C516,-36 443,-36 443,-36 437,-36 431,-30 431,-24 431,-24 431,-12 431,-12 431,-6 437,0 443,0 443,0 516,0 516,0 522,0 528,-6 528,-12 528,-12 528,-24 528,-24 528,-30 522,-36 516,-36"/>
<text text-anchor="middle" x="479.5" y="-14.3" font-family="Times,serif" font-size="14.00">Key Wrapping</text>
</a>
</g>
</g>
<!-- CryptographicProperties&#45;&gt;KeyWrapping -->
<g id="edge7" class="edge">
<title>CryptographicProperties&#45;&gt;KeyWrapping</title>
<path fill="none" stroke="red" d="M393.6,-53.92C404.15,-49.45 415.48,-44.66 426.31,-40.08"/>
<polygon fill="red" stroke="red" points="427.82,-43.24 435.66,-36.12 425.09,-36.8 427.82,-43.24"/>
</g>
<!-- CryptographicProperties&#45;&gt;ProjectEuler -->
<g id="edge10" class="edge">
<title>CryptographicProperties&#45;&gt;ProjectEuler</title>
<path fill="none" stroke="black" d="M395.07,-73C410.43,-73 427.28,-73 441.8,-73"/>
<polygon fill="black" stroke="black" points="441.9,-76.5 451.9,-73 441.9,-69.5 441.9,-76.5"/>
</g>
<!-- Capstone -->
<g id="node11" class="node">
<title>Capstone</title>
<g id="a_node11"><a xlink:href="https://github.com/weaversa/cryptol-course/blob/master/labs/LoremIpsum/LoremIpsum.md" xlink:title="Capstone">
<path fill="none" stroke="black" stroke-width="2" d="M619,-36C619,-36 576,-36 576,-36 570,-36 564,-30 564,-24 564,-24 564,-12 564,-12 564,-6 570,0 576,0 576,0 619,0 619,0 625,0 631,-6 631,-12 631,-12 631,-24 631,-24 631,-30 625,-36 619,-36"/>
<text text-anchor="middle" x="597.5" y="-14.3" font-family="Times,serif" font-size="14.00">Capstone</text>
</a>
</g>
</g>
<!-- KeyWrapping&#45;&gt;Capstone -->
<g id="edge8" class="edge">
<title>KeyWrapping&#45;&gt;Capstone</title>
<path fill="none" stroke="red" d="M528.02,-18C536.46,-18 545.22,-18 553.53,-18"/>
<polygon fill="red" stroke="red" points="553.76,-21.5 563.76,-18 553.76,-14.5 553.76,-21.5"/>
</g>
</g>
</svg>
