<?xml version="1.0" encoding="UTF-8" standalone="no"?>
<!DOCTYPE svg PUBLIC "-//W3C//DTD SVG 1.1//EN"
 "http://www.w3.org/Graphics/SVG/1.1/DTD/svg11.dtd">
<!-- Generated by graphviz version 2.44.0 (20200408.0750)
 -->
<!-- Title: G Pages: 1 -->
<svg width="676pt" height="343pt"
 viewBox="0.00 0.00 676.00 343.00" xmlns="http://www.w3.org/2000/svg" xmlns:xlink="http://www.w3.org/1999/xlink">
<g id="graph0" class="graph" transform="scale(1 1) rotate(0) translate(4 339)">
<title>G</title>
<polygon fill="white" stroke="transparent" points="-4,4 -4,-339 672,-339 672,4 -4,4"/>
<!-- Installation -->
<g id="node1" class="node">
<title>Installation</title>
<g id="a_node1"><a xlink:href="https://github.com/weaversa/cryptol-course/blob/master/INSTALL.md" xlink:title="Installation">
<path fill="none" stroke="black" stroke-width="2" d="M65,-335C65,-335 12,-335 12,-335 6,-335 0,-329 0,-323 0,-323 0,-311 0,-311 0,-305 6,-299 12,-299 12,-299 65,-299 65,-299 71,-299 77,-305 77,-311 77,-311 77,-323 77,-323 77,-329 71,-335 65,-335"/>
<text text-anchor="middle" x="38.5" y="-313.3" font-family="Times,serif" font-size="14.00">Installation</text>
</a>
</g>
</g>
<!-- Overview -->
<g id="node2" class="node">
<title>Overview</title>
<g id="a_node2"><a xlink:href="https://github.com/weaversa/cryptol-course/blob/master/labs/Overview/Overview.md" xlink:title="Overview">
<path fill="none" stroke="black" stroke-width="2" d="M61.5,-281C61.5,-281 15.5,-281 15.5,-281 9.5,-281 3.5,-275 3.5,-269 3.5,-269 3.5,-257 3.5,-257 3.5,-251 9.5,-245 15.5,-245 15.5,-245 61.5,-245 61.5,-245 67.5,-245 73.5,-251 73.5,-257 73.5,-257 73.5,-269 73.5,-269 73.5,-275 67.5,-281 61.5,-281"/>
<text text-anchor="middle" x="38.5" y="-259.3" font-family="Times,serif" font-size="14.00">Overview</text>
</a>
</g>
</g>
<!-- Installation&#45;&gt;Overview -->
<g id="edge1" class="edge">
<title>Installation&#45;&gt;Overview</title>
<path fill="none" stroke="red" d="M38.5,-298.79C38.5,-296.31 38.5,-293.83 38.5,-291.34"/>
<polygon fill="red" stroke="red" points="42,-291.14 38.5,-281.14 35,-291.14 42,-291.14"/>
</g>
<!-- Interpreter -->
<g id="node3" class="node">
<title>Interpreter</title>
<g id="a_node3"><a xlink:href="https://github.com/weaversa/cryptol-course/blob/master/labs/Interpreter/Interpreter.md" xlink:title="Interpreter">
<path fill="none" stroke="black" stroke-width="2" d="M63.5,-227C63.5,-227 13.5,-227 13.5,-227 7.5,-227 1.5,-221 1.5,-215 1.5,-215 1.5,-203 1.5,-203 1.5,-197 7.5,-191 13.5,-191 13.5,-191 63.5,-191 63.5,-191 69.5,-191 75.5,-197 75.5,-203 75.5,-203 75.5,-215 75.5,-215 75.5,-221 69.5,-227 63.5,-227"/>
<text text-anchor="middle" x="38.5" y="-205.3" font-family="Times,serif" font-size="14.00">Interpreter</text>
</a>
</g>
</g>
<!-- Overview&#45;&gt;Interpreter -->
<g id="edge2" class="edge">
<title>Overview&#45;&gt;Interpreter</title>
<path fill="none" stroke="red" d="M38.5,-244.79C38.5,-242.31 38.5,-239.83 38.5,-237.34"/>
<polygon fill="red" stroke="red" points="42,-237.14 38.5,-227.14 35,-237.14 42,-237.14"/>
</g>
<!-- LanguageBasics -->
<g id="node4" class="node">
<title>LanguageBasics</title>
<g id="a_node4"><a xlink:href="https://github.com/weaversa/cryptol-course/blob/master/labs/Language/Basics.md" xlink:title="Language\nBasics">
<path fill="none" stroke="black" stroke-width="2" d="M61.5,-173C61.5,-173 15.5,-173 15.5,-173 9.5,-173 3.5,-167 3.5,-161 3.5,-161 3.5,-147 3.5,-147 3.5,-141 9.5,-135 15.5,-135 15.5,-135 61.5,-135 61.5,-135 67.5,-135 73.5,-141 73.5,-147 73.5,-147 73.5,-161 73.5,-161 73.5,-167 67.5,-173 61.5,-173"/>
<text text-anchor="middle" x="38.5" y="-157.8" font-family="Times,serif" font-size="14.00">Language</text>
<text text-anchor="middle" x="38.5" y="-142.8" font-family="Times,serif" font-size="14.00">Basics</text>
</a>
</g>
</g>
<!-- Interpreter&#45;&gt;LanguageBasics -->
<g id="edge3" class="edge">
<title>Interpreter&#45;&gt;LanguageBasics</title>
<path fill="none" stroke="red" d="M38.5,-190.89C38.5,-188.42 38.5,-185.95 38.5,-183.48"/>
<polygon fill="red" stroke="red" points="42,-183.34 38.5,-173.34 35,-183.34 42,-183.34"/>
</g>
<!-- Demos -->
<g id="node5" class="node">
<title>Demos</title>
<g id="a_node5"><a xlink:href="https://github.com/weaversa/cryptol-course/blob/master/labs/Demos/Demos.md" xlink:title="Demos">
<path fill="none" stroke="black" stroke-width="2" d="M175.5,-255C175.5,-255 143.5,-255 143.5,-255 137.5,-255 131.5,-249 131.5,-243 131.5,-243 131.5,-231 131.5,-231 131.5,-225 137.5,-219 143.5,-219 143.5,-219 175.5,-219 175.5,-219 181.5,-219 187.5,-225 187.5,-231 187.5,-231 187.5,-243 187.5,-243 187.5,-249 181.5,-255 175.5,-255"/>
<text text-anchor="middle" x="159.5" y="-233.3" font-family="Times,serif" font-size="14.00">Demos</text>
</a>
</g>
</g>
<!-- LanguageBasics&#45;&gt;Demos -->
<g id="edge11" class="edge">
<title>LanguageBasics&#45;&gt;Demos</title>
<path fill="none" stroke="black" d="M65.37,-173.21C69.28,-176.14 73.25,-179.14 77,-182 93.12,-194.29 96.25,-198.58 113,-210 116.06,-212.09 119.29,-214.19 122.56,-216.25"/>
<polygon fill="black" stroke="black" points="120.85,-219.31 131.2,-221.56 124.52,-213.34 120.85,-219.31"/>
</g>
<!-- CRC -->
<g id="node6" class="node">
<title>CRC</title>
<g id="a_node6"><a xlink:href="https://github.com/weaversa/cryptol-course/blob/master/labs/CRC/CRC.md" xlink:title="CRC">
<path fill="none" stroke="black" stroke-width="2" d="M174.5,-91C174.5,-91 144.5,-91 144.5,-91 138.5,-91 132.5,-85 132.5,-79 132.5,-79 132.5,-67 132.5,-67 132.5,-61 138.5,-55 144.5,-55 144.5,-55 174.5,-55 174.5,-55 180.5,-55 186.5,-61 186.5,-67 186.5,-67 186.5,-79 186.5,-79 186.5,-85 180.5,-91 174.5,-91"/>
<text text-anchor="middle" x="159.5" y="-69.3" font-family="Times,serif" font-size="14.00">CRC</text>
</a>
</g>
</g>
<!-- LanguageBasics&#45;&gt;CRC -->
<g id="edge4" class="edge">
<title>LanguageBasics&#45;&gt;CRC</title>
<path fill="none" stroke="red" d="M64.24,-134.88C78.3,-124.26 96.36,-111.01 113,-100 116.35,-97.78 119.89,-95.53 123.44,-93.33"/>
<polygon fill="red" stroke="red" points="125.51,-96.17 132.24,-87.99 121.88,-90.19 125.51,-96.17"/>
</g>
<!-- BitTwiddling -->
<g id="node13" class="node">
<title>BitTwiddling</title>
<g id="a_node13"><a xlink:href="https://github.com/weaversa/cryptol-course/blob/master/labs/saw/bittwiddling/bittwiddling.md" xlink:title="Bit Twiddling">
<path fill="none" stroke="black" stroke-width="2" d="M194,-145C194,-145 125,-145 125,-145 119,-145 113,-139 113,-133 113,-133 113,-121 113,-121 113,-115 119,-109 125,-109 125,-109 194,-109 194,-109 200,-109 206,-115 206,-121 206,-121 206,-133 206,-133 206,-139 200,-145 194,-145"/>
<text text-anchor="middle" x="159.5" y="-123.3" font-family="Times,serif" font-size="14.00">Bit Twiddling</text>
</a>
</g>
</g>
<!-- LanguageBasics&#45;&gt;BitTwiddling -->
<g id="edge12" class="edge">
<title>LanguageBasics&#45;&gt;BitTwiddling</title>
<path fill="none" stroke="black" d="M73.6,-146.26C82.77,-144.18 92.93,-141.88 102.94,-139.61"/>
<polygon fill="black" stroke="black" points="103.88,-142.98 112.86,-137.36 102.33,-136.16 103.88,-142.98"/>
</g>
<!-- ArithmeticVerifications -->
<g id="node14" class="node">
<title>ArithmeticVerifications</title>
<g id="a_node14"><a xlink:href="https://github.com/weaversa/cryptol-course/blob/master/labs/saw/ArithmeticVerifications/ArithmeticVerifications.md" xlink:title="Arithmetic\nVerifications">
<path fill="none" stroke="black" stroke-width="2" d="M190,-201C190,-201 129,-201 129,-201 123,-201 117,-195 117,-189 117,-189 117,-175 117,-175 117,-169 123,-163 129,-163 129,-163 190,-163 190,-163 196,-163 202,-169 202,-175 202,-175 202,-189 202,-189 202,-195 196,-201 190,-201"/>
<text text-anchor="middle" x="159.5" y="-185.8" font-family="Times,serif" font-size="14.00">Arithmetic</text>
<text text-anchor="middle" x="159.5" y="-170.8" font-family="Times,serif" font-size="14.00">Verifications</text>
</a>
</g>
</g>
<!-- LanguageBasics&#45;&gt;ArithmeticVerifications -->
<g id="edge13" class="edge">
<title>LanguageBasics&#45;&gt;ArithmeticVerifications</title>
<path fill="none" stroke="black" d="M73.6,-162.02C84.01,-164.47 95.7,-167.22 107,-169.88"/>
<polygon fill="black" stroke="black" points="106.25,-173.3 116.78,-172.18 107.85,-166.49 106.25,-173.3"/>
</g>
<!-- Demos&#45;&gt;ArithmeticVerifications -->
<!-- Salsa20 -->
<g id="node7" class="node">
<title>Salsa20</title>
<g id="a_node7"><a xlink:href="https://github.com/weaversa/cryptol-course/blob/master/labs/Salsa20/Salsa20.md" xlink:title="Salsa20">
<path fill="none" stroke="black" stroke-width="2" d="M289,-91C289,-91 254,-91 254,-91 248,-91 242,-85 242,-79 242,-79 242,-67 242,-67 242,-61 248,-55 254,-55 254,-55 289,-55 289,-55 295,-55 301,-61 301,-67 301,-67 301,-79 301,-79 301,-85 295,-91 289,-91"/>
<text text-anchor="middle" x="271.5" y="-69.3" font-family="Times,serif" font-size="14.00">Salsa20</text>
</a>
</g>
</g>
<!-- CRC&#45;&gt;Salsa20 -->
<g id="edge5" class="edge">
<title>CRC&#45;&gt;Salsa20</title>
<path fill="none" stroke="red" d="M186.57,-73C200.09,-73 216.88,-73 231.88,-73"/>
<polygon fill="red" stroke="red" points="231.92,-76.5 241.92,-73 231.92,-69.5 231.92,-76.5"/>
</g>
<!-- CryptographicProperties -->
<g id="node9" class="node">
<title>CryptographicProperties</title>
<g id="a_node9"><a xlink:href="https://github.com/weaversa/cryptol-course/blob/master/labs/CryptoProofs/CryptoProofs.md" xlink:title="Cryptographic\nProperties">
<path fill="none" stroke="black" stroke-width="2" d="M420,-92C420,-92 349,-92 349,-92 343,-92 337,-86 337,-80 337,-80 337,-66 337,-66 337,-60 343,-54 349,-54 349,-54 420,-54 420,-54 426,-54 432,-60 432,-66 432,-66 432,-80 432,-80 432,-86 426,-92 420,-92"/>
<text text-anchor="middle" x="384.5" y="-76.8" font-family="Times,serif" font-size="14.00">Cryptographic</text>
<text text-anchor="middle" x="384.5" y="-61.8" font-family="Times,serif" font-size="14.00">Properties</text>
</a>
</g>
</g>
<!-- Salsa20&#45;&gt;CryptographicProperties -->
<g id="edge6" class="edge">
<title>Salsa20&#45;&gt;CryptographicProperties</title>
<path fill="none" stroke="red" d="M301.09,-73C309.02,-73 317.92,-73 326.86,-73"/>
<polygon fill="red" stroke="red" points="326.93,-76.5 336.93,-73 326.93,-69.5 326.93,-76.5"/>
</g>
<!-- Salsa20Properties -->
<g id="node8" class="node">
<title>Salsa20Properties</title>
<g id="a_node8"><a xlink:href="https://github.com/weaversa/cryptol-course/blob/master/labs/Salsa20/Salsa20Props.md" xlink:title="Salsa20\nProperties">
<path fill="none" stroke="black" stroke-width="2" d="M540,-148C540,-148 493,-148 493,-148 487,-148 481,-142 481,-136 481,-136 481,-122 481,-122 481,-116 487,-110 493,-110 493,-110 540,-110 540,-110 546,-110 552,-116 552,-122 552,-122 552,-136 552,-136 552,-142 546,-148 540,-148"/>
<text text-anchor="middle" x="516.5" y="-132.8" font-family="Times,serif" font-size="14.00">Salsa20</text>
<text text-anchor="middle" x="516.5" y="-117.8" font-family="Times,serif" font-size="14.00">Properties</text>
</a>
</g>
</g>
<!-- ProjectEuler -->
<g id="node12" class="node">
<title>ProjectEuler</title>
<g id="a_node12"><a xlink:href="https://github.com/weaversa/cryptol-course/blob/master/labs/ProjectEuler/ProjectEuler.md" xlink:title="Project\nEuler">
<path fill="none" stroke="black" stroke-width="2" d="M532,-92C532,-92 501,-92 501,-92 495,-92 489,-86 489,-80 489,-80 489,-66 489,-66 489,-60 495,-54 501,-54 501,-54 532,-54 532,-54 538,-54 544,-60 544,-66 544,-66 544,-80 544,-80 544,-86 538,-92 532,-92"/>
<text text-anchor="middle" x="516.5" y="-76.8" font-family="Times,serif" font-size="14.00">Project</text>
<text text-anchor="middle" x="516.5" y="-61.8" font-family="Times,serif" font-size="14.00">Euler</text>
</a>
</g>
</g>
<!-- Salsa20Properties&#45;&gt;ProjectEuler -->
<!-- CryptographicProperties&#45;&gt;Salsa20Properties -->
<g id="edge9" class="edge">
<title>CryptographicProperties&#45;&gt;Salsa20Properties</title>
<path fill="none" stroke="black" d="M429.88,-92.12C443.25,-97.88 457.93,-104.2 471.29,-109.96"/>
<polygon fill="black" stroke="black" points="470.19,-113.29 480.76,-114.03 472.96,-106.86 470.19,-113.29"/>
</g>
<!-- KeyWrapping -->
<g id="node10" class="node">
<title>KeyWrapping</title>
<g id="a_node10"><a xlink:href="https://github.com/weaversa/cryptol-course/blob/master/labs/KeyWrapping/KeyWrapping.md" xlink:title="Key Wrapping">
<path fill="none" stroke="black" stroke-width="2" d="M553,-36C553,-36 480,-36 480,-36 474,-36 468,-30 468,-24 468,-24 468,-12 468,-12 468,-6 474,0 480,0 480,0 553,0 553,0 559,0 565,-6 565,-12 565,-12 565,-24 565,-24 565,-30 559,-36 553,-36"/>
<text text-anchor="middle" x="516.5" y="-14.3" font-family="Times,serif" font-size="14.00">Key Wrapping</text>
</a>
</g>
</g>
<!-- CryptographicProperties&#45;&gt;KeyWrapping -->
<g id="edge7" class="edge">
<title>CryptographicProperties&#45;&gt;KeyWrapping</title>
<path fill="none" stroke="red" d="M430.6,-53.92C441.15,-49.45 452.48,-44.66 463.31,-40.08"/>
<polygon fill="red" stroke="red" points="464.82,-43.24 472.66,-36.12 462.09,-36.8 464.82,-43.24"/>
</g>
<!-- CryptographicProperties&#45;&gt;ProjectEuler -->
<g id="edge10" class="edge">
<title>CryptographicProperties&#45;&gt;ProjectEuler</title>
<path fill="none" stroke="black" d="M432.07,-73C447.43,-73 464.28,-73 478.8,-73"/>
<polygon fill="black" stroke="black" points="478.9,-76.5 488.9,-73 478.9,-69.5 478.9,-76.5"/>
</g>
<!-- Capstone -->
<g id="node11" class="node">
<title>Capstone</title>
<g id="a_node11"><a xlink:href="https://github.com/weaversa/cryptol-course/blob/master/labs/LoremIpsum/LoremIpsum.md" xlink:title="Capstone">
<path fill="none" stroke="black" stroke-width="2" d="M656,-36C656,-36 613,-36 613,-36 607,-36 601,-30 601,-24 601,-24 601,-12 601,-12 601,-6 607,0 613,0 613,0 656,0 656,0 662,0 668,-6 668,-12 668,-12 668,-24 668,-24 668,-30 662,-36 656,-36"/>
<text text-anchor="middle" x="634.5" y="-14.3" font-family="Times,serif" font-size="14.00">Capstone</text>
</a>
</g>
</g>
<!-- KeyWrapping&#45;&gt;Capstone -->
<g id="edge8" class="edge">
<title>KeyWrapping&#45;&gt;Capstone</title>
<path fill="none" stroke="red" d="M565.02,-18C573.46,-18 582.22,-18 590.53,-18"/>
<polygon fill="red" stroke="red" points="590.76,-21.5 600.76,-18 590.76,-14.5 590.76,-21.5"/>
</g>
<!-- ArithmeticVerifications&#45;&gt;BitTwiddling -->
</g>
</svg>
