<?xml version="1.0" encoding="UTF-8" standalone="no"?>
<!DOCTYPE svg PUBLIC "-//W3C//DTD SVG 1.1//EN"
 "http://www.w3.org/Graphics/SVG/1.1/DTD/svg11.dtd">
<!-- Generated by graphviz version 2.44.0 (20200408.0750)
 -->
<!-- Title: G Pages: 1 -->
<svg width="712pt" height="261pt"
 viewBox="0.00 0.00 712.00 261.00" xmlns="http://www.w3.org/2000/svg" xmlns:xlink="http://www.w3.org/1999/xlink">
<g id="graph0" class="graph" transform="scale(1 1) rotate(0) translate(4 257)">
<title>G</title>
<polygon fill="white" stroke="transparent" points="-4,4 -4,-257 708,-257 708,4 -4,4"/>
<!-- Installation -->
<g id="node1" class="node">
<title>Installation</title>
<g id="a_node1"><a xlink:href="https://github.com/weaversa/cryptol-course/blob/master/INSTALL.md" xlink:title="Installation">
<path fill="none" stroke="black" stroke-width="2" d="M65,-253C65,-253 12,-253 12,-253 6,-253 0,-247 0,-241 0,-241 0,-229 0,-229 0,-223 6,-217 12,-217 12,-217 65,-217 65,-217 71,-217 77,-223 77,-229 77,-229 77,-241 77,-241 77,-247 71,-253 65,-253"/>
<text text-anchor="middle" x="38.5" y="-231.3" font-family="Times,serif" font-size="14.00">Installation</text>
</a>
</g>
</g>
<!-- Overview -->
<g id="node2" class="node">
<title>Overview</title>
<g id="a_node2"><a xlink:href="https://github.com/weaversa/cryptol-course/blob/master/labs/Overview/Overview.md" xlink:title="Overview">
<path fill="none" stroke="black" stroke-width="2" d="M61.5,-199C61.5,-199 15.5,-199 15.5,-199 9.5,-199 3.5,-193 3.5,-187 3.5,-187 3.5,-175 3.5,-175 3.5,-169 9.5,-163 15.5,-163 15.5,-163 61.5,-163 61.5,-163 67.5,-163 73.5,-169 73.5,-175 73.5,-175 73.5,-187 73.5,-187 73.5,-193 67.5,-199 61.5,-199"/>
<text text-anchor="middle" x="38.5" y="-177.3" font-family="Times,serif" font-size="14.00">Overview</text>
</a>
</g>
</g>
<!-- Installation&#45;&gt;Overview -->
<g id="edge1" class="edge">
<title>Installation&#45;&gt;Overview</title>
<path fill="none" stroke="red" d="M38.5,-216.79C38.5,-214.31 38.5,-211.83 38.5,-209.34"/>
<polygon fill="red" stroke="red" points="42,-209.14 38.5,-199.14 35,-209.14 42,-209.14"/>
</g>
<!-- Interpreter -->
<g id="node3" class="node">
<title>Interpreter</title>
<g id="a_node3"><a xlink:href="https://github.com/weaversa/cryptol-course/blob/master/labs/Interpreter/Interpreter.md" xlink:title="Interpreter">
<path fill="none" stroke="black" stroke-width="2" d="M63.5,-145C63.5,-145 13.5,-145 13.5,-145 7.5,-145 1.5,-139 1.5,-133 1.5,-133 1.5,-121 1.5,-121 1.5,-115 7.5,-109 13.5,-109 13.5,-109 63.5,-109 63.5,-109 69.5,-109 75.5,-115 75.5,-121 75.5,-121 75.5,-133 75.5,-133 75.5,-139 69.5,-145 63.5,-145"/>
<text text-anchor="middle" x="38.5" y="-123.3" font-family="Times,serif" font-size="14.00">Interpreter</text>
</a>
</g>
</g>
<!-- Overview&#45;&gt;Interpreter -->
<g id="edge2" class="edge">
<title>Overview&#45;&gt;Interpreter</title>
<path fill="none" stroke="red" d="M38.5,-162.79C38.5,-160.31 38.5,-157.83 38.5,-155.34"/>
<polygon fill="red" stroke="red" points="42,-155.14 38.5,-145.14 35,-155.14 42,-155.14"/>
</g>
<!-- LanguageBasics -->
<g id="node4" class="node">
<title>LanguageBasics</title>
<g id="a_node4"><a xlink:href="https://github.com/weaversa/cryptol-course/blob/master/labs/Language/Basics.md" xlink:title="Language\nBasics">
<path fill="none" stroke="black" stroke-width="2" d="M61.5,-91C61.5,-91 15.5,-91 15.5,-91 9.5,-91 3.5,-85 3.5,-79 3.5,-79 3.5,-65 3.5,-65 3.5,-59 9.5,-53 15.5,-53 15.5,-53 61.5,-53 61.5,-53 67.5,-53 73.5,-59 73.5,-65 73.5,-65 73.5,-79 73.5,-79 73.5,-85 67.5,-91 61.5,-91"/>
<text text-anchor="middle" x="38.5" y="-75.8" font-family="Times,serif" font-size="14.00">Language</text>
<text text-anchor="middle" x="38.5" y="-60.8" font-family="Times,serif" font-size="14.00">Basics</text>
</a>
</g>
</g>
<!-- Interpreter&#45;&gt;LanguageBasics -->
<g id="edge3" class="edge">
<title>Interpreter&#45;&gt;LanguageBasics</title>
<path fill="none" stroke="red" d="M38.5,-108.89C38.5,-106.42 38.5,-103.95 38.5,-101.48"/>
<polygon fill="red" stroke="red" points="42,-101.34 38.5,-91.34 35,-101.34 42,-101.34"/>
</g>
<!-- CryptolDemos -->
<g id="node5" class="node">
<title>CryptolDemos</title>
<g id="a_node5"><a xlink:href="https://github.com/weaversa/cryptol-course/blob/master/labs/Demos/Cryptol/Demos.md" xlink:title="Cryptol Demos">
<path fill="none" stroke="black" stroke-width="2" d="M202,-144C202,-144 125,-144 125,-144 119,-144 113,-138 113,-132 113,-132 113,-120 113,-120 113,-114 119,-108 125,-108 125,-108 202,-108 202,-108 208,-108 214,-114 214,-120 214,-120 214,-132 214,-132 214,-138 208,-144 202,-144"/>
<text text-anchor="middle" x="163.5" y="-122.3" font-family="Times,serif" font-size="14.00">Cryptol Demos</text>
</a>
</g>
</g>
<!-- LanguageBasics&#45;&gt;CryptolDemos -->
<g id="edge11" class="edge">
<title>LanguageBasics&#45;&gt;CryptolDemos</title>
<path fill="none" stroke="black" d="M73.76,-87.04C85.66,-92.27 99.26,-98.24 112.18,-103.91"/>
<polygon fill="black" stroke="black" points="110.87,-107.16 121.44,-107.97 113.69,-100.75 110.87,-107.16"/>
</g>
<!-- CRC -->
<g id="node6" class="node">
<title>CRC</title>
<g id="a_node6"><a xlink:href="https://github.com/weaversa/cryptol-course/blob/master/labs/CRC/CRC.md" xlink:title="CRC">
<path fill="none" stroke="black" stroke-width="2" d="M178.5,-90C178.5,-90 148.5,-90 148.5,-90 142.5,-90 136.5,-84 136.5,-78 136.5,-78 136.5,-66 136.5,-66 136.5,-60 142.5,-54 148.5,-54 148.5,-54 178.5,-54 178.5,-54 184.5,-54 190.5,-60 190.5,-66 190.5,-66 190.5,-78 190.5,-78 190.5,-84 184.5,-90 178.5,-90"/>
<text text-anchor="middle" x="163.5" y="-68.3" font-family="Times,serif" font-size="14.00">CRC</text>
</a>
</g>
</g>
<!-- LanguageBasics&#45;&gt;CRC -->
<g id="edge4" class="edge">
<title>LanguageBasics&#45;&gt;CRC</title>
<path fill="none" stroke="red" d="M73.76,-72C89.97,-72 109.35,-72 125.85,-72"/>
<polygon fill="red" stroke="red" points="126.22,-75.5 136.22,-72 126.22,-68.5 126.22,-75.5"/>
</g>
<!-- SAWDemos -->
<g id="node7" class="node">
<title>SAWDemos</title>
<g id="a_node7"><a xlink:href="https://github.com/weaversa/cryptol-course/blob/master/labs/Demos/SAW/Demos.md" xlink:title="SAW Demos">
<path fill="none" stroke="black" stroke-width="2" d="M196,-36C196,-36 131,-36 131,-36 125,-36 119,-30 119,-24 119,-24 119,-12 119,-12 119,-6 125,0 131,0 131,0 196,0 196,0 202,0 208,-6 208,-12 208,-12 208,-24 208,-24 208,-30 202,-36 196,-36"/>
<text text-anchor="middle" x="163.5" y="-14.3" font-family="Times,serif" font-size="14.00">SAW Demos</text>
</a>
</g>
</g>
<!-- LanguageBasics&#45;&gt;SAWDemos -->
<g id="edge12" class="edge">
<title>LanguageBasics&#45;&gt;SAWDemos</title>
<path fill="none" stroke="black" d="M73.76,-56.96C85.66,-51.73 99.26,-45.76 112.18,-40.09"/>
<polygon fill="black" stroke="black" points="113.69,-43.25 121.44,-36.03 110.87,-36.84 113.69,-43.25"/>
</g>
<!-- Salsa20 -->
<g id="node8" class="node">
<title>Salsa20</title>
<g id="a_node8"><a xlink:href="https://github.com/weaversa/cryptol-course/blob/master/labs/Salsa20/Salsa20.md" xlink:title="Salsa20">
<path fill="none" stroke="black" stroke-width="2" d="M297,-90C297,-90 262,-90 262,-90 256,-90 250,-84 250,-78 250,-78 250,-66 250,-66 250,-60 256,-54 262,-54 262,-54 297,-54 297,-54 303,-54 309,-60 309,-66 309,-66 309,-78 309,-78 309,-84 303,-90 297,-90"/>
<text text-anchor="middle" x="279.5" y="-68.3" font-family="Times,serif" font-size="14.00">Salsa20</text>
</a>
</g>
</g>
<!-- CRC&#45;&gt;Salsa20 -->
<g id="edge5" class="edge">
<title>CRC&#45;&gt;Salsa20</title>
<path fill="none" stroke="red" d="M190.65,-72C205.11,-72 223.34,-72 239.45,-72"/>
<polygon fill="red" stroke="red" points="239.67,-75.5 249.67,-72 239.67,-68.5 239.67,-75.5"/>
</g>
<!-- CryptographicProperties -->
<g id="node11" class="node">
<title>CryptographicProperties</title>
<g id="a_node11"><a xlink:href="https://github.com/weaversa/cryptol-course/blob/master/labs/CryptoProofs/CryptoProofs.md" xlink:title="Cryptographic\nProperties">
<path fill="none" stroke="black" stroke-width="2" d="M428,-91C428,-91 357,-91 357,-91 351,-91 345,-85 345,-79 345,-79 345,-65 345,-65 345,-59 351,-53 357,-53 357,-53 428,-53 428,-53 434,-53 440,-59 440,-65 440,-65 440,-79 440,-79 440,-85 434,-91 428,-91"/>
<text text-anchor="middle" x="392.5" y="-75.8" font-family="Times,serif" font-size="14.00">Cryptographic</text>
<text text-anchor="middle" x="392.5" y="-60.8" font-family="Times,serif" font-size="14.00">Properties</text>
</a>
</g>
</g>
<!-- Salsa20&#45;&gt;CryptographicProperties -->
<g id="edge6" class="edge">
<title>Salsa20&#45;&gt;CryptographicProperties</title>
<path fill="none" stroke="red" d="M309.09,-72C317.02,-72 325.92,-72 334.86,-72"/>
<polygon fill="red" stroke="red" points="334.93,-75.5 344.93,-72 334.93,-68.5 334.93,-75.5"/>
</g>
<!-- Salsa20Properties -->
<g id="node9" class="node">
<title>Salsa20Properties</title>
<g id="a_node9"><a xlink:href="https://github.com/weaversa/cryptol-course/blob/master/labs/Salsa20/Salsa20Props.md" xlink:title="Salsa20\nProperties">
<path fill="none" stroke="black" stroke-width="2" d="M548,-146C548,-146 501,-146 501,-146 495,-146 489,-140 489,-134 489,-134 489,-120 489,-120 489,-114 495,-108 501,-108 501,-108 548,-108 548,-108 554,-108 560,-114 560,-120 560,-120 560,-134 560,-134 560,-140 554,-146 548,-146"/>
<text text-anchor="middle" x="524.5" y="-130.8" font-family="Times,serif" font-size="14.00">Salsa20</text>
<text text-anchor="middle" x="524.5" y="-115.8" font-family="Times,serif" font-size="14.00">Properties</text>
</a>
</g>
</g>
<!-- KeyWrapping -->
<g id="node10" class="node">
<title>KeyWrapping</title>
<g id="a_node10"><a xlink:href="https://github.com/weaversa/cryptol-course/blob/master/labs/KeyWrapping/KeyWrapping.md" xlink:title="Key Wrapping">
<path fill="none" stroke="black" stroke-width="2" d="M561,-90C561,-90 488,-90 488,-90 482,-90 476,-84 476,-78 476,-78 476,-66 476,-66 476,-60 482,-54 488,-54 488,-54 561,-54 561,-54 567,-54 573,-60 573,-66 573,-66 573,-78 573,-78 573,-84 567,-90 561,-90"/>
<text text-anchor="middle" x="524.5" y="-68.3" font-family="Times,serif" font-size="14.00">Key Wrapping</text>
</a>
</g>
</g>
<!-- Capstone -->
<g id="node13" class="node">
<title>Capstone</title>
<g id="a_node13"><a xlink:href="https://github.com/weaversa/cryptol-course/blob/master/labs/LoremIpsum/LoremIpsum.md" xlink:title="Capstone">
<path fill="none" stroke="black" stroke-width="2" d="M678,-117C678,-117 635,-117 635,-117 629,-117 623,-111 623,-105 623,-105 623,-93 623,-93 623,-87 629,-81 635,-81 635,-81 678,-81 678,-81 684,-81 690,-87 690,-93 690,-93 690,-105 690,-105 690,-111 684,-117 678,-117"/>
<text text-anchor="middle" x="656.5" y="-95.3" font-family="Times,serif" font-size="14.00">Capstone</text>
</a>
</g>
</g>
<!-- KeyWrapping&#45;&gt;Capstone -->
<g id="edge8" class="edge">
<title>KeyWrapping&#45;&gt;Capstone</title>
<path fill="none" stroke="red" d="M573.17,-81.9C586.21,-84.61 600.25,-87.52 612.98,-90.17"/>
<polygon fill="red" stroke="red" points="612.36,-93.61 622.86,-92.22 613.78,-86.76 612.36,-93.61"/>
</g>
<!-- SimonSpeck -->
<g id="node14" class="node">
<title>SimonSpeck</title>
<g id="a_node14"><a xlink:href="https://github.com/weaversa/cryptol-course/blob/master/labs/SimonSpeck/SimonSpeck.md" xlink:title="Parameterized\nModules">
<path fill="none" stroke="black" stroke-width="2" d="M692,-63C692,-63 621,-63 621,-63 615,-63 609,-57 609,-51 609,-51 609,-37 609,-37 609,-31 615,-25 621,-25 621,-25 692,-25 692,-25 698,-25 704,-31 704,-37 704,-37 704,-51 704,-51 704,-57 698,-63 692,-63"/>
<text text-anchor="middle" x="656.5" y="-47.8" font-family="Times,serif" font-size="14.00">Parameterized</text>
<text text-anchor="middle" x="656.5" y="-32.8" font-family="Times,serif" font-size="14.00">Modules</text>
</a>
</g>
</g>
<!-- KeyWrapping&#45;&gt;SimonSpeck -->
<g id="edge13" class="edge">
<title>KeyWrapping&#45;&gt;SimonSpeck</title>
<path fill="none" stroke="black" d="M573.17,-61.73C581.5,-59.94 590.25,-58.05 598.79,-56.21"/>
<polygon fill="black" stroke="black" points="599.67,-59.61 608.7,-54.08 598.19,-52.76 599.67,-59.61"/>
</g>
<!-- CryptographicProperties&#45;&gt;Salsa20Properties -->
<g id="edge9" class="edge">
<title>CryptographicProperties&#45;&gt;Salsa20Properties</title>
<path fill="none" stroke="black" d="M438.6,-91.08C451.82,-96.67 466.25,-102.78 479.41,-108.35"/>
<polygon fill="black" stroke="black" points="478.15,-111.62 488.73,-112.29 480.88,-105.17 478.15,-111.62"/>
</g>
<!-- CryptographicProperties&#45;&gt;KeyWrapping -->
<g id="edge7" class="edge">
<title>CryptographicProperties&#45;&gt;KeyWrapping</title>
<path fill="none" stroke="red" d="M440.07,-72C448.44,-72 457.27,-72 465.91,-72"/>
<polygon fill="red" stroke="red" points="465.95,-75.5 475.95,-72 465.95,-68.5 465.95,-75.5"/>
</g>
<!-- ProjectEuler -->
<g id="node12" class="node">
<title>ProjectEuler</title>
<g id="a_node12"><a xlink:href="https://github.com/weaversa/cryptol-course/blob/master/labs/ProjectEuler/ProjectEuler.md" xlink:title="Project Euler">
<path fill="none" stroke="black" stroke-width="2" d="M556.5,-36C556.5,-36 492.5,-36 492.5,-36 486.5,-36 480.5,-30 480.5,-24 480.5,-24 480.5,-12 480.5,-12 480.5,-6 486.5,0 492.5,0 492.5,0 556.5,0 556.5,0 562.5,0 568.5,-6 568.5,-12 568.5,-12 568.5,-24 568.5,-24 568.5,-30 562.5,-36 556.5,-36"/>
<text text-anchor="middle" x="524.5" y="-14.3" font-family="Times,serif" font-size="14.00">Project Euler</text>
</a>
</g>
</g>
<!-- CryptographicProperties&#45;&gt;ProjectEuler -->
<g id="edge10" class="edge">
<title>CryptographicProperties&#45;&gt;ProjectEuler</title>
<path fill="none" stroke="black" d="M439.33,-52.96C449.52,-48.73 460.4,-44.21 470.83,-39.88"/>
<polygon fill="black" stroke="black" points="472.37,-43.03 480.26,-35.96 469.68,-36.57 472.37,-43.03"/>
</g>
</g>
</svg>
