<?xml version="1.0" encoding="UTF-8" standalone="no"?>
<!DOCTYPE svg PUBLIC "-//W3C//DTD SVG 1.1//EN"
 "http://www.w3.org/Graphics/SVG/1.1/DTD/svg11.dtd">
<!-- Generated by graphviz version 2.40.1 (0)
 -->
<!-- Title: %3 Pages: 1 -->
<svg width="235pt" height="61pt"
 viewBox="0.00 0.00 235.00 61.00" xmlns="http://www.w3.org/2000/svg" xmlns:xlink="http://www.w3.org/1999/xlink">
<g id="graph0" class="graph" transform="scale(1 1) rotate(0) translate(4 57)">
<title>%3</title>
<!-- ParameterizedModules -->
<g id="node1" class="node">
<title>ParameterizedModules</title>
<g id="a_node1"><a xlink:href="../labs/SimonSpeck/SimonSpeck.html" xlink:title="Parameterized\nModules">
<path fill="#ffffff" stroke="#000000" stroke-width="2" d="M109,-45.5C109,-45.5 12,-45.5 12,-45.5 6,-45.5 0,-39.5 0,-33.5 0,-33.5 0,-19.5 0,-19.5 0,-13.5 6,-7.5 12,-7.5 12,-7.5 109,-7.5 109,-7.5 115,-7.5 121,-13.5 121,-19.5 121,-19.5 121,-33.5 121,-33.5 121,-39.5 115,-45.5 109,-45.5"/>
<text text-anchor="middle" x="60.5" y="-30.3" font-family="Times,serif" font-size="14.00" fill="#000000">Parameterized</text>
<text text-anchor="middle" x="60.5" y="-15.3" font-family="Times,serif" font-size="14.00" fill="#000000">Modules</text>
</a>
</g>
</g>
<!-- NewModuleSystem -->
<g id="node2" class="node">
<title>NewModuleSystem</title>
<g id="a_node2"><a xlink:href="../labs/NewModuleSystem/NewModuleSystem.html" xlink:title="New\nModule\nSystem">
<path fill="#ffffff" stroke="#000000" stroke-width="2" d="M215,-53C215,-53 169,-53 169,-53 163,-53 157,-47 157,-41 157,-41 157,-12 157,-12 157,-6 163,0 169,0 169,0 215,0 215,0 221,0 227,-6 227,-12 227,-12 227,-41 227,-41 227,-47 221,-53 215,-53"/>
<text text-anchor="middle" x="192" y="-37.8" font-family="Times,serif" font-size="14.00" fill="#000000">New</text>
<text text-anchor="middle" x="192" y="-22.8" font-family="Times,serif" font-size="14.00" fill="#000000">Module</text>
<text text-anchor="middle" x="192" y="-7.8" font-family="Times,serif" font-size="14.00" fill="#000000">System</text>
</a>
</g>
</g>
<!-- ParameterizedModules&#45;&gt;NewModuleSystem -->
<g id="edge1" class="edge">
<title>ParameterizedModules&#45;&gt;NewModuleSystem</title>
<path fill="none" stroke="#ff0000" d="M121.246,-26.5C129.8577,-26.5 138.5846,-26.5 146.8311,-26.5"/>
<polygon fill="#ff0000" stroke="#ff0000" points="146.975,-30.0001 156.975,-26.5 146.9749,-23.0001 146.975,-30.0001"/>
</g>
</g>
</svg>
