<?xml version="1.0" encoding="UTF-8" standalone="no"?>
<!DOCTYPE svg PUBLIC "-//W3C//DTD SVG 1.1//EN"
 "http://www.w3.org/Graphics/SVG/1.1/DTD/svg11.dtd">
<!-- Generated by graphviz version 2.44.1 (20200629.0846)
 -->
<!-- Pages: 1 -->
<svg width="222pt" height="46pt"
 viewBox="0.00 0.00 222.00 46.00" xmlns="http://www.w3.org/2000/svg" xmlns:xlink="http://www.w3.org/1999/xlink">
<g id="graph0" class="graph" transform="scale(1 1) rotate(0) translate(4 42)">
<polygon fill="white" stroke="transparent" points="-4,4 -4,-42 218,-42 218,4 -4,4"/>
<!-- ArithmeticVerifications -->
<g id="node1" class="node">
<title>ArithmeticVerifications</title>
<g id="a_node1"><a xlink:href="https://github.com/weaversa/cryptol-course/tree/L4y3rC4k3/labs/Demos/SAW/SAW/ArithmeticVerifications/ArithmeticVerifications.md" xlink:title="Arithmetic\nVerifications">
<path fill="white" stroke="black" stroke-width="2" d="M73,-38C73,-38 12,-38 12,-38 6,-38 0,-32 0,-26 0,-26 0,-12 0,-12 0,-6 6,0 12,0 12,0 73,0 73,0 79,0 85,-6 85,-12 85,-12 85,-26 85,-26 85,-32 79,-38 73,-38"/>
<text text-anchor="middle" x="42.5" y="-22.8" font-family="Times,serif" font-size="14.00">Arithmetic</text>
<text text-anchor="middle" x="42.5" y="-7.8" font-family="Times,serif" font-size="14.00">Verifications</text>
</a>
</g>
</g>
<!-- BitTwiddling -->
<g id="node2" class="node">
<title>BitTwiddling</title>
<g id="a_node2"><a xlink:href="https://github.com/weaversa/cryptol-course/tree/L4y3rC4k3/labs/Demos/SAW/SAW/Bittwiddling/Bittwiddling.md" xlink:title="Bit Twiddling">
<path fill="white" stroke="black" stroke-width="2" d="M202,-37C202,-37 133,-37 133,-37 127,-37 121,-31 121,-25 121,-25 121,-13 121,-13 121,-7 127,-1 133,-1 133,-1 202,-1 202,-1 208,-1 214,-7 214,-13 214,-13 214,-25 214,-25 214,-31 208,-37 202,-37"/>
<text text-anchor="middle" x="167.5" y="-15.3" font-family="Times,serif" font-size="14.00">Bit Twiddling</text>
</a>
</g>
</g>
<!-- ArithmeticVerifications&#45;&gt;BitTwiddling -->
<g id="edge1" class="edge">
<title>ArithmeticVerifications&#45;&gt;BitTwiddling</title>
<path fill="none" stroke="red" d="M85.14,-19C93.27,-19 101.91,-19 110.42,-19"/>
<polygon fill="red" stroke="red" points="110.68,-22.5 120.68,-19 110.68,-15.5 110.68,-22.5"/>
</g>
</g>
</svg>
