<?xml version="1.0" encoding="UTF-8" standalone="no"?>
<!DOCTYPE svg PUBLIC "-//W3C//DTD SVG 1.1//EN"
 "http://www.w3.org/Graphics/SVG/1.1/DTD/svg11.dtd">
<!-- Generated by graphviz version 2.40.1 (20161225.0304)
 -->
<!-- Title: %3 Pages: 1 -->
<svg width="224pt" height="46pt"
 viewBox="0.00 0.00 224.00 46.00" xmlns="http://www.w3.org/2000/svg" xmlns:xlink="http://www.w3.org/1999/xlink">
<g id="graph0" class="graph" transform="scale(1 1) rotate(0) translate(4 42)">
<title>%3</title>
<!-- ArithmeticVerifications -->
<g id="node1" class="node">
<title>ArithmeticVerifications</title>
<g id="a_node1"><a xlink:href="../labs/Demos/SAW/ArithmeticVerifications/ArithmeticVerifications.md" xlink:title="Arithmetic\nVerifications">
<path fill="#ffffff" stroke="#000000" stroke-width="2" d="M75,-38C75,-38 12,-38 12,-38 6,-38 0,-32 0,-26 0,-26 0,-12 0,-12 0,-6 6,0 12,0 12,0 75,0 75,0 81,0 87,-6 87,-12 87,-12 87,-26 87,-26 87,-32 81,-38 75,-38"/>
<text text-anchor="middle" x="43.5" y="-22.8" font-family="Times,serif" font-size="14.00" fill="#000000">Arithmetic</text>
<text text-anchor="middle" x="43.5" y="-7.8" font-family="Times,serif" font-size="14.00" fill="#000000">Verifications</text>
</a>
</g>
</g>
<!-- BitTwiddling -->
<g id="node2" class="node">
<title>BitTwiddling</title>
<g id="a_node2"><a xlink:href="../labs/Demos/SAW/Bittwiddling/Bittwiddling.md" xlink:title="Bit Twiddling">
<path fill="#ffffff" stroke="#000000" stroke-width="2" d="M204,-37C204,-37 135,-37 135,-37 129,-37 123,-31 123,-25 123,-25 123,-13 123,-13 123,-7 129,-1 135,-1 135,-1 204,-1 204,-1 210,-1 216,-7 216,-13 216,-13 216,-25 216,-25 216,-31 210,-37 204,-37"/>
<text text-anchor="middle" x="169.5" y="-15.3" font-family="Times,serif" font-size="14.00" fill="#000000">Bit Twiddling</text>
</a>
</g>
</g>
<!-- ArithmeticVerifications&#45;&gt;BitTwiddling -->
<g id="edge1" class="edge">
<title>ArithmeticVerifications&#45;&gt;BitTwiddling</title>
<path fill="none" stroke="#ff0000" d="M87.2151,-19C95.4012,-19 104.0682,-19 112.5853,-19"/>
<polygon fill="#ff0000" stroke="#ff0000" points="112.8578,-22.5001 122.8578,-19 112.8577,-15.5001 112.8578,-22.5001"/>
</g>
</g>
</svg>
