<?xml version="1.0" encoding="UTF-8" standalone="no"?>
<!DOCTYPE svg PUBLIC "-//W3C//DTD SVG 1.1//EN"
 "http://www.w3.org/Graphics/SVG/1.1/DTD/svg11.dtd">
<!-- Generated by graphviz version 2.47.1 (20210417.1919)
 -->
<!-- Pages: 1 -->
<svg width="317pt" height="46pt"
 viewBox="0.00 0.00 317.00 46.00" xmlns="http://www.w3.org/2000/svg" xmlns:xlink="http://www.w3.org/1999/xlink">
<g id="graph0" class="graph" transform="scale(1 1) rotate(0) translate(4 42)">
<!-- ArithmeticVerifications -->
<g id="node1" class="node">
<title>ArithmeticVerifications</title>
<g id="a_node1"><a xlink:href="../labs/Demos/SAW/ArithmeticVerifications/ArithmeticVerifications.html" xlink:title="Arithmetic\nVerifications">
<path fill="white" stroke="black" stroke-width="2" d="M74,-38C74,-38 12,-38 12,-38 6,-38 0,-32 0,-26 0,-26 0,-12 0,-12 0,-6 6,0 12,0 12,0 74,0 74,0 80,0 86,-6 86,-12 86,-12 86,-26 86,-26 86,-32 80,-38 74,-38"/>
<text text-anchor="middle" x="43" y="-22.8" font-family="Times,serif" font-size="14.00">Arithmetic</text>
<text text-anchor="middle" x="43" y="-7.8" font-family="Times,serif" font-size="14.00">Verifications</text>
</a>
</g>
</g>
<!-- BitTwiddling -->
<g id="node2" class="node">
<title>BitTwiddling</title>
<g id="a_node2"><a xlink:href="../labs/Demos/SAW/Bittwiddling/Bittwiddling.html" xlink:title="Bit Twiddling">
<path fill="white" stroke="black" stroke-width="2" d="M202,-37C202,-37 134,-37 134,-37 128,-37 122,-31 122,-25 122,-25 122,-13 122,-13 122,-7 128,-1 134,-1 134,-1 202,-1 202,-1 208,-1 214,-7 214,-13 214,-13 214,-25 214,-25 214,-31 208,-37 202,-37"/>
<text text-anchor="middle" x="168" y="-15.3" font-family="Times,serif" font-size="14.00">Bit Twiddling</text>
</a>
</g>
</g>
<!-- ArithmeticVerifications&#45;&gt;BitTwiddling -->
<g id="edge1" class="edge">
<title>ArithmeticVerifications&#45;&gt;BitTwiddling</title>
<path fill="none" stroke="red" d="M86.33,-19C94.43,-19 103.03,-19 111.47,-19"/>
<polygon fill="red" stroke="red" points="111.65,-22.5 121.65,-19 111.65,-15.5 111.65,-22.5"/>
</g>
<!-- Salsa20 -->
<g id="node3" class="node">
<title>Salsa20</title>
<g id="a_node3"><a xlink:href="../labs/Demos/SAW/Salsa20/Salsa20.html" xlink:title="Salsa20">
<path fill="white" stroke="black" stroke-width="2" d="M297,-37C297,-37 262,-37 262,-37 256,-37 250,-31 250,-25 250,-25 250,-13 250,-13 250,-7 256,-1 262,-1 262,-1 297,-1 297,-1 303,-1 309,-7 309,-13 309,-13 309,-25 309,-25 309,-31 303,-37 297,-37"/>
<text text-anchor="middle" x="279.5" y="-15.3" font-family="Times,serif" font-size="14.00">Salsa20</text>
</a>
</g>
</g>
<!-- BitTwiddling&#45;&gt;Salsa20 -->
<g id="edge2" class="edge">
<title>BitTwiddling&#45;&gt;Salsa20</title>
<path fill="none" stroke="red" d="M214.17,-19C222.62,-19 231.38,-19 239.62,-19"/>
<polygon fill="red" stroke="red" points="239.72,-22.5 249.72,-19 239.72,-15.5 239.72,-22.5"/>
</g>
</g>
</svg>
