<?xml version="1.0" encoding="UTF-8" standalone="no"?>
<!DOCTYPE svg PUBLIC "-//W3C//DTD SVG 1.1//EN"
 "http://www.w3.org/Graphics/SVG/1.1/DTD/svg11.dtd">
<!-- Generated by graphviz version 2.38.0 (20140413.2041)
 -->
<!-- Title: %3 Pages: 1 -->
<svg width="602pt" height="76pt"
 viewBox="0.00 0.00 602.00 76.00" xmlns="http://www.w3.org/2000/svg" xmlns:xlink="http://www.w3.org/1999/xlink">
<g id="graph0" class="graph" transform="scale(1 1) rotate(0) translate(4 72)">
<title>%3</title>
<!-- CommonPropertiesforCiphers -->
<g id="node1" class="node"><title>CommonPropertiesforCiphers</title>
<g id="a_node1"><a xlink:href="../labs/Transposition/CommonProperties.html" xlink:title="Common\nProperties\nfor\nCiphers">
<path fill="white" stroke="black" stroke-width="2" d="M62,-68C62,-68 12,-68 12,-68 6,-68 0,-62 0,-56 0,-56 0,-12 0,-12 0,-6 6,-0 12,-0 12,-0 62,-0 62,-0 68,-0 74,-6 74,-12 74,-12 74,-56 74,-56 74,-62 68,-68 62,-68"/>
<text text-anchor="middle" x="37" y="-52.8" font-family="Times New Roman,serif" font-size="14.00">Common</text>
<text text-anchor="middle" x="37" y="-37.8" font-family="Times New Roman,serif" font-size="14.00">Properties</text>
<text text-anchor="middle" x="37" y="-22.8" font-family="Times New Roman,serif" font-size="14.00">for</text>
<text text-anchor="middle" x="37" y="-7.8" font-family="Times New Roman,serif" font-size="14.00">Ciphers</text>
</a>
</g>
</g>
<!-- Transposition -->
<g id="node2" class="node"><title>Transposition</title>
<g id="a_node2"><a xlink:href="../labs/Transposition/Transposition.html" xlink:title="Transposition">
<path fill="white" stroke="black" stroke-width="2" d="M192,-52C192,-52 122,-52 122,-52 116,-52 110,-46 110,-40 110,-40 110,-28 110,-28 110,-22 116,-16 122,-16 122,-16 192,-16 192,-16 198,-16 204,-22 204,-28 204,-28 204,-40 204,-40 204,-46 198,-52 192,-52"/>
<text text-anchor="middle" x="157" y="-30.3" font-family="Times New Roman,serif" font-size="14.00">Transposition</text>
</a>
</g>
</g>
<!-- CommonPropertiesforCiphers&#45;&gt;Transposition -->
<g id="edge1" class="edge"><title>CommonPropertiesforCiphers&#45;&gt;Transposition</title>
<path fill="none" stroke="red" d="M74.0451,-34C82.1317,-34 90.8999,-34 99.5929,-34"/>
<polygon fill="red" stroke="red" points="99.7179,-37.5001 109.718,-34 99.7178,-30.5001 99.7179,-37.5001"/>
</g>
<!-- Esrever -->
<g id="node3" class="node"><title>Esrever</title>
<g id="a_node3"><a xlink:href="../labs/Transposition/Esrever.html" xlink:title="Esrever">
<path fill="white" stroke="black" stroke-width="2" d="M287,-52C287,-52 252,-52 252,-52 246,-52 240,-46 240,-40 240,-40 240,-28 240,-28 240,-22 246,-16 252,-16 252,-16 287,-16 287,-16 293,-16 299,-22 299,-28 299,-28 299,-40 299,-40 299,-46 293,-52 287,-52"/>
<text text-anchor="middle" x="269.5" y="-30.3" font-family="Times New Roman,serif" font-size="14.00">Esrever</text>
</a>
</g>
</g>
<!-- Transposition&#45;&gt;Esrever -->
<g id="edge2" class="edge"><title>Transposition&#45;&gt;Esrever</title>
<path fill="none" stroke="red" d="M204.222,-34C212.705,-34 221.479,-34 229.717,-34"/>
<polygon fill="red" stroke="red" points="229.801,-37.5001 239.801,-34 229.801,-30.5001 229.801,-37.5001"/>
</g>
<!-- Scytale -->
<g id="node4" class="node"><title>Scytale</title>
<g id="a_node4"><a xlink:href="../labs/Transposition/Scytale.html" xlink:title="Scytale">
<path fill="white" stroke="black" stroke-width="2" d="M380,-52C380,-52 347,-52 347,-52 341,-52 335,-46 335,-40 335,-40 335,-28 335,-28 335,-22 341,-16 347,-16 347,-16 380,-16 380,-16 386,-16 392,-22 392,-28 392,-28 392,-40 392,-40 392,-46 386,-52 380,-52"/>
<text text-anchor="middle" x="363.5" y="-30.3" font-family="Times New Roman,serif" font-size="14.00">Scytale</text>
</a>
</g>
</g>
<!-- Esrever&#45;&gt;Scytale -->
<g id="edge3" class="edge"><title>Esrever&#45;&gt;Scytale</title>
<path fill="none" stroke="red" d="M299.105,-34C307.205,-34 316.149,-34 324.702,-34"/>
<polygon fill="red" stroke="red" points="324.858,-37.5001 334.858,-34 324.858,-30.5001 324.858,-37.5001"/>
</g>
<!-- RailFence -->
<g id="node5" class="node"><title>RailFence</title>
<g id="a_node5"><a xlink:href="../labs/Transposition/RailFence.html" xlink:title="Rail Fence">
<path fill="white" stroke="black" stroke-width="2" d="M492,-52C492,-52 440,-52 440,-52 434,-52 428,-46 428,-40 428,-40 428,-28 428,-28 428,-22 434,-16 440,-16 440,-16 492,-16 492,-16 498,-16 504,-22 504,-28 504,-28 504,-40 504,-40 504,-46 498,-52 492,-52"/>
<text text-anchor="middle" x="466" y="-30.3" font-family="Times New Roman,serif" font-size="14.00">Rail Fence</text>
</a>
</g>
</g>
<!-- Scytale&#45;&gt;RailFence -->
<g id="edge4" class="edge"><title>Scytale&#45;&gt;RailFence</title>
<path fill="none" stroke="red" d="M392.228,-34C400.162,-34 409.041,-34 417.796,-34"/>
<polygon fill="red" stroke="red" points="417.953,-37.5001 427.953,-34 417.953,-30.5001 417.953,-37.5001"/>
</g>
<!-- Route -->
<g id="node6" class="node"><title>Route</title>
<g id="a_node6"><a xlink:href="../labs/Transposition/Route.html" xlink:title="Route">
<path fill="white" stroke="black" stroke-width="2" d="M582,-52C582,-52 552,-52 552,-52 546,-52 540,-46 540,-40 540,-40 540,-28 540,-28 540,-22 546,-16 552,-16 552,-16 582,-16 582,-16 588,-16 594,-22 594,-28 594,-28 594,-40 594,-40 594,-46 588,-52 582,-52"/>
<text text-anchor="middle" x="567" y="-30.3" font-family="Times New Roman,serif" font-size="14.00">Route</text>
</a>
</g>
</g>
<!-- RailFence&#45;&gt;Route -->
<g id="edge5" class="edge"><title>RailFence&#45;&gt;Route</title>
<path fill="none" stroke="red" d="M504.146,-34C512.478,-34 521.31,-34 529.612,-34"/>
<polygon fill="red" stroke="red" points="529.766,-37.5001 539.766,-34 529.766,-30.5001 529.766,-37.5001"/>
</g>
</g>
</svg>
