<?xml version="1.0" encoding="UTF-8" standalone="no"?>
<!DOCTYPE svg PUBLIC "-//W3C//DTD SVG 1.1//EN"
 "http://www.w3.org/Graphics/SVG/1.1/DTD/svg11.dtd">
<!-- Generated by graphviz version 2.40.1 (20161225.0304)
 -->
<!-- Title: %3 Pages: 1 -->
<svg width="593pt" height="76pt"
 viewBox="0.00 0.00 593.00 76.00" xmlns="http://www.w3.org/2000/svg" xmlns:xlink="http://www.w3.org/1999/xlink">
<g id="graph0" class="graph" transform="scale(1 1) rotate(0) translate(4 72)">
<title>%3</title>
<!-- CommonPropertiesforCiphers -->
<g id="node1" class="node">
<title>CommonPropertiesforCiphers</title>
<g id="a_node1"><a xlink:href="../labs/Transposition/CommonProperties.md" xlink:title="Common\nProperties\nfor\nCiphers">
<path fill="#ffffff" stroke="#000000" stroke-width="2" d="M59,-68C59,-68 12,-68 12,-68 6,-68 0,-62 0,-56 0,-56 0,-12 0,-12 0,-6 6,0 12,0 12,0 59,0 59,0 65,0 71,-6 71,-12 71,-12 71,-56 71,-56 71,-62 65,-68 59,-68"/>
<text text-anchor="middle" x="35.5" y="-52.8" font-family="Times,serif" font-size="14.00" fill="#000000">Common</text>
<text text-anchor="middle" x="35.5" y="-37.8" font-family="Times,serif" font-size="14.00" fill="#000000">Properties</text>
<text text-anchor="middle" x="35.5" y="-22.8" font-family="Times,serif" font-size="14.00" fill="#000000">for</text>
<text text-anchor="middle" x="35.5" y="-7.8" font-family="Times,serif" font-size="14.00" fill="#000000">Ciphers</text>
</a>
</g>
</g>
<!-- Transposition -->
<g id="node2" class="node">
<title>Transposition</title>
<g id="a_node2"><a xlink:href="../labs/Transposition/Transposition.md" xlink:title="Transposition">
<path fill="#ffffff" stroke="#000000" stroke-width="2" d="M186,-52C186,-52 119,-52 119,-52 113,-52 107,-46 107,-40 107,-40 107,-28 107,-28 107,-22 113,-16 119,-16 119,-16 186,-16 186,-16 192,-16 198,-22 198,-28 198,-28 198,-40 198,-40 198,-46 192,-52 186,-52"/>
<text text-anchor="middle" x="152.5" y="-30.3" font-family="Times,serif" font-size="14.00" fill="#000000">Transposition</text>
</a>
</g>
</g>
<!-- CommonPropertiesforCiphers&#45;&gt;Transposition -->
<g id="edge1" class="edge">
<title>CommonPropertiesforCiphers&#45;&gt;Transposition</title>
<path fill="none" stroke="#ff0000" d="M71.2396,-34C79.2577,-34 87.9516,-34 96.5709,-34"/>
<polygon fill="#ff0000" stroke="#ff0000" points="96.6101,-37.5001 106.61,-34 96.61,-30.5001 96.6101,-37.5001"/>
</g>
<!-- Esrever -->
<g id="node3" class="node">
<title>Esrever</title>
<g id="a_node3"><a xlink:href="../labs/Transposition/Esrever.md" xlink:title="Esrever">
<path fill="#ffffff" stroke="#000000" stroke-width="2" d="M280,-52C280,-52 246,-52 246,-52 240,-52 234,-46 234,-40 234,-40 234,-28 234,-28 234,-22 240,-16 246,-16 246,-16 280,-16 280,-16 286,-16 292,-22 292,-28 292,-28 292,-40 292,-40 292,-46 286,-52 280,-52"/>
<text text-anchor="middle" x="263" y="-30.3" font-family="Times,serif" font-size="14.00" fill="#000000">Esrever</text>
</a>
</g>
</g>
<!-- Transposition&#45;&gt;Esrever -->
<g id="edge2" class="edge">
<title>Transposition&#45;&gt;Esrever</title>
<path fill="none" stroke="#ff0000" d="M198.0825,-34C206.6099,-34 215.4544,-34 223.7691,-34"/>
<polygon fill="#ff0000" stroke="#ff0000" points="223.9539,-37.5001 233.9539,-34 223.9538,-30.5001 223.9539,-37.5001"/>
</g>
<!-- Scytale -->
<g id="node4" class="node">
<title>Scytale</title>
<g id="a_node4"><a xlink:href="../labs/Transposition/Scytale.md" xlink:title="Scytale">
<path fill="#ffffff" stroke="#000000" stroke-width="2" d="M372,-52C372,-52 340,-52 340,-52 334,-52 328,-46 328,-40 328,-40 328,-28 328,-28 328,-22 334,-16 340,-16 340,-16 372,-16 372,-16 378,-16 384,-22 384,-28 384,-28 384,-40 384,-40 384,-46 378,-52 372,-52"/>
<text text-anchor="middle" x="356" y="-30.3" font-family="Times,serif" font-size="14.00" fill="#000000">Scytale</text>
</a>
</g>
</g>
<!-- Esrever&#45;&gt;Scytale -->
<g id="edge3" class="edge">
<title>Esrever&#45;&gt;Scytale</title>
<path fill="none" stroke="#ff0000" d="M292.1706,-34C300.275,-34 309.199,-34 317.7399,-34"/>
<polygon fill="#ff0000" stroke="#ff0000" points="317.887,-37.5001 327.887,-34 317.887,-30.5001 317.887,-37.5001"/>
</g>
<!-- RailFence -->
<g id="node5" class="node">
<title>RailFence</title>
<g id="a_node5"><a xlink:href="../labs/Transposition/RailFence.md" xlink:title="Rail Fence">
<path fill="#ffffff" stroke="#000000" stroke-width="2" d="M483,-52C483,-52 432,-52 432,-52 426,-52 420,-46 420,-40 420,-40 420,-28 420,-28 420,-22 426,-16 432,-16 432,-16 483,-16 483,-16 489,-16 495,-22 495,-28 495,-28 495,-40 495,-40 495,-46 489,-52 483,-52"/>
<text text-anchor="middle" x="457.5" y="-30.3" font-family="Times,serif" font-size="14.00" fill="#000000">Rail Fence</text>
</a>
</g>
</g>
<!-- Scytale&#45;&gt;RailFence -->
<g id="edge4" class="edge">
<title>Scytale&#45;&gt;RailFence</title>
<path fill="none" stroke="#ff0000" d="M384.004,-34C391.9329,-34 400.7958,-34 409.5475,-34"/>
<polygon fill="#ff0000" stroke="#ff0000" points="409.7074,-37.5001 419.7074,-34 409.7074,-30.5001 409.7074,-37.5001"/>
</g>
<!-- Route -->
<g id="node6" class="node">
<title>Route</title>
<g id="a_node6"><a xlink:href="../labs/Transposition/Route.md" xlink:title="Route">
<path fill="#ffffff" stroke="#000000" stroke-width="2" d="M573,-52C573,-52 543,-52 543,-52 537,-52 531,-46 531,-40 531,-40 531,-28 531,-28 531,-22 537,-16 543,-16 543,-16 573,-16 573,-16 579,-16 585,-22 585,-28 585,-28 585,-40 585,-40 585,-46 579,-52 573,-52"/>
<text text-anchor="middle" x="558" y="-30.3" font-family="Times,serif" font-size="14.00" fill="#000000">Route</text>
</a>
</g>
</g>
<!-- RailFence&#45;&gt;Route -->
<g id="edge5" class="edge">
<title>RailFence&#45;&gt;Route</title>
<path fill="none" stroke="#ff0000" d="M495.2084,-34C503.5109,-34 512.3013,-34 520.5918,-34"/>
<polygon fill="#ff0000" stroke="#ff0000" points="520.7515,-37.5001 530.7515,-34 520.7515,-30.5001 520.7515,-37.5001"/>
</g>
</g>
</svg>
