<?xml version="1.0" encoding="UTF-8" standalone="no"?>
<!DOCTYPE svg PUBLIC "-//W3C//DTD SVG 1.1//EN"
 "http://www.w3.org/Graphics/SVG/1.1/DTD/svg11.dtd">
<!-- Generated by graphviz version 2.44.1 (20200629.0846)
 -->
<!-- Pages: 1 -->
<svg width="712pt" height="316pt"
 viewBox="0.00 0.00 712.00 316.00" xmlns="http://www.w3.org/2000/svg" xmlns:xlink="http://www.w3.org/1999/xlink">
<g id="graph0" class="graph" transform="scale(1 1) rotate(0) translate(4 312)">
<polygon fill="white" stroke="transparent" points="-4,4 -4,-312 708,-312 708,4 -4,4"/>
<!-- Installation -->
<g id="node1" class="node">
<title>Installation</title>
<g id="a_node1"><a xlink:href="https://github.com/weaversa/cryptol-course/tree/L4y3rC4k3/INSTALL.md" xlink:title="Installation">
<path fill="white" stroke="black" stroke-width="2" d="M65,-280C65,-280 12,-280 12,-280 6,-280 0,-274 0,-268 0,-268 0,-256 0,-256 0,-250 6,-244 12,-244 12,-244 65,-244 65,-244 71,-244 77,-250 77,-256 77,-256 77,-268 77,-268 77,-274 71,-280 65,-280"/>
<text text-anchor="middle" x="38.5" y="-258.3" font-family="Times,serif" font-size="14.00">Installation</text>
</a>
</g>
</g>
<!-- Overview -->
<g id="node2" class="node">
<title>Overview</title>
<g id="a_node2"><a xlink:href="https://github.com/weaversa/cryptol-course/tree/L4y3rC4k3/labs/Overview/Overview.md" xlink:title="Overview">
<path fill="white" stroke="black" stroke-width="2" d="M61.5,-226C61.5,-226 15.5,-226 15.5,-226 9.5,-226 3.5,-220 3.5,-214 3.5,-214 3.5,-202 3.5,-202 3.5,-196 9.5,-190 15.5,-190 15.5,-190 61.5,-190 61.5,-190 67.5,-190 73.5,-196 73.5,-202 73.5,-202 73.5,-214 73.5,-214 73.5,-220 67.5,-226 61.5,-226"/>
<text text-anchor="middle" x="38.5" y="-204.3" font-family="Times,serif" font-size="14.00">Overview</text>
</a>
</g>
</g>
<!-- Installation&#45;&gt;Overview -->
<g id="edge1" class="edge">
<title>Installation&#45;&gt;Overview</title>
<path fill="none" stroke="red" d="M38.5,-243.79C38.5,-241.31 38.5,-238.83 38.5,-236.34"/>
<polygon fill="red" stroke="red" points="42,-236.14 38.5,-226.14 35,-236.14 42,-236.14"/>
</g>
<!-- Interpreter -->
<g id="node3" class="node">
<title>Interpreter</title>
<g id="a_node3"><a xlink:href="https://github.com/weaversa/cryptol-course/tree/L4y3rC4k3/labs/Interpreter/Interpreter.md" xlink:title="Interpreter">
<path fill="white" stroke="black" stroke-width="2" d="M63.5,-172C63.5,-172 13.5,-172 13.5,-172 7.5,-172 1.5,-166 1.5,-160 1.5,-160 1.5,-148 1.5,-148 1.5,-142 7.5,-136 13.5,-136 13.5,-136 63.5,-136 63.5,-136 69.5,-136 75.5,-142 75.5,-148 75.5,-148 75.5,-160 75.5,-160 75.5,-166 69.5,-172 63.5,-172"/>
<text text-anchor="middle" x="38.5" y="-150.3" font-family="Times,serif" font-size="14.00">Interpreter</text>
</a>
</g>
</g>
<!-- Overview&#45;&gt;Interpreter -->
<g id="edge2" class="edge">
<title>Overview&#45;&gt;Interpreter</title>
<path fill="none" stroke="red" d="M38.5,-189.79C38.5,-187.31 38.5,-184.83 38.5,-182.34"/>
<polygon fill="red" stroke="red" points="42,-182.14 38.5,-172.14 35,-182.14 42,-182.14"/>
</g>
<!-- LanguageBasics -->
<g id="node4" class="node">
<title>LanguageBasics</title>
<g id="a_node4"><a xlink:href="https://github.com/weaversa/cryptol-course/tree/L4y3rC4k3/labs/Language/Basics.md" xlink:title="Language\nBasics">
<path fill="white" stroke="black" stroke-width="2" d="M61.5,-118C61.5,-118 15.5,-118 15.5,-118 9.5,-118 3.5,-112 3.5,-106 3.5,-106 3.5,-92 3.5,-92 3.5,-86 9.5,-80 15.5,-80 15.5,-80 61.5,-80 61.5,-80 67.5,-80 73.5,-86 73.5,-92 73.5,-92 73.5,-106 73.5,-106 73.5,-112 67.5,-118 61.5,-118"/>
<text text-anchor="middle" x="38.5" y="-102.8" font-family="Times,serif" font-size="14.00">Language</text>
<text text-anchor="middle" x="38.5" y="-87.8" font-family="Times,serif" font-size="14.00">Basics</text>
</a>
</g>
</g>
<!-- Interpreter&#45;&gt;LanguageBasics -->
<g id="edge3" class="edge">
<title>Interpreter&#45;&gt;LanguageBasics</title>
<path fill="none" stroke="red" d="M38.5,-135.89C38.5,-133.42 38.5,-130.95 38.5,-128.48"/>
<polygon fill="red" stroke="red" points="42,-128.34 38.5,-118.34 35,-128.34 42,-128.34"/>
</g>
<!-- CRC -->
<g id="node5" class="node">
<title>CRC</title>
<g id="a_node5"><a xlink:href="https://github.com/weaversa/cryptol-course/tree/L4y3rC4k3/labs/CRC/CRC.md" xlink:title="CRC">
<path fill="white" stroke="black" stroke-width="2" d="M178.5,-198C178.5,-198 148.5,-198 148.5,-198 142.5,-198 136.5,-192 136.5,-186 136.5,-186 136.5,-174 136.5,-174 136.5,-168 142.5,-162 148.5,-162 148.5,-162 178.5,-162 178.5,-162 184.5,-162 190.5,-168 190.5,-174 190.5,-174 190.5,-186 190.5,-186 190.5,-192 184.5,-198 178.5,-198"/>
<text text-anchor="middle" x="163.5" y="-176.3" font-family="Times,serif" font-size="14.00">CRC</text>
</a>
</g>
</g>
<!-- LanguageBasics&#45;&gt;CRC -->
<g id="edge4" class="edge">
<title>LanguageBasics&#45;&gt;CRC</title>
<path fill="none" stroke="red" d="M65.07,-118.04C84.26,-132.3 108.06,-149.86 113,-153 117.65,-155.96 122.64,-158.92 127.61,-161.74"/>
<polygon fill="red" stroke="red" points="125.99,-164.84 136.43,-166.63 129.38,-158.72 125.99,-164.84"/>
</g>
<!-- StyleGuide -->
<g id="node10" class="node">
<title>StyleGuide</title>
<g id="a_node10"><a xlink:href="https://github.com/weaversa/cryptol-course/tree/L4y3rC4k3/cryptol-style.md" xlink:title="Style Guide">
<path fill="white" stroke="black" stroke-width="2" d="M192,-144C192,-144 135,-144 135,-144 129,-144 123,-138 123,-132 123,-132 123,-120 123,-120 123,-114 129,-108 135,-108 135,-108 192,-108 192,-108 198,-108 204,-114 204,-120 204,-120 204,-132 204,-132 204,-138 198,-144 192,-144"/>
<text text-anchor="middle" x="163.5" y="-122.3" font-family="Times,serif" font-size="14.00">Style Guide</text>
</a>
</g>
</g>
<!-- LanguageBasics&#45;&gt;StyleGuide -->
<g id="edge9" class="edge">
<title>LanguageBasics&#45;&gt;StyleGuide</title>
<path fill="none" stroke="black" d="M73.76,-106.52C85.88,-109.18 99.78,-112.23 112.91,-115.11"/>
<polygon fill="black" stroke="black" points="112.25,-118.55 122.77,-117.28 113.75,-111.72 112.25,-118.55"/>
</g>
<!-- CryptolDemos -->
<g id="node11" class="node">
<title>CryptolDemos</title>
<g id="a_node11"><a xlink:href="https://github.com/weaversa/cryptol-course/tree/L4y3rC4k3/labs/Demos/Cryptol/Demos.md" xlink:title="Cryptol Demos">
<path fill="white" stroke="black" stroke-width="2" d="M202,-90C202,-90 125,-90 125,-90 119,-90 113,-84 113,-78 113,-78 113,-66 113,-66 113,-60 119,-54 125,-54 125,-54 202,-54 202,-54 208,-54 214,-60 214,-66 214,-66 214,-78 214,-78 214,-84 208,-90 202,-90"/>
<text text-anchor="middle" x="163.5" y="-68.3" font-family="Times,serif" font-size="14.00">Cryptol Demos</text>
</a>
</g>
</g>
<!-- LanguageBasics&#45;&gt;CryptolDemos -->
<g id="edge10" class="edge">
<title>LanguageBasics&#45;&gt;CryptolDemos</title>
<path fill="none" stroke="black" d="M73.76,-91.48C82.83,-89.49 92.88,-87.28 102.86,-85.09"/>
<polygon fill="black" stroke="black" points="103.77,-88.47 112.79,-82.91 102.27,-81.64 103.77,-88.47"/>
</g>
<!-- SAWDemos -->
<g id="node12" class="node">
<title>SAWDemos</title>
<g id="a_node12"><a xlink:href="https://github.com/weaversa/cryptol-course/tree/L4y3rC4k3/labs/Demos/SAW/Demos.md" xlink:title="SAW Demos">
<path fill="white" stroke="black" stroke-width="2" d="M196,-36C196,-36 131,-36 131,-36 125,-36 119,-30 119,-24 119,-24 119,-12 119,-12 119,-6 125,0 131,0 131,0 196,0 196,0 202,0 208,-6 208,-12 208,-12 208,-24 208,-24 208,-30 202,-36 196,-36"/>
<text text-anchor="middle" x="163.5" y="-14.3" font-family="Times,serif" font-size="14.00">SAW Demos</text>
</a>
</g>
</g>
<!-- LanguageBasics&#45;&gt;SAWDemos -->
<g id="edge11" class="edge">
<title>LanguageBasics&#45;&gt;SAWDemos</title>
<path fill="none" stroke="black" d="M63.76,-79.9C77.81,-69.17 96.03,-55.79 113,-45 114.95,-43.76 116.95,-42.52 118.99,-41.29"/>
<polygon fill="black" stroke="black" points="121.19,-44.06 128.07,-36 117.67,-38.02 121.19,-44.06"/>
</g>
<!-- Salsa20 -->
<g id="node6" class="node">
<title>Salsa20</title>
<g id="a_node6"><a xlink:href="https://github.com/weaversa/cryptol-course/tree/L4y3rC4k3/labs/Salsa20/Salsa20.md" xlink:title="Salsa20">
<path fill="white" stroke="black" stroke-width="2" d="M297,-198C297,-198 262,-198 262,-198 256,-198 250,-192 250,-186 250,-186 250,-174 250,-174 250,-168 256,-162 262,-162 262,-162 297,-162 297,-162 303,-162 309,-168 309,-174 309,-174 309,-186 309,-186 309,-192 303,-198 297,-198"/>
<text text-anchor="middle" x="279.5" y="-176.3" font-family="Times,serif" font-size="14.00">Salsa20</text>
</a>
</g>
</g>
<!-- CRC&#45;&gt;Salsa20 -->
<g id="edge5" class="edge">
<title>CRC&#45;&gt;Salsa20</title>
<path fill="none" stroke="red" d="M190.65,-180C205.11,-180 223.34,-180 239.45,-180"/>
<polygon fill="red" stroke="red" points="239.67,-183.5 249.67,-180 239.67,-176.5 239.67,-183.5"/>
</g>
<!-- CryptographicProperties -->
<g id="node7" class="node">
<title>CryptographicProperties</title>
<g id="a_node7"><a xlink:href="https://github.com/weaversa/cryptol-course/tree/L4y3rC4k3/labs/CryptoProofs/CryptoProofs.md" xlink:title="Cryptographic\nProperties">
<path fill="white" stroke="black" stroke-width="2" d="M428,-199C428,-199 357,-199 357,-199 351,-199 345,-193 345,-187 345,-187 345,-173 345,-173 345,-167 351,-161 357,-161 357,-161 428,-161 428,-161 434,-161 440,-167 440,-173 440,-173 440,-187 440,-187 440,-193 434,-199 428,-199"/>
<text text-anchor="middle" x="392.5" y="-183.8" font-family="Times,serif" font-size="14.00">Cryptographic</text>
<text text-anchor="middle" x="392.5" y="-168.8" font-family="Times,serif" font-size="14.00">Properties</text>
</a>
</g>
</g>
<!-- Salsa20&#45;&gt;CryptographicProperties -->
<g id="edge6" class="edge">
<title>Salsa20&#45;&gt;CryptographicProperties</title>
<path fill="none" stroke="red" d="M309.09,-180C317.02,-180 325.92,-180 334.86,-180"/>
<polygon fill="red" stroke="red" points="334.93,-183.5 344.93,-180 334.93,-176.5 334.93,-183.5"/>
</g>
<!-- KeyWrapping -->
<g id="node8" class="node">
<title>KeyWrapping</title>
<g id="a_node8"><a xlink:href="https://github.com/weaversa/cryptol-course/tree/L4y3rC4k3/labs/KeyWrapping/KeyWrapping.md" xlink:title="Key Wrapping">
<path fill="white" stroke="black" stroke-width="2" d="M561,-281C561,-281 488,-281 488,-281 482,-281 476,-275 476,-269 476,-269 476,-257 476,-257 476,-251 482,-245 488,-245 488,-245 561,-245 561,-245 567,-245 573,-251 573,-257 573,-257 573,-269 573,-269 573,-275 567,-281 561,-281"/>
<text text-anchor="middle" x="524.5" y="-259.3" font-family="Times,serif" font-size="14.00">Key Wrapping</text>
</a>
</g>
</g>
<!-- CryptographicProperties&#45;&gt;KeyWrapping -->
<g id="edge7" class="edge">
<title>CryptographicProperties&#45;&gt;KeyWrapping</title>
<path fill="none" stroke="red" d="M420.64,-199.22C436.56,-210.29 457.19,-224.29 476,-236 477.93,-237.2 479.92,-238.41 481.93,-239.63"/>
<polygon fill="red" stroke="red" points="480.46,-242.82 490.85,-244.89 484.02,-236.79 480.46,-242.82"/>
</g>
<!-- Salsa20Properties -->
<g id="node13" class="node">
<title>Salsa20Properties</title>
<g id="a_node13"><a xlink:href="https://github.com/weaversa/cryptol-course/tree/L4y3rC4k3/labs/Salsa20/Salsa20Props.md" xlink:title="Salsa20\nProperties">
<path fill="white" stroke="black" stroke-width="2" d="M548,-227C548,-227 501,-227 501,-227 495,-227 489,-221 489,-215 489,-215 489,-201 489,-201 489,-195 495,-189 501,-189 501,-189 548,-189 548,-189 554,-189 560,-195 560,-201 560,-201 560,-215 560,-215 560,-221 554,-227 548,-227"/>
<text text-anchor="middle" x="524.5" y="-211.8" font-family="Times,serif" font-size="14.00">Salsa20</text>
<text text-anchor="middle" x="524.5" y="-196.8" font-family="Times,serif" font-size="14.00">Properties</text>
</a>
</g>
</g>
<!-- CryptographicProperties&#45;&gt;Salsa20Properties -->
<g id="edge12" class="edge">
<title>CryptographicProperties&#45;&gt;Salsa20Properties</title>
<path fill="none" stroke="black" d="M440.07,-190.03C452.59,-192.73 466.1,-195.64 478.54,-198.32"/>
<polygon fill="black" stroke="black" points="478.17,-201.82 488.68,-200.5 479.64,-194.97 478.17,-201.82"/>
</g>
<!-- TranspositionCiphers -->
<g id="node14" class="node">
<title>TranspositionCiphers</title>
<g id="a_node14"><a xlink:href="https://github.com/weaversa/cryptol-course/tree/L4y3rC4k3/labs/Transposition/Contents.md" xlink:title="Transposition\nCiphers">
<path fill="white" stroke="black" stroke-width="2" d="M558,-171C558,-171 491,-171 491,-171 485,-171 479,-165 479,-159 479,-159 479,-145 479,-145 479,-139 485,-133 491,-133 491,-133 558,-133 558,-133 564,-133 570,-139 570,-145 570,-145 570,-159 570,-159 570,-165 564,-171 558,-171"/>
<text text-anchor="middle" x="524.5" y="-155.8" font-family="Times,serif" font-size="14.00">Transposition</text>
<text text-anchor="middle" x="524.5" y="-140.8" font-family="Times,serif" font-size="14.00">Ciphers</text>
</a>
</g>
</g>
<!-- CryptographicProperties&#45;&gt;TranspositionCiphers -->
<g id="edge13" class="edge">
<title>CryptographicProperties&#45;&gt;TranspositionCiphers</title>
<path fill="none" stroke="black" d="M440.07,-169.97C449.47,-167.94 459.44,-165.8 469.09,-163.72"/>
<polygon fill="black" stroke="black" points="469.96,-167.11 479,-161.58 468.49,-160.27 469.96,-167.11"/>
</g>
<!-- ProjectEuler -->
<g id="node15" class="node">
<title>ProjectEuler</title>
<g id="a_node15"><a xlink:href="https://github.com/weaversa/cryptol-course/tree/L4y3rC4k3/labs/ProjectEuler/ProjectEuler.md" xlink:title="Project Euler">
<path fill="white" stroke="black" stroke-width="2" d="M556.5,-115C556.5,-115 492.5,-115 492.5,-115 486.5,-115 480.5,-109 480.5,-103 480.5,-103 480.5,-91 480.5,-91 480.5,-85 486.5,-79 492.5,-79 492.5,-79 556.5,-79 556.5,-79 562.5,-79 568.5,-85 568.5,-91 568.5,-91 568.5,-103 568.5,-103 568.5,-109 562.5,-115 556.5,-115"/>
<text text-anchor="middle" x="524.5" y="-93.3" font-family="Times,serif" font-size="14.00">Project Euler</text>
</a>
</g>
</g>
<!-- CryptographicProperties&#45;&gt;ProjectEuler -->
<g id="edge14" class="edge">
<title>CryptographicProperties&#45;&gt;ProjectEuler</title>
<path fill="none" stroke="black" d="M420.64,-160.78C436.56,-149.71 457.19,-135.71 476,-124 477.93,-122.8 479.92,-121.59 481.93,-120.37"/>
<polygon fill="black" stroke="black" points="484.02,-123.21 490.85,-115.11 480.46,-117.18 484.02,-123.21"/>
</g>
<!-- Capstone -->
<g id="node9" class="node">
<title>Capstone</title>
<g id="a_node9"><a xlink:href="https://github.com/weaversa/cryptol-course/tree/L4y3rC4k3/labs/LoremIpsum/LoremIpsum.md" xlink:title="Capstone">
<path fill="white" stroke="black" stroke-width="2" d="M678,-308C678,-308 635,-308 635,-308 629,-308 623,-302 623,-296 623,-296 623,-284 623,-284 623,-278 629,-272 635,-272 635,-272 678,-272 678,-272 684,-272 690,-278 690,-284 690,-284 690,-296 690,-296 690,-302 684,-308 678,-308"/>
<text text-anchor="middle" x="656.5" y="-286.3" font-family="Times,serif" font-size="14.00">Capstone</text>
</a>
</g>
</g>
<!-- KeyWrapping&#45;&gt;Capstone -->
<g id="edge8" class="edge">
<title>KeyWrapping&#45;&gt;Capstone</title>
<path fill="none" stroke="red" d="M573.17,-272.9C586.21,-275.61 600.25,-278.52 612.98,-281.17"/>
<polygon fill="red" stroke="red" points="612.36,-284.61 622.86,-283.22 613.78,-277.76 612.36,-284.61"/>
</g>
<!-- ParameterizedModules -->
<g id="node16" class="node">
<title>ParameterizedModules</title>
<g id="a_node16"><a xlink:href="https://github.com/weaversa/cryptol-course/tree/L4y3rC4k3/labs/SimonSpeck/SimonSpeck.md" xlink:title="Parameterized\nModules">
<path fill="white" stroke="black" stroke-width="2" d="M692,-254C692,-254 621,-254 621,-254 615,-254 609,-248 609,-242 609,-242 609,-228 609,-228 609,-222 615,-216 621,-216 621,-216 692,-216 692,-216 698,-216 704,-222 704,-228 704,-228 704,-242 704,-242 704,-248 698,-254 692,-254"/>
<text text-anchor="middle" x="656.5" y="-238.8" font-family="Times,serif" font-size="14.00">Parameterized</text>
<text text-anchor="middle" x="656.5" y="-223.8" font-family="Times,serif" font-size="14.00">Modules</text>
</a>
</g>
</g>
<!-- KeyWrapping&#45;&gt;ParameterizedModules -->
<g id="edge15" class="edge">
<title>KeyWrapping&#45;&gt;ParameterizedModules</title>
<path fill="none" stroke="black" d="M573.17,-252.73C581.5,-250.94 590.25,-249.05 598.79,-247.21"/>
<polygon fill="black" stroke="black" points="599.67,-250.61 608.7,-245.08 598.19,-243.76 599.67,-250.61"/>
</g>
</g>
</svg>
