<?xml version="1.0" encoding="UTF-8" standalone="no"?>
<!DOCTYPE svg PUBLIC "-//W3C//DTD SVG 1.1//EN"
 "http://www.w3.org/Graphics/SVG/1.1/DTD/svg11.dtd">
<!-- Generated by graphviz version 2.44.1 (20200629.0846)
 -->
<!-- Pages: 1 -->
<svg width="593pt" height="76pt"
 viewBox="0.00 0.00 593.00 76.00" xmlns="http://www.w3.org/2000/svg" xmlns:xlink="http://www.w3.org/1999/xlink">
<g id="graph0" class="graph" transform="scale(1 1) rotate(0) translate(4 72)">
<polygon fill="white" stroke="transparent" points="-4,4 -4,-72 589,-72 589,4 -4,4"/>
<!-- CommonPropertiesforCiphers -->
<g id="node1" class="node">
<title>CommonPropertiesforCiphers</title>
<g id="a_node1"><a xlink:href="https://github.com/weaversa/cryptol-course/tree/L4y3rC4k3/labs/Transposition/CommonProperties.md" xlink:title="Common\nProperties\nfor\nCiphers">
<path fill="white" stroke="black" stroke-width="2" d="M59,-68C59,-68 12,-68 12,-68 6,-68 0,-62 0,-56 0,-56 0,-12 0,-12 0,-6 6,0 12,0 12,0 59,0 59,0 65,0 71,-6 71,-12 71,-12 71,-56 71,-56 71,-62 65,-68 59,-68"/>
<text text-anchor="middle" x="35.5" y="-52.8" font-family="Times,serif" font-size="14.00">Common</text>
<text text-anchor="middle" x="35.5" y="-37.8" font-family="Times,serif" font-size="14.00">Properties</text>
<text text-anchor="middle" x="35.5" y="-22.8" font-family="Times,serif" font-size="14.00">for</text>
<text text-anchor="middle" x="35.5" y="-7.8" font-family="Times,serif" font-size="14.00">Ciphers</text>
</a>
</g>
</g>
<!-- Transposition -->
<g id="node2" class="node">
<title>Transposition</title>
<g id="a_node2"><a xlink:href="https://github.com/weaversa/cryptol-course/tree/L4y3rC4k3/labs/Transposition/Transposition.md" xlink:title="Transposition">
<path fill="white" stroke="black" stroke-width="2" d="M186,-52C186,-52 119,-52 119,-52 113,-52 107,-46 107,-40 107,-40 107,-28 107,-28 107,-22 113,-16 119,-16 119,-16 186,-16 186,-16 192,-16 198,-22 198,-28 198,-28 198,-40 198,-40 198,-46 192,-52 186,-52"/>
<text text-anchor="middle" x="152.5" y="-30.3" font-family="Times,serif" font-size="14.00">Transposition</text>
</a>
</g>
</g>
<!-- CommonPropertiesforCiphers&#45;&gt;Transposition -->
<g id="edge1" class="edge">
<title>CommonPropertiesforCiphers&#45;&gt;Transposition</title>
<path fill="none" stroke="red" d="M71,-34C79.09,-34 87.9,-34 96.63,-34"/>
<polygon fill="red" stroke="red" points="96.79,-37.5 106.79,-34 96.79,-30.5 96.79,-37.5"/>
</g>
<!-- Esrever -->
<g id="node3" class="node">
<title>Esrever</title>
<g id="a_node3"><a xlink:href="https://github.com/weaversa/cryptol-course/tree/L4y3rC4k3/labs/Transposition/Esrever.md" xlink:title="Esrever">
<path fill="white" stroke="black" stroke-width="2" d="M280,-52C280,-52 246,-52 246,-52 240,-52 234,-46 234,-40 234,-40 234,-28 234,-28 234,-22 240,-16 246,-16 246,-16 280,-16 280,-16 286,-16 292,-22 292,-28 292,-28 292,-40 292,-40 292,-46 286,-52 280,-52"/>
<text text-anchor="middle" x="263" y="-30.3" font-family="Times,serif" font-size="14.00">Esrever</text>
</a>
</g>
</g>
<!-- Transposition&#45;&gt;Esrever -->
<g id="edge2" class="edge">
<title>Transposition&#45;&gt;Esrever</title>
<path fill="none" stroke="red" d="M198.26,-34C206.71,-34 215.49,-34 223.72,-34"/>
<polygon fill="red" stroke="red" points="223.8,-37.5 233.8,-34 223.8,-30.5 223.8,-37.5"/>
</g>
<!-- Scytale -->
<g id="node4" class="node">
<title>Scytale</title>
<g id="a_node4"><a xlink:href="https://github.com/weaversa/cryptol-course/tree/L4y3rC4k3/labs/Transposition/Scytale.md" xlink:title="Scytale">
<path fill="white" stroke="black" stroke-width="2" d="M372,-52C372,-52 340,-52 340,-52 334,-52 328,-46 328,-40 328,-40 328,-28 328,-28 328,-22 334,-16 340,-16 340,-16 372,-16 372,-16 378,-16 384,-22 384,-28 384,-28 384,-40 384,-40 384,-46 378,-52 372,-52"/>
<text text-anchor="middle" x="356" y="-30.3" font-family="Times,serif" font-size="14.00">Scytale</text>
</a>
</g>
</g>
<!-- Esrever&#45;&gt;Scytale -->
<g id="edge3" class="edge">
<title>Esrever&#45;&gt;Scytale</title>
<path fill="none" stroke="red" d="M292.29,-34C300.38,-34 309.32,-34 317.85,-34"/>
<polygon fill="red" stroke="red" points="317.97,-37.5 327.97,-34 317.97,-30.5 317.97,-37.5"/>
</g>
<!-- RailFence -->
<g id="node5" class="node">
<title>RailFence</title>
<g id="a_node5"><a xlink:href="https://github.com/weaversa/cryptol-course/tree/L4y3rC4k3/labs/Transposition/RailFence.md" xlink:title="Rail Fence">
<path fill="white" stroke="black" stroke-width="2" d="M483,-52C483,-52 432,-52 432,-52 426,-52 420,-46 420,-40 420,-40 420,-28 420,-28 420,-22 426,-16 432,-16 432,-16 483,-16 483,-16 489,-16 495,-22 495,-28 495,-28 495,-40 495,-40 495,-46 489,-52 483,-52"/>
<text text-anchor="middle" x="457.5" y="-30.3" font-family="Times,serif" font-size="14.00">Rail Fence</text>
</a>
</g>
</g>
<!-- Scytale&#45;&gt;RailFence -->
<g id="edge4" class="edge">
<title>Scytale&#45;&gt;RailFence</title>
<path fill="none" stroke="red" d="M384.19,-34C392.05,-34 400.86,-34 409.55,-34"/>
<polygon fill="red" stroke="red" points="409.64,-37.5 419.64,-34 409.64,-30.5 409.64,-37.5"/>
</g>
<!-- Route -->
<g id="node6" class="node">
<title>Route</title>
<g id="a_node6"><a xlink:href="https://github.com/weaversa/cryptol-course/tree/L4y3rC4k3/labs/Transposition/Route.md" xlink:title="Route">
<path fill="white" stroke="black" stroke-width="2" d="M573,-52C573,-52 543,-52 543,-52 537,-52 531,-46 531,-40 531,-40 531,-28 531,-28 531,-22 537,-16 543,-16 543,-16 573,-16 573,-16 579,-16 585,-22 585,-28 585,-28 585,-40 585,-40 585,-46 579,-52 573,-52"/>
<text text-anchor="middle" x="558" y="-30.3" font-family="Times,serif" font-size="14.00">Route</text>
</a>
</g>
</g>
<!-- RailFence&#45;&gt;Route -->
<g id="edge5" class="edge">
<title>RailFence&#45;&gt;Route</title>
<path fill="none" stroke="red" d="M495.18,-34C503.48,-34 512.3,-34 520.6,-34"/>
<polygon fill="red" stroke="red" points="520.75,-37.5 530.75,-34 520.75,-30.5 520.75,-37.5"/>
</g>
</g>
</svg>
