<?xml version="1.0" encoding="UTF-8" standalone="no"?>
<!DOCTYPE svg PUBLIC "-//W3C//DTD SVG 1.1//EN"
 "http://www.w3.org/Graphics/SVG/1.1/DTD/svg11.dtd">
<!-- Generated by graphviz version 2.40.1 (0)
 -->
<!-- Title: %3 Pages: 1 -->
<svg width="450pt" height="44pt"
 viewBox="0.00 0.00 450.00 44.00" xmlns="http://www.w3.org/2000/svg" xmlns:xlink="http://www.w3.org/1999/xlink">
<g id="graph0" class="graph" transform="scale(1 1) rotate(0) translate(4 40)">
<title>%3</title>
<!-- Caesar -->
<g id="node1" class="node">
<title>Caesar</title>
<g id="a_node1"><a xlink:href="../labs/Demos/Cryptol/Caesar.html" xlink:title="Caesar">
<path fill="#ffffff" stroke="#000000" stroke-width="2" d="M55,-36C55,-36 12,-36 12,-36 6,-36 0,-30 0,-24 0,-24 0,-12 0,-12 0,-6 6,0 12,0 12,0 55,0 55,0 61,0 67,-6 67,-12 67,-12 67,-24 67,-24 67,-30 61,-36 55,-36"/>
<text text-anchor="middle" x="33.5" y="-14.3" font-family="Times,serif" font-size="14.00" fill="#000000">Caesar</text>
</a>
</g>
</g>
<!-- OneTimePad -->
<g id="node2" class="node">
<title>OneTimePad</title>
<g id="a_node2"><a xlink:href="../labs/Demos/Cryptol/OneTimePad.html" xlink:title="One&#45;Time Pad">
<path fill="#ffffff" stroke="#000000" stroke-width="2" d="M207,-36C207,-36 115,-36 115,-36 109,-36 103,-30 103,-24 103,-24 103,-12 103,-12 103,-6 109,0 115,0 115,0 207,0 207,0 213,0 219,-6 219,-12 219,-12 219,-24 219,-24 219,-30 213,-36 207,-36"/>
<text text-anchor="middle" x="161" y="-14.3" font-family="Times,serif" font-size="14.00" fill="#000000">One&#45;Time Pad</text>
</a>
</g>
</g>
<!-- Caesar&#45;&gt;OneTimePad -->
<g id="edge1" class="edge">
<title>Caesar&#45;&gt;OneTimePad</title>
<path fill="none" stroke="#ff0000" d="M67.3329,-18C75.1807,-18 83.8107,-18 92.5591,-18"/>
<polygon fill="#ff0000" stroke="#ff0000" points="92.8437,-21.5001 102.8437,-18 92.8437,-14.5001 92.8437,-21.5001"/>
</g>
<!-- nQueens -->
<g id="node3" class="node">
<title>nQueens</title>
<g id="a_node3"><a xlink:href="../labs/Demos/Cryptol/NQueens.html" xlink:title="nQueens">
<path fill="#ffffff" stroke="#000000" stroke-width="2" d="M323,-36C323,-36 267,-36 267,-36 261,-36 255,-30 255,-24 255,-24 255,-12 255,-12 255,-6 261,0 267,0 267,0 323,0 323,0 329,0 335,-6 335,-12 335,-12 335,-24 335,-24 335,-30 329,-36 323,-36"/>
<text text-anchor="middle" x="295" y="-14.3" font-family="Times,serif" font-size="14.00" fill="#000000">nQueens</text>
</a>
</g>
</g>
<!-- OneTimePad&#45;&gt;nQueens -->
<g id="edge2" class="edge">
<title>OneTimePad&#45;&gt;nQueens</title>
<path fill="none" stroke="#ff0000" d="M219.3845,-18C227.8148,-18 236.4301,-18 244.6846,-18"/>
<polygon fill="#ff0000" stroke="#ff0000" points="244.9062,-21.5001 254.9062,-18 244.9062,-14.5001 244.9062,-21.5001"/>
</g>
<!-- Sudoku -->
<g id="node4" class="node">
<title>Sudoku</title>
<g id="a_node4"><a xlink:href="../labs/Demos/Cryptol/Sudoku.html" xlink:title="Sudoku">
<path fill="#ffffff" stroke="#000000" stroke-width="2" d="M430,-36C430,-36 383,-36 383,-36 377,-36 371,-30 371,-24 371,-24 371,-12 371,-12 371,-6 377,0 383,0 383,0 430,0 430,0 436,0 442,-6 442,-12 442,-12 442,-24 442,-24 442,-30 436,-36 430,-36"/>
<text text-anchor="middle" x="406.5" y="-14.3" font-family="Times,serif" font-size="14.00" fill="#000000">Sudoku</text>
</a>
</g>
</g>
<!-- nQueens&#45;&gt;Sudoku -->
<g id="edge3" class="edge">
<title>nQueens&#45;&gt;Sudoku</title>
<path fill="none" stroke="#ff0000" d="M335.2541,-18C343.5027,-18 352.2429,-18 360.6706,-18"/>
<polygon fill="#ff0000" stroke="#ff0000" points="360.7415,-21.5001 370.7414,-18 360.7414,-14.5001 360.7415,-21.5001"/>
</g>
</g>
</svg>
