<?xml version="1.0" encoding="UTF-8" standalone="no"?>
<!DOCTYPE svg PUBLIC "-//W3C//DTD SVG 1.1//EN"
 "http://www.w3.org/Graphics/SVG/1.1/DTD/svg11.dtd">
<!-- Generated by graphviz version 2.40.1 (0)
 -->
<!-- Title: %3 Pages: 1 -->
<svg width="689pt" height="76pt"
 viewBox="0.00 0.00 689.00 76.00" xmlns="http://www.w3.org/2000/svg" xmlns:xlink="http://www.w3.org/1999/xlink">
<g id="graph0" class="graph" transform="scale(1 1) rotate(0) translate(4 72)">
<title>%3</title>
<!-- CommonPropertiesforCiphers -->
<g id="node1" class="node">
<title>CommonPropertiesforCiphers</title>
<g id="a_node1"><a xlink:href="../labs/Transposition/CommonProperties.html" xlink:title="Common\nProperties\nfor\nCiphers">
<path fill="#ffffff" stroke="#000000" stroke-width="2" d="M80,-68C80,-68 12,-68 12,-68 6,-68 0,-62 0,-56 0,-56 0,-12 0,-12 0,-6 6,0 12,0 12,0 80,0 80,0 86,0 92,-6 92,-12 92,-12 92,-56 92,-56 92,-62 86,-68 80,-68"/>
<text text-anchor="middle" x="46" y="-52.8" font-family="Times,serif" font-size="14.00" fill="#000000">Common</text>
<text text-anchor="middle" x="46" y="-37.8" font-family="Times,serif" font-size="14.00" fill="#000000">Properties</text>
<text text-anchor="middle" x="46" y="-22.8" font-family="Times,serif" font-size="14.00" fill="#000000">for</text>
<text text-anchor="middle" x="46" y="-7.8" font-family="Times,serif" font-size="14.00" fill="#000000">Ciphers</text>
</a>
</g>
</g>
<!-- Transposition -->
<g id="node2" class="node">
<title>Transposition</title>
<g id="a_node2"><a xlink:href="../labs/Transposition/Transposition.html" xlink:title="Transposition">
<path fill="#ffffff" stroke="#000000" stroke-width="2" d="M231,-52C231,-52 140,-52 140,-52 134,-52 128,-46 128,-40 128,-40 128,-28 128,-28 128,-22 134,-16 140,-16 140,-16 231,-16 231,-16 237,-16 243,-22 243,-28 243,-28 243,-40 243,-40 243,-46 237,-52 231,-52"/>
<text text-anchor="middle" x="185.5" y="-30.3" font-family="Times,serif" font-size="14.00" fill="#000000">Transposition</text>
</a>
</g>
</g>
<!-- CommonPropertiesforCiphers&#45;&gt;Transposition -->
<g id="edge1" class="edge">
<title>CommonPropertiesforCiphers&#45;&gt;Transposition</title>
<path fill="none" stroke="#ff0000" d="M92.0641,-34C100.2781,-34 108.9893,-34 117.6611,-34"/>
<polygon fill="#ff0000" stroke="#ff0000" points="117.7909,-37.5001 127.7908,-34 117.7908,-30.5001 117.7909,-37.5001"/>
</g>
<!-- Esrever -->
<g id="node3" class="node">
<title>Esrever</title>
<g id="a_node3"><a xlink:href="../labs/Transposition/Esrever.html" xlink:title="Esrever">
<path fill="#ffffff" stroke="#000000" stroke-width="2" d="M340,-52C340,-52 291,-52 291,-52 285,-52 279,-46 279,-40 279,-40 279,-28 279,-28 279,-22 285,-16 291,-16 291,-16 340,-16 340,-16 346,-16 352,-22 352,-28 352,-28 352,-40 352,-40 352,-46 346,-52 340,-52"/>
<text text-anchor="middle" x="315.5" y="-30.3" font-family="Times,serif" font-size="14.00" fill="#000000">Esrever</text>
</a>
</g>
</g>
<!-- Transposition&#45;&gt;Esrever -->
<g id="edge2" class="edge">
<title>Transposition&#45;&gt;Esrever</title>
<path fill="none" stroke="#ff0000" d="M243.277,-34C251.7641,-34 260.4175,-34 268.6488,-34"/>
<polygon fill="#ff0000" stroke="#ff0000" points="268.8051,-37.5001 278.8051,-34 268.805,-30.5001 268.8051,-37.5001"/>
</g>
<!-- Scytale -->
<g id="node4" class="node">
<title>Scytale</title>
<g id="a_node4"><a xlink:href="../labs/Transposition/Scytale.html" xlink:title="Scytale">
<path fill="#ffffff" stroke="#000000" stroke-width="2" d="M446,-52C446,-52 400,-52 400,-52 394,-52 388,-46 388,-40 388,-40 388,-28 388,-28 388,-22 394,-16 400,-16 400,-16 446,-16 446,-16 452,-16 458,-22 458,-28 458,-28 458,-40 458,-40 458,-46 452,-52 446,-52"/>
<text text-anchor="middle" x="423" y="-30.3" font-family="Times,serif" font-size="14.00" fill="#000000">Scytale</text>
</a>
</g>
</g>
<!-- Esrever&#45;&gt;Scytale -->
<g id="edge3" class="edge">
<title>Esrever&#45;&gt;Scytale</title>
<path fill="none" stroke="#ff0000" d="M352.1947,-34C360.4107,-34 369.2199,-34 377.7373,-34"/>
<polygon fill="#ff0000" stroke="#ff0000" points="377.9225,-37.5001 387.9225,-34 377.9225,-30.5001 377.9225,-37.5001"/>
</g>
<!-- RailFence -->
<g id="node5" class="node">
<title>RailFence</title>
<g id="a_node5"><a xlink:href="../labs/Transposition/RailFence.html" xlink:title="Rail Fence">
<path fill="#ffffff" stroke="#000000" stroke-width="2" d="M574,-52C574,-52 506,-52 506,-52 500,-52 494,-46 494,-40 494,-40 494,-28 494,-28 494,-22 500,-16 506,-16 506,-16 574,-16 574,-16 580,-16 586,-22 586,-28 586,-28 586,-40 586,-40 586,-46 580,-52 574,-52"/>
<text text-anchor="middle" x="540" y="-30.3" font-family="Times,serif" font-size="14.00" fill="#000000">Rail Fence</text>
</a>
</g>
</g>
<!-- Scytale&#45;&gt;RailFence -->
<g id="edge4" class="edge">
<title>Scytale&#45;&gt;RailFence</title>
<path fill="none" stroke="#ff0000" d="M458.1039,-34C466.1349,-34 474.8702,-34 483.5455,-34"/>
<polygon fill="#ff0000" stroke="#ff0000" points="483.6561,-37.5001 493.6561,-34 483.6561,-30.5001 483.6561,-37.5001"/>
</g>
<!-- Route -->
<g id="node6" class="node">
<title>Route</title>
<g id="a_node6"><a xlink:href="../labs/Transposition/Route.html" xlink:title="Route">
<path fill="#ffffff" stroke="#000000" stroke-width="2" d="M669,-52C669,-52 634,-52 634,-52 628,-52 622,-46 622,-40 622,-40 622,-28 622,-28 622,-22 628,-16 634,-16 634,-16 669,-16 669,-16 675,-16 681,-22 681,-28 681,-28 681,-40 681,-40 681,-46 675,-52 669,-52"/>
<text text-anchor="middle" x="651.5" y="-30.3" font-family="Times,serif" font-size="14.00" fill="#000000">Route</text>
</a>
</g>
</g>
<!-- RailFence&#45;&gt;Route -->
<g id="edge5" class="edge">
<title>RailFence&#45;&gt;Route</title>
<path fill="none" stroke="#ff0000" d="M586.3174,-34C594.7314,-34 603.4406,-34 611.6482,-34"/>
<polygon fill="#ff0000" stroke="#ff0000" points="611.7162,-37.5001 621.7162,-34 611.7162,-30.5001 611.7162,-37.5001"/>
</g>
</g>
</svg>
