<?xml version="1.0" encoding="UTF-8" standalone="no"?>
<!DOCTYPE svg PUBLIC "-//W3C//DTD SVG 1.1//EN"
 "http://www.w3.org/Graphics/SVG/1.1/DTD/svg11.dtd">
<!-- Generated by graphviz version 2.40.1 (0)
 -->
<!-- Title: %3 Pages: 1 -->
<svg width="264pt" height="46pt"
 viewBox="0.00 0.00 264.00 46.00" xmlns="http://www.w3.org/2000/svg" xmlns:xlink="http://www.w3.org/1999/xlink">
<g id="graph0" class="graph" transform="scale(1 1) rotate(0) translate(4 42)">
<title>%3</title>
<!-- ArithmeticVerifications -->
<g id="node1" class="node">
<title>ArithmeticVerifications</title>
<g id="a_node1"><a xlink:href="../labs/Demos/SAW/ArithmeticVerifications/ArithmeticVerifications.md" xlink:title="Arithmetic\nVerifications">
<path fill="#ffffff" stroke="#000000" stroke-width="2" d="M95,-38C95,-38 12,-38 12,-38 6,-38 0,-32 0,-26 0,-26 0,-12 0,-12 0,-6 6,0 12,0 12,0 95,0 95,0 101,0 107,-6 107,-12 107,-12 107,-26 107,-26 107,-32 101,-38 95,-38"/>
<text text-anchor="middle" x="53.5" y="-22.8" font-family="Times,serif" font-size="14.00" fill="#000000">Arithmetic</text>
<text text-anchor="middle" x="53.5" y="-7.8" font-family="Times,serif" font-size="14.00" fill="#000000">Verifications</text>
</a>
</g>
</g>
<!-- BitTwiddling -->
<g id="node2" class="node">
<title>BitTwiddling</title>
<g id="a_node2"><a xlink:href="../labs/Demos/SAW/Bittwiddling/Bittwiddling.md" xlink:title="Bit Twiddling">
<path fill="#ffffff" stroke="#000000" stroke-width="2" d="M244,-37C244,-37 155,-37 155,-37 149,-37 143,-31 143,-25 143,-25 143,-13 143,-13 143,-7 149,-1 155,-1 155,-1 244,-1 244,-1 250,-1 256,-7 256,-13 256,-13 256,-25 256,-25 256,-31 250,-37 244,-37"/>
<text text-anchor="middle" x="199.5" y="-15.3" font-family="Times,serif" font-size="14.00" fill="#000000">Bit Twiddling</text>
</a>
</g>
</g>
<!-- ArithmeticVerifications&#45;&gt;BitTwiddling -->
<g id="edge1" class="edge">
<title>ArithmeticVerifications&#45;&gt;BitTwiddling</title>
<path fill="none" stroke="#ff0000" d="M107.036,-19C115.2519,-19 123.8227,-19 132.2889,-19"/>
<polygon fill="#ff0000" stroke="#ff0000" points="132.5332,-22.5001 142.5332,-19 132.5332,-15.5001 132.5332,-22.5001"/>
</g>
</g>
</svg>
